<svg xmlns="http://www.w3.org/2000/svg" xmlns:xlink="http://www.w3.org/1999/xlink" width="1920" zoomAndPan="magnify" viewBox="0 0 1440 809.999993" height="1080" preserveAspectRatio="xMidYMid meet" version="1.0"><defs><g/><clipPath id="86160d23af"><path d="M 376.636719 217.976562 L 836.992188 217.976562 L 836.992188 592.015625 L 376.636719 592.015625 Z M 376.636719 217.976562 " clip-rule="nonzero"/></clipPath><clipPath id="60376ce4e3"><path d="M 826.191406 467.269531 C 832.710938 448.09375 836.992188 426.292969 836.992188 404.894531 C 836.992188 383.5 833.324219 362.910156 826.800781 343.933594 C 826.597656 343.53125 826.597656 343.128906 826.394531 342.722656 C 800.308594 271.46875 731.429688 218.984375 650.933594 217.976562 L 376.636719 217.976562 L 376.636719 592.015625 L 650.730469 592.015625 C 731.835938 591.007812 800.71875 539.332031 826.191406 467.269531 Z M 826.191406 467.269531 " clip-rule="nonzero"/></clipPath><clipPath id="7d5b4c2204"><path d="M 973.121094 384.820312 L 1013.621094 384.820312 L 1013.621094 425.320312 L 973.121094 425.320312 Z M 973.121094 384.820312 " clip-rule="nonzero"/></clipPath><clipPath id="e317145e2e"><path d="M 203.242188 232.660156 L 243.742188 232.660156 L 243.742188 273.160156 L 203.242188 273.160156 Z M 203.242188 232.660156 " clip-rule="nonzero"/></clipPath><clipPath id="47eb383a14"><path d="M 203.242188 334.320312 L 243.742188 334.320312 L 243.742188 374.820312 L 203.242188 374.820312 Z M 203.242188 334.320312 " clip-rule="nonzero"/></clipPath><clipPath id="0cf5674ce8"><path d="M 203.242188 435.8125 L 243.742188 435.8125 L 243.742188 476.3125 L 203.242188 476.3125 Z M 203.242188 435.8125 " clip-rule="nonzero"/></clipPath><clipPath id="46d46b31c3"><path d="M 203.242188 536.984375 L 243.742188 536.984375 L 243.742188 577.484375 L 203.242188 577.484375 Z M 203.242188 536.984375 " clip-rule="nonzero"/></clipPath></defs><g clip-path="url(#86160d23af)"><g clip-path="url(#60376ce4e3)"><path stroke-linecap="butt" transform="matrix(0, -0.75, 0.75, 0, 376.636041, 592.016006)" fill="none" stroke-linejoin="miter" d="M 166.328642 599.407184 C 191.896351 608.099893 220.964061 613.808226 249.495313 613.808226 C 278.021356 613.808226 305.474482 608.917601 330.776567 600.219684 C 331.313025 599.948851 331.849483 599.948851 332.39115 599.678017 C 427.396363 564.896766 497.375533 473.058219 498.719283 365.730089 L 498.719283 0.000903834 L 0.000508289 0.000903834 L 0.000508289 365.459256 C 1.344258 473.599886 70.245303 565.443641 166.328642 599.407184 Z M 166.328642 599.407184 " stroke="#000000" stroke-width="60" stroke-opacity="1" stroke-miterlimit="4"/></g></g><g fill="#000000" fill-opacity="1"><g transform="translate(1014.360096, 433.290792)"><g><path d="M 32.953125 1.484375 C 27.316406 1.484375 22.351562 0.460938 18.0625 -1.578125 C 13.769531 -3.617188 10.40625 -6.539062 7.96875 -10.34375 C 5.539062 -14.15625 4.328125 -18.703125 4.328125 -23.984375 L 20.484375 -23.984375 C 20.484375 -20.390625 21.734375 -17.726562 24.234375 -16 C 26.734375 -14.28125 29.601562 -13.421875 32.84375 -13.421875 C 34.882812 -13.421875 36.800781 -13.753906 38.59375 -14.421875 C 40.394531 -15.085938 41.875 -16.070312 43.03125 -17.375 C 44.195312 -18.675781 44.78125 -20.242188 44.78125 -22.078125 C 44.78125 -23.972656 44.109375 -25.46875 42.765625 -26.5625 C 41.429688 -27.65625 39.640625 -28.550781 37.390625 -29.25 C 35.140625 -29.957031 32.675781 -30.628906 30 -31.265625 C 27.25 -31.898438 24.429688 -32.675781 21.546875 -33.59375 C 18.660156 -34.507812 15.984375 -35.722656 13.515625 -37.234375 C 11.054688 -38.742188 9.085938 -40.785156 7.609375 -43.359375 C 6.128906 -45.929688 5.390625 -49.1875 5.390625 -53.125 C 5.390625 -60.238281 7.800781 -65.710938 12.625 -69.546875 C 17.445312 -73.390625 23.976562 -75.3125 32.21875 -75.3125 C 40.664062 -75.3125 47.210938 -73.179688 51.859375 -68.921875 C 56.503906 -64.660156 58.828125 -58.867188 58.828125 -51.546875 L 42.984375 -51.546875 C 42.984375 -54.710938 41.859375 -57.050781 39.609375 -58.5625 C 37.359375 -60.082031 34.753906 -60.84375 31.796875 -60.84375 C 29.191406 -60.84375 26.796875 -60.273438 24.609375 -59.140625 C 22.429688 -58.015625 21.34375 -56.257812 21.34375 -53.875 C 21.34375 -52.113281 21.992188 -50.722656 23.296875 -49.703125 C 24.597656 -48.679688 26.320312 -47.832031 28.46875 -47.15625 C 30.613281 -46.488281 32.988281 -45.835938 35.59375 -45.203125 C 38.414062 -44.503906 41.300781 -43.675781 44.25 -42.71875 C 47.207031 -41.769531 49.953125 -40.484375 52.484375 -38.859375 C 55.023438 -37.242188 57.085938 -35.097656 58.671875 -32.421875 C 60.253906 -29.742188 61.046875 -26.363281 61.046875 -22.28125 C 61.046875 -16.9375 59.757812 -12.503906 57.1875 -8.984375 C 54.625 -5.460938 51.226562 -2.835938 47 -1.109375 C 42.78125 0.617188 38.097656 1.484375 32.953125 1.484375 Z M 32.953125 1.484375 "/></g></g><g transform="translate(1079.73805, 433.290792)"><g><path d="M 53.96875 -57.140625 L 65.484375 -57.140625 L 65.484375 -0.109375 L 53.34375 -0.109375 L 52.078125 -5.171875 C 49.609375 -3.054688 46.804688 -1.398438 43.671875 -0.203125 C 40.535156 0.984375 37.175781 1.578125 33.59375 1.578125 C 27.882812 1.578125 22.773438 0.257812 18.265625 -2.375 C 13.765625 -5.019531 10.210938 -8.613281 7.609375 -13.15625 C 5.003906 -17.695312 3.703125 -22.851562 3.703125 -28.625 C 3.703125 -34.332031 5.003906 -39.457031 7.609375 -44 C 10.210938 -48.539062 13.765625 -52.113281 18.265625 -54.71875 C 22.773438 -57.320312 27.882812 -58.625 33.59375 -58.625 C 37.25 -58.625 40.660156 -58.003906 43.828125 -56.765625 C 47.003906 -55.535156 49.820312 -53.832031 52.28125 -51.65625 Z M 34.859375 -12.984375 C 37.816406 -12.984375 40.472656 -13.648438 42.828125 -14.984375 C 45.191406 -16.328125 47.039062 -18.175781 48.375 -20.53125 C 49.71875 -22.894531 50.390625 -25.59375 50.390625 -28.625 C 50.390625 -31.582031 49.71875 -34.238281 48.375 -36.59375 C 47.039062 -38.957031 45.191406 -40.820312 42.828125 -42.1875 C 40.472656 -43.5625 37.816406 -44.25 34.859375 -44.25 C 31.828125 -44.25 29.148438 -43.5625 26.828125 -42.1875 C 24.503906 -40.820312 22.671875 -38.957031 21.328125 -36.59375 C 19.992188 -34.238281 19.328125 -31.582031 19.328125 -28.625 C 19.328125 -25.59375 19.992188 -22.914062 21.328125 -20.59375 C 22.671875 -18.269531 24.503906 -16.421875 26.828125 -15.046875 C 29.148438 -13.671875 31.828125 -12.984375 34.859375 -12.984375 Z M 34.859375 -12.984375 "/></g></g><g transform="translate(1152.614928, 433.290792)"><g><path d="M 7.390625 0 L 7.390625 -77.640625 L 22.8125 -77.640625 L 22.8125 0 Z M 7.390625 0 "/></g></g></g><g fill="#000000" fill-opacity="1"><g transform="translate(1182.821851, 433.290792)"><g><path d="M 7.390625 -64.640625 L 7.390625 -79 L 22.8125 -79 L 22.8125 -64.640625 Z M 7.390625 0 L 7.390625 -57.03125 L 22.8125 -57.03125 L 22.8125 0 Z M 7.390625 0 "/></g></g></g><g fill="#000000" fill-opacity="1"><g transform="translate(1213.028773, 433.290792)"><g><path d="M 49.328125 -77.640625 L 64.75 -77.640625 L 64.75 0 L 53.34375 0 L 51.546875 -4.75 C 49.148438 -2.707031 46.4375 -1.125 43.40625 0 C 40.382812 1.125 37.144531 1.6875 33.6875 1.6875 C 27.914062 1.6875 22.757812 0.367188 18.21875 -2.265625 C 13.675781 -4.910156 10.117188 -8.503906 7.546875 -13.046875 C 4.984375 -17.585938 3.703125 -22.742188 3.703125 -28.515625 C 3.703125 -34.296875 4.984375 -39.457031 7.546875 -44 C 10.117188 -48.539062 13.675781 -52.113281 18.21875 -54.71875 C 22.757812 -57.320312 27.914062 -58.625 33.6875 -58.625 C 36.582031 -58.625 39.347656 -58.21875 41.984375 -57.40625 C 44.628906 -56.59375 47.078125 -55.445312 49.328125 -53.96875 Z M 34.859375 -12.890625 C 37.878906 -12.890625 40.550781 -13.570312 42.875 -14.9375 C 45.207031 -16.3125 47.054688 -18.175781 48.421875 -20.53125 C 49.796875 -22.894531 50.484375 -25.554688 50.484375 -28.515625 C 50.484375 -31.472656 49.796875 -34.128906 48.421875 -36.484375 C 47.054688 -38.847656 45.207031 -40.71875 42.875 -42.09375 C 40.550781 -43.46875 37.878906 -44.15625 34.859375 -44.15625 C 31.898438 -44.15625 29.257812 -43.46875 26.9375 -42.09375 C 24.613281 -40.71875 22.765625 -38.847656 21.390625 -36.484375 C 20.015625 -34.128906 19.328125 -31.472656 19.328125 -28.515625 C 19.328125 -25.554688 20.015625 -22.894531 21.390625 -20.53125 C 22.765625 -18.175781 24.613281 -16.3125 26.9375 -14.9375 C 29.257812 -13.570312 31.898438 -12.890625 34.859375 -12.890625 Z M 34.859375 -12.890625 "/></g></g><g transform="translate(1285.166321, 433.290792)"><g><path d="M 53.96875 -57.140625 L 65.484375 -57.140625 L 65.484375 -0.109375 L 53.34375 -0.109375 L 52.078125 -5.171875 C 49.609375 -3.054688 46.804688 -1.398438 43.671875 -0.203125 C 40.535156 0.984375 37.175781 1.578125 33.59375 1.578125 C 27.882812 1.578125 22.773438 0.257812 18.265625 -2.375 C 13.765625 -5.019531 10.210938 -8.613281 7.609375 -13.15625 C 5.003906 -17.695312 3.703125 -22.851562 3.703125 -28.625 C 3.703125 -34.332031 5.003906 -39.457031 7.609375 -44 C 10.210938 -48.539062 13.765625 -52.113281 18.265625 -54.71875 C 22.773438 -57.320312 27.882812 -58.625 33.59375 -58.625 C 37.25 -58.625 40.660156 -58.003906 43.828125 -56.765625 C 47.003906 -55.535156 49.820312 -53.832031 52.28125 -51.65625 Z M 34.859375 -12.984375 C 37.816406 -12.984375 40.472656 -13.648438 42.828125 -14.984375 C 45.191406 -16.328125 47.039062 -18.175781 48.375 -20.53125 C 49.71875 -22.894531 50.390625 -25.59375 50.390625 -28.625 C 50.390625 -31.582031 49.71875 -34.238281 48.375 -36.59375 C 47.039062 -38.957031 45.191406 -40.820312 42.828125 -42.1875 C 40.472656 -43.5625 37.816406 -44.25 34.859375 -44.25 C 31.828125 -44.25 29.148438 -43.5625 26.828125 -42.1875 C 24.503906 -40.820312 22.671875 -38.957031 21.328125 -36.59375 C 19.992188 -34.238281 19.328125 -31.582031 19.328125 -28.625 C 19.328125 -25.59375 19.992188 -22.914062 21.328125 -20.59375 C 22.671875 -18.269531 24.503906 -16.421875 26.828125 -15.046875 C 29.148438 -13.671875 31.828125 -12.984375 34.859375 -12.984375 Z M 34.859375 -12.984375 "/></g></g></g><path stroke-linecap="butt" transform="matrix(0.75, 0.000000000000000375, -0.000000000000000375, 0.75, 834.565572, 392.25)" fill="none" stroke-linejoin="miter" d="M 0.00111202 17.000001 L 227.521957 17.000001 " stroke="#000000" stroke-width="34" stroke-opacity="1" stroke-miterlimit="4"/><g clip-path="url(#7d5b4c2204)"><path fill="#000000" d="M 1013.621094 405.074219 C 1013.621094 405.738281 1013.589844 406.398438 1013.523438 407.058594 C 1013.460938 407.71875 1013.363281 408.375 1013.234375 409.027344 C 1013.105469 409.675781 1012.941406 410.320312 1012.75 410.953125 C 1012.558594 411.589844 1012.335938 412.210938 1012.082031 412.824219 C 1011.828125 413.4375 1011.542969 414.035156 1011.230469 414.621094 C 1010.917969 415.207031 1010.578125 415.773438 1010.210938 416.328125 C 1009.839844 416.878906 1009.445312 417.410156 1009.027344 417.921875 C 1008.605469 418.433594 1008.160156 418.925781 1007.691406 419.394531 C 1007.222656 419.863281 1006.730469 420.308594 1006.21875 420.730469 C 1005.707031 421.152344 1005.171875 421.546875 1004.621094 421.914062 C 1004.070312 422.28125 1003.503906 422.625 1002.917969 422.9375 C 1002.332031 423.25 1001.734375 423.53125 1001.121094 423.785156 C 1000.507812 424.039062 999.882812 424.261719 999.25 424.457031 C 998.613281 424.648438 997.972656 424.808594 997.320312 424.9375 C 996.671875 425.066406 996.015625 425.164062 995.355469 425.230469 C 994.695312 425.292969 994.035156 425.328125 993.371094 425.328125 C 992.707031 425.328125 992.046875 425.292969 991.386719 425.230469 C 990.726562 425.164062 990.070312 425.066406 989.417969 424.9375 C 988.769531 424.808594 988.125 424.648438 987.492188 424.457031 C 986.855469 424.261719 986.234375 424.039062 985.621094 423.785156 C 985.007812 423.53125 984.410156 423.25 983.824219 422.9375 C 983.238281 422.625 982.671875 422.28125 982.117188 421.914062 C 981.566406 421.546875 981.035156 421.152344 980.523438 420.730469 C 980.007812 420.308594 979.519531 419.863281 979.050781 419.394531 C 978.582031 418.925781 978.136719 418.433594 977.714844 417.921875 C 977.292969 417.410156 976.898438 416.878906 976.53125 416.328125 C 976.164062 415.773438 975.820312 415.207031 975.507812 414.621094 C 975.195312 414.035156 974.914062 413.4375 974.660156 412.824219 C 974.40625 412.210938 974.183594 411.589844 973.988281 410.953125 C 973.796875 410.320312 973.636719 409.675781 973.507812 409.027344 C 973.378906 408.375 973.28125 407.71875 973.214844 407.058594 C 973.148438 406.398438 973.117188 405.738281 973.117188 405.074219 C 973.117188 404.410156 973.148438 403.75 973.214844 403.089844 C 973.28125 402.429688 973.378906 401.773438 973.507812 401.125 C 973.636719 400.472656 973.796875 399.832031 973.988281 399.195312 C 974.183594 398.5625 974.40625 397.9375 974.660156 397.324219 C 974.914062 396.710938 975.195312 396.113281 975.507812 395.527344 C 975.820312 394.941406 976.164062 394.375 976.53125 393.824219 C 976.898438 393.273438 977.292969 392.738281 977.714844 392.226562 C 978.136719 391.714844 978.582031 391.222656 979.050781 390.753906 C 979.519531 390.285156 980.007812 389.839844 980.523438 389.417969 C 981.035156 389 981.566406 388.605469 982.117188 388.234375 C 982.671875 387.867188 983.238281 387.527344 983.824219 387.214844 C 984.410156 386.902344 985.007812 386.617188 985.621094 386.363281 C 986.234375 386.109375 986.855469 385.886719 987.492188 385.695312 C 988.125 385.5 988.769531 385.339844 989.417969 385.210938 C 990.070312 385.082031 990.726562 384.984375 991.386719 384.917969 C 992.046875 384.855469 992.707031 384.820312 993.371094 384.820312 C 994.035156 384.820312 994.695312 384.855469 995.355469 384.917969 C 996.015625 384.984375 996.671875 385.082031 997.320312 385.210938 C 997.972656 385.339844 998.613281 385.5 999.25 385.695312 C 999.882812 385.886719 1000.507812 386.109375 1001.121094 386.363281 C 1001.734375 386.617188 1002.332031 386.902344 1002.917969 387.214844 C 1003.503906 387.527344 1004.070312 387.867188 1004.621094 388.234375 C 1005.171875 388.605469 1005.707031 389 1006.21875 389.417969 C 1006.730469 389.839844 1007.222656 390.285156 1007.691406 390.753906 C 1008.160156 391.222656 1008.605469 391.714844 1009.027344 392.226562 C 1009.445312 392.738281 1009.839844 393.273438 1010.210938 393.824219 C 1010.578125 394.375 1010.917969 394.941406 1011.230469 395.527344 C 1011.542969 396.113281 1011.828125 396.710938 1012.082031 397.324219 C 1012.335938 397.9375 1012.558594 398.5625 1012.75 399.195312 C 1012.941406 399.832031 1013.105469 400.472656 1013.234375 401.125 C 1013.363281 401.773438 1013.460938 402.429688 1013.523438 403.089844 C 1013.589844 403.75 1013.621094 404.410156 1013.621094 405.074219 Z M 1013.621094 405.074219 " fill-opacity="1" fill-rule="nonzero"/></g><g fill="#000000" fill-opacity="1"><g transform="translate(93.585939, 281.711725)"><g><path d="M 24.5 -14.890625 L 53.96875 -14.890625 L 53.96875 0 L 8.453125 0 L 8.453125 -73.921875 L 52.8125 -73.921875 L 52.8125 -59.140625 L 24.5 -59.140625 L 24.5 -44.5625 L 50.0625 -44.5625 L 50.0625 -30.09375 L 24.5 -30.09375 Z M 24.5 -14.890625 "/></g></g></g><g fill="#000000" fill-opacity="1"><g transform="translate(152.621531, 281.711725)"><g><path d="M 3.59375 -70.234375 L 29.359375 -70.234375 L 29.359375 0 L 14.578125 0 L 14.578125 -57.03125 L 3.59375 -57.03125 Z M 3.59375 -70.234375 "/></g></g></g><g fill="#000000" fill-opacity="1"><g transform="translate(83.660158, 383.148282)"><g><path d="M 24.5 -14.890625 L 53.96875 -14.890625 L 53.96875 0 L 8.453125 0 L 8.453125 -73.921875 L 52.8125 -73.921875 L 52.8125 -59.140625 L 24.5 -59.140625 L 24.5 -44.5625 L 50.0625 -44.5625 L 50.0625 -30.09375 L 24.5 -30.09375 Z M 24.5 -14.890625 "/></g></g></g><g fill="#000000" fill-opacity="1"><g transform="translate(142.695751, 383.148282)"><g><path d="M 31.265625 -14.15625 L 52.703125 -14.15625 L 52.703125 0 L 3.484375 0 L 3.484375 -3.28125 C 9.253906 -9.96875 14.09375 -15.632812 18 -20.28125 C 21.914062 -24.925781 25.066406 -28.796875 27.453125 -31.890625 C 29.847656 -34.992188 31.675781 -37.582031 32.9375 -39.65625 C 34.207031 -41.726562 35.054688 -43.519531 35.484375 -45.03125 C 35.910156 -46.550781 36.125 -48.015625 36.125 -49.421875 C 36.125 -51.890625 35.382812 -53.863281 33.90625 -55.34375 C 32.425781 -56.820312 30.488281 -57.5625 28.09375 -57.5625 C 25.625 -57.5625 23.632812 -56.800781 22.125 -55.28125 C 20.613281 -53.769531 19.859375 -51.75 19.859375 -49.21875 L 19.859375 -47.953125 L 4.75 -47.953125 L 4.75 -49.421875 C 4.75 -53.722656 5.695312 -57.546875 7.59375 -60.890625 C 9.5 -64.234375 12.175781 -66.867188 15.625 -68.796875 C 19.082031 -70.734375 23.164062 -71.703125 27.875 -71.703125 C 32.457031 -71.703125 36.507812 -70.75 40.03125 -68.84375 C 43.550781 -66.945312 46.3125 -64.34375 48.3125 -61.03125 C 50.320312 -57.726562 51.328125 -53.929688 51.328125 -49.640625 C 51.328125 -47.453125 51.046875 -45.265625 50.484375 -43.078125 C 49.921875 -40.898438 48.914062 -38.472656 47.46875 -35.796875 C 46.03125 -33.117188 43.988281 -30.035156 41.34375 -26.546875 C 38.707031 -23.066406 35.347656 -18.9375 31.265625 -14.15625 Z M 31.265625 -14.15625 "/></g></g></g><path stroke-linecap="butt" transform="matrix(0.75, 0.00000000000000075, -0.00000000000000075, 0.75, 208.535753, 240.086727)" fill="none" stroke-linejoin="miter" d="M -0.000796108 16.998948 L 227.525257 16.998948 " stroke="#000000" stroke-width="34" stroke-opacity="1" stroke-miterlimit="4"/><g clip-path="url(#e317145e2e)"><path fill="#000000" d="M 243.746094 252.910156 C 243.746094 253.574219 243.710938 254.238281 243.648438 254.898438 C 243.582031 255.558594 243.484375 256.210938 243.355469 256.863281 C 243.226562 257.511719 243.066406 258.15625 242.875 258.789062 C 242.679688 259.425781 242.457031 260.050781 242.203125 260.660156 C 241.949219 261.273438 241.667969 261.875 241.355469 262.457031 C 241.042969 263.042969 240.699219 263.613281 240.332031 264.164062 C 239.964844 264.714844 239.570312 265.246094 239.148438 265.757812 C 238.726562 266.273438 238.28125 266.761719 237.8125 267.230469 C 237.34375 267.703125 236.851562 268.144531 236.339844 268.566406 C 235.828125 268.988281 235.296875 269.382812 234.746094 269.75 C 234.191406 270.121094 233.625 270.460938 233.039062 270.773438 C 232.453125 271.085938 231.855469 271.367188 231.242188 271.621094 C 230.628906 271.875 230.007812 272.097656 229.371094 272.292969 C 228.738281 272.484375 228.09375 272.644531 227.445312 272.773438 C 226.792969 272.902344 226.136719 273 225.476562 273.066406 C 224.816406 273.132812 224.15625 273.164062 223.492188 273.164062 C 222.828125 273.164062 222.167969 273.132812 221.507812 273.066406 C 220.847656 273 220.191406 272.902344 219.542969 272.773438 C 218.890625 272.644531 218.25 272.484375 217.613281 272.292969 C 216.980469 272.097656 216.355469 271.875 215.742188 271.621094 C 215.128906 271.367188 214.53125 271.085938 213.945312 270.773438 C 213.359375 270.460938 212.792969 270.121094 212.242188 269.75 C 211.6875 269.382812 211.15625 268.988281 210.644531 268.566406 C 210.132812 268.144531 209.640625 267.703125 209.171875 267.230469 C 208.703125 266.761719 208.257812 266.273438 207.835938 265.757812 C 207.417969 265.246094 207.023438 264.714844 206.652344 264.164062 C 206.285156 263.613281 205.945312 263.042969 205.632812 262.457031 C 205.320312 261.875 205.035156 261.273438 204.78125 260.660156 C 204.527344 260.050781 204.304688 259.425781 204.113281 258.789062 C 203.917969 258.15625 203.757812 257.511719 203.628906 256.863281 C 203.5 256.210938 203.402344 255.558594 203.335938 254.898438 C 203.273438 254.238281 203.238281 253.574219 203.238281 252.910156 C 203.238281 252.25 203.273438 251.585938 203.335938 250.925781 C 203.402344 250.265625 203.5 249.609375 203.628906 248.960938 C 203.757812 248.308594 203.917969 247.667969 204.113281 247.03125 C 204.304688 246.398438 204.527344 245.773438 204.78125 245.160156 C 205.035156 244.546875 205.320312 243.949219 205.632812 243.363281 C 205.945312 242.78125 206.285156 242.210938 206.652344 241.660156 C 207.023438 241.109375 207.417969 240.574219 207.835938 240.0625 C 208.257812 239.550781 208.703125 239.058594 209.171875 238.589844 C 209.640625 238.121094 210.132812 237.675781 210.644531 237.257812 C 211.15625 236.835938 211.6875 236.441406 212.242188 236.070312 C 212.792969 235.703125 213.359375 235.363281 213.945312 235.050781 C 214.53125 234.738281 215.128906 234.453125 215.742188 234.199219 C 216.355469 233.945312 216.980469 233.722656 217.613281 233.53125 C 218.25 233.339844 218.890625 233.175781 219.542969 233.046875 C 220.191406 232.917969 220.847656 232.820312 221.507812 232.757812 C 222.167969 232.691406 222.828125 232.660156 223.492188 232.660156 C 224.15625 232.660156 224.816406 232.691406 225.476562 232.757812 C 226.136719 232.820312 226.792969 232.917969 227.445312 233.046875 C 228.09375 233.175781 228.738281 233.339844 229.371094 233.53125 C 230.007812 233.722656 230.628906 233.945312 231.242188 234.199219 C 231.855469 234.453125 232.453125 234.738281 233.039062 235.050781 C 233.625 235.363281 234.191406 235.703125 234.746094 236.070312 C 235.296875 236.441406 235.828125 236.835938 236.339844 237.257812 C 236.851562 237.675781 237.34375 238.121094 237.8125 238.589844 C 238.28125 239.058594 238.726562 239.550781 239.148438 240.0625 C 239.570312 240.574219 239.964844 241.109375 240.332031 241.660156 C 240.699219 242.210938 241.042969 242.78125 241.355469 243.363281 C 241.667969 243.949219 241.949219 244.546875 242.203125 245.160156 C 242.457031 245.773438 242.679688 246.398438 242.875 247.03125 C 243.066406 247.667969 243.226562 248.308594 243.355469 248.960938 C 243.484375 249.609375 243.582031 250.265625 243.648438 250.925781 C 243.710938 251.585938 243.746094 252.25 243.746094 252.910156 Z M 243.746094 252.910156 " fill-opacity="1" fill-rule="nonzero"/></g><path stroke-linecap="butt" transform="matrix(0.75, 0.00000000000000075, -0.00000000000000075, 0.75, 208.535753, 341.750158)" fill="none" stroke-linejoin="miter" d="M -0.000796108 16.99979 L 227.525257 16.99979 " stroke="#000000" stroke-width="34" stroke-opacity="1" stroke-miterlimit="4"/><g clip-path="url(#47eb383a14)"><path fill="#000000" d="M 243.746094 354.574219 C 243.746094 355.238281 243.710938 355.898438 243.648438 356.558594 C 243.582031 357.21875 243.484375 357.875 243.355469 358.527344 C 243.226562 359.175781 243.066406 359.820312 242.875 360.453125 C 242.679688 361.089844 242.457031 361.710938 242.203125 362.324219 C 241.949219 362.9375 241.667969 363.535156 241.355469 364.121094 C 241.042969 364.707031 240.699219 365.273438 240.332031 365.828125 C 239.964844 366.378906 239.570312 366.910156 239.148438 367.421875 C 238.726562 367.933594 238.28125 368.425781 237.8125 368.894531 C 237.34375 369.363281 236.851562 369.808594 236.339844 370.230469 C 235.828125 370.652344 235.296875 371.046875 234.746094 371.414062 C 234.191406 371.78125 233.625 372.125 233.039062 372.4375 C 232.453125 372.75 231.855469 373.03125 231.242188 373.285156 C 230.628906 373.539062 230.007812 373.761719 229.371094 373.957031 C 228.738281 374.148438 228.09375 374.308594 227.445312 374.4375 C 226.792969 374.566406 226.136719 374.664062 225.476562 374.730469 C 224.816406 374.792969 224.15625 374.828125 223.492188 374.828125 C 222.828125 374.828125 222.167969 374.792969 221.507812 374.730469 C 220.847656 374.664062 220.191406 374.566406 219.542969 374.4375 C 218.890625 374.308594 218.25 374.148438 217.613281 373.957031 C 216.980469 373.761719 216.355469 373.539062 215.742188 373.285156 C 215.128906 373.03125 214.53125 372.75 213.945312 372.4375 C 213.359375 372.125 212.792969 371.78125 212.242188 371.414062 C 211.6875 371.046875 211.15625 370.652344 210.644531 370.230469 C 210.132812 369.808594 209.640625 369.363281 209.171875 368.894531 C 208.703125 368.425781 208.257812 367.933594 207.835938 367.421875 C 207.417969 366.910156 207.023438 366.378906 206.652344 365.828125 C 206.285156 365.273438 205.945312 364.707031 205.632812 364.121094 C 205.320312 363.535156 205.035156 362.9375 204.78125 362.324219 C 204.527344 361.710938 204.304688 361.089844 204.113281 360.453125 C 203.917969 359.820312 203.757812 359.175781 203.628906 358.527344 C 203.5 357.875 203.402344 357.21875 203.335938 356.558594 C 203.273438 355.898438 203.238281 355.238281 203.238281 354.574219 C 203.238281 353.910156 203.273438 353.25 203.335938 352.589844 C 203.402344 351.929688 203.5 351.273438 203.628906 350.625 C 203.757812 349.972656 203.917969 349.332031 204.113281 348.695312 C 204.304688 348.0625 204.527344 347.4375 204.78125 346.824219 C 205.035156 346.210938 205.320312 345.613281 205.632812 345.027344 C 205.945312 344.441406 206.285156 343.875 206.652344 343.324219 C 207.023438 342.769531 207.417969 342.238281 207.835938 341.726562 C 208.257812 341.214844 208.703125 340.722656 209.171875 340.253906 C 209.640625 339.785156 210.132812 339.339844 210.644531 338.917969 C 211.15625 338.5 211.6875 338.105469 212.242188 337.734375 C 212.792969 337.367188 213.359375 337.027344 213.945312 336.714844 C 214.53125 336.402344 215.128906 336.117188 215.742188 335.863281 C 216.355469 335.609375 216.980469 335.386719 217.613281 335.195312 C 218.25 335 218.890625 334.839844 219.542969 334.710938 C 220.191406 334.582031 220.847656 334.484375 221.507812 334.417969 C 222.167969 334.355469 222.828125 334.320312 223.492188 334.320312 C 224.15625 334.320312 224.816406 334.355469 225.476562 334.417969 C 226.136719 334.484375 226.792969 334.582031 227.445312 334.710938 C 228.09375 334.839844 228.738281 335 229.371094 335.195312 C 230.007812 335.386719 230.628906 335.609375 231.242188 335.863281 C 231.855469 336.117188 232.453125 336.402344 233.039062 336.714844 C 233.625 337.027344 234.191406 337.367188 234.746094 337.734375 C 235.296875 338.105469 235.828125 338.5 236.339844 338.917969 C 236.851562 339.339844 237.34375 339.785156 237.8125 340.253906 C 238.28125 340.722656 238.726562 341.214844 239.148438 341.726562 C 239.570312 342.238281 239.964844 342.769531 240.332031 343.324219 C 240.699219 343.875 241.042969 344.441406 241.355469 345.027344 C 241.667969 345.613281 241.949219 346.210938 242.203125 346.824219 C 242.457031 347.4375 242.679688 348.0625 242.875 348.695312 C 243.066406 349.332031 243.226562 349.972656 243.355469 350.625 C 243.484375 351.273438 243.582031 351.929688 243.648438 352.589844 C 243.710938 353.25 243.746094 353.910156 243.746094 354.574219 Z M 243.746094 354.574219 " fill-opacity="1" fill-rule="nonzero"/></g><g fill="#000000" fill-opacity="1"><g transform="translate(83.496096, 484.866089)"><g><path d="M 24.5 -14.890625 L 53.96875 -14.890625 L 53.96875 0 L 8.453125 0 L 8.453125 -73.921875 L 52.8125 -73.921875 L 52.8125 -59.140625 L 24.5 -59.140625 L 24.5 -44.5625 L 50.0625 -44.5625 L 50.0625 -30.09375 L 24.5 -30.09375 Z M 24.5 -14.890625 "/></g></g></g><g fill="#000000" fill-opacity="1"><g transform="translate(142.531688, 484.866089)"><g><path d="M 36.328125 -44.25 C 41.535156 -43.125 45.707031 -40.609375 48.84375 -36.703125 C 51.976562 -32.796875 53.546875 -28.0625 53.546875 -22.5 C 53.546875 -17.914062 52.453125 -13.828125 50.265625 -10.234375 C 48.085938 -6.648438 45.128906 -3.835938 41.390625 -1.796875 C 37.660156 0.242188 33.40625 1.265625 28.625 1.265625 C 23.976562 1.265625 19.859375 0.28125 16.265625 -1.6875 C 12.671875 -3.65625 9.832031 -6.398438 7.75 -9.921875 C 5.675781 -13.441406 4.535156 -17.523438 4.328125 -22.171875 L 19.4375 -22.171875 C 19.570312 -19.359375 20.46875 -17.085938 22.125 -15.359375 C 23.78125 -13.640625 25.945312 -12.78125 28.625 -12.78125 C 31.4375 -12.78125 33.757812 -13.726562 35.59375 -15.625 C 37.425781 -17.53125 38.34375 -19.992188 38.34375 -23.015625 C 38.34375 -26.046875 37.351562 -28.421875 35.375 -30.140625 C 33.40625 -31.867188 30.800781 -32.734375 27.5625 -32.734375 L 17.421875 -32.734375 L 17.421875 -35.59375 L 30.203125 -56.71875 L 6.015625 -56.71875 L 6.015625 -70.234375 L 50.90625 -70.234375 L 50.90625 -67.375 Z M 36.328125 -44.25 "/></g></g></g><path stroke-linecap="butt" transform="matrix(0.75, 0.00000000000000075, -0.00000000000000075, 0.75, 208.535753, 443.241094)" fill="none" stroke-linejoin="miter" d="M -0.000796108 17.001459 L 227.525257 17.001459 " stroke="#000000" stroke-width="34" stroke-opacity="1" stroke-miterlimit="4"/><g clip-path="url(#0cf5674ce8)"><path fill="#000000" d="M 243.746094 456.066406 C 243.746094 456.730469 243.710938 457.390625 243.648438 458.050781 C 243.582031 458.710938 243.484375 459.367188 243.355469 460.015625 C 243.226562 460.667969 243.066406 461.308594 242.875 461.945312 C 242.679688 462.578125 242.457031 463.203125 242.203125 463.816406 C 241.949219 464.429688 241.667969 465.027344 241.355469 465.613281 C 241.042969 466.199219 240.699219 466.765625 240.332031 467.316406 C 239.964844 467.867188 239.570312 468.402344 239.148438 468.914062 C 238.726562 469.425781 238.28125 469.917969 237.8125 470.386719 C 237.34375 470.855469 236.851562 471.300781 236.339844 471.722656 C 235.828125 472.140625 235.296875 472.535156 234.746094 472.90625 C 234.191406 473.273438 233.625 473.613281 233.039062 473.925781 C 232.453125 474.238281 231.855469 474.523438 231.242188 474.777344 C 230.628906 475.03125 230.007812 475.253906 229.371094 475.445312 C 228.738281 475.640625 228.09375 475.800781 227.445312 475.929688 C 226.792969 476.058594 226.136719 476.15625 225.476562 476.222656 C 224.816406 476.285156 224.15625 476.320312 223.492188 476.320312 C 222.828125 476.320312 222.167969 476.285156 221.507812 476.222656 C 220.847656 476.15625 220.191406 476.058594 219.542969 475.929688 C 218.890625 475.800781 218.25 475.640625 217.613281 475.445312 C 216.980469 475.253906 216.355469 475.03125 215.742188 474.777344 C 215.128906 474.523438 214.53125 474.238281 213.945312 473.925781 C 213.359375 473.613281 212.792969 473.273438 212.242188 472.90625 C 211.6875 472.535156 211.15625 472.140625 210.644531 471.722656 C 210.132812 471.300781 209.640625 470.855469 209.171875 470.386719 C 208.703125 469.917969 208.257812 469.425781 207.835938 468.914062 C 207.417969 468.402344 207.023438 467.867188 206.652344 467.316406 C 206.285156 466.765625 205.945312 466.199219 205.632812 465.613281 C 205.320312 465.027344 205.035156 464.429688 204.78125 463.816406 C 204.527344 463.203125 204.304688 462.578125 204.113281 461.945312 C 203.917969 461.308594 203.757812 460.667969 203.628906 460.015625 C 203.5 459.367188 203.402344 458.710938 203.335938 458.050781 C 203.273438 457.390625 203.238281 456.730469 203.238281 456.066406 C 203.238281 455.402344 203.273438 454.742188 203.335938 454.082031 C 203.402344 453.421875 203.5 452.765625 203.628906 452.113281 C 203.757812 451.464844 203.917969 450.820312 204.113281 450.1875 C 204.304688 449.550781 204.527344 448.929688 204.78125 448.316406 C 205.035156 447.703125 205.320312 447.105469 205.632812 446.519531 C 205.945312 445.933594 206.285156 445.367188 206.652344 444.8125 C 207.023438 444.261719 207.417969 443.730469 207.835938 443.21875 C 208.257812 442.703125 208.703125 442.214844 209.171875 441.746094 C 209.640625 441.277344 210.132812 440.832031 210.644531 440.410156 C 211.15625 439.988281 211.6875 439.59375 212.242188 439.226562 C 212.792969 438.859375 213.359375 438.515625 213.945312 438.203125 C 214.53125 437.890625 215.128906 437.609375 215.742188 437.355469 C 216.355469 437.101562 216.980469 436.878906 217.613281 436.683594 C 218.25 436.492188 218.890625 436.332031 219.542969 436.203125 C 220.191406 436.074219 220.847656 435.976562 221.507812 435.910156 C 222.167969 435.847656 222.828125 435.8125 223.492188 435.8125 C 224.15625 435.8125 224.816406 435.847656 225.476562 435.910156 C 226.136719 435.976562 226.792969 436.074219 227.445312 436.203125 C 228.09375 436.332031 228.738281 436.492188 229.371094 436.683594 C 230.007812 436.878906 230.628906 437.101562 231.242188 437.355469 C 231.855469 437.609375 232.453125 437.890625 233.039062 438.203125 C 233.625 438.515625 234.191406 438.859375 234.746094 439.226562 C 235.296875 439.59375 235.828125 439.988281 236.339844 440.410156 C 236.851562 440.832031 237.34375 441.277344 237.8125 441.746094 C 238.28125 442.214844 238.726562 442.703125 239.148438 443.21875 C 239.570312 443.730469 239.964844 444.261719 240.332031 444.8125 C 240.699219 445.367188 241.042969 445.933594 241.355469 446.519531 C 241.667969 447.105469 241.949219 447.703125 242.203125 448.316406 C 242.457031 448.929688 242.679688 449.550781 242.875 450.1875 C 243.066406 450.820312 243.226562 451.464844 243.355469 452.113281 C 243.484375 452.765625 243.582031 453.421875 243.648438 454.082031 C 243.710938 454.742188 243.746094 455.402344 243.746094 456.066406 Z M 243.746094 456.066406 " fill-opacity="1" fill-rule="nonzero"/></g><g fill="#000000" fill-opacity="1"><g transform="translate(83.17969, 586.038279)"><g><path d="M 24.5 -14.890625 L 53.96875 -14.890625 L 53.96875 0 L 8.453125 0 L 8.453125 -73.921875 L 52.8125 -73.921875 L 52.8125 -59.140625 L 24.5 -59.140625 L 24.5 -44.5625 L 50.0625 -44.5625 L 50.0625 -30.09375 L 24.5 -30.09375 Z M 24.5 -14.890625 "/></g></g></g><g fill="#000000" fill-opacity="1"><g transform="translate(142.215282, 586.038279)"><g><path d="M 55.765625 -26.609375 L 55.765625 -13.515625 L 49.640625 -13.515625 L 49.640625 0 L 35.484375 0 L 35.484375 -13.515625 L 1.796875 -13.515625 L 1.796875 -16.15625 L 24.921875 -70.234375 L 39.8125 -70.234375 L 21.125 -26.609375 L 35.90625 -26.609375 L 38.34375 -43.40625 L 49.640625 -43.40625 L 49.640625 -26.609375 Z M 55.765625 -26.609375 "/></g></g></g><path stroke-linecap="butt" transform="matrix(0.75, 0.00000000000000075, -0.00000000000000075, 0.75, 208.535753, 544.413281)" fill="none" stroke-linejoin="miter" d="M -0.000796108 17.001043 L 227.525257 17.001043 " stroke="#000000" stroke-width="34" stroke-opacity="1" stroke-miterlimit="4"/><g clip-path="url(#46d46b31c3)"><path fill="#000000" d="M 243.746094 557.238281 C 243.746094 557.902344 243.710938 558.5625 243.648438 559.222656 C 243.582031 559.882812 243.484375 560.539062 243.355469 561.1875 C 243.226562 561.839844 243.066406 562.480469 242.875 563.117188 C 242.679688 563.75 242.457031 564.375 242.203125 564.988281 C 241.949219 565.601562 241.667969 566.199219 241.355469 566.785156 C 241.042969 567.371094 240.699219 567.9375 240.332031 568.488281 C 239.964844 569.039062 239.570312 569.574219 239.148438 570.085938 C 238.726562 570.597656 238.28125 571.089844 237.8125 571.558594 C 237.34375 572.027344 236.851562 572.472656 236.339844 572.894531 C 235.828125 573.3125 235.296875 573.707031 234.746094 574.078125 C 234.191406 574.445312 233.625 574.785156 233.039062 575.097656 C 232.453125 575.410156 231.855469 575.695312 231.242188 575.949219 C 230.628906 576.203125 230.007812 576.425781 229.371094 576.617188 C 228.738281 576.8125 228.09375 576.972656 227.445312 577.101562 C 226.792969 577.230469 226.136719 577.328125 225.476562 577.394531 C 224.816406 577.457031 224.15625 577.492188 223.492188 577.492188 C 222.828125 577.492188 222.167969 577.457031 221.507812 577.394531 C 220.847656 577.328125 220.191406 577.230469 219.542969 577.101562 C 218.890625 576.972656 218.25 576.8125 217.613281 576.617188 C 216.980469 576.425781 216.355469 576.203125 215.742188 575.949219 C 215.128906 575.695312 214.53125 575.410156 213.945312 575.097656 C 213.359375 574.785156 212.792969 574.445312 212.242188 574.078125 C 211.6875 573.707031 211.15625 573.3125 210.644531 572.894531 C 210.132812 572.472656 209.640625 572.027344 209.171875 571.558594 C 208.703125 571.089844 208.257812 570.597656 207.835938 570.085938 C 207.417969 569.574219 207.023438 569.039062 206.652344 568.488281 C 206.285156 567.9375 205.945312 567.371094 205.632812 566.785156 C 205.320312 566.199219 205.035156 565.601562 204.78125 564.988281 C 204.527344 564.375 204.304688 563.75 204.113281 563.117188 C 203.917969 562.480469 203.757812 561.839844 203.628906 561.1875 C 203.5 560.539062 203.402344 559.882812 203.335938 559.222656 C 203.273438 558.5625 203.238281 557.902344 203.238281 557.238281 C 203.238281 556.574219 203.273438 555.914062 203.335938 555.253906 C 203.402344 554.59375 203.5 553.9375 203.628906 553.285156 C 203.757812 552.636719 203.917969 551.992188 204.113281 551.359375 C 204.304688 550.722656 204.527344 550.101562 204.78125 549.488281 C 205.035156 548.875 205.320312 548.277344 205.632812 547.691406 C 205.945312 547.105469 206.285156 546.539062 206.652344 545.984375 C 207.023438 545.433594 207.417969 544.902344 207.835938 544.390625 C 208.257812 543.878906 208.703125 543.386719 209.171875 542.917969 C 209.640625 542.449219 210.132812 542.003906 210.644531 541.582031 C 211.15625 541.160156 211.6875 540.765625 212.242188 540.398438 C 212.792969 540.03125 213.359375 539.6875 213.945312 539.375 C 214.53125 539.0625 215.128906 538.78125 215.742188 538.527344 C 216.355469 538.273438 216.980469 538.050781 217.613281 537.855469 C 218.25 537.664062 218.890625 537.503906 219.542969 537.375 C 220.191406 537.246094 220.847656 537.148438 221.507812 537.082031 C 222.167969 537.019531 222.828125 536.984375 223.492188 536.984375 C 224.15625 536.984375 224.816406 537.019531 225.476562 537.082031 C 226.136719 537.148438 226.792969 537.246094 227.445312 537.375 C 228.09375 537.503906 228.738281 537.664062 229.371094 537.855469 C 230.007812 538.050781 230.628906 538.273438 231.242188 538.527344 C 231.855469 538.78125 232.453125 539.0625 233.039062 539.375 C 233.625 539.6875 234.191406 540.03125 234.746094 540.398438 C 235.296875 540.765625 235.828125 541.160156 236.339844 541.582031 C 236.851562 542.003906 237.34375 542.449219 237.8125 542.917969 C 238.28125 543.386719 238.726562 543.878906 239.148438 544.390625 C 239.570312 544.902344 239.964844 545.433594 240.332031 545.984375 C 240.699219 546.539062 241.042969 547.105469 241.355469 547.691406 C 241.667969 548.277344 241.949219 548.875 242.203125 549.488281 C 242.457031 550.101562 242.679688 550.722656 242.875 551.359375 C 243.066406 551.992188 243.226562 552.636719 243.355469 553.285156 C 243.484375 553.9375 243.582031 554.59375 243.648438 555.253906 C 243.710938 555.914062 243.746094 556.574219 243.746094 557.238281 Z M 243.746094 557.238281 " fill-opacity="1" fill-rule="nonzero"/></g></svg>