<svg xmlns="http://www.w3.org/2000/svg" xmlns:xlink="http://www.w3.org/1999/xlink" width="1920" zoomAndPan="magnify" viewBox="0 0 1440 809.999993" height="1080" preserveAspectRatio="xMidYMid meet" version="1.0"><defs><g/><clipPath id="c2ad5b64ba"><path d="M 376.636719 217.976562 L 836.992188 217.976562 L 836.992188 592.015625 L 376.636719 592.015625 Z M 376.636719 217.976562 " clip-rule="nonzero"/></clipPath><clipPath id="ca30a330a8"><path d="M 826.191406 467.269531 C 832.710938 448.09375 836.992188 426.292969 836.992188 404.894531 C 836.992188 383.5 833.324219 362.910156 826.800781 343.933594 C 826.597656 343.53125 826.597656 343.128906 826.394531 342.722656 C 800.308594 271.46875 731.429688 218.984375 650.933594 217.976562 L 376.636719 217.976562 L 376.636719 592.015625 L 650.730469 592.015625 C 731.835938 591.007812 800.71875 539.332031 826.191406 467.269531 Z M 826.191406 467.269531 " clip-rule="nonzero"/></clipPath><clipPath id="a0dc8e260b"><path d="M 973.121094 384.820312 L 1013.621094 384.820312 L 1013.621094 425.320312 L 973.121094 425.320312 Z M 973.121094 384.820312 " clip-rule="nonzero"/></clipPath><clipPath id="9c94d76785"><path d="M 203.242188 283.246094 L 243.742188 283.246094 L 243.742188 323.746094 L 203.242188 323.746094 Z M 203.242188 283.246094 " clip-rule="nonzero"/></clipPath><clipPath id="4d88f40ca2"><path d="M 203.242188 384.910156 L 243.742188 384.910156 L 243.742188 425.40625 L 203.242188 425.40625 Z M 203.242188 384.910156 " clip-rule="nonzero"/></clipPath><clipPath id="9fa4825f73"><path d="M 203.242188 486.398438 L 243.742188 486.398438 L 243.742188 526.898438 L 203.242188 526.898438 Z M 203.242188 486.398438 " clip-rule="nonzero"/></clipPath></defs><g clip-path="url(#c2ad5b64ba)"><g clip-path="url(#ca30a330a8)"><path stroke-linecap="butt" transform="matrix(0, -0.75, 0.75, 0, 376.636072, 592.016006)" fill="none" stroke-linejoin="miter" d="M 166.328642 599.407142 C 191.896351 608.099851 220.964061 613.808185 249.495313 613.808185 C 278.021356 613.808185 305.474482 608.91756 330.776567 600.219642 C 331.313025 599.948809 331.849483 599.948809 332.39115 599.677976 C 427.396363 564.896724 497.375533 473.058178 498.719283 365.730047 L 498.719283 0.000862234 L 0.000508289 0.000862234 L 0.000508289 365.459214 C 1.344258 473.599844 70.245303 565.443599 166.328642 599.407142 Z M 166.328642 599.407142 " stroke="#000000" stroke-width="60" stroke-opacity="1" stroke-miterlimit="4"/></g></g><g fill="#000000" fill-opacity="1"><g transform="translate(1014.360096, 433.290792)"><g><path d="M 32.953125 1.484375 C 27.316406 1.484375 22.351562 0.460938 18.0625 -1.578125 C 13.769531 -3.617188 10.40625 -6.539062 7.96875 -10.34375 C 5.539062 -14.15625 4.328125 -18.703125 4.328125 -23.984375 L 20.484375 -23.984375 C 20.484375 -20.390625 21.734375 -17.726562 24.234375 -16 C 26.734375 -14.28125 29.601562 -13.421875 32.84375 -13.421875 C 34.882812 -13.421875 36.800781 -13.753906 38.59375 -14.421875 C 40.394531 -15.085938 41.875 -16.070312 43.03125 -17.375 C 44.195312 -18.675781 44.78125 -20.242188 44.78125 -22.078125 C 44.78125 -23.972656 44.109375 -25.46875 42.765625 -26.5625 C 41.429688 -27.65625 39.640625 -28.550781 37.390625 -29.25 C 35.140625 -29.957031 32.675781 -30.628906 30 -31.265625 C 27.25 -31.898438 24.429688 -32.675781 21.546875 -33.59375 C 18.660156 -34.507812 15.984375 -35.722656 13.515625 -37.234375 C 11.054688 -38.742188 9.085938 -40.785156 7.609375 -43.359375 C 6.128906 -45.929688 5.390625 -49.1875 5.390625 -53.125 C 5.390625 -60.238281 7.800781 -65.710938 12.625 -69.546875 C 17.445312 -73.390625 23.976562 -75.3125 32.21875 -75.3125 C 40.664062 -75.3125 47.210938 -73.179688 51.859375 -68.921875 C 56.503906 -64.660156 58.828125 -58.867188 58.828125 -51.546875 L 42.984375 -51.546875 C 42.984375 -54.710938 41.859375 -57.050781 39.609375 -58.5625 C 37.359375 -60.082031 34.753906 -60.84375 31.796875 -60.84375 C 29.191406 -60.84375 26.796875 -60.273438 24.609375 -59.140625 C 22.429688 -58.015625 21.34375 -56.257812 21.34375 -53.875 C 21.34375 -52.113281 21.992188 -50.722656 23.296875 -49.703125 C 24.597656 -48.679688 26.320312 -47.832031 28.46875 -47.15625 C 30.613281 -46.488281 32.988281 -45.835938 35.59375 -45.203125 C 38.414062 -44.503906 41.300781 -43.675781 44.25 -42.71875 C 47.207031 -41.769531 49.953125 -40.484375 52.484375 -38.859375 C 55.023438 -37.242188 57.085938 -35.097656 58.671875 -32.421875 C 60.253906 -29.742188 61.046875 -26.363281 61.046875 -22.28125 C 61.046875 -16.9375 59.757812 -12.503906 57.1875 -8.984375 C 54.625 -5.460938 51.226562 -2.835938 47 -1.109375 C 42.78125 0.617188 38.097656 1.484375 32.953125 1.484375 Z M 32.953125 1.484375 "/></g></g><g transform="translate(1079.73805, 433.290792)"><g><path d="M 53.96875 -57.140625 L 65.484375 -57.140625 L 65.484375 -0.109375 L 53.34375 -0.109375 L 52.078125 -5.171875 C 49.609375 -3.054688 46.804688 -1.398438 43.671875 -0.203125 C 40.535156 0.984375 37.175781 1.578125 33.59375 1.578125 C 27.882812 1.578125 22.773438 0.257812 18.265625 -2.375 C 13.765625 -5.019531 10.210938 -8.613281 7.609375 -13.15625 C 5.003906 -17.695312 3.703125 -22.851562 3.703125 -28.625 C 3.703125 -34.332031 5.003906 -39.457031 7.609375 -44 C 10.210938 -48.539062 13.765625 -52.113281 18.265625 -54.71875 C 22.773438 -57.320312 27.882812 -58.625 33.59375 -58.625 C 37.25 -58.625 40.660156 -58.003906 43.828125 -56.765625 C 47.003906 -55.535156 49.820312 -53.832031 52.28125 -51.65625 Z M 34.859375 -12.984375 C 37.816406 -12.984375 40.472656 -13.648438 42.828125 -14.984375 C 45.191406 -16.328125 47.039062 -18.175781 48.375 -20.53125 C 49.71875 -22.894531 50.390625 -25.59375 50.390625 -28.625 C 50.390625 -31.582031 49.71875 -34.238281 48.375 -36.59375 C 47.039062 -38.957031 45.191406 -40.820312 42.828125 -42.1875 C 40.472656 -43.5625 37.816406 -44.25 34.859375 -44.25 C 31.828125 -44.25 29.148438 -43.5625 26.828125 -42.1875 C 24.503906 -40.820312 22.671875 -38.957031 21.328125 -36.59375 C 19.992188 -34.238281 19.328125 -31.582031 19.328125 -28.625 C 19.328125 -25.59375 19.992188 -22.914062 21.328125 -20.59375 C 22.671875 -18.269531 24.503906 -16.421875 26.828125 -15.046875 C 29.148438 -13.671875 31.828125 -12.984375 34.859375 -12.984375 Z M 34.859375 -12.984375 "/></g></g><g transform="translate(1152.614928, 433.290792)"><g><path d="M 7.390625 0 L 7.390625 -77.640625 L 22.8125 -77.640625 L 22.8125 0 Z M 7.390625 0 "/></g></g></g><g fill="#000000" fill-opacity="1"><g transform="translate(1182.821851, 433.290792)"><g><path d="M 7.390625 -64.640625 L 7.390625 -79 L 22.8125 -79 L 22.8125 -64.640625 Z M 7.390625 0 L 7.390625 -57.03125 L 22.8125 -57.03125 L 22.8125 0 Z M 7.390625 0 "/></g></g></g><g fill="#000000" fill-opacity="1"><g transform="translate(1213.028773, 433.290792)"><g><path d="M 49.328125 -77.640625 L 64.75 -77.640625 L 64.75 0 L 53.34375 0 L 51.546875 -4.75 C 49.148438 -2.707031 46.4375 -1.125 43.40625 0 C 40.382812 1.125 37.144531 1.6875 33.6875 1.6875 C 27.914062 1.6875 22.757812 0.367188 18.21875 -2.265625 C 13.675781 -4.910156 10.117188 -8.503906 7.546875 -13.046875 C 4.984375 -17.585938 3.703125 -22.742188 3.703125 -28.515625 C 3.703125 -34.296875 4.984375 -39.457031 7.546875 -44 C 10.117188 -48.539062 13.675781 -52.113281 18.21875 -54.71875 C 22.757812 -57.320312 27.914062 -58.625 33.6875 -58.625 C 36.582031 -58.625 39.347656 -58.21875 41.984375 -57.40625 C 44.628906 -56.59375 47.078125 -55.445312 49.328125 -53.96875 Z M 34.859375 -12.890625 C 37.878906 -12.890625 40.550781 -13.570312 42.875 -14.9375 C 45.207031 -16.3125 47.054688 -18.175781 48.421875 -20.53125 C 49.796875 -22.894531 50.484375 -25.554688 50.484375 -28.515625 C 50.484375 -31.472656 49.796875 -34.128906 48.421875 -36.484375 C 47.054688 -38.847656 45.207031 -40.71875 42.875 -42.09375 C 40.550781 -43.46875 37.878906 -44.15625 34.859375 -44.15625 C 31.898438 -44.15625 29.257812 -43.46875 26.9375 -42.09375 C 24.613281 -40.71875 22.765625 -38.847656 21.390625 -36.484375 C 20.015625 -34.128906 19.328125 -31.472656 19.328125 -28.515625 C 19.328125 -25.554688 20.015625 -22.894531 21.390625 -20.53125 C 22.765625 -18.175781 24.613281 -16.3125 26.9375 -14.9375 C 29.257812 -13.570312 31.898438 -12.890625 34.859375 -12.890625 Z M 34.859375 -12.890625 "/></g></g><g transform="translate(1285.166321, 433.290792)"><g><path d="M 53.96875 -57.140625 L 65.484375 -57.140625 L 65.484375 -0.109375 L 53.34375 -0.109375 L 52.078125 -5.171875 C 49.609375 -3.054688 46.804688 -1.398438 43.671875 -0.203125 C 40.535156 0.984375 37.175781 1.578125 33.59375 1.578125 C 27.882812 1.578125 22.773438 0.257812 18.265625 -2.375 C 13.765625 -5.019531 10.210938 -8.613281 7.609375 -13.15625 C 5.003906 -17.695312 3.703125 -22.851562 3.703125 -28.625 C 3.703125 -34.332031 5.003906 -39.457031 7.609375 -44 C 10.210938 -48.539062 13.765625 -52.113281 18.265625 -54.71875 C 22.773438 -57.320312 27.882812 -58.625 33.59375 -58.625 C 37.25 -58.625 40.660156 -58.003906 43.828125 -56.765625 C 47.003906 -55.535156 49.820312 -53.832031 52.28125 -51.65625 Z M 34.859375 -12.984375 C 37.816406 -12.984375 40.472656 -13.648438 42.828125 -14.984375 C 45.191406 -16.328125 47.039062 -18.175781 48.375 -20.53125 C 49.71875 -22.894531 50.390625 -25.59375 50.390625 -28.625 C 50.390625 -31.582031 49.71875 -34.238281 48.375 -36.59375 C 47.039062 -38.957031 45.191406 -40.820312 42.828125 -42.1875 C 40.472656 -43.5625 37.816406 -44.25 34.859375 -44.25 C 31.828125 -44.25 29.148438 -43.5625 26.828125 -42.1875 C 24.503906 -40.820312 22.671875 -38.957031 21.328125 -36.59375 C 19.992188 -34.238281 19.328125 -31.582031 19.328125 -28.625 C 19.328125 -25.59375 19.992188 -22.914062 21.328125 -20.59375 C 22.671875 -18.269531 24.503906 -16.421875 26.828125 -15.046875 C 29.148438 -13.671875 31.828125 -12.984375 34.859375 -12.984375 Z M 34.859375 -12.984375 "/></g></g></g><path stroke-linecap="butt" transform="matrix(0.75, 0.000000000000000375, -0.000000000000000375, 0.75, 834.565572, 392.25)" fill="none" stroke-linejoin="miter" d="M 0.00111202 17.000001 L 227.521957 17.000001 " stroke="#000000" stroke-width="34" stroke-opacity="1" stroke-miterlimit="4"/><g clip-path="url(#a0dc8e260b)"><path fill="#000000" d="M 1013.621094 405.074219 C 1013.621094 405.738281 1013.589844 406.398438 1013.523438 407.058594 C 1013.460938 407.71875 1013.363281 408.375 1013.234375 409.027344 C 1013.105469 409.675781 1012.941406 410.320312 1012.75 410.953125 C 1012.558594 411.589844 1012.335938 412.210938 1012.082031 412.824219 C 1011.828125 413.4375 1011.542969 414.035156 1011.230469 414.621094 C 1010.917969 415.207031 1010.578125 415.773438 1010.210938 416.328125 C 1009.839844 416.878906 1009.445312 417.410156 1009.027344 417.921875 C 1008.605469 418.433594 1008.160156 418.925781 1007.691406 419.394531 C 1007.222656 419.863281 1006.730469 420.308594 1006.21875 420.730469 C 1005.707031 421.152344 1005.171875 421.546875 1004.621094 421.914062 C 1004.070312 422.28125 1003.503906 422.625 1002.917969 422.9375 C 1002.332031 423.25 1001.734375 423.53125 1001.121094 423.785156 C 1000.507812 424.039062 999.882812 424.261719 999.25 424.457031 C 998.613281 424.648438 997.972656 424.808594 997.320312 424.9375 C 996.671875 425.066406 996.015625 425.164062 995.355469 425.230469 C 994.695312 425.292969 994.035156 425.328125 993.371094 425.328125 C 992.707031 425.328125 992.046875 425.292969 991.386719 425.230469 C 990.726562 425.164062 990.070312 425.066406 989.417969 424.9375 C 988.769531 424.808594 988.125 424.648438 987.492188 424.457031 C 986.855469 424.261719 986.234375 424.039062 985.621094 423.785156 C 985.007812 423.53125 984.410156 423.25 983.824219 422.9375 C 983.238281 422.625 982.671875 422.28125 982.117188 421.914062 C 981.566406 421.546875 981.035156 421.152344 980.523438 420.730469 C 980.007812 420.308594 979.519531 419.863281 979.050781 419.394531 C 978.582031 418.925781 978.136719 418.433594 977.714844 417.921875 C 977.292969 417.410156 976.898438 416.878906 976.53125 416.328125 C 976.164062 415.773438 975.820312 415.207031 975.507812 414.621094 C 975.195312 414.035156 974.914062 413.4375 974.660156 412.824219 C 974.40625 412.210938 974.183594 411.589844 973.988281 410.953125 C 973.796875 410.320312 973.636719 409.675781 973.507812 409.027344 C 973.378906 408.375 973.28125 407.71875 973.214844 407.058594 C 973.148438 406.398438 973.117188 405.738281 973.117188 405.074219 C 973.117188 404.410156 973.148438 403.75 973.214844 403.089844 C 973.28125 402.429688 973.378906 401.773438 973.507812 401.125 C 973.636719 400.472656 973.796875 399.832031 973.988281 399.195312 C 974.183594 398.5625 974.40625 397.9375 974.660156 397.324219 C 974.914062 396.710938 975.195312 396.113281 975.507812 395.527344 C 975.820312 394.941406 976.164062 394.375 976.53125 393.824219 C 976.898438 393.273438 977.292969 392.738281 977.714844 392.226562 C 978.136719 391.714844 978.582031 391.222656 979.050781 390.753906 C 979.519531 390.285156 980.007812 389.839844 980.523438 389.417969 C 981.035156 389 981.566406 388.605469 982.117188 388.234375 C 982.671875 387.867188 983.238281 387.527344 983.824219 387.214844 C 984.410156 386.902344 985.007812 386.617188 985.621094 386.363281 C 986.234375 386.109375 986.855469 385.886719 987.492188 385.695312 C 988.125 385.5 988.769531 385.339844 989.417969 385.210938 C 990.070312 385.082031 990.726562 384.984375 991.386719 384.917969 C 992.046875 384.855469 992.707031 384.820312 993.371094 384.820312 C 994.035156 384.820312 994.695312 384.855469 995.355469 384.917969 C 996.015625 384.984375 996.671875 385.082031 997.320312 385.210938 C 997.972656 385.339844 998.613281 385.5 999.25 385.695312 C 999.882812 385.886719 1000.507812 386.109375 1001.121094 386.363281 C 1001.734375 386.617188 1002.332031 386.902344 1002.917969 387.214844 C 1003.503906 387.527344 1004.070312 387.867188 1004.621094 388.234375 C 1005.171875 388.605469 1005.707031 389 1006.21875 389.417969 C 1006.730469 389.839844 1007.222656 390.285156 1007.691406 390.753906 C 1008.160156 391.222656 1008.605469 391.714844 1009.027344 392.226562 C 1009.445312 392.738281 1009.839844 393.273438 1010.210938 393.824219 C 1010.578125 394.375 1010.917969 394.941406 1011.230469 395.527344 C 1011.542969 396.113281 1011.828125 396.710938 1012.082031 397.324219 C 1012.335938 397.9375 1012.558594 398.5625 1012.75 399.195312 C 1012.941406 399.832031 1013.105469 400.472656 1013.234375 401.125 C 1013.363281 401.773438 1013.460938 402.429688 1013.523438 403.089844 C 1013.589844 403.75 1013.621094 404.410156 1013.621094 405.074219 Z M 1013.621094 405.074219 " fill-opacity="1" fill-rule="nonzero"/></g><g fill="#000000" fill-opacity="1"><g transform="translate(93.585939, 332.297816)"><g><path d="M 24.5 -14.890625 L 53.96875 -14.890625 L 53.96875 0 L 8.453125 0 L 8.453125 -73.921875 L 52.8125 -73.921875 L 52.8125 -59.140625 L 24.5 -59.140625 L 24.5 -44.5625 L 50.0625 -44.5625 L 50.0625 -30.09375 L 24.5 -30.09375 Z M 24.5 -14.890625 "/></g></g></g><g fill="#000000" fill-opacity="1"><g transform="translate(152.621531, 332.297816)"><g><path d="M 3.59375 -70.234375 L 29.359375 -70.234375 L 29.359375 0 L 14.578125 0 L 14.578125 -57.03125 L 3.59375 -57.03125 Z M 3.59375 -70.234375 "/></g></g></g><g fill="#000000" fill-opacity="1"><g transform="translate(83.660158, 433.734373)"><g><path d="M 24.5 -14.890625 L 53.96875 -14.890625 L 53.96875 0 L 8.453125 0 L 8.453125 -73.921875 L 52.8125 -73.921875 L 52.8125 -59.140625 L 24.5 -59.140625 L 24.5 -44.5625 L 50.0625 -44.5625 L 50.0625 -30.09375 L 24.5 -30.09375 Z M 24.5 -14.890625 "/></g></g></g><g fill="#000000" fill-opacity="1"><g transform="translate(142.695751, 433.734373)"><g><path d="M 31.265625 -14.15625 L 52.703125 -14.15625 L 52.703125 0 L 3.484375 0 L 3.484375 -3.28125 C 9.253906 -9.96875 14.09375 -15.632812 18 -20.28125 C 21.914062 -24.925781 25.066406 -28.796875 27.453125 -31.890625 C 29.847656 -34.992188 31.675781 -37.582031 32.9375 -39.65625 C 34.207031 -41.726562 35.054688 -43.519531 35.484375 -45.03125 C 35.910156 -46.550781 36.125 -48.015625 36.125 -49.421875 C 36.125 -51.890625 35.382812 -53.863281 33.90625 -55.34375 C 32.425781 -56.820312 30.488281 -57.5625 28.09375 -57.5625 C 25.625 -57.5625 23.632812 -56.800781 22.125 -55.28125 C 20.613281 -53.769531 19.859375 -51.75 19.859375 -49.21875 L 19.859375 -47.953125 L 4.75 -47.953125 L 4.75 -49.421875 C 4.75 -53.722656 5.695312 -57.546875 7.59375 -60.890625 C 9.5 -64.234375 12.175781 -66.867188 15.625 -68.796875 C 19.082031 -70.734375 23.164062 -71.703125 27.875 -71.703125 C 32.457031 -71.703125 36.507812 -70.75 40.03125 -68.84375 C 43.550781 -66.945312 46.3125 -64.34375 48.3125 -61.03125 C 50.320312 -57.726562 51.328125 -53.929688 51.328125 -49.640625 C 51.328125 -47.453125 51.046875 -45.265625 50.484375 -43.078125 C 49.921875 -40.898438 48.914062 -38.472656 47.46875 -35.796875 C 46.03125 -33.117188 43.988281 -30.035156 41.34375 -26.546875 C 38.707031 -23.066406 35.347656 -18.9375 31.265625 -14.15625 Z M 31.265625 -14.15625 "/></g></g></g><path stroke-linecap="butt" transform="matrix(0.75, 0.00000000000000075, -0.00000000000000075, 0.75, 208.535753, 290.672818)" fill="none" stroke-linejoin="miter" d="M -0.000796108 16.998743 L 227.525257 16.998743 " stroke="#000000" stroke-width="34" stroke-opacity="1" stroke-miterlimit="4"/><g clip-path="url(#9c94d76785)"><path fill="#000000" d="M 243.746094 303.496094 C 243.746094 304.160156 243.710938 304.824219 243.648438 305.484375 C 243.582031 306.144531 243.484375 306.796875 243.355469 307.449219 C 243.226562 308.097656 243.066406 308.742188 242.871094 309.375 C 242.679688 310.011719 242.457031 310.636719 242.203125 311.246094 C 241.949219 311.859375 241.667969 312.460938 241.355469 313.042969 C 241.042969 313.628906 240.699219 314.199219 240.332031 314.75 C 239.964844 315.300781 239.570312 315.832031 239.148438 316.34375 C 238.726562 316.859375 238.28125 317.347656 237.8125 317.816406 C 237.34375 318.289062 236.851562 318.730469 236.339844 319.152344 C 235.828125 319.574219 235.296875 319.96875 234.746094 320.335938 C 234.191406 320.707031 233.625 321.046875 233.039062 321.359375 C 232.453125 321.671875 231.855469 321.953125 231.242188 322.207031 C 230.628906 322.460938 230.007812 322.683594 229.371094 322.878906 C 228.738281 323.070312 228.09375 323.230469 227.445312 323.359375 C 226.792969 323.488281 226.136719 323.585938 225.476562 323.652344 C 224.816406 323.71875 224.15625 323.75 223.492188 323.75 C 222.828125 323.75 222.167969 323.71875 221.507812 323.652344 C 220.847656 323.585938 220.191406 323.488281 219.542969 323.359375 C 218.890625 323.230469 218.25 323.070312 217.613281 322.878906 C 216.980469 322.683594 216.355469 322.460938 215.742188 322.207031 C 215.128906 321.953125 214.53125 321.671875 213.945312 321.359375 C 213.359375 321.046875 212.792969 320.707031 212.242188 320.335938 C 211.6875 319.96875 211.15625 319.574219 210.644531 319.152344 C 210.132812 318.730469 209.640625 318.289062 209.171875 317.816406 C 208.703125 317.347656 208.257812 316.859375 207.835938 316.34375 C 207.417969 315.832031 207.023438 315.300781 206.652344 314.75 C 206.285156 314.199219 205.945312 313.628906 205.632812 313.042969 C 205.320312 312.460938 205.035156 311.859375 204.78125 311.246094 C 204.527344 310.636719 204.304688 310.011719 204.113281 309.375 C 203.917969 308.742188 203.757812 308.097656 203.628906 307.449219 C 203.5 306.796875 203.402344 306.144531 203.335938 305.484375 C 203.273438 304.824219 203.238281 304.160156 203.238281 303.496094 C 203.238281 302.835938 203.273438 302.171875 203.335938 301.511719 C 203.402344 300.851562 203.5 300.195312 203.628906 299.546875 C 203.757812 298.894531 203.917969 298.253906 204.113281 297.617188 C 204.304688 296.984375 204.527344 296.359375 204.78125 295.746094 C 205.035156 295.132812 205.320312 294.535156 205.632812 293.949219 C 205.945312 293.367188 206.285156 292.796875 206.652344 292.246094 C 207.023438 291.695312 207.417969 291.160156 207.835938 290.648438 C 208.257812 290.136719 208.703125 289.644531 209.171875 289.175781 C 209.640625 288.707031 210.132812 288.261719 210.644531 287.84375 C 211.15625 287.421875 211.6875 287.027344 212.242188 286.65625 C 212.792969 286.289062 213.359375 285.949219 213.945312 285.636719 C 214.53125 285.324219 215.128906 285.039062 215.742188 284.785156 C 216.355469 284.53125 216.980469 284.308594 217.613281 284.117188 C 218.25 283.925781 218.890625 283.761719 219.542969 283.632812 C 220.191406 283.503906 220.847656 283.40625 221.507812 283.34375 C 222.167969 283.277344 222.828125 283.246094 223.492188 283.246094 C 224.15625 283.246094 224.816406 283.277344 225.476562 283.34375 C 226.136719 283.40625 226.792969 283.503906 227.445312 283.632812 C 228.09375 283.761719 228.738281 283.925781 229.371094 284.117188 C 230.007812 284.308594 230.628906 284.53125 231.242188 284.785156 C 231.855469 285.039062 232.453125 285.324219 233.039062 285.636719 C 233.625 285.949219 234.191406 286.289062 234.746094 286.65625 C 235.296875 287.027344 235.828125 287.421875 236.339844 287.84375 C 236.851562 288.261719 237.34375 288.707031 237.8125 289.175781 C 238.28125 289.644531 238.726562 290.136719 239.148438 290.648438 C 239.570312 291.160156 239.964844 291.695312 240.332031 292.246094 C 240.699219 292.796875 241.042969 293.367188 241.355469 293.949219 C 241.667969 294.535156 241.949219 295.132812 242.203125 295.746094 C 242.457031 296.359375 242.679688 296.984375 242.871094 297.617188 C 243.066406 298.253906 243.226562 298.894531 243.355469 299.546875 C 243.484375 300.195312 243.582031 300.851562 243.648438 301.511719 C 243.710938 302.171875 243.746094 302.835938 243.746094 303.496094 Z M 243.746094 303.496094 " fill-opacity="1" fill-rule="nonzero"/></g><path stroke-linecap="butt" transform="matrix(0.75, 0.00000000000000075, -0.00000000000000075, 0.75, 208.535753, 392.336016)" fill="none" stroke-linejoin="miter" d="M -0.000796108 16.999896 L 227.525257 16.999896 " stroke="#000000" stroke-width="34" stroke-opacity="1" stroke-miterlimit="4"/><g clip-path="url(#4d88f40ca2)"><path fill="#000000" d="M 243.746094 405.160156 C 243.746094 405.824219 243.710938 406.484375 243.648438 407.144531 C 243.582031 407.804688 243.484375 408.460938 243.355469 409.113281 C 243.226562 409.761719 243.066406 410.40625 242.871094 411.039062 C 242.679688 411.675781 242.457031 412.296875 242.203125 412.910156 C 241.949219 413.523438 241.667969 414.121094 241.355469 414.707031 C 241.042969 415.292969 240.699219 415.859375 240.332031 416.414062 C 239.964844 416.964844 239.570312 417.496094 239.148438 418.007812 C 238.726562 418.523438 238.28125 419.011719 237.8125 419.480469 C 237.34375 419.949219 236.851562 420.394531 236.339844 420.816406 C 235.828125 421.238281 235.296875 421.632812 234.746094 422 C 234.191406 422.367188 233.625 422.710938 233.039062 423.023438 C 232.453125 423.335938 231.855469 423.617188 231.242188 423.871094 C 230.628906 424.125 230.007812 424.347656 229.371094 424.542969 C 228.738281 424.734375 228.09375 424.894531 227.445312 425.023438 C 226.792969 425.152344 226.136719 425.25 225.476562 425.316406 C 224.816406 425.378906 224.15625 425.414062 223.492188 425.414062 C 222.828125 425.414062 222.167969 425.378906 221.507812 425.316406 C 220.847656 425.25 220.191406 425.152344 219.542969 425.023438 C 218.890625 424.894531 218.25 424.734375 217.613281 424.542969 C 216.980469 424.347656 216.355469 424.125 215.742188 423.871094 C 215.128906 423.617188 214.53125 423.335938 213.945312 423.023438 C 213.359375 422.710938 212.792969 422.367188 212.242188 422 C 211.6875 421.632812 211.15625 421.238281 210.644531 420.816406 C 210.132812 420.394531 209.640625 419.949219 209.171875 419.480469 C 208.703125 419.011719 208.257812 418.523438 207.835938 418.007812 C 207.417969 417.496094 207.023438 416.964844 206.652344 416.414062 C 206.285156 415.859375 205.945312 415.292969 205.632812 414.707031 C 205.320312 414.121094 205.035156 413.523438 204.78125 412.910156 C 204.527344 412.296875 204.304688 411.675781 204.113281 411.039062 C 203.917969 410.40625 203.757812 409.761719 203.628906 409.113281 C 203.5 408.460938 203.402344 407.804688 203.335938 407.144531 C 203.273438 406.484375 203.238281 405.824219 203.238281 405.160156 C 203.238281 404.496094 203.273438 403.835938 203.335938 403.175781 C 203.402344 402.515625 203.5 401.859375 203.628906 401.210938 C 203.757812 400.558594 203.917969 399.917969 204.113281 399.28125 C 204.304688 398.648438 204.527344 398.023438 204.78125 397.410156 C 205.035156 396.796875 205.320312 396.199219 205.632812 395.613281 C 205.945312 395.027344 206.285156 394.460938 206.652344 393.910156 C 207.023438 393.359375 207.417969 392.824219 207.835938 392.3125 C 208.257812 391.800781 208.703125 391.308594 209.171875 390.839844 C 209.640625 390.371094 210.132812 389.925781 210.644531 389.503906 C 211.15625 389.085938 211.6875 388.691406 212.242188 388.320312 C 212.792969 387.953125 213.359375 387.613281 213.945312 387.300781 C 214.53125 386.988281 215.128906 386.703125 215.742188 386.449219 C 216.355469 386.195312 216.980469 385.972656 217.613281 385.78125 C 218.25 385.585938 218.890625 385.425781 219.542969 385.296875 C 220.191406 385.167969 220.847656 385.070312 221.507812 385.003906 C 222.167969 384.941406 222.828125 384.90625 223.492188 384.90625 C 224.15625 384.90625 224.816406 384.941406 225.476562 385.003906 C 226.136719 385.070312 226.792969 385.167969 227.445312 385.296875 C 228.09375 385.425781 228.738281 385.585938 229.371094 385.78125 C 230.007812 385.972656 230.628906 386.195312 231.242188 386.449219 C 231.855469 386.703125 232.453125 386.988281 233.039062 387.300781 C 233.625 387.613281 234.191406 387.953125 234.746094 388.320312 C 235.296875 388.691406 235.828125 389.085938 236.339844 389.503906 C 236.851562 389.925781 237.34375 390.371094 237.8125 390.839844 C 238.28125 391.308594 238.726562 391.800781 239.148438 392.3125 C 239.570312 392.824219 239.964844 393.359375 240.332031 393.910156 C 240.699219 394.460938 241.042969 395.027344 241.355469 395.613281 C 241.667969 396.199219 241.949219 396.796875 242.203125 397.410156 C 242.457031 398.023438 242.679688 398.648438 242.871094 399.28125 C 243.066406 399.917969 243.226562 400.558594 243.355469 401.210938 C 243.484375 401.859375 243.582031 402.515625 243.648438 403.175781 C 243.710938 403.835938 243.746094 404.496094 243.746094 405.160156 Z M 243.746094 405.160156 " fill-opacity="1" fill-rule="nonzero"/></g><g fill="#000000" fill-opacity="1"><g transform="translate(83.496096, 535.452185)"><g><path d="M 24.5 -14.890625 L 53.96875 -14.890625 L 53.96875 0 L 8.453125 0 L 8.453125 -73.921875 L 52.8125 -73.921875 L 52.8125 -59.140625 L 24.5 -59.140625 L 24.5 -44.5625 L 50.0625 -44.5625 L 50.0625 -30.09375 L 24.5 -30.09375 Z M 24.5 -14.890625 "/></g></g></g><g fill="#000000" fill-opacity="1"><g transform="translate(142.531688, 535.452185)"><g><path d="M 36.328125 -44.25 C 41.535156 -43.125 45.707031 -40.609375 48.84375 -36.703125 C 51.976562 -32.796875 53.546875 -28.0625 53.546875 -22.5 C 53.546875 -17.914062 52.453125 -13.828125 50.265625 -10.234375 C 48.085938 -6.648438 45.128906 -3.835938 41.390625 -1.796875 C 37.660156 0.242188 33.40625 1.265625 28.625 1.265625 C 23.976562 1.265625 19.859375 0.28125 16.265625 -1.6875 C 12.671875 -3.65625 9.832031 -6.398438 7.75 -9.921875 C 5.675781 -13.441406 4.535156 -17.523438 4.328125 -22.171875 L 19.4375 -22.171875 C 19.570312 -19.359375 20.46875 -17.085938 22.125 -15.359375 C 23.78125 -13.640625 25.945312 -12.78125 28.625 -12.78125 C 31.4375 -12.78125 33.757812 -13.726562 35.59375 -15.625 C 37.425781 -17.53125 38.34375 -19.992188 38.34375 -23.015625 C 38.34375 -26.046875 37.351562 -28.421875 35.375 -30.140625 C 33.40625 -31.867188 30.800781 -32.734375 27.5625 -32.734375 L 17.421875 -32.734375 L 17.421875 -35.59375 L 30.203125 -56.71875 L 6.015625 -56.71875 L 6.015625 -70.234375 L 50.90625 -70.234375 L 50.90625 -67.375 Z M 36.328125 -44.25 "/></g></g></g><path stroke-linecap="butt" transform="matrix(0.75, 0.00000000000000075, -0.00000000000000075, 0.75, 208.535753, 493.827187)" fill="none" stroke-linejoin="miter" d="M -0.000796108 17.001251 L 227.525257 17.001251 " stroke="#000000" stroke-width="34" stroke-opacity="1" stroke-miterlimit="4"/><g clip-path="url(#9fa4825f73)"><path fill="#000000" d="M 243.746094 506.652344 C 243.746094 507.316406 243.710938 507.976562 243.648438 508.636719 C 243.582031 509.296875 243.484375 509.953125 243.355469 510.601562 C 243.226562 511.253906 243.066406 511.894531 242.871094 512.53125 C 242.679688 513.164062 242.457031 513.789062 242.203125 514.402344 C 241.949219 515.015625 241.667969 515.613281 241.355469 516.199219 C 241.042969 516.785156 240.699219 517.351562 240.332031 517.902344 C 239.964844 518.453125 239.570312 518.988281 239.148438 519.5 C 238.726562 520.011719 238.28125 520.503906 237.8125 520.972656 C 237.34375 521.441406 236.851562 521.886719 236.339844 522.308594 C 235.828125 522.726562 235.296875 523.121094 234.746094 523.492188 C 234.191406 523.859375 233.625 524.199219 233.039062 524.511719 C 232.453125 524.824219 231.855469 525.109375 231.242188 525.363281 C 230.628906 525.617188 230.007812 525.839844 229.371094 526.03125 C 228.738281 526.226562 228.09375 526.386719 227.445312 526.515625 C 226.792969 526.644531 226.136719 526.742188 225.476562 526.808594 C 224.816406 526.871094 224.15625 526.902344 223.492188 526.902344 C 222.828125 526.902344 222.167969 526.871094 221.507812 526.808594 C 220.847656 526.742188 220.191406 526.644531 219.542969 526.515625 C 218.890625 526.386719 218.25 526.226562 217.613281 526.03125 C 216.980469 525.839844 216.355469 525.617188 215.742188 525.363281 C 215.128906 525.109375 214.53125 524.824219 213.945312 524.511719 C 213.359375 524.199219 212.792969 523.859375 212.242188 523.492188 C 211.6875 523.121094 211.15625 522.726562 210.644531 522.308594 C 210.132812 521.886719 209.640625 521.441406 209.171875 520.972656 C 208.703125 520.503906 208.257812 520.011719 207.835938 519.5 C 207.417969 518.988281 207.023438 518.453125 206.652344 517.902344 C 206.285156 517.351562 205.945312 516.785156 205.632812 516.199219 C 205.320312 515.613281 205.035156 515.015625 204.78125 514.402344 C 204.527344 513.789062 204.304688 513.164062 204.113281 512.53125 C 203.917969 511.894531 203.757812 511.253906 203.628906 510.601562 C 203.5 509.953125 203.402344 509.296875 203.335938 508.636719 C 203.273438 507.976562 203.238281 507.316406 203.238281 506.652344 C 203.238281 505.988281 203.273438 505.328125 203.335938 504.667969 C 203.402344 504.007812 203.5 503.351562 203.628906 502.699219 C 203.757812 502.050781 203.917969 501.40625 204.113281 500.773438 C 204.304688 500.136719 204.527344 499.515625 204.78125 498.902344 C 205.035156 498.289062 205.320312 497.691406 205.632812 497.105469 C 205.945312 496.519531 206.285156 495.953125 206.652344 495.398438 C 207.023438 494.847656 207.417969 494.316406 207.835938 493.804688 C 208.257812 493.289062 208.703125 492.800781 209.171875 492.332031 C 209.640625 491.863281 210.132812 491.417969 210.644531 490.996094 C 211.15625 490.574219 211.6875 490.179688 212.242188 489.8125 C 212.792969 489.445312 213.359375 489.101562 213.945312 488.789062 C 214.53125 488.476562 215.128906 488.195312 215.742188 487.941406 C 216.355469 487.6875 216.980469 487.464844 217.613281 487.269531 C 218.25 487.078125 218.890625 486.917969 219.542969 486.789062 C 220.191406 486.660156 220.847656 486.5625 221.507812 486.496094 C 222.167969 486.429688 222.828125 486.398438 223.492188 486.398438 C 224.15625 486.398438 224.816406 486.429688 225.476562 486.496094 C 226.136719 486.5625 226.792969 486.660156 227.445312 486.789062 C 228.09375 486.917969 228.738281 487.078125 229.371094 487.269531 C 230.007812 487.464844 230.628906 487.6875 231.242188 487.941406 C 231.855469 488.195312 232.453125 488.476562 233.039062 488.789062 C 233.625 489.101562 234.191406 489.445312 234.746094 489.8125 C 235.296875 490.179688 235.828125 490.574219 236.339844 490.996094 C 236.851562 491.417969 237.34375 491.863281 237.8125 492.332031 C 238.28125 492.800781 238.726562 493.289062 239.148438 493.804688 C 239.570312 494.316406 239.964844 494.847656 240.332031 495.398438 C 240.699219 495.953125 241.042969 496.519531 241.355469 497.105469 C 241.667969 497.691406 241.949219 498.289062 242.203125 498.902344 C 242.457031 499.515625 242.679688 500.136719 242.871094 500.773438 C 243.066406 501.40625 243.226562 502.050781 243.355469 502.699219 C 243.484375 503.351562 243.582031 504.007812 243.648438 504.667969 C 243.710938 505.328125 243.746094 505.988281 243.746094 506.652344 Z M 243.746094 506.652344 " fill-opacity="1" fill-rule="nonzero"/></g></svg>