<svg xmlns="http://www.w3.org/2000/svg" xmlns:xlink="http://www.w3.org/1999/xlink" width="1920" zoomAndPan="magnify" viewBox="0 0 1440 809.999993" height="1080" preserveAspectRatio="xMidYMid meet" version="1.0"><defs><g/><clipPath id="31c859f373"><path d="M 376.636719 217.976562 L 836.992188 217.976562 L 836.992188 592.015625 L 376.636719 592.015625 Z M 376.636719 217.976562 " clip-rule="nonzero"/></clipPath><clipPath id="f05e0573f4"><path d="M 826.191406 467.269531 C 832.710938 448.09375 836.992188 426.292969 836.992188 404.894531 C 836.992188 383.5 833.324219 362.910156 826.800781 343.933594 C 826.597656 343.53125 826.597656 343.128906 826.394531 342.722656 C 800.308594 271.46875 731.429688 218.984375 650.933594 217.976562 L 376.636719 217.976562 L 376.636719 592.015625 L 650.730469 592.015625 C 731.835938 591.007812 800.71875 539.332031 826.191406 467.269531 Z M 826.191406 467.269531 " clip-rule="nonzero"/></clipPath><clipPath id="a1323064f1"><path d="M 973.121094 384.820312 L 1013.621094 384.820312 L 1013.621094 425.320312 L 973.121094 425.320312 Z M 973.121094 384.820312 " clip-rule="nonzero"/></clipPath><clipPath id="9b1a4c12c4"><path d="M 203.242188 385.140625 L 243.742188 385.140625 L 243.742188 425.640625 L 203.242188 425.640625 Z M 203.242188 385.140625 " clip-rule="nonzero"/></clipPath></defs><g fill="#000000" fill-opacity="1"><g transform="translate(1014.360096, 433.290703)"><g><path d="M 32.953125 1.484375 C 27.316406 1.484375 22.351562 0.460938 18.0625 -1.578125 C 13.769531 -3.617188 10.40625 -6.539062 7.96875 -10.34375 C 5.539062 -14.15625 4.328125 -18.703125 4.328125 -23.984375 L 20.484375 -23.984375 C 20.484375 -20.390625 21.734375 -17.726562 24.234375 -16 C 26.734375 -14.28125 29.601562 -13.421875 32.84375 -13.421875 C 34.882812 -13.421875 36.800781 -13.753906 38.59375 -14.421875 C 40.394531 -15.085938 41.875 -16.070312 43.03125 -17.375 C 44.195312 -18.675781 44.78125 -20.242188 44.78125 -22.078125 C 44.78125 -23.972656 44.109375 -25.46875 42.765625 -26.5625 C 41.429688 -27.65625 39.640625 -28.550781 37.390625 -29.25 C 35.140625 -29.957031 32.675781 -30.628906 30 -31.265625 C 27.25 -31.898438 24.429688 -32.675781 21.546875 -33.59375 C 18.660156 -34.507812 15.984375 -35.722656 13.515625 -37.234375 C 11.054688 -38.742188 9.085938 -40.785156 7.609375 -43.359375 C 6.128906 -45.929688 5.390625 -49.1875 5.390625 -53.125 C 5.390625 -60.238281 7.800781 -65.710938 12.625 -69.546875 C 17.445312 -73.390625 23.976562 -75.3125 32.21875 -75.3125 C 40.664062 -75.3125 47.210938 -73.179688 51.859375 -68.921875 C 56.503906 -64.660156 58.828125 -58.867188 58.828125 -51.546875 L 42.984375 -51.546875 C 42.984375 -54.710938 41.859375 -57.050781 39.609375 -58.5625 C 37.359375 -60.082031 34.753906 -60.84375 31.796875 -60.84375 C 29.191406 -60.84375 26.796875 -60.273438 24.609375 -59.140625 C 22.429688 -58.015625 21.34375 -56.257812 21.34375 -53.875 C 21.34375 -52.113281 21.992188 -50.722656 23.296875 -49.703125 C 24.597656 -48.679688 26.320312 -47.832031 28.46875 -47.15625 C 30.613281 -46.488281 32.988281 -45.835938 35.59375 -45.203125 C 38.414062 -44.503906 41.300781 -43.675781 44.25 -42.71875 C 47.207031 -41.769531 49.953125 -40.484375 52.484375 -38.859375 C 55.023438 -37.242188 57.085938 -35.097656 58.671875 -32.421875 C 60.253906 -29.742188 61.046875 -26.363281 61.046875 -22.28125 C 61.046875 -16.9375 59.757812 -12.503906 57.1875 -8.984375 C 54.625 -5.460938 51.226562 -2.835938 47 -1.109375 C 42.78125 0.617188 38.097656 1.484375 32.953125 1.484375 Z M 32.953125 1.484375 "/></g></g><g transform="translate(1079.73805, 433.290703)"><g><path d="M 53.96875 -57.140625 L 65.484375 -57.140625 L 65.484375 -0.109375 L 53.34375 -0.109375 L 52.078125 -5.171875 C 49.609375 -3.054688 46.804688 -1.398438 43.671875 -0.203125 C 40.535156 0.984375 37.175781 1.578125 33.59375 1.578125 C 27.882812 1.578125 22.773438 0.257812 18.265625 -2.375 C 13.765625 -5.019531 10.210938 -8.613281 7.609375 -13.15625 C 5.003906 -17.695312 3.703125 -22.851562 3.703125 -28.625 C 3.703125 -34.332031 5.003906 -39.457031 7.609375 -44 C 10.210938 -48.539062 13.765625 -52.113281 18.265625 -54.71875 C 22.773438 -57.320312 27.882812 -58.625 33.59375 -58.625 C 37.25 -58.625 40.660156 -58.003906 43.828125 -56.765625 C 47.003906 -55.535156 49.820312 -53.832031 52.28125 -51.65625 Z M 34.859375 -12.984375 C 37.816406 -12.984375 40.472656 -13.648438 42.828125 -14.984375 C 45.191406 -16.328125 47.039062 -18.175781 48.375 -20.53125 C 49.71875 -22.894531 50.390625 -25.59375 50.390625 -28.625 C 50.390625 -31.582031 49.71875 -34.238281 48.375 -36.59375 C 47.039062 -38.957031 45.191406 -40.820312 42.828125 -42.1875 C 40.472656 -43.5625 37.816406 -44.25 34.859375 -44.25 C 31.828125 -44.25 29.148438 -43.5625 26.828125 -42.1875 C 24.503906 -40.820312 22.671875 -38.957031 21.328125 -36.59375 C 19.992188 -34.238281 19.328125 -31.582031 19.328125 -28.625 C 19.328125 -25.59375 19.992188 -22.914062 21.328125 -20.59375 C 22.671875 -18.269531 24.503906 -16.421875 26.828125 -15.046875 C 29.148438 -13.671875 31.828125 -12.984375 34.859375 -12.984375 Z M 34.859375 -12.984375 "/></g></g><g transform="translate(1152.614928, 433.290703)"><g><path d="M 7.390625 0 L 7.390625 -77.640625 L 22.8125 -77.640625 L 22.8125 0 Z M 7.390625 0 "/></g></g></g><g fill="#000000" fill-opacity="1"><g transform="translate(1182.821851, 433.290703)"><g><path d="M 7.390625 -64.640625 L 7.390625 -79 L 22.8125 -79 L 22.8125 -64.640625 Z M 7.390625 0 L 7.390625 -57.03125 L 22.8125 -57.03125 L 22.8125 0 Z M 7.390625 0 "/></g></g></g><g fill="#000000" fill-opacity="1"><g transform="translate(1213.028773, 433.290703)"><g><path d="M 49.328125 -77.640625 L 64.75 -77.640625 L 64.75 0 L 53.34375 0 L 51.546875 -4.75 C 49.148438 -2.707031 46.4375 -1.125 43.40625 0 C 40.382812 1.125 37.144531 1.6875 33.6875 1.6875 C 27.914062 1.6875 22.757812 0.367188 18.21875 -2.265625 C 13.675781 -4.910156 10.117188 -8.503906 7.546875 -13.046875 C 4.984375 -17.585938 3.703125 -22.742188 3.703125 -28.515625 C 3.703125 -34.296875 4.984375 -39.457031 7.546875 -44 C 10.117188 -48.539062 13.675781 -52.113281 18.21875 -54.71875 C 22.757812 -57.320312 27.914062 -58.625 33.6875 -58.625 C 36.582031 -58.625 39.347656 -58.21875 41.984375 -57.40625 C 44.628906 -56.59375 47.078125 -55.445312 49.328125 -53.96875 Z M 34.859375 -12.890625 C 37.878906 -12.890625 40.550781 -13.570312 42.875 -14.9375 C 45.207031 -16.3125 47.054688 -18.175781 48.421875 -20.53125 C 49.796875 -22.894531 50.484375 -25.554688 50.484375 -28.515625 C 50.484375 -31.472656 49.796875 -34.128906 48.421875 -36.484375 C 47.054688 -38.847656 45.207031 -40.71875 42.875 -42.09375 C 40.550781 -43.46875 37.878906 -44.15625 34.859375 -44.15625 C 31.898438 -44.15625 29.257812 -43.46875 26.9375 -42.09375 C 24.613281 -40.71875 22.765625 -38.847656 21.390625 -36.484375 C 20.015625 -34.128906 19.328125 -31.472656 19.328125 -28.515625 C 19.328125 -25.554688 20.015625 -22.894531 21.390625 -20.53125 C 22.765625 -18.175781 24.613281 -16.3125 26.9375 -14.9375 C 29.257812 -13.570312 31.898438 -12.890625 34.859375 -12.890625 Z M 34.859375 -12.890625 "/></g></g><g transform="translate(1285.166321, 433.290703)"><g><path d="M 53.96875 -57.140625 L 65.484375 -57.140625 L 65.484375 -0.109375 L 53.34375 -0.109375 L 52.078125 -5.171875 C 49.609375 -3.054688 46.804688 -1.398438 43.671875 -0.203125 C 40.535156 0.984375 37.175781 1.578125 33.59375 1.578125 C 27.882812 1.578125 22.773438 0.257812 18.265625 -2.375 C 13.765625 -5.019531 10.210938 -8.613281 7.609375 -13.15625 C 5.003906 -17.695312 3.703125 -22.851562 3.703125 -28.625 C 3.703125 -34.332031 5.003906 -39.457031 7.609375 -44 C 10.210938 -48.539062 13.765625 -52.113281 18.265625 -54.71875 C 22.773438 -57.320312 27.882812 -58.625 33.59375 -58.625 C 37.25 -58.625 40.660156 -58.003906 43.828125 -56.765625 C 47.003906 -55.535156 49.820312 -53.832031 52.28125 -51.65625 Z M 34.859375 -12.984375 C 37.816406 -12.984375 40.472656 -13.648438 42.828125 -14.984375 C 45.191406 -16.328125 47.039062 -18.175781 48.375 -20.53125 C 49.71875 -22.894531 50.390625 -25.59375 50.390625 -28.625 C 50.390625 -31.582031 49.71875 -34.238281 48.375 -36.59375 C 47.039062 -38.957031 45.191406 -40.820312 42.828125 -42.1875 C 40.472656 -43.5625 37.816406 -44.25 34.859375 -44.25 C 31.828125 -44.25 29.148438 -43.5625 26.828125 -42.1875 C 24.503906 -40.820312 22.671875 -38.957031 21.328125 -36.59375 C 19.992188 -34.238281 19.328125 -31.582031 19.328125 -28.625 C 19.328125 -25.59375 19.992188 -22.914062 21.328125 -20.59375 C 22.671875 -18.269531 24.503906 -16.421875 26.828125 -15.046875 C 29.148438 -13.671875 31.828125 -12.984375 34.859375 -12.984375 Z M 34.859375 -12.984375 "/></g></g></g><g fill="#000000" fill-opacity="1"><g transform="translate(93.585939, 434.194129)"><g><path d="M 24.5 -14.890625 L 53.96875 -14.890625 L 53.96875 0 L 8.453125 0 L 8.453125 -73.921875 L 52.8125 -73.921875 L 52.8125 -59.140625 L 24.5 -59.140625 L 24.5 -44.5625 L 50.0625 -44.5625 L 50.0625 -30.09375 L 24.5 -30.09375 Z M 24.5 -14.890625 "/></g></g></g><g fill="#000000" fill-opacity="1"><g transform="translate(152.621531, 434.194129)"><g><path d="M 3.59375 -70.234375 L 29.359375 -70.234375 L 29.359375 0 L 14.578125 0 L 14.578125 -57.03125 L 3.59375 -57.03125 Z M 3.59375 -70.234375 "/></g></g></g><g clip-path="url(#31c859f373)"><g clip-path="url(#f05e0573f4)"><path stroke-linecap="butt" transform="matrix(0, -0.75, 0.75, 0, 376.636072, 592.015958)" fill="none" stroke-linejoin="miter" d="M 166.328578 599.407142 C 191.896287 608.099851 220.963997 613.808185 249.495249 613.808185 C 278.021292 613.808185 305.474418 608.91756 330.776503 600.219642 C 331.312961 599.948809 331.849419 599.948809 332.391086 599.677976 C 427.396299 564.896724 497.375469 473.058178 498.719219 365.730047 L 498.719219 0.000862234 L 0.000444289 0.000862234 L 0.000444289 365.459214 C 1.344194 473.599844 70.245239 565.443599 166.328578 599.407142 Z M 166.328578 599.407142 " stroke="#000000" stroke-width="60" stroke-opacity="1" stroke-miterlimit="4"/></g></g><path stroke-linecap="butt" transform="matrix(0.75, 0.000000000000000375, -0.000000000000000375, 0.75, 834.565572, 392.25)" fill="none" stroke-linejoin="miter" d="M 0.00111202 17.000001 L 227.521957 17.000001 " stroke="#000000" stroke-width="34" stroke-opacity="1" stroke-miterlimit="4"/><g clip-path="url(#a1323064f1)"><path fill="#000000" d="M 1013.621094 405.074219 C 1013.621094 405.738281 1013.589844 406.398438 1013.523438 407.058594 C 1013.460938 407.71875 1013.363281 408.375 1013.234375 409.027344 C 1013.105469 409.675781 1012.941406 410.320312 1012.75 410.953125 C 1012.558594 411.589844 1012.335938 412.210938 1012.082031 412.824219 C 1011.828125 413.4375 1011.542969 414.035156 1011.230469 414.621094 C 1010.917969 415.207031 1010.578125 415.773438 1010.210938 416.328125 C 1009.839844 416.878906 1009.445312 417.410156 1009.027344 417.921875 C 1008.605469 418.433594 1008.160156 418.925781 1007.691406 419.394531 C 1007.222656 419.863281 1006.730469 420.308594 1006.21875 420.730469 C 1005.707031 421.152344 1005.171875 421.546875 1004.621094 421.914062 C 1004.070312 422.28125 1003.503906 422.625 1002.917969 422.9375 C 1002.332031 423.25 1001.734375 423.53125 1001.121094 423.785156 C 1000.507812 424.039062 999.882812 424.261719 999.25 424.457031 C 998.613281 424.648438 997.972656 424.808594 997.320312 424.9375 C 996.671875 425.066406 996.015625 425.164062 995.355469 425.230469 C 994.695312 425.292969 994.035156 425.328125 993.371094 425.328125 C 992.707031 425.328125 992.046875 425.292969 991.386719 425.230469 C 990.726562 425.164062 990.070312 425.066406 989.417969 424.9375 C 988.769531 424.808594 988.125 424.648438 987.492188 424.457031 C 986.855469 424.261719 986.234375 424.039062 985.621094 423.785156 C 985.007812 423.53125 984.410156 423.25 983.824219 422.9375 C 983.238281 422.625 982.671875 422.28125 982.117188 421.914062 C 981.566406 421.546875 981.035156 421.152344 980.523438 420.730469 C 980.007812 420.308594 979.519531 419.863281 979.050781 419.394531 C 978.582031 418.925781 978.136719 418.433594 977.714844 417.921875 C 977.292969 417.410156 976.898438 416.878906 976.53125 416.328125 C 976.164062 415.773438 975.820312 415.207031 975.507812 414.621094 C 975.195312 414.035156 974.914062 413.4375 974.660156 412.824219 C 974.40625 412.210938 974.183594 411.589844 973.988281 410.953125 C 973.796875 410.320312 973.636719 409.675781 973.507812 409.027344 C 973.378906 408.375 973.28125 407.71875 973.214844 407.058594 C 973.148438 406.398438 973.117188 405.738281 973.117188 405.074219 C 973.117188 404.410156 973.148438 403.75 973.214844 403.089844 C 973.28125 402.429688 973.378906 401.773438 973.507812 401.125 C 973.636719 400.472656 973.796875 399.832031 973.988281 399.195312 C 974.183594 398.5625 974.40625 397.9375 974.660156 397.324219 C 974.914062 396.710938 975.195312 396.113281 975.507812 395.527344 C 975.820312 394.941406 976.164062 394.375 976.53125 393.824219 C 976.898438 393.269531 977.292969 392.738281 977.714844 392.226562 C 978.136719 391.714844 978.582031 391.222656 979.050781 390.753906 C 979.519531 390.285156 980.007812 389.839844 980.523438 389.417969 C 981.035156 389 981.566406 388.605469 982.117188 388.234375 C 982.671875 387.867188 983.238281 387.527344 983.824219 387.214844 C 984.410156 386.902344 985.007812 386.617188 985.621094 386.363281 C 986.234375 386.109375 986.855469 385.886719 987.492188 385.695312 C 988.125 385.5 988.769531 385.339844 989.417969 385.210938 C 990.070312 385.082031 990.726562 384.984375 991.386719 384.917969 C 992.046875 384.855469 992.707031 384.820312 993.371094 384.820312 C 994.035156 384.820312 994.695312 384.855469 995.355469 384.917969 C 996.015625 384.984375 996.671875 385.082031 997.320312 385.210938 C 997.972656 385.339844 998.613281 385.5 999.25 385.695312 C 999.882812 385.886719 1000.507812 386.109375 1001.121094 386.363281 C 1001.734375 386.617188 1002.332031 386.902344 1002.917969 387.214844 C 1003.503906 387.527344 1004.070312 387.867188 1004.621094 388.234375 C 1005.171875 388.605469 1005.707031 389 1006.21875 389.417969 C 1006.730469 389.839844 1007.222656 390.285156 1007.691406 390.753906 C 1008.160156 391.222656 1008.605469 391.714844 1009.027344 392.226562 C 1009.445312 392.738281 1009.839844 393.269531 1010.210938 393.824219 C 1010.578125 394.375 1010.917969 394.941406 1011.230469 395.527344 C 1011.542969 396.113281 1011.828125 396.710938 1012.082031 397.324219 C 1012.335938 397.9375 1012.558594 398.5625 1012.75 399.195312 C 1012.941406 399.832031 1013.105469 400.472656 1013.234375 401.125 C 1013.363281 401.773438 1013.460938 402.429688 1013.523438 403.089844 C 1013.589844 403.75 1013.621094 404.410156 1013.621094 405.074219 Z M 1013.621094 405.074219 " fill-opacity="1" fill-rule="nonzero"/></g><path stroke-linecap="butt" transform="matrix(0.75, 0.00000000000000075, -0.00000000000000075, 0.75, 208.535753, 392.569159)" fill="none" stroke-linejoin="miter" d="M -0.000796108 17.001538 L 227.525257 17.001538 " stroke="#000000" stroke-width="34" stroke-opacity="1" stroke-miterlimit="4"/><g clip-path="url(#9b1a4c12c4)"><path fill="#000000" d="M 243.746094 405.394531 C 243.746094 406.058594 243.710938 406.71875 243.648438 407.378906 C 243.582031 408.039062 243.484375 408.695312 243.355469 409.34375 C 243.226562 409.996094 243.066406 410.636719 242.871094 411.273438 C 242.679688 411.90625 242.457031 412.53125 242.203125 413.144531 C 241.949219 413.757812 241.667969 414.355469 241.355469 414.941406 C 241.042969 415.527344 240.699219 416.09375 240.332031 416.644531 C 239.964844 417.195312 239.570312 417.730469 239.148438 418.242188 C 238.726562 418.753906 238.28125 419.246094 237.8125 419.714844 C 237.34375 420.183594 236.851562 420.628906 236.339844 421.050781 C 235.828125 421.46875 235.296875 421.863281 234.746094 422.234375 C 234.191406 422.601562 233.625 422.941406 233.039062 423.253906 C 232.453125 423.566406 231.855469 423.851562 231.242188 424.105469 C 230.628906 424.359375 230.007812 424.582031 229.371094 424.773438 C 228.738281 424.964844 228.09375 425.128906 227.445312 425.257812 C 226.792969 425.386719 226.136719 425.484375 225.476562 425.546875 C 224.816406 425.613281 224.15625 425.644531 223.492188 425.644531 C 222.828125 425.644531 222.167969 425.613281 221.507812 425.546875 C 220.847656 425.484375 220.191406 425.386719 219.542969 425.257812 C 218.890625 425.128906 218.25 424.964844 217.613281 424.773438 C 216.980469 424.582031 216.355469 424.359375 215.742188 424.105469 C 215.128906 423.851562 214.53125 423.566406 213.945312 423.253906 C 213.359375 422.941406 212.792969 422.601562 212.242188 422.234375 C 211.6875 421.863281 211.15625 421.46875 210.644531 421.050781 C 210.132812 420.628906 209.640625 420.183594 209.171875 419.714844 C 208.703125 419.246094 208.257812 418.753906 207.835938 418.242188 C 207.417969 417.730469 207.023438 417.195312 206.652344 416.644531 C 206.285156 416.09375 205.945312 415.527344 205.632812 414.941406 C 205.320312 414.355469 205.035156 413.757812 204.78125 413.144531 C 204.527344 412.53125 204.304688 411.90625 204.113281 411.273438 C 203.917969 410.636719 203.757812 409.996094 203.628906 409.34375 C 203.5 408.695312 203.402344 408.039062 203.335938 407.378906 C 203.273438 406.71875 203.238281 406.058594 203.238281 405.394531 C 203.238281 404.730469 203.273438 404.070312 203.335938 403.410156 C 203.402344 402.75 203.5 402.09375 203.628906 401.441406 C 203.757812 400.792969 203.917969 400.148438 204.113281 399.515625 C 204.304688 398.878906 204.527344 398.257812 204.78125 397.644531 C 205.035156 397.03125 205.320312 396.433594 205.632812 395.847656 C 205.945312 395.261719 206.285156 394.695312 206.652344 394.140625 C 207.023438 393.589844 207.417969 393.058594 207.835938 392.546875 C 208.257812 392.03125 208.703125 391.542969 209.171875 391.074219 C 209.640625 390.605469 210.132812 390.160156 210.644531 389.738281 C 211.15625 389.316406 211.6875 388.921875 212.242188 388.554688 C 212.792969 388.1875 213.359375 387.84375 213.945312 387.53125 C 214.53125 387.21875 215.128906 386.9375 215.742188 386.683594 C 216.355469 386.429688 216.980469 386.207031 217.613281 386.011719 C 218.25 385.820312 218.890625 385.660156 219.542969 385.53125 C 220.191406 385.402344 220.847656 385.304688 221.507812 385.238281 C 222.167969 385.171875 222.828125 385.140625 223.492188 385.140625 C 224.15625 385.140625 224.816406 385.171875 225.476562 385.238281 C 226.136719 385.304688 226.792969 385.402344 227.445312 385.53125 C 228.09375 385.660156 228.738281 385.820312 229.371094 386.011719 C 230.007812 386.207031 230.628906 386.429688 231.242188 386.683594 C 231.855469 386.9375 232.453125 387.21875 233.039062 387.53125 C 233.625 387.84375 234.191406 388.1875 234.746094 388.554688 C 235.296875 388.921875 235.828125 389.316406 236.339844 389.738281 C 236.851562 390.160156 237.34375 390.605469 237.8125 391.074219 C 238.28125 391.542969 238.726562 392.03125 239.148438 392.546875 C 239.570312 393.058594 239.964844 393.589844 240.332031 394.140625 C 240.699219 394.695312 241.042969 395.261719 241.355469 395.847656 C 241.667969 396.433594 241.949219 397.03125 242.203125 397.644531 C 242.457031 398.257812 242.679688 398.878906 242.871094 399.515625 C 243.066406 400.148438 243.226562 400.792969 243.355469 401.441406 C 243.484375 402.09375 243.582031 402.75 243.648438 403.410156 C 243.710938 404.070312 243.746094 404.730469 243.746094 405.394531 Z M 243.746094 405.394531 " fill-opacity="1" fill-rule="nonzero"/></g></svg>