<svg xmlns="http://www.w3.org/2000/svg" xmlns:xlink="http://www.w3.org/1999/xlink" width="1920" zoomAndPan="magnify" viewBox="0 0 1440 809.999993" height="1080" preserveAspectRatio="xMidYMid meet" version="1.0"><defs><g/><clipPath id="c4e4e7dfda"><path d="M 376.636719 217.976562 L 836.992188 217.976562 L 836.992188 592.015625 L 376.636719 592.015625 Z M 376.636719 217.976562 " clip-rule="nonzero"/></clipPath><clipPath id="65b6fd30e5"><path d="M 826.191406 467.269531 C 832.710938 448.09375 836.992188 426.292969 836.992188 404.894531 C 836.992188 383.5 833.324219 362.910156 826.800781 343.933594 C 826.597656 343.53125 826.597656 343.128906 826.394531 342.722656 C 800.308594 271.46875 731.429688 218.984375 650.933594 217.976562 L 376.636719 217.976562 L 376.636719 592.015625 L 650.730469 592.015625 C 731.835938 591.007812 800.71875 539.332031 826.191406 467.269531 Z M 826.191406 467.269531 " clip-rule="nonzero"/></clipPath><clipPath id="6124e4f898"><path d="M 973.121094 384.820312 L 1013.621094 384.820312 L 1013.621094 425.320312 L 973.121094 425.320312 Z M 973.121094 384.820312 " clip-rule="nonzero"/></clipPath><clipPath id="b41e961a20"><path d="M 834.566406 365.464844 L 913.316406 365.464844 L 913.316406 444.214844 L 834.566406 444.214844 Z M 834.566406 365.464844 " clip-rule="nonzero"/></clipPath><clipPath id="f87b272faf"><path d="M 874.097656 365.464844 C 852.265625 365.464844 834.566406 383.164062 834.566406 404.996094 C 834.566406 426.828125 852.265625 444.53125 874.097656 444.53125 C 895.933594 444.53125 913.632812 426.828125 913.632812 404.996094 C 913.632812 383.164062 895.933594 365.464844 874.097656 365.464844 Z M 874.097656 365.464844 " clip-rule="nonzero"/></clipPath><clipPath id="5e9132aa19"><path d="M 204.515625 210.199219 L 245.015625 210.199219 L 245.015625 250.699219 L 204.515625 250.699219 Z M 204.515625 210.199219 " clip-rule="nonzero"/></clipPath><clipPath id="d3286772fd"><path d="M 204.515625 297.101562 L 245.015625 297.101562 L 245.015625 337.601562 L 204.515625 337.601562 Z M 204.515625 297.101562 " clip-rule="nonzero"/></clipPath><clipPath id="686e61f54b"><path d="M 204.515625 383.546875 L 245.015625 383.546875 L 245.015625 424.046875 L 204.515625 424.046875 Z M 204.515625 383.546875 " clip-rule="nonzero"/></clipPath><clipPath id="f080e9b283"><path d="M 204.515625 470.21875 L 245.015625 470.21875 L 245.015625 510.71875 L 204.515625 510.71875 Z M 204.515625 470.21875 " clip-rule="nonzero"/></clipPath><clipPath id="3292ddd9e4"><path d="M 204.515625 556.890625 L 245.015625 556.890625 L 245.015625 597.390625 L 204.515625 597.390625 Z M 204.515625 556.890625 " clip-rule="nonzero"/></clipPath></defs><g clip-path="url(#c4e4e7dfda)"><g clip-path="url(#65b6fd30e5)"><path stroke-linecap="butt" transform="matrix(0, -0.75, 0.75, 0, 376.636072, 592.015958)" fill="none" stroke-linejoin="miter" d="M 166.328578 599.407142 C 191.896287 608.099851 220.963997 613.808185 249.495249 613.808185 C 278.021292 613.808185 305.474418 608.91756 330.776503 600.219642 C 331.312961 599.948809 331.849419 599.948809 332.391086 599.677976 C 427.396299 564.896724 497.375469 473.058178 498.719219 365.730047 L 498.719219 0.000862234 L 0.000444289 0.000862234 L 0.000444289 365.459214 C 1.344194 473.599844 70.245239 565.443599 166.328578 599.407142 Z M 166.328578 599.407142 " stroke="#000000" stroke-width="60" stroke-opacity="1" stroke-miterlimit="4"/></g></g><g fill="#000000" fill-opacity="1"><g transform="translate(1014.360096, 433.290703)"><g><path d="M 32.953125 1.484375 C 27.316406 1.484375 22.351562 0.460938 18.0625 -1.578125 C 13.769531 -3.617188 10.40625 -6.539062 7.96875 -10.34375 C 5.539062 -14.15625 4.328125 -18.703125 4.328125 -23.984375 L 20.484375 -23.984375 C 20.484375 -20.390625 21.734375 -17.726562 24.234375 -16 C 26.734375 -14.28125 29.601562 -13.421875 32.84375 -13.421875 C 34.882812 -13.421875 36.800781 -13.753906 38.59375 -14.421875 C 40.394531 -15.085938 41.875 -16.070312 43.03125 -17.375 C 44.195312 -18.675781 44.78125 -20.242188 44.78125 -22.078125 C 44.78125 -23.972656 44.109375 -25.46875 42.765625 -26.5625 C 41.429688 -27.65625 39.640625 -28.550781 37.390625 -29.25 C 35.140625 -29.957031 32.675781 -30.628906 30 -31.265625 C 27.25 -31.898438 24.429688 -32.675781 21.546875 -33.59375 C 18.660156 -34.507812 15.984375 -35.722656 13.515625 -37.234375 C 11.054688 -38.742188 9.085938 -40.785156 7.609375 -43.359375 C 6.128906 -45.929688 5.390625 -49.1875 5.390625 -53.125 C 5.390625 -60.238281 7.800781 -65.710938 12.625 -69.546875 C 17.445312 -73.390625 23.976562 -75.3125 32.21875 -75.3125 C 40.664062 -75.3125 47.210938 -73.179688 51.859375 -68.921875 C 56.503906 -64.660156 58.828125 -58.867188 58.828125 -51.546875 L 42.984375 -51.546875 C 42.984375 -54.710938 41.859375 -57.050781 39.609375 -58.5625 C 37.359375 -60.082031 34.753906 -60.84375 31.796875 -60.84375 C 29.191406 -60.84375 26.796875 -60.273438 24.609375 -59.140625 C 22.429688 -58.015625 21.34375 -56.257812 21.34375 -53.875 C 21.34375 -52.113281 21.992188 -50.722656 23.296875 -49.703125 C 24.597656 -48.679688 26.320312 -47.832031 28.46875 -47.15625 C 30.613281 -46.488281 32.988281 -45.835938 35.59375 -45.203125 C 38.414062 -44.503906 41.300781 -43.675781 44.25 -42.71875 C 47.207031 -41.769531 49.953125 -40.484375 52.484375 -38.859375 C 55.023438 -37.242188 57.085938 -35.097656 58.671875 -32.421875 C 60.253906 -29.742188 61.046875 -26.363281 61.046875 -22.28125 C 61.046875 -16.9375 59.757812 -12.503906 57.1875 -8.984375 C 54.625 -5.460938 51.226562 -2.835938 47 -1.109375 C 42.78125 0.617188 38.097656 1.484375 32.953125 1.484375 Z M 32.953125 1.484375 "/></g></g><g transform="translate(1079.73805, 433.290703)"><g><path d="M 53.96875 -57.140625 L 65.484375 -57.140625 L 65.484375 -0.109375 L 53.34375 -0.109375 L 52.078125 -5.171875 C 49.609375 -3.054688 46.804688 -1.398438 43.671875 -0.203125 C 40.535156 0.984375 37.175781 1.578125 33.59375 1.578125 C 27.882812 1.578125 22.773438 0.257812 18.265625 -2.375 C 13.765625 -5.019531 10.210938 -8.613281 7.609375 -13.15625 C 5.003906 -17.695312 3.703125 -22.851562 3.703125 -28.625 C 3.703125 -34.332031 5.003906 -39.457031 7.609375 -44 C 10.210938 -48.539062 13.765625 -52.113281 18.265625 -54.71875 C 22.773438 -57.320312 27.882812 -58.625 33.59375 -58.625 C 37.25 -58.625 40.660156 -58.003906 43.828125 -56.765625 C 47.003906 -55.535156 49.820312 -53.832031 52.28125 -51.65625 Z M 34.859375 -12.984375 C 37.816406 -12.984375 40.472656 -13.648438 42.828125 -14.984375 C 45.191406 -16.328125 47.039062 -18.175781 48.375 -20.53125 C 49.71875 -22.894531 50.390625 -25.59375 50.390625 -28.625 C 50.390625 -31.582031 49.71875 -34.238281 48.375 -36.59375 C 47.039062 -38.957031 45.191406 -40.820312 42.828125 -42.1875 C 40.472656 -43.5625 37.816406 -44.25 34.859375 -44.25 C 31.828125 -44.25 29.148438 -43.5625 26.828125 -42.1875 C 24.503906 -40.820312 22.671875 -38.957031 21.328125 -36.59375 C 19.992188 -34.238281 19.328125 -31.582031 19.328125 -28.625 C 19.328125 -25.59375 19.992188 -22.914062 21.328125 -20.59375 C 22.671875 -18.269531 24.503906 -16.421875 26.828125 -15.046875 C 29.148438 -13.671875 31.828125 -12.984375 34.859375 -12.984375 Z M 34.859375 -12.984375 "/></g></g><g transform="translate(1152.614928, 433.290703)"><g><path d="M 7.390625 0 L 7.390625 -77.640625 L 22.8125 -77.640625 L 22.8125 0 Z M 7.390625 0 "/></g></g></g><g fill="#000000" fill-opacity="1"><g transform="translate(1182.821851, 433.290703)"><g><path d="M 7.390625 -64.640625 L 7.390625 -79 L 22.8125 -79 L 22.8125 -64.640625 Z M 7.390625 0 L 7.390625 -57.03125 L 22.8125 -57.03125 L 22.8125 0 Z M 7.390625 0 "/></g></g></g><g fill="#000000" fill-opacity="1"><g transform="translate(1213.028773, 433.290703)"><g><path d="M 49.328125 -77.640625 L 64.75 -77.640625 L 64.75 0 L 53.34375 0 L 51.546875 -4.75 C 49.148438 -2.707031 46.4375 -1.125 43.40625 0 C 40.382812 1.125 37.144531 1.6875 33.6875 1.6875 C 27.914062 1.6875 22.757812 0.367188 18.21875 -2.265625 C 13.675781 -4.910156 10.117188 -8.503906 7.546875 -13.046875 C 4.984375 -17.585938 3.703125 -22.742188 3.703125 -28.515625 C 3.703125 -34.296875 4.984375 -39.457031 7.546875 -44 C 10.117188 -48.539062 13.675781 -52.113281 18.21875 -54.71875 C 22.757812 -57.320312 27.914062 -58.625 33.6875 -58.625 C 36.582031 -58.625 39.347656 -58.21875 41.984375 -57.40625 C 44.628906 -56.59375 47.078125 -55.445312 49.328125 -53.96875 Z M 34.859375 -12.890625 C 37.878906 -12.890625 40.550781 -13.570312 42.875 -14.9375 C 45.207031 -16.3125 47.054688 -18.175781 48.421875 -20.53125 C 49.796875 -22.894531 50.484375 -25.554688 50.484375 -28.515625 C 50.484375 -31.472656 49.796875 -34.128906 48.421875 -36.484375 C 47.054688 -38.847656 45.207031 -40.71875 42.875 -42.09375 C 40.550781 -43.46875 37.878906 -44.15625 34.859375 -44.15625 C 31.898438 -44.15625 29.257812 -43.46875 26.9375 -42.09375 C 24.613281 -40.71875 22.765625 -38.847656 21.390625 -36.484375 C 20.015625 -34.128906 19.328125 -31.472656 19.328125 -28.515625 C 19.328125 -25.554688 20.015625 -22.894531 21.390625 -20.53125 C 22.765625 -18.175781 24.613281 -16.3125 26.9375 -14.9375 C 29.257812 -13.570312 31.898438 -12.890625 34.859375 -12.890625 Z M 34.859375 -12.890625 "/></g></g><g transform="translate(1285.166321, 433.290703)"><g><path d="M 53.96875 -57.140625 L 65.484375 -57.140625 L 65.484375 -0.109375 L 53.34375 -0.109375 L 52.078125 -5.171875 C 49.609375 -3.054688 46.804688 -1.398438 43.671875 -0.203125 C 40.535156 0.984375 37.175781 1.578125 33.59375 1.578125 C 27.882812 1.578125 22.773438 0.257812 18.265625 -2.375 C 13.765625 -5.019531 10.210938 -8.613281 7.609375 -13.15625 C 5.003906 -17.695312 3.703125 -22.851562 3.703125 -28.625 C 3.703125 -34.332031 5.003906 -39.457031 7.609375 -44 C 10.210938 -48.539062 13.765625 -52.113281 18.265625 -54.71875 C 22.773438 -57.320312 27.882812 -58.625 33.59375 -58.625 C 37.25 -58.625 40.660156 -58.003906 43.828125 -56.765625 C 47.003906 -55.535156 49.820312 -53.832031 52.28125 -51.65625 Z M 34.859375 -12.984375 C 37.816406 -12.984375 40.472656 -13.648438 42.828125 -14.984375 C 45.191406 -16.328125 47.039062 -18.175781 48.375 -20.53125 C 49.71875 -22.894531 50.390625 -25.59375 50.390625 -28.625 C 50.390625 -31.582031 49.71875 -34.238281 48.375 -36.59375 C 47.039062 -38.957031 45.191406 -40.820312 42.828125 -42.1875 C 40.472656 -43.5625 37.816406 -44.25 34.859375 -44.25 C 31.828125 -44.25 29.148438 -43.5625 26.828125 -42.1875 C 24.503906 -40.820312 22.671875 -38.957031 21.328125 -36.59375 C 19.992188 -34.238281 19.328125 -31.582031 19.328125 -28.625 C 19.328125 -25.59375 19.992188 -22.914062 21.328125 -20.59375 C 22.671875 -18.269531 24.503906 -16.421875 26.828125 -15.046875 C 29.148438 -13.671875 31.828125 -12.984375 34.859375 -12.984375 Z M 34.859375 -12.984375 "/></g></g></g><path stroke-linecap="butt" transform="matrix(0.75, 0.000000000000000587, -0.000000000000000587, 0.75, 896.270937, 392.25)" fill="none" stroke-linejoin="miter" d="M -0.00187451 17.000001 L 145.248133 17.000001 " stroke="#000000" stroke-width="34" stroke-opacity="1" stroke-miterlimit="4"/><g clip-path="url(#6124e4f898)"><path fill="#000000" d="M 1013.621094 405.074219 C 1013.621094 405.738281 1013.589844 406.398438 1013.523438 407.058594 C 1013.460938 407.71875 1013.363281 408.375 1013.234375 409.027344 C 1013.105469 409.675781 1012.941406 410.320312 1012.75 410.953125 C 1012.558594 411.589844 1012.335938 412.210938 1012.082031 412.824219 C 1011.828125 413.4375 1011.542969 414.035156 1011.230469 414.621094 C 1010.917969 415.207031 1010.578125 415.773438 1010.210938 416.328125 C 1009.839844 416.878906 1009.445312 417.410156 1009.027344 417.921875 C 1008.605469 418.433594 1008.160156 418.925781 1007.691406 419.394531 C 1007.222656 419.863281 1006.730469 420.308594 1006.21875 420.730469 C 1005.707031 421.152344 1005.171875 421.546875 1004.621094 421.914062 C 1004.070312 422.28125 1003.503906 422.625 1002.917969 422.9375 C 1002.332031 423.25 1001.734375 423.53125 1001.121094 423.785156 C 1000.507812 424.039062 999.882812 424.261719 999.25 424.457031 C 998.613281 424.648438 997.972656 424.808594 997.320312 424.9375 C 996.671875 425.066406 996.015625 425.164062 995.355469 425.230469 C 994.695312 425.292969 994.035156 425.328125 993.371094 425.328125 C 992.707031 425.328125 992.046875 425.292969 991.386719 425.230469 C 990.726562 425.164062 990.070312 425.066406 989.417969 424.9375 C 988.769531 424.808594 988.125 424.648438 987.492188 424.457031 C 986.855469 424.261719 986.234375 424.039062 985.621094 423.785156 C 985.007812 423.53125 984.410156 423.25 983.824219 422.9375 C 983.238281 422.625 982.671875 422.28125 982.117188 421.914062 C 981.566406 421.546875 981.035156 421.152344 980.523438 420.730469 C 980.007812 420.308594 979.519531 419.863281 979.050781 419.394531 C 978.582031 418.925781 978.136719 418.433594 977.714844 417.921875 C 977.292969 417.410156 976.898438 416.878906 976.53125 416.328125 C 976.164062 415.773438 975.820312 415.207031 975.507812 414.621094 C 975.195312 414.035156 974.914062 413.4375 974.660156 412.824219 C 974.40625 412.210938 974.183594 411.589844 973.988281 410.953125 C 973.796875 410.320312 973.636719 409.675781 973.507812 409.027344 C 973.378906 408.375 973.28125 407.71875 973.214844 407.058594 C 973.148438 406.398438 973.117188 405.738281 973.117188 405.074219 C 973.117188 404.410156 973.148438 403.75 973.214844 403.089844 C 973.28125 402.429688 973.378906 401.773438 973.507812 401.125 C 973.636719 400.472656 973.796875 399.832031 973.988281 399.195312 C 974.183594 398.5625 974.40625 397.9375 974.660156 397.324219 C 974.914062 396.710938 975.195312 396.113281 975.507812 395.527344 C 975.820312 394.941406 976.164062 394.375 976.53125 393.824219 C 976.898438 393.269531 977.292969 392.738281 977.714844 392.226562 C 978.136719 391.714844 978.582031 391.222656 979.050781 390.753906 C 979.519531 390.285156 980.007812 389.839844 980.523438 389.417969 C 981.035156 389 981.566406 388.605469 982.117188 388.234375 C 982.671875 387.867188 983.238281 387.527344 983.824219 387.214844 C 984.410156 386.902344 985.007812 386.617188 985.621094 386.363281 C 986.234375 386.109375 986.855469 385.886719 987.492188 385.695312 C 988.125 385.5 988.769531 385.339844 989.417969 385.210938 C 990.070312 385.082031 990.726562 384.984375 991.386719 384.917969 C 992.046875 384.855469 992.707031 384.820312 993.371094 384.820312 C 994.035156 384.820312 994.695312 384.855469 995.355469 384.917969 C 996.015625 384.984375 996.671875 385.082031 997.320312 385.210938 C 997.972656 385.339844 998.613281 385.5 999.25 385.695312 C 999.882812 385.886719 1000.507812 386.109375 1001.121094 386.363281 C 1001.734375 386.617188 1002.332031 386.902344 1002.917969 387.214844 C 1003.503906 387.527344 1004.070312 387.867188 1004.621094 388.234375 C 1005.171875 388.605469 1005.707031 389 1006.21875 389.417969 C 1006.730469 389.839844 1007.222656 390.285156 1007.691406 390.753906 C 1008.160156 391.222656 1008.605469 391.714844 1009.027344 392.226562 C 1009.445312 392.738281 1009.839844 393.269531 1010.210938 393.824219 C 1010.578125 394.375 1010.917969 394.941406 1011.230469 395.527344 C 1011.542969 396.113281 1011.828125 396.710938 1012.082031 397.324219 C 1012.335938 397.9375 1012.558594 398.5625 1012.75 399.195312 C 1012.941406 399.832031 1013.105469 400.472656 1013.234375 401.125 C 1013.363281 401.773438 1013.460938 402.429688 1013.523438 403.089844 C 1013.589844 403.75 1013.621094 404.410156 1013.621094 405.074219 Z M 1013.621094 405.074219 " fill-opacity="1" fill-rule="nonzero"/></g><g clip-path="url(#b41e961a20)"><g clip-path="url(#f87b272faf)"><path stroke-linecap="butt" transform="matrix(0.75, 0, 0, 0.75, 834.565572, 365.463282)" fill="none" stroke-linejoin="miter" d="M 52.709448 0.00208178 C 23.600072 0.00208178 0.00111202 23.601041 0.00111202 52.710418 C 0.00111202 81.819794 23.600072 105.423962 52.709448 105.423962 C 81.824033 105.423962 105.422992 81.819794 105.422992 52.710418 C 105.422992 23.601041 81.824033 0.00208178 52.709448 0.00208178 Z M 52.709448 0.00208178 " stroke="#000000" stroke-width="60" stroke-opacity="1" stroke-miterlimit="4"/></g></g><g fill="#000000" fill-opacity="1"><g transform="translate(94.857891, 259.254017)"><g><path d="M 24.5 -14.890625 L 53.96875 -14.890625 L 53.96875 0 L 8.453125 0 L 8.453125 -73.921875 L 52.8125 -73.921875 L 52.8125 -59.140625 L 24.5 -59.140625 L 24.5 -44.5625 L 50.0625 -44.5625 L 50.0625 -30.09375 L 24.5 -30.09375 Z M 24.5 -14.890625 "/></g></g></g><g fill="#000000" fill-opacity="1"><g transform="translate(153.893483, 259.254017)"><g><path d="M 3.59375 -70.234375 L 29.359375 -70.234375 L 29.359375 0 L 14.578125 0 L 14.578125 -57.03125 L 3.59375 -57.03125 Z M 3.59375 -70.234375 "/></g></g></g><path stroke-linecap="butt" transform="matrix(0.75, 0.00000000000000075, -0.00000000000000075, 0.75, 209.807691, 217.629033)" fill="none" stroke-linejoin="miter" d="M 0.00120384 16.999832 L 227.522049 16.999832 " stroke="#000000" stroke-width="34" stroke-opacity="1" stroke-miterlimit="4"/><g clip-path="url(#5e9132aa19)"><path fill="#000000" d="M 245.015625 230.453125 C 245.015625 231.117188 244.984375 231.777344 244.917969 232.4375 C 244.855469 233.097656 244.757812 233.753906 244.628906 234.40625 C 244.5 235.054688 244.335938 235.699219 244.144531 236.332031 C 243.953125 236.96875 243.730469 237.589844 243.476562 238.203125 C 243.222656 238.816406 242.9375 239.414062 242.625 240 C 242.3125 240.585938 241.972656 241.152344 241.605469 241.707031 C 241.234375 242.257812 240.839844 242.789062 240.421875 243.300781 C 240 243.816406 239.554688 244.304688 239.085938 244.773438 C 238.617188 245.242188 238.125 245.6875 237.613281 246.109375 C 237.101562 246.53125 236.566406 246.925781 236.015625 247.292969 C 235.464844 247.660156 234.894531 248.003906 234.3125 248.316406 C 233.726562 248.628906 233.128906 248.910156 232.515625 249.164062 C 231.902344 249.417969 231.277344 249.640625 230.644531 249.835938 C 230.007812 250.027344 229.367188 250.1875 228.714844 250.316406 C 228.066406 250.445312 227.410156 250.542969 226.75 250.609375 C 226.089844 250.671875 225.429688 250.707031 224.765625 250.707031 C 224.101562 250.707031 223.441406 250.671875 222.78125 250.609375 C 222.121094 250.542969 221.464844 250.445312 220.8125 250.316406 C 220.164062 250.1875 219.519531 250.027344 218.886719 249.835938 C 218.25 249.640625 217.628906 249.417969 217.015625 249.164062 C 216.402344 248.910156 215.800781 248.628906 215.21875 248.316406 C 214.632812 248.003906 214.0625 247.660156 213.511719 247.292969 C 212.960938 246.925781 212.429688 246.53125 211.917969 246.109375 C 211.402344 245.6875 210.914062 245.242188 210.445312 244.773438 C 209.976562 244.304688 209.53125 243.816406 209.109375 243.300781 C 208.6875 242.789062 208.292969 242.257812 207.925781 241.707031 C 207.554688 241.152344 207.214844 240.585938 206.902344 240 C 206.589844 239.414062 206.308594 238.816406 206.054688 238.203125 C 205.800781 237.589844 205.578125 236.96875 205.382812 236.332031 C 205.191406 235.699219 205.03125 235.054688 204.902344 234.40625 C 204.773438 233.753906 204.675781 233.097656 204.609375 232.4375 C 204.542969 231.777344 204.511719 231.117188 204.511719 230.453125 C 204.511719 229.789062 204.542969 229.128906 204.609375 228.46875 C 204.675781 227.808594 204.773438 227.152344 204.902344 226.503906 C 205.03125 225.851562 205.191406 225.210938 205.382812 224.574219 C 205.578125 223.941406 205.800781 223.316406 206.054688 222.703125 C 206.308594 222.089844 206.589844 221.492188 206.902344 220.90625 C 207.214844 220.320312 207.554688 219.753906 207.925781 219.203125 C 208.292969 218.652344 208.6875 218.117188 209.109375 217.605469 C 209.53125 217.09375 209.976562 216.601562 210.445312 216.132812 C 210.914062 215.664062 211.402344 215.21875 211.917969 214.796875 C 212.429688 214.378906 212.960938 213.984375 213.511719 213.613281 C 214.0625 213.246094 214.632812 212.90625 215.21875 212.59375 C 215.800781 212.28125 216.402344 211.996094 217.015625 211.742188 C 217.628906 211.488281 218.25 211.265625 218.886719 211.074219 C 219.519531 210.878906 220.164062 210.71875 220.8125 210.589844 C 221.464844 210.460938 222.121094 210.363281 222.78125 210.296875 C 223.441406 210.234375 224.101562 210.199219 224.765625 210.199219 C 225.429688 210.199219 226.089844 210.234375 226.75 210.296875 C 227.410156 210.363281 228.066406 210.460938 228.714844 210.589844 C 229.367188 210.71875 230.007812 210.878906 230.644531 211.074219 C 231.277344 211.265625 231.902344 211.488281 232.515625 211.742188 C 233.128906 211.996094 233.726562 212.28125 234.3125 212.59375 C 234.894531 212.90625 235.464844 213.246094 236.015625 213.613281 C 236.566406 213.984375 237.101562 214.378906 237.613281 214.796875 C 238.125 215.21875 238.617188 215.664062 239.085938 216.132812 C 239.554688 216.601562 240 217.09375 240.421875 217.605469 C 240.839844 218.117188 241.234375 218.652344 241.605469 219.203125 C 241.972656 219.753906 242.3125 220.320312 242.625 220.90625 C 242.9375 221.492188 243.222656 222.089844 243.476562 222.703125 C 243.730469 223.316406 243.953125 223.941406 244.144531 224.574219 C 244.335938 225.210938 244.5 225.851562 244.628906 226.503906 C 244.757812 227.152344 244.855469 227.808594 244.917969 228.46875 C 244.984375 229.128906 245.015625 229.789062 245.015625 230.453125 Z M 245.015625 230.453125 " fill-opacity="1" fill-rule="nonzero"/></g><g fill="#000000" fill-opacity="1"><g transform="translate(84.93211, 345.926794)"><g><path d="M 24.5 -14.890625 L 53.96875 -14.890625 L 53.96875 0 L 8.453125 0 L 8.453125 -73.921875 L 52.8125 -73.921875 L 52.8125 -59.140625 L 24.5 -59.140625 L 24.5 -44.5625 L 50.0625 -44.5625 L 50.0625 -30.09375 L 24.5 -30.09375 Z M 24.5 -14.890625 "/></g></g></g><g fill="#000000" fill-opacity="1"><g transform="translate(143.967702, 345.926794)"><g><path d="M 31.265625 -14.15625 L 52.703125 -14.15625 L 52.703125 0 L 3.484375 0 L 3.484375 -3.28125 C 9.253906 -9.96875 14.09375 -15.632812 18 -20.28125 C 21.914062 -24.925781 25.066406 -28.796875 27.453125 -31.890625 C 29.847656 -34.992188 31.675781 -37.582031 32.9375 -39.65625 C 34.207031 -41.726562 35.054688 -43.519531 35.484375 -45.03125 C 35.910156 -46.550781 36.125 -48.015625 36.125 -49.421875 C 36.125 -51.890625 35.382812 -53.863281 33.90625 -55.34375 C 32.425781 -56.820312 30.488281 -57.5625 28.09375 -57.5625 C 25.625 -57.5625 23.632812 -56.800781 22.125 -55.28125 C 20.613281 -53.769531 19.859375 -51.75 19.859375 -49.21875 L 19.859375 -47.953125 L 4.75 -47.953125 L 4.75 -49.421875 C 4.75 -53.722656 5.695312 -57.546875 7.59375 -60.890625 C 9.5 -64.234375 12.175781 -66.867188 15.625 -68.796875 C 19.082031 -70.734375 23.164062 -71.703125 27.875 -71.703125 C 32.457031 -71.703125 36.507812 -70.75 40.03125 -68.84375 C 43.550781 -66.945312 46.3125 -64.34375 48.3125 -61.03125 C 50.320312 -57.726562 51.328125 -53.929688 51.328125 -49.640625 C 51.328125 -47.453125 51.046875 -45.265625 50.484375 -43.078125 C 49.921875 -40.898438 48.914062 -38.472656 47.46875 -35.796875 C 46.03125 -33.117188 43.988281 -30.035156 41.34375 -26.546875 C 38.707031 -23.066406 35.347656 -18.9375 31.265625 -14.15625 Z M 31.265625 -14.15625 "/></g></g></g><path stroke-linecap="butt" transform="matrix(0.75, 0.00000000000000075, -0.00000000000000075, 0.75, 209.807691, 304.528509)" fill="none" stroke-linejoin="miter" d="M 0.00120384 16.998447 L 227.522049 16.998447 " stroke="#000000" stroke-width="34" stroke-opacity="1" stroke-miterlimit="4"/><g clip-path="url(#d3286772fd)"><path fill="#000000" d="M 245.015625 317.351562 C 245.015625 318.015625 244.984375 318.679688 244.917969 319.339844 C 244.855469 320 244.757812 320.652344 244.628906 321.304688 C 244.5 321.953125 244.335938 322.597656 244.144531 323.230469 C 243.953125 323.867188 243.730469 324.492188 243.476562 325.101562 C 243.222656 325.714844 242.9375 326.316406 242.625 326.898438 C 242.3125 327.484375 241.972656 328.054688 241.605469 328.605469 C 241.234375 329.15625 240.839844 329.6875 240.421875 330.203125 C 240 330.714844 239.554688 331.203125 239.085938 331.675781 C 238.617188 332.144531 238.125 332.585938 237.613281 333.007812 C 237.101562 333.429688 236.566406 333.824219 236.015625 334.191406 C 235.464844 334.5625 234.894531 334.902344 234.3125 335.214844 C 233.726562 335.527344 233.128906 335.808594 232.515625 336.0625 C 231.902344 336.316406 231.277344 336.542969 230.644531 336.734375 C 230.007812 336.925781 229.367188 337.085938 228.714844 337.214844 C 228.066406 337.347656 227.410156 337.441406 226.75 337.507812 C 226.089844 337.574219 225.429688 337.605469 224.765625 337.605469 C 224.101562 337.605469 223.441406 337.574219 222.78125 337.507812 C 222.121094 337.441406 221.464844 337.347656 220.8125 337.214844 C 220.164062 337.085938 219.519531 336.925781 218.886719 336.734375 C 218.25 336.542969 217.628906 336.316406 217.015625 336.0625 C 216.402344 335.808594 215.800781 335.527344 215.21875 335.214844 C 214.632812 334.902344 214.0625 334.5625 213.511719 334.191406 C 212.960938 333.824219 212.429688 333.429688 211.917969 333.007812 C 211.402344 332.585938 210.914062 332.144531 210.445312 331.675781 C 209.976562 331.203125 209.53125 330.714844 209.109375 330.203125 C 208.6875 329.6875 208.292969 329.15625 207.925781 328.605469 C 207.554688 328.054688 207.214844 327.484375 206.902344 326.898438 C 206.589844 326.316406 206.308594 325.714844 206.054688 325.101562 C 205.800781 324.492188 205.578125 323.867188 205.382812 323.230469 C 205.191406 322.597656 205.03125 321.953125 204.902344 321.304688 C 204.773438 320.652344 204.675781 320 204.609375 319.339844 C 204.542969 318.679688 204.511719 318.015625 204.511719 317.351562 C 204.511719 316.691406 204.542969 316.027344 204.609375 315.367188 C 204.675781 314.707031 204.773438 314.050781 204.902344 313.402344 C 205.03125 312.75 205.191406 312.109375 205.382812 311.472656 C 205.578125 310.839844 205.800781 310.214844 206.054688 309.601562 C 206.308594 308.988281 206.589844 308.390625 206.902344 307.804688 C 207.214844 307.222656 207.554688 306.652344 207.925781 306.101562 C 208.292969 305.550781 208.6875 305.019531 209.109375 304.503906 C 209.53125 303.992188 209.976562 303.5 210.445312 303.03125 C 210.914062 302.5625 211.402344 302.117188 211.917969 301.699219 C 212.429688 301.277344 212.960938 300.882812 213.511719 300.515625 C 214.0625 300.144531 214.632812 299.804688 215.21875 299.492188 C 215.800781 299.179688 216.402344 298.894531 217.015625 298.640625 C 217.628906 298.386719 218.25 298.164062 218.886719 297.972656 C 219.519531 297.78125 220.164062 297.621094 220.8125 297.488281 C 221.464844 297.359375 222.121094 297.261719 222.78125 297.199219 C 223.441406 297.132812 224.101562 297.101562 224.765625 297.101562 C 225.429688 297.101562 226.089844 297.132812 226.75 297.199219 C 227.410156 297.261719 228.066406 297.359375 228.714844 297.488281 C 229.367188 297.621094 230.007812 297.78125 230.644531 297.972656 C 231.277344 298.164062 231.902344 298.386719 232.515625 298.640625 C 233.128906 298.894531 233.726562 299.179688 234.3125 299.492188 C 234.894531 299.804688 235.464844 300.144531 236.015625 300.515625 C 236.566406 300.882812 237.101562 301.277344 237.613281 301.699219 C 238.125 302.117188 238.617188 302.5625 239.085938 303.03125 C 239.554688 303.5 240 303.992188 240.421875 304.503906 C 240.839844 305.019531 241.234375 305.550781 241.605469 306.101562 C 241.972656 306.652344 242.3125 307.222656 242.625 307.804688 C 242.9375 308.390625 243.222656 308.988281 243.476562 309.601562 C 243.730469 310.214844 243.953125 310.839844 244.144531 311.472656 C 244.335938 312.109375 244.5 312.75 244.628906 313.402344 C 244.757812 314.050781 244.855469 314.707031 244.917969 315.367188 C 244.984375 316.027344 245.015625 316.691406 245.015625 317.351562 Z M 245.015625 317.351562 " fill-opacity="1" fill-rule="nonzero"/></g><g fill="#000000" fill-opacity="1"><g transform="translate(84.768048, 432.59953)"><g><path d="M 24.5 -14.890625 L 53.96875 -14.890625 L 53.96875 0 L 8.453125 0 L 8.453125 -73.921875 L 52.8125 -73.921875 L 52.8125 -59.140625 L 24.5 -59.140625 L 24.5 -44.5625 L 50.0625 -44.5625 L 50.0625 -30.09375 L 24.5 -30.09375 Z M 24.5 -14.890625 "/></g></g></g><g fill="#000000" fill-opacity="1"><g transform="translate(143.80364, 432.59953)"><g><path d="M 36.328125 -44.25 C 41.535156 -43.125 45.707031 -40.609375 48.84375 -36.703125 C 51.976562 -32.796875 53.546875 -28.0625 53.546875 -22.5 C 53.546875 -17.914062 52.453125 -13.828125 50.265625 -10.234375 C 48.085938 -6.648438 45.128906 -3.835938 41.390625 -1.796875 C 37.660156 0.242188 33.40625 1.265625 28.625 1.265625 C 23.976562 1.265625 19.859375 0.28125 16.265625 -1.6875 C 12.671875 -3.65625 9.832031 -6.398438 7.75 -9.921875 C 5.675781 -13.441406 4.535156 -17.523438 4.328125 -22.171875 L 19.4375 -22.171875 C 19.570312 -19.359375 20.46875 -17.085938 22.125 -15.359375 C 23.78125 -13.640625 25.945312 -12.78125 28.625 -12.78125 C 31.4375 -12.78125 33.757812 -13.726562 35.59375 -15.625 C 37.425781 -17.53125 38.34375 -19.992188 38.34375 -23.015625 C 38.34375 -26.046875 37.351562 -28.421875 35.375 -30.140625 C 33.40625 -31.867188 30.800781 -32.734375 27.5625 -32.734375 L 17.421875 -32.734375 L 17.421875 -35.59375 L 30.203125 -56.71875 L 6.015625 -56.71875 L 6.015625 -70.234375 L 50.90625 -70.234375 L 50.90625 -67.375 Z M 36.328125 -44.25 "/></g></g></g><path stroke-linecap="butt" transform="matrix(0.75, 0.00000000000000075, -0.00000000000000075, 0.75, 209.807691, 390.974532)" fill="none" stroke-linejoin="miter" d="M 0.00120384 16.997499 L 227.522049 16.997499 " stroke="#000000" stroke-width="34" stroke-opacity="1" stroke-miterlimit="4"/><g clip-path="url(#686e61f54b)"><path fill="#000000" d="M 245.015625 403.800781 C 245.015625 404.460938 244.984375 405.125 244.917969 405.785156 C 244.855469 406.445312 244.757812 407.101562 244.628906 407.75 C 244.5 408.402344 244.335938 409.042969 244.144531 409.679688 C 243.953125 410.3125 243.730469 410.9375 243.476562 411.550781 C 243.222656 412.164062 242.9375 412.761719 242.625 413.347656 C 242.3125 413.929688 241.972656 414.5 241.605469 415.050781 C 241.234375 415.601562 240.839844 416.132812 240.421875 416.648438 C 240 417.160156 239.554688 417.652344 239.085938 418.121094 C 238.617188 418.589844 238.125 419.035156 237.613281 419.453125 C 237.101562 419.875 236.566406 420.269531 236.015625 420.636719 C 235.464844 421.007812 234.894531 421.347656 234.3125 421.660156 C 233.726562 421.972656 233.128906 422.257812 232.515625 422.511719 C 231.902344 422.765625 231.277344 422.988281 230.644531 423.179688 C 230.007812 423.371094 229.367188 423.53125 228.714844 423.664062 C 228.066406 423.792969 227.410156 423.890625 226.75 423.953125 C 226.089844 424.019531 225.429688 424.050781 224.765625 424.050781 C 224.101562 424.050781 223.441406 424.019531 222.78125 423.953125 C 222.121094 423.890625 221.464844 423.792969 220.8125 423.664062 C 220.164062 423.53125 219.519531 423.371094 218.886719 423.179688 C 218.25 422.988281 217.628906 422.765625 217.015625 422.511719 C 216.402344 422.257812 215.800781 421.972656 215.21875 421.660156 C 214.632812 421.347656 214.0625 421.007812 213.511719 420.636719 C 212.960938 420.269531 212.429688 419.875 211.917969 419.453125 C 211.402344 419.035156 210.914062 418.589844 210.445312 418.121094 C 209.976562 417.652344 209.53125 417.160156 209.109375 416.648438 C 208.6875 416.132812 208.292969 415.601562 207.925781 415.050781 C 207.554688 414.5 207.214844 413.929688 206.902344 413.347656 C 206.589844 412.761719 206.308594 412.164062 206.054688 411.550781 C 205.800781 410.9375 205.578125 410.3125 205.382812 409.679688 C 205.191406 409.042969 205.03125 408.402344 204.902344 407.75 C 204.773438 407.101562 204.675781 406.445312 204.609375 405.785156 C 204.542969 405.125 204.511719 404.460938 204.511719 403.800781 C 204.511719 403.136719 204.542969 402.472656 204.609375 401.8125 C 204.675781 401.152344 204.773438 400.5 204.902344 399.847656 C 205.03125 399.199219 205.191406 398.554688 205.382812 397.921875 C 205.578125 397.285156 205.800781 396.660156 206.054688 396.046875 C 206.308594 395.4375 206.589844 394.835938 206.902344 394.253906 C 207.214844 393.667969 207.554688 393.097656 207.925781 392.546875 C 208.292969 391.996094 208.6875 391.464844 209.109375 390.949219 C 209.53125 390.4375 209.976562 389.949219 210.445312 389.476562 C 210.914062 389.007812 211.402344 388.566406 211.917969 388.144531 C 212.429688 387.722656 212.960938 387.328125 213.511719 386.960938 C 214.0625 386.589844 214.632812 386.25 215.21875 385.9375 C 215.800781 385.625 216.402344 385.34375 217.015625 385.089844 C 217.628906 384.835938 218.25 384.609375 218.886719 384.417969 C 219.519531 384.226562 220.164062 384.066406 220.8125 383.9375 C 221.464844 383.804688 222.121094 383.710938 222.78125 383.644531 C 223.441406 383.578125 224.101562 383.546875 224.765625 383.546875 C 225.429688 383.546875 226.089844 383.578125 226.75 383.644531 C 227.410156 383.710938 228.066406 383.804688 228.714844 383.9375 C 229.367188 384.066406 230.007812 384.226562 230.644531 384.417969 C 231.277344 384.609375 231.902344 384.835938 232.515625 385.089844 C 233.128906 385.34375 233.726562 385.625 234.3125 385.9375 C 234.894531 386.25 235.464844 386.589844 236.015625 386.960938 C 236.566406 387.328125 237.101562 387.722656 237.613281 388.144531 C 238.125 388.566406 238.617188 389.007812 239.085938 389.476562 C 239.554688 389.949219 240 390.4375 240.421875 390.949219 C 240.839844 391.464844 241.234375 391.996094 241.605469 392.546875 C 241.972656 393.097656 242.3125 393.667969 242.625 394.253906 C 242.9375 394.835938 243.222656 395.4375 243.476562 396.046875 C 243.730469 396.660156 243.953125 397.285156 244.144531 397.921875 C 244.335938 398.554688 244.5 399.199219 244.628906 399.847656 C 244.757812 400.5 244.855469 401.152344 244.917969 401.8125 C 244.984375 402.472656 245.015625 403.136719 245.015625 403.800781 Z M 245.015625 403.800781 " fill-opacity="1" fill-rule="nonzero"/></g><g fill="#000000" fill-opacity="1"><g transform="translate(84.451641, 519.272274)"><g><path d="M 24.5 -14.890625 L 53.96875 -14.890625 L 53.96875 0 L 8.453125 0 L 8.453125 -73.921875 L 52.8125 -73.921875 L 52.8125 -59.140625 L 24.5 -59.140625 L 24.5 -44.5625 L 50.0625 -44.5625 L 50.0625 -30.09375 L 24.5 -30.09375 Z M 24.5 -14.890625 "/></g></g></g><g fill="#000000" fill-opacity="1"><g transform="translate(143.487234, 519.272274)"><g><path d="M 55.765625 -26.609375 L 55.765625 -13.515625 L 49.640625 -13.515625 L 49.640625 0 L 35.484375 0 L 35.484375 -13.515625 L 1.796875 -13.515625 L 1.796875 -16.15625 L 24.921875 -70.234375 L 39.8125 -70.234375 L 21.125 -26.609375 L 35.90625 -26.609375 L 38.34375 -43.40625 L 49.640625 -43.40625 L 49.640625 -26.609375 Z M 55.765625 -26.609375 "/></g></g></g><path stroke-linecap="butt" transform="matrix(0.75, 0.00000000000000075, -0.00000000000000075, 0.75, 209.807691, 477.647276)" fill="none" stroke-linejoin="miter" d="M 0.00120384 17.00155 L 227.522049 17.00155 " stroke="#000000" stroke-width="34" stroke-opacity="1" stroke-miterlimit="4"/><g clip-path="url(#f080e9b283)"><path fill="#000000" d="M 245.015625 490.472656 C 245.015625 491.136719 244.984375 491.796875 244.917969 492.457031 C 244.855469 493.117188 244.757812 493.773438 244.628906 494.421875 C 244.5 495.074219 244.335938 495.714844 244.144531 496.351562 C 243.953125 496.984375 243.730469 497.609375 243.476562 498.222656 C 243.222656 498.835938 242.9375 499.433594 242.625 500.019531 C 242.3125 500.605469 241.972656 501.171875 241.605469 501.722656 C 241.234375 502.273438 240.839844 502.808594 240.421875 503.320312 C 240 503.832031 239.554688 504.324219 239.085938 504.792969 C 238.617188 505.261719 238.125 505.707031 237.613281 506.128906 C 237.101562 506.546875 236.566406 506.941406 236.015625 507.3125 C 235.464844 507.679688 234.894531 508.019531 234.3125 508.332031 C 233.726562 508.644531 233.128906 508.929688 232.515625 509.183594 C 231.902344 509.4375 231.277344 509.660156 230.644531 509.851562 C 230.007812 510.046875 229.367188 510.207031 228.714844 510.335938 C 228.066406 510.464844 227.410156 510.5625 226.75 510.625 C 226.089844 510.691406 225.429688 510.722656 224.765625 510.722656 C 224.101562 510.722656 223.441406 510.691406 222.78125 510.625 C 222.121094 510.5625 221.464844 510.464844 220.8125 510.335938 C 220.164062 510.207031 219.519531 510.046875 218.886719 509.851562 C 218.25 509.660156 217.628906 509.4375 217.015625 509.183594 C 216.402344 508.929688 215.800781 508.644531 215.21875 508.332031 C 214.632812 508.019531 214.0625 507.679688 213.511719 507.3125 C 212.960938 506.941406 212.429688 506.546875 211.917969 506.128906 C 211.402344 505.707031 210.914062 505.261719 210.445312 504.792969 C 209.976562 504.324219 209.53125 503.832031 209.109375 503.320312 C 208.6875 502.808594 208.292969 502.273438 207.925781 501.722656 C 207.554688 501.171875 207.214844 500.605469 206.902344 500.019531 C 206.589844 499.433594 206.308594 498.835938 206.054688 498.222656 C 205.800781 497.609375 205.578125 496.984375 205.382812 496.351562 C 205.191406 495.714844 205.03125 495.074219 204.902344 494.421875 C 204.773438 493.773438 204.675781 493.117188 204.609375 492.457031 C 204.542969 491.796875 204.511719 491.136719 204.511719 490.472656 C 204.511719 489.808594 204.542969 489.148438 204.609375 488.488281 C 204.675781 487.828125 204.773438 487.171875 204.902344 486.519531 C 205.03125 485.871094 205.191406 485.226562 205.382812 484.59375 C 205.578125 483.957031 205.800781 483.335938 206.054688 482.722656 C 206.308594 482.109375 206.589844 481.511719 206.902344 480.925781 C 207.214844 480.339844 207.554688 479.773438 207.925781 479.21875 C 208.292969 478.667969 208.6875 478.136719 209.109375 477.625 C 209.53125 477.109375 209.976562 476.621094 210.445312 476.152344 C 210.914062 475.683594 211.402344 475.238281 211.917969 474.816406 C 212.429688 474.394531 212.960938 474 213.511719 473.632812 C 214.0625 473.265625 214.632812 472.921875 215.21875 472.609375 C 215.800781 472.296875 216.402344 472.015625 217.015625 471.761719 C 217.628906 471.507812 218.25 471.285156 218.886719 471.089844 C 219.519531 470.898438 220.164062 470.738281 220.8125 470.609375 C 221.464844 470.480469 222.121094 470.382812 222.78125 470.316406 C 223.441406 470.25 224.101562 470.21875 224.765625 470.21875 C 225.429688 470.21875 226.089844 470.25 226.75 470.316406 C 227.410156 470.382812 228.066406 470.480469 228.714844 470.609375 C 229.367188 470.738281 230.007812 470.898438 230.644531 471.089844 C 231.277344 471.285156 231.902344 471.507812 232.515625 471.761719 C 233.128906 472.015625 233.726562 472.296875 234.3125 472.609375 C 234.894531 472.921875 235.464844 473.265625 236.015625 473.632812 C 236.566406 474 237.101562 474.394531 237.613281 474.816406 C 238.125 475.238281 238.617188 475.683594 239.085938 476.152344 C 239.554688 476.621094 240 477.109375 240.421875 477.625 C 240.839844 478.136719 241.234375 478.667969 241.605469 479.21875 C 241.972656 479.773438 242.3125 480.339844 242.625 480.925781 C 242.9375 481.511719 243.222656 482.109375 243.476562 482.722656 C 243.730469 483.335938 243.953125 483.957031 244.144531 484.59375 C 244.335938 485.226562 244.5 485.871094 244.628906 486.519531 C 244.757812 487.171875 244.855469 487.828125 244.917969 488.488281 C 244.984375 489.148438 245.015625 489.808594 245.015625 490.472656 Z M 245.015625 490.472656 " fill-opacity="1" fill-rule="nonzero"/></g><g fill="#000000" fill-opacity="1"><g transform="translate(85.084454, 605.94503)"><g><path d="M 24.5 -14.890625 L 53.96875 -14.890625 L 53.96875 0 L 8.453125 0 L 8.453125 -73.921875 L 52.8125 -73.921875 L 52.8125 -59.140625 L 24.5 -59.140625 L 24.5 -44.5625 L 50.0625 -44.5625 L 50.0625 -30.09375 L 24.5 -30.09375 Z M 24.5 -14.890625 "/></g></g></g><g fill="#000000" fill-opacity="1"><g transform="translate(144.120046, 605.94503)"><g><path d="M 28.296875 -45.734375 C 33.234375 -45.734375 37.582031 -44.726562 41.34375 -42.71875 C 45.113281 -40.707031 48.070312 -37.957031 50.21875 -34.46875 C 52.363281 -30.988281 53.4375 -27.03125 53.4375 -22.59375 C 53.4375 -18.09375 52.34375 -14.03125 50.15625 -10.40625 C 47.976562 -6.78125 45.039062 -3.925781 41.34375 -1.84375 C 37.644531 0.226562 33.472656 1.265625 28.828125 1.265625 C 24.109375 1.265625 19.882812 0.265625 16.15625 -1.734375 C 12.425781 -3.742188 9.503906 -6.507812 7.390625 -10.03125 C 5.273438 -13.550781 4.1875 -17.566406 4.125 -22.078125 L 19.4375 -22.078125 C 19.4375 -19.398438 20.316406 -17.179688 22.078125 -15.421875 C 23.835938 -13.660156 26.085938 -12.78125 28.828125 -12.78125 C 31.503906 -12.78125 33.738281 -13.710938 35.53125 -15.578125 C 37.332031 -17.441406 38.234375 -19.78125 38.234375 -22.59375 C 38.234375 -25.625 37.265625 -28.085938 35.328125 -29.984375 C 33.390625 -31.890625 30.875 -32.84375 27.78125 -32.84375 L 8.03125 -32.84375 L 6.65625 -34.75 L 10.5625 -70.234375 L 48.578125 -70.234375 L 48.578125 -56.71875 L 22.5 -56.71875 L 21.234375 -45.734375 Z M 28.296875 -45.734375 "/></g></g></g><path stroke-linecap="butt" transform="matrix(0.75, 0.00000000000000075, -0.00000000000000075, 0.75, 209.807691, 564.320032)" fill="none" stroke-linejoin="miter" d="M 0.00120384 17.000375 L 227.522049 17.000375 " stroke="#000000" stroke-width="34" stroke-opacity="1" stroke-miterlimit="4"/><g clip-path="url(#3292ddd9e4)"><path fill="#000000" d="M 245.015625 577.144531 C 245.015625 577.808594 244.984375 578.46875 244.917969 579.128906 C 244.855469 579.789062 244.757812 580.445312 244.628906 581.097656 C 244.5 581.746094 244.335938 582.390625 244.144531 583.023438 C 243.953125 583.660156 243.730469 584.28125 243.476562 584.894531 C 243.222656 585.507812 242.9375 586.105469 242.625 586.691406 C 242.3125 587.277344 241.972656 587.84375 241.605469 588.394531 C 241.234375 588.949219 240.839844 589.480469 240.421875 589.992188 C 240 590.503906 239.554688 590.996094 239.085938 591.464844 C 238.617188 591.933594 238.125 592.378906 237.613281 592.800781 C 237.101562 593.222656 236.566406 593.617188 236.015625 593.984375 C 235.464844 594.351562 234.894531 594.691406 234.3125 595.003906 C 233.726562 595.320312 233.128906 595.601562 232.515625 595.855469 C 231.902344 596.109375 231.277344 596.332031 230.644531 596.523438 C 230.007812 596.71875 229.367188 596.878906 228.714844 597.007812 C 228.066406 597.136719 227.410156 597.234375 226.75 597.300781 C 226.089844 597.363281 225.429688 597.398438 224.765625 597.398438 C 224.101562 597.398438 223.441406 597.363281 222.78125 597.300781 C 222.121094 597.234375 221.464844 597.136719 220.8125 597.007812 C 220.164062 596.878906 219.519531 596.71875 218.886719 596.523438 C 218.25 596.332031 217.628906 596.109375 217.015625 595.855469 C 216.402344 595.601562 215.800781 595.320312 215.21875 595.003906 C 214.632812 594.691406 214.0625 594.351562 213.511719 593.984375 C 212.960938 593.617188 212.429688 593.222656 211.917969 592.800781 C 211.402344 592.378906 210.914062 591.933594 210.445312 591.464844 C 209.976562 590.996094 209.53125 590.503906 209.109375 589.992188 C 208.6875 589.480469 208.292969 588.949219 207.925781 588.394531 C 207.554688 587.84375 207.214844 587.277344 206.902344 586.691406 C 206.589844 586.105469 206.308594 585.507812 206.054688 584.894531 C 205.800781 584.28125 205.578125 583.660156 205.382812 583.023438 C 205.191406 582.390625 205.03125 581.746094 204.902344 581.097656 C 204.773438 580.445312 204.675781 579.789062 204.609375 579.128906 C 204.542969 578.46875 204.511719 577.808594 204.511719 577.144531 C 204.511719 576.480469 204.542969 575.820312 204.609375 575.160156 C 204.675781 574.5 204.773438 573.84375 204.902344 573.195312 C 205.03125 572.542969 205.191406 571.902344 205.382812 571.265625 C 205.578125 570.632812 205.800781 570.007812 206.054688 569.394531 C 206.308594 568.78125 206.589844 568.183594 206.902344 567.597656 C 207.214844 567.011719 207.554688 566.445312 207.925781 565.894531 C 208.292969 565.339844 208.6875 564.808594 209.109375 564.296875 C 209.53125 563.785156 209.976562 563.292969 210.445312 562.824219 C 210.914062 562.355469 211.402344 561.910156 211.917969 561.488281 C 212.429688 561.070312 212.960938 560.671875 213.511719 560.304688 C 214.0625 559.9375 214.632812 559.597656 215.21875 559.285156 C 215.800781 558.972656 216.402344 558.6875 217.015625 558.433594 C 217.628906 558.179688 218.25 557.957031 218.886719 557.765625 C 219.519531 557.570312 220.164062 557.410156 220.8125 557.28125 C 221.464844 557.152344 222.121094 557.054688 222.78125 556.988281 C 223.441406 556.925781 224.101562 556.890625 224.765625 556.890625 C 225.429688 556.890625 226.089844 556.925781 226.75 556.988281 C 227.410156 557.054688 228.066406 557.152344 228.714844 557.28125 C 229.367188 557.410156 230.007812 557.570312 230.644531 557.765625 C 231.277344 557.957031 231.902344 558.179688 232.515625 558.433594 C 233.128906 558.6875 233.726562 558.972656 234.3125 559.285156 C 234.894531 559.597656 235.464844 559.9375 236.015625 560.304688 C 236.566406 560.671875 237.101562 561.070312 237.613281 561.488281 C 238.125 561.910156 238.617188 562.355469 239.085938 562.824219 C 239.554688 563.292969 240 563.785156 240.421875 564.296875 C 240.839844 564.808594 241.234375 565.339844 241.605469 565.894531 C 241.972656 566.445312 242.3125 567.011719 242.625 567.597656 C 242.9375 568.183594 243.222656 568.78125 243.476562 569.394531 C 243.730469 570.007812 243.953125 570.632812 244.144531 571.265625 C 244.335938 571.902344 244.5 572.542969 244.628906 573.195312 C 244.757812 573.84375 244.855469 574.5 244.917969 575.160156 C 244.984375 575.820312 245.015625 576.480469 245.015625 577.144531 Z M 245.015625 577.144531 " fill-opacity="1" fill-rule="nonzero"/></g></svg>