<svg xmlns="http://www.w3.org/2000/svg" xmlns:xlink="http://www.w3.org/1999/xlink" width="1920" zoomAndPan="magnify" viewBox="0 0 1440 809.999993" height="1080" preserveAspectRatio="xMidYMid meet" version="1.0"><defs><g/><clipPath id="6dcc11bb97"><path d="M 376.636719 217.976562 L 836.992188 217.976562 L 836.992188 592.015625 L 376.636719 592.015625 Z M 376.636719 217.976562 " clip-rule="nonzero"/></clipPath><clipPath id="aa59d996e7"><path d="M 826.191406 467.269531 C 832.710938 448.09375 836.992188 426.292969 836.992188 404.894531 C 836.992188 383.5 833.324219 362.910156 826.800781 343.933594 C 826.597656 343.53125 826.597656 343.128906 826.394531 342.722656 C 800.308594 271.46875 731.429688 218.984375 650.933594 217.976562 L 376.636719 217.976562 L 376.636719 592.015625 L 650.730469 592.015625 C 731.835938 591.007812 800.71875 539.332031 826.191406 467.269531 Z M 826.191406 467.269531 " clip-rule="nonzero"/></clipPath><clipPath id="f6e847c770"><path d="M 973.121094 384.820312 L 1013.621094 384.820312 L 1013.621094 425.320312 L 973.121094 425.320312 Z M 973.121094 384.820312 " clip-rule="nonzero"/></clipPath><clipPath id="2c7bc47e4b"><path d="M 834.566406 365.464844 L 913.316406 365.464844 L 913.316406 444.214844 L 834.566406 444.214844 Z M 834.566406 365.464844 " clip-rule="nonzero"/></clipPath><clipPath id="34a63cc0fd"><path d="M 874.097656 365.464844 C 852.265625 365.464844 834.566406 383.164062 834.566406 404.996094 C 834.566406 426.828125 852.265625 444.53125 874.097656 444.53125 C 895.933594 444.53125 913.632812 426.828125 913.632812 404.996094 C 913.632812 383.164062 895.933594 365.464844 874.097656 365.464844 Z M 874.097656 365.464844 " clip-rule="nonzero"/></clipPath><clipPath id="2b933f6c16"><path d="M 204.515625 210.199219 L 245.015625 210.199219 L 245.015625 250.699219 L 204.515625 250.699219 Z M 204.515625 210.199219 " clip-rule="nonzero"/></clipPath><clipPath id="f37b08c42a"><path d="M 308.851562 280.039062 L 349.351562 280.039062 L 349.351562 320.539062 L 308.851562 320.539062 Z M 308.851562 280.039062 " clip-rule="nonzero"/></clipPath><clipPath id="3a5b35e16c"><path d="M 204.515625 349.175781 L 245.015625 349.175781 L 245.015625 389.675781 L 204.515625 389.675781 Z M 204.515625 349.175781 " clip-rule="nonzero"/></clipPath><clipPath id="940ebc64b6"><path d="M 204.515625 488.152344 L 245.015625 488.152344 L 245.015625 528.652344 L 204.515625 528.652344 Z M 204.515625 488.152344 " clip-rule="nonzero"/></clipPath><clipPath id="1b69e0c9fb"><path d="M 308.851562 418.839844 L 349.351562 418.839844 L 349.351562 459.339844 L 308.851562 459.339844 Z M 308.851562 418.839844 " clip-rule="nonzero"/></clipPath><clipPath id="8211f3b042"><path d="M 308.851562 557.464844 L 349.351562 557.464844 L 349.351562 597.964844 L 308.851562 597.964844 Z M 308.851562 557.464844 " clip-rule="nonzero"/></clipPath></defs><g clip-path="url(#6dcc11bb97)"><g clip-path="url(#aa59d996e7)"><path stroke-linecap="butt" transform="matrix(0, -0.75, 0.75, 0, 376.636072, 592.016006)" fill="none" stroke-linejoin="miter" d="M 166.328642 599.407142 C 191.896351 608.099851 220.964061 613.808185 249.495313 613.808185 C 278.021356 613.808185 305.474482 608.91756 330.776567 600.219642 C 331.313025 599.948809 331.849483 599.948809 332.39115 599.677976 C 427.396363 564.896724 497.375533 473.058178 498.719283 365.730047 L 498.719283 0.000862234 L 0.000508289 0.000862234 L 0.000508289 365.459214 C 1.344258 473.599844 70.245303 565.443599 166.328642 599.407142 Z M 166.328642 599.407142 " stroke="#000000" stroke-width="60" stroke-opacity="1" stroke-miterlimit="4"/></g></g><g fill="#000000" fill-opacity="1"><g transform="translate(1014.360096, 433.290675)"><g><path d="M 32.953125 1.484375 C 27.316406 1.484375 22.351562 0.460938 18.0625 -1.578125 C 13.769531 -3.617188 10.40625 -6.539062 7.96875 -10.34375 C 5.539062 -14.15625 4.328125 -18.703125 4.328125 -23.984375 L 20.484375 -23.984375 C 20.484375 -20.390625 21.734375 -17.726562 24.234375 -16 C 26.734375 -14.28125 29.601562 -13.421875 32.84375 -13.421875 C 34.882812 -13.421875 36.800781 -13.753906 38.59375 -14.421875 C 40.394531 -15.085938 41.875 -16.070312 43.03125 -17.375 C 44.195312 -18.675781 44.78125 -20.242188 44.78125 -22.078125 C 44.78125 -23.972656 44.109375 -25.46875 42.765625 -26.5625 C 41.429688 -27.65625 39.640625 -28.550781 37.390625 -29.25 C 35.140625 -29.957031 32.675781 -30.628906 30 -31.265625 C 27.25 -31.898438 24.429688 -32.675781 21.546875 -33.59375 C 18.660156 -34.507812 15.984375 -35.722656 13.515625 -37.234375 C 11.054688 -38.742188 9.085938 -40.785156 7.609375 -43.359375 C 6.128906 -45.929688 5.390625 -49.1875 5.390625 -53.125 C 5.390625 -60.238281 7.800781 -65.710938 12.625 -69.546875 C 17.445312 -73.390625 23.976562 -75.3125 32.21875 -75.3125 C 40.664062 -75.3125 47.210938 -73.179688 51.859375 -68.921875 C 56.503906 -64.660156 58.828125 -58.867188 58.828125 -51.546875 L 42.984375 -51.546875 C 42.984375 -54.710938 41.859375 -57.050781 39.609375 -58.5625 C 37.359375 -60.082031 34.753906 -60.84375 31.796875 -60.84375 C 29.191406 -60.84375 26.796875 -60.273438 24.609375 -59.140625 C 22.429688 -58.015625 21.34375 -56.257812 21.34375 -53.875 C 21.34375 -52.113281 21.992188 -50.722656 23.296875 -49.703125 C 24.597656 -48.679688 26.320312 -47.832031 28.46875 -47.15625 C 30.613281 -46.488281 32.988281 -45.835938 35.59375 -45.203125 C 38.414062 -44.503906 41.300781 -43.675781 44.25 -42.71875 C 47.207031 -41.769531 49.953125 -40.484375 52.484375 -38.859375 C 55.023438 -37.242188 57.085938 -35.097656 58.671875 -32.421875 C 60.253906 -29.742188 61.046875 -26.363281 61.046875 -22.28125 C 61.046875 -16.9375 59.757812 -12.503906 57.1875 -8.984375 C 54.625 -5.460938 51.226562 -2.835938 47 -1.109375 C 42.78125 0.617188 38.097656 1.484375 32.953125 1.484375 Z M 32.953125 1.484375 "/></g></g><g transform="translate(1079.73805, 433.290675)"><g><path d="M 53.96875 -57.140625 L 65.484375 -57.140625 L 65.484375 -0.109375 L 53.34375 -0.109375 L 52.078125 -5.171875 C 49.609375 -3.054688 46.804688 -1.398438 43.671875 -0.203125 C 40.535156 0.984375 37.175781 1.578125 33.59375 1.578125 C 27.882812 1.578125 22.773438 0.257812 18.265625 -2.375 C 13.765625 -5.019531 10.210938 -8.613281 7.609375 -13.15625 C 5.003906 -17.695312 3.703125 -22.851562 3.703125 -28.625 C 3.703125 -34.332031 5.003906 -39.457031 7.609375 -44 C 10.210938 -48.539062 13.765625 -52.113281 18.265625 -54.71875 C 22.773438 -57.320312 27.882812 -58.625 33.59375 -58.625 C 37.25 -58.625 40.660156 -58.003906 43.828125 -56.765625 C 47.003906 -55.535156 49.820312 -53.832031 52.28125 -51.65625 Z M 34.859375 -12.984375 C 37.816406 -12.984375 40.472656 -13.648438 42.828125 -14.984375 C 45.191406 -16.328125 47.039062 -18.175781 48.375 -20.53125 C 49.71875 -22.894531 50.390625 -25.59375 50.390625 -28.625 C 50.390625 -31.582031 49.71875 -34.238281 48.375 -36.59375 C 47.039062 -38.957031 45.191406 -40.820312 42.828125 -42.1875 C 40.472656 -43.5625 37.816406 -44.25 34.859375 -44.25 C 31.828125 -44.25 29.148438 -43.5625 26.828125 -42.1875 C 24.503906 -40.820312 22.671875 -38.957031 21.328125 -36.59375 C 19.992188 -34.238281 19.328125 -31.582031 19.328125 -28.625 C 19.328125 -25.59375 19.992188 -22.914062 21.328125 -20.59375 C 22.671875 -18.269531 24.503906 -16.421875 26.828125 -15.046875 C 29.148438 -13.671875 31.828125 -12.984375 34.859375 -12.984375 Z M 34.859375 -12.984375 "/></g></g><g transform="translate(1152.614928, 433.290675)"><g><path d="M 7.390625 0 L 7.390625 -77.640625 L 22.8125 -77.640625 L 22.8125 0 Z M 7.390625 0 "/></g></g></g><g fill="#000000" fill-opacity="1"><g transform="translate(1182.821851, 433.290675)"><g><path d="M 7.390625 -64.640625 L 7.390625 -79 L 22.8125 -79 L 22.8125 -64.640625 Z M 7.390625 0 L 7.390625 -57.03125 L 22.8125 -57.03125 L 22.8125 0 Z M 7.390625 0 "/></g></g></g><g fill="#000000" fill-opacity="1"><g transform="translate(1213.028773, 433.290675)"><g><path d="M 49.328125 -77.640625 L 64.75 -77.640625 L 64.75 0 L 53.34375 0 L 51.546875 -4.75 C 49.148438 -2.707031 46.4375 -1.125 43.40625 0 C 40.382812 1.125 37.144531 1.6875 33.6875 1.6875 C 27.914062 1.6875 22.757812 0.367188 18.21875 -2.265625 C 13.675781 -4.910156 10.117188 -8.503906 7.546875 -13.046875 C 4.984375 -17.585938 3.703125 -22.742188 3.703125 -28.515625 C 3.703125 -34.296875 4.984375 -39.457031 7.546875 -44 C 10.117188 -48.539062 13.675781 -52.113281 18.21875 -54.71875 C 22.757812 -57.320312 27.914062 -58.625 33.6875 -58.625 C 36.582031 -58.625 39.347656 -58.21875 41.984375 -57.40625 C 44.628906 -56.59375 47.078125 -55.445312 49.328125 -53.96875 Z M 34.859375 -12.890625 C 37.878906 -12.890625 40.550781 -13.570312 42.875 -14.9375 C 45.207031 -16.3125 47.054688 -18.175781 48.421875 -20.53125 C 49.796875 -22.894531 50.484375 -25.554688 50.484375 -28.515625 C 50.484375 -31.472656 49.796875 -34.128906 48.421875 -36.484375 C 47.054688 -38.847656 45.207031 -40.71875 42.875 -42.09375 C 40.550781 -43.46875 37.878906 -44.15625 34.859375 -44.15625 C 31.898438 -44.15625 29.257812 -43.46875 26.9375 -42.09375 C 24.613281 -40.71875 22.765625 -38.847656 21.390625 -36.484375 C 20.015625 -34.128906 19.328125 -31.472656 19.328125 -28.515625 C 19.328125 -25.554688 20.015625 -22.894531 21.390625 -20.53125 C 22.765625 -18.175781 24.613281 -16.3125 26.9375 -14.9375 C 29.257812 -13.570312 31.898438 -12.890625 34.859375 -12.890625 Z M 34.859375 -12.890625 "/></g></g><g transform="translate(1285.166321, 433.290675)"><g><path d="M 53.96875 -57.140625 L 65.484375 -57.140625 L 65.484375 -0.109375 L 53.34375 -0.109375 L 52.078125 -5.171875 C 49.609375 -3.054688 46.804688 -1.398438 43.671875 -0.203125 C 40.535156 0.984375 37.175781 1.578125 33.59375 1.578125 C 27.882812 1.578125 22.773438 0.257812 18.265625 -2.375 C 13.765625 -5.019531 10.210938 -8.613281 7.609375 -13.15625 C 5.003906 -17.695312 3.703125 -22.851562 3.703125 -28.625 C 3.703125 -34.332031 5.003906 -39.457031 7.609375 -44 C 10.210938 -48.539062 13.765625 -52.113281 18.265625 -54.71875 C 22.773438 -57.320312 27.882812 -58.625 33.59375 -58.625 C 37.25 -58.625 40.660156 -58.003906 43.828125 -56.765625 C 47.003906 -55.535156 49.820312 -53.832031 52.28125 -51.65625 Z M 34.859375 -12.984375 C 37.816406 -12.984375 40.472656 -13.648438 42.828125 -14.984375 C 45.191406 -16.328125 47.039062 -18.175781 48.375 -20.53125 C 49.71875 -22.894531 50.390625 -25.59375 50.390625 -28.625 C 50.390625 -31.582031 49.71875 -34.238281 48.375 -36.59375 C 47.039062 -38.957031 45.191406 -40.820312 42.828125 -42.1875 C 40.472656 -43.5625 37.816406 -44.25 34.859375 -44.25 C 31.828125 -44.25 29.148438 -43.5625 26.828125 -42.1875 C 24.503906 -40.820312 22.671875 -38.957031 21.328125 -36.59375 C 19.992188 -34.238281 19.328125 -31.582031 19.328125 -28.625 C 19.328125 -25.59375 19.992188 -22.914062 21.328125 -20.59375 C 22.671875 -18.269531 24.503906 -16.421875 26.828125 -15.046875 C 29.148438 -13.671875 31.828125 -12.984375 34.859375 -12.984375 Z M 34.859375 -12.984375 "/></g></g></g><path stroke-linecap="butt" transform="matrix(0.75, 0.000000000000000587, -0.000000000000000587, 0.75, 896.270937, 392.25)" fill="none" stroke-linejoin="miter" d="M -0.00187451 17.000001 L 145.248133 17.000001 " stroke="#000000" stroke-width="34" stroke-opacity="1" stroke-miterlimit="4"/><g clip-path="url(#f6e847c770)"><path fill="#000000" d="M 1013.621094 405.074219 C 1013.621094 405.738281 1013.589844 406.398438 1013.523438 407.058594 C 1013.460938 407.71875 1013.363281 408.375 1013.234375 409.027344 C 1013.105469 409.675781 1012.941406 410.320312 1012.75 410.953125 C 1012.558594 411.589844 1012.335938 412.210938 1012.082031 412.824219 C 1011.828125 413.4375 1011.542969 414.035156 1011.230469 414.621094 C 1010.917969 415.207031 1010.578125 415.773438 1010.210938 416.328125 C 1009.839844 416.878906 1009.445312 417.410156 1009.027344 417.921875 C 1008.605469 418.433594 1008.160156 418.925781 1007.691406 419.394531 C 1007.222656 419.863281 1006.730469 420.308594 1006.21875 420.730469 C 1005.707031 421.152344 1005.171875 421.546875 1004.621094 421.914062 C 1004.070312 422.28125 1003.503906 422.625 1002.917969 422.9375 C 1002.332031 423.25 1001.734375 423.53125 1001.121094 423.785156 C 1000.507812 424.039062 999.882812 424.261719 999.25 424.457031 C 998.613281 424.648438 997.972656 424.808594 997.320312 424.9375 C 996.671875 425.066406 996.015625 425.164062 995.355469 425.230469 C 994.695312 425.292969 994.035156 425.328125 993.371094 425.328125 C 992.707031 425.328125 992.046875 425.292969 991.386719 425.230469 C 990.726562 425.164062 990.070312 425.066406 989.417969 424.9375 C 988.769531 424.808594 988.125 424.648438 987.492188 424.457031 C 986.855469 424.261719 986.234375 424.039062 985.621094 423.785156 C 985.007812 423.53125 984.410156 423.25 983.824219 422.9375 C 983.238281 422.625 982.671875 422.28125 982.117188 421.914062 C 981.566406 421.546875 981.035156 421.152344 980.523438 420.730469 C 980.007812 420.308594 979.519531 419.863281 979.050781 419.394531 C 978.582031 418.925781 978.136719 418.433594 977.714844 417.921875 C 977.292969 417.410156 976.898438 416.878906 976.53125 416.328125 C 976.164062 415.773438 975.820312 415.207031 975.507812 414.621094 C 975.195312 414.035156 974.914062 413.4375 974.660156 412.824219 C 974.40625 412.210938 974.183594 411.589844 973.988281 410.953125 C 973.796875 410.320312 973.636719 409.675781 973.507812 409.027344 C 973.378906 408.375 973.28125 407.71875 973.214844 407.058594 C 973.148438 406.398438 973.117188 405.738281 973.117188 405.074219 C 973.117188 404.410156 973.148438 403.75 973.214844 403.089844 C 973.28125 402.429688 973.378906 401.773438 973.507812 401.125 C 973.636719 400.472656 973.796875 399.832031 973.988281 399.195312 C 974.183594 398.5625 974.40625 397.9375 974.660156 397.324219 C 974.914062 396.710938 975.195312 396.113281 975.507812 395.527344 C 975.820312 394.941406 976.164062 394.375 976.53125 393.824219 C 976.898438 393.273438 977.292969 392.738281 977.714844 392.226562 C 978.136719 391.714844 978.582031 391.222656 979.050781 390.753906 C 979.519531 390.285156 980.007812 389.839844 980.523438 389.417969 C 981.035156 389 981.566406 388.605469 982.117188 388.234375 C 982.671875 387.867188 983.238281 387.527344 983.824219 387.214844 C 984.410156 386.902344 985.007812 386.617188 985.621094 386.363281 C 986.234375 386.109375 986.855469 385.886719 987.492188 385.695312 C 988.125 385.5 988.769531 385.339844 989.417969 385.210938 C 990.070312 385.082031 990.726562 384.984375 991.386719 384.917969 C 992.046875 384.855469 992.707031 384.820312 993.371094 384.820312 C 994.035156 384.820312 994.695312 384.855469 995.355469 384.917969 C 996.015625 384.984375 996.671875 385.082031 997.320312 385.210938 C 997.972656 385.339844 998.613281 385.5 999.25 385.695312 C 999.882812 385.886719 1000.507812 386.109375 1001.121094 386.363281 C 1001.734375 386.617188 1002.332031 386.902344 1002.917969 387.214844 C 1003.503906 387.527344 1004.070312 387.867188 1004.621094 388.234375 C 1005.171875 388.605469 1005.707031 389 1006.21875 389.417969 C 1006.730469 389.839844 1007.222656 390.285156 1007.691406 390.753906 C 1008.160156 391.222656 1008.605469 391.714844 1009.027344 392.226562 C 1009.445312 392.738281 1009.839844 393.273438 1010.210938 393.824219 C 1010.578125 394.375 1010.917969 394.941406 1011.230469 395.527344 C 1011.542969 396.113281 1011.828125 396.710938 1012.082031 397.324219 C 1012.335938 397.9375 1012.558594 398.5625 1012.75 399.195312 C 1012.941406 399.832031 1013.105469 400.472656 1013.234375 401.125 C 1013.363281 401.773438 1013.460938 402.429688 1013.523438 403.089844 C 1013.589844 403.75 1013.621094 404.410156 1013.621094 405.074219 Z M 1013.621094 405.074219 " fill-opacity="1" fill-rule="nonzero"/></g><g clip-path="url(#2c7bc47e4b)"><g clip-path="url(#34a63cc0fd)"><path stroke-linecap="butt" transform="matrix(0.75, 0, 0, 0.75, 834.565572, 365.463282)" fill="none" stroke-linejoin="miter" d="M 52.709448 0.00208178 C 23.600072 0.00208178 0.00111202 23.601041 0.00111202 52.710418 C 0.00111202 81.819794 23.600072 105.423962 52.709448 105.423962 C 81.824033 105.423962 105.422992 81.819794 105.422992 52.710418 C 105.422992 23.601041 81.824033 0.00208178 52.709448 0.00208178 Z M 52.709448 0.00208178 " stroke="#000000" stroke-width="60" stroke-opacity="1" stroke-miterlimit="4"/></g></g><g fill="#000000" fill-opacity="1"><g transform="translate(94.857891, 259.254031)"><g><path d="M 24.5 -14.890625 L 53.96875 -14.890625 L 53.96875 0 L 8.453125 0 L 8.453125 -73.921875 L 52.8125 -73.921875 L 52.8125 -59.140625 L 24.5 -59.140625 L 24.5 -44.5625 L 50.0625 -44.5625 L 50.0625 -30.09375 L 24.5 -30.09375 Z M 24.5 -14.890625 "/></g></g></g><g fill="#000000" fill-opacity="1"><g transform="translate(153.893483, 259.254031)"><g><path d="M 3.59375 -70.234375 L 29.359375 -70.234375 L 29.359375 0 L 14.578125 0 L 14.578125 -57.03125 L 3.59375 -57.03125 Z M 3.59375 -70.234375 "/></g></g></g><path stroke-linecap="butt" transform="matrix(0.75, 0.00000000000000075, -0.00000000000000075, 0.75, 209.807691, 217.629033)" fill="none" stroke-linejoin="miter" d="M 0.00120384 16.999832 L 227.522049 16.999832 " stroke="#000000" stroke-width="34" stroke-opacity="1" stroke-miterlimit="4"/><g clip-path="url(#2b933f6c16)"><path fill="#000000" d="M 245.015625 230.453125 C 245.015625 231.117188 244.984375 231.777344 244.917969 232.4375 C 244.855469 233.097656 244.757812 233.753906 244.628906 234.40625 C 244.5 235.054688 244.335938 235.699219 244.144531 236.332031 C 243.953125 236.96875 243.730469 237.589844 243.476562 238.203125 C 243.222656 238.816406 242.9375 239.414062 242.625 240 C 242.3125 240.585938 241.972656 241.152344 241.605469 241.707031 C 241.234375 242.257812 240.839844 242.789062 240.421875 243.300781 C 240 243.816406 239.554688 244.304688 239.085938 244.773438 C 238.617188 245.242188 238.125 245.6875 237.613281 246.109375 C 237.101562 246.53125 236.566406 246.925781 236.015625 247.292969 C 235.464844 247.660156 234.894531 248.003906 234.3125 248.316406 C 233.726562 248.628906 233.128906 248.910156 232.515625 249.164062 C 231.902344 249.417969 231.277344 249.640625 230.644531 249.835938 C 230.007812 250.027344 229.367188 250.1875 228.714844 250.316406 C 228.066406 250.445312 227.410156 250.542969 226.75 250.609375 C 226.089844 250.671875 225.429688 250.707031 224.765625 250.707031 C 224.101562 250.707031 223.441406 250.671875 222.78125 250.609375 C 222.121094 250.542969 221.464844 250.445312 220.8125 250.316406 C 220.164062 250.1875 219.519531 250.027344 218.886719 249.835938 C 218.25 249.640625 217.628906 249.417969 217.015625 249.164062 C 216.402344 248.910156 215.800781 248.628906 215.21875 248.316406 C 214.632812 248.003906 214.0625 247.660156 213.511719 247.292969 C 212.960938 246.925781 212.429688 246.53125 211.917969 246.109375 C 211.402344 245.6875 210.914062 245.242188 210.445312 244.773438 C 209.976562 244.304688 209.53125 243.816406 209.109375 243.300781 C 208.6875 242.789062 208.292969 242.257812 207.925781 241.707031 C 207.554688 241.152344 207.214844 240.585938 206.902344 240 C 206.589844 239.414062 206.308594 238.816406 206.054688 238.203125 C 205.800781 237.589844 205.578125 236.96875 205.382812 236.332031 C 205.191406 235.699219 205.03125 235.054688 204.902344 234.40625 C 204.773438 233.753906 204.675781 233.097656 204.609375 232.4375 C 204.542969 231.777344 204.511719 231.117188 204.511719 230.453125 C 204.511719 229.789062 204.542969 229.128906 204.609375 228.46875 C 204.675781 227.808594 204.773438 227.152344 204.902344 226.503906 C 205.03125 225.851562 205.191406 225.210938 205.382812 224.574219 C 205.578125 223.941406 205.800781 223.316406 206.054688 222.703125 C 206.308594 222.089844 206.589844 221.492188 206.902344 220.90625 C 207.214844 220.320312 207.554688 219.753906 207.925781 219.203125 C 208.292969 218.652344 208.6875 218.117188 209.109375 217.605469 C 209.53125 217.09375 209.976562 216.601562 210.445312 216.132812 C 210.914062 215.664062 211.402344 215.21875 211.917969 214.796875 C 212.429688 214.378906 212.960938 213.984375 213.511719 213.613281 C 214.0625 213.246094 214.632812 212.90625 215.21875 212.59375 C 215.800781 212.28125 216.402344 211.996094 217.015625 211.742188 C 217.628906 211.488281 218.25 211.265625 218.886719 211.074219 C 219.519531 210.878906 220.164062 210.71875 220.8125 210.589844 C 221.464844 210.460938 222.121094 210.363281 222.78125 210.296875 C 223.441406 210.234375 224.101562 210.199219 224.765625 210.199219 C 225.429688 210.199219 226.089844 210.234375 226.75 210.296875 C 227.410156 210.363281 228.066406 210.460938 228.714844 210.589844 C 229.367188 210.71875 230.007812 210.878906 230.644531 211.074219 C 231.277344 211.265625 231.902344 211.488281 232.515625 211.742188 C 233.128906 211.996094 233.726562 212.28125 234.3125 212.59375 C 234.894531 212.90625 235.464844 213.246094 236.015625 213.613281 C 236.566406 213.984375 237.101562 214.378906 237.613281 214.796875 C 238.125 215.21875 238.617188 215.664062 239.085938 216.132812 C 239.554688 216.601562 240 217.09375 240.421875 217.605469 C 240.839844 218.117188 241.234375 218.652344 241.605469 219.203125 C 241.972656 219.753906 242.3125 220.320312 242.625 220.90625 C 242.9375 221.492188 243.222656 222.089844 243.476562 222.703125 C 243.730469 223.316406 243.953125 223.941406 244.144531 224.574219 C 244.335938 225.210938 244.5 225.851562 244.628906 226.503906 C 244.757812 227.152344 244.855469 227.808594 244.917969 228.46875 C 244.984375 229.128906 245.015625 229.789062 245.015625 230.453125 Z M 245.015625 230.453125 " fill-opacity="1" fill-rule="nonzero"/></g><g fill="#000000" fill-opacity="1"><g transform="translate(195.727497, 329.091565)"><g><path d="M 24.5 -14.890625 L 53.96875 -14.890625 L 53.96875 0 L 8.453125 0 L 8.453125 -73.921875 L 52.8125 -73.921875 L 52.8125 -59.140625 L 24.5 -59.140625 L 24.5 -44.5625 L 50.0625 -44.5625 L 50.0625 -30.09375 L 24.5 -30.09375 Z M 24.5 -14.890625 "/></g></g></g><g fill="#000000" fill-opacity="1"><g transform="translate(254.76309, 329.091565)"><g><path d="M 31.265625 -14.15625 L 52.703125 -14.15625 L 52.703125 0 L 3.484375 0 L 3.484375 -3.28125 C 9.253906 -9.96875 14.09375 -15.632812 18 -20.28125 C 21.914062 -24.925781 25.066406 -28.796875 27.453125 -31.890625 C 29.847656 -34.992188 31.675781 -37.582031 32.9375 -39.65625 C 34.207031 -41.726562 35.054688 -43.519531 35.484375 -45.03125 C 35.910156 -46.550781 36.125 -48.015625 36.125 -49.421875 C 36.125 -51.890625 35.382812 -53.863281 33.90625 -55.34375 C 32.425781 -56.820312 30.488281 -57.5625 28.09375 -57.5625 C 25.625 -57.5625 23.632812 -56.800781 22.125 -55.28125 C 20.613281 -53.769531 19.859375 -51.75 19.859375 -49.21875 L 19.859375 -47.953125 L 4.75 -47.953125 L 4.75 -49.421875 C 4.75 -53.722656 5.695312 -57.546875 7.59375 -60.890625 C 9.5 -64.234375 12.175781 -66.867188 15.625 -68.796875 C 19.082031 -70.734375 23.164062 -71.703125 27.875 -71.703125 C 32.457031 -71.703125 36.507812 -70.75 40.03125 -68.84375 C 43.550781 -66.945312 46.3125 -64.34375 48.3125 -61.03125 C 50.320312 -57.726562 51.328125 -53.929688 51.328125 -49.640625 C 51.328125 -47.453125 51.046875 -45.265625 50.484375 -43.078125 C 49.921875 -40.898438 48.914062 -38.472656 47.46875 -35.796875 C 46.03125 -33.117188 43.988281 -30.035156 41.34375 -26.546875 C 38.707031 -23.066406 35.347656 -18.9375 31.265625 -14.15625 Z M 31.265625 -14.15625 "/></g></g></g><path stroke-linecap="butt" transform="matrix(0.75, 0.000000000000000861, -0.000000000000000861, 0.75, 343.296111, 287.466567)" fill="none" stroke-linejoin="miter" d="M 0.0010182 16.997703 L 49.537479 16.997703 " stroke="#000000" stroke-width="34" stroke-opacity="1" stroke-miterlimit="4"/><g clip-path="url(#f37b08c42a)"><path fill="#000000" d="M 349.351562 300.292969 C 349.351562 300.953125 349.320312 301.617188 349.253906 302.277344 C 349.191406 302.9375 349.09375 303.589844 348.964844 304.242188 C 348.835938 304.894531 348.671875 305.535156 348.480469 306.171875 C 348.289062 306.804688 348.066406 307.429688 347.8125 308.042969 C 347.558594 308.652344 347.273438 309.253906 346.960938 309.839844 C 346.648438 310.421875 346.308594 310.992188 345.941406 311.542969 C 345.570312 312.09375 345.175781 312.625 344.753906 313.140625 C 344.335938 313.652344 343.890625 314.144531 343.421875 314.613281 C 342.953125 315.082031 342.460938 315.527344 341.949219 315.945312 C 341.4375 316.367188 340.902344 316.761719 340.351562 317.128906 C 339.800781 317.5 339.230469 317.839844 338.648438 318.152344 C 338.0625 318.464844 337.464844 318.75 336.851562 319.003906 C 336.238281 319.257812 335.613281 319.480469 334.980469 319.671875 C 334.34375 319.863281 333.703125 320.023438 333.050781 320.15625 C 332.402344 320.285156 331.746094 320.382812 331.085938 320.445312 C 330.425781 320.511719 329.761719 320.542969 329.101562 320.542969 C 328.4375 320.542969 327.773438 320.511719 327.113281 320.445312 C 326.457031 320.382812 325.800781 320.285156 325.148438 320.15625 C 324.5 320.023438 323.855469 319.863281 323.222656 319.671875 C 322.585938 319.480469 321.960938 319.257812 321.351562 319.003906 C 320.738281 318.75 320.136719 318.464844 319.554688 318.152344 C 318.96875 317.839844 318.398438 317.5 317.847656 317.128906 C 317.296875 316.761719 316.765625 316.367188 316.253906 315.945312 C 315.738281 315.527344 315.25 315.082031 314.78125 314.613281 C 314.3125 314.144531 313.867188 313.652344 313.445312 313.140625 C 313.023438 312.625 312.628906 312.09375 312.261719 311.542969 C 311.890625 310.992188 311.550781 310.421875 311.238281 309.839844 C 310.925781 309.253906 310.644531 308.652344 310.390625 308.042969 C 310.136719 307.429688 309.914062 306.804688 309.71875 306.171875 C 309.527344 305.535156 309.367188 304.894531 309.238281 304.242188 C 309.109375 303.589844 309.011719 302.9375 308.945312 302.277344 C 308.878906 301.617188 308.847656 300.953125 308.847656 300.292969 C 308.847656 299.628906 308.878906 298.964844 308.945312 298.304688 C 309.011719 297.644531 309.109375 296.992188 309.238281 296.339844 C 309.367188 295.691406 309.527344 295.046875 309.71875 294.414062 C 309.914062 293.777344 310.136719 293.152344 310.390625 292.539062 C 310.644531 291.929688 310.925781 291.328125 311.238281 290.746094 C 311.550781 290.160156 311.890625 289.589844 312.261719 289.039062 C 312.628906 288.488281 313.023438 287.957031 313.445312 287.441406 C 313.867188 286.929688 314.3125 286.441406 314.78125 285.96875 C 315.25 285.5 315.738281 285.054688 316.253906 284.636719 C 316.765625 284.214844 317.296875 283.820312 317.847656 283.453125 C 318.398438 283.082031 318.96875 282.742188 319.554688 282.429688 C 320.136719 282.117188 320.738281 281.835938 321.351562 281.582031 C 321.960938 281.328125 322.585938 281.101562 323.222656 280.910156 C 323.855469 280.71875 324.5 280.558594 325.148438 280.429688 C 325.800781 280.296875 326.457031 280.199219 327.113281 280.136719 C 327.773438 280.070312 328.4375 280.039062 329.101562 280.039062 C 329.761719 280.039062 330.425781 280.070312 331.085938 280.136719 C 331.746094 280.199219 332.402344 280.296875 333.050781 280.429688 C 333.703125 280.558594 334.34375 280.71875 334.980469 280.910156 C 335.613281 281.101562 336.238281 281.328125 336.851562 281.582031 C 337.464844 281.835938 338.0625 282.117188 338.648438 282.429688 C 339.230469 282.742188 339.800781 283.082031 340.351562 283.453125 C 340.902344 283.820312 341.4375 284.214844 341.949219 284.636719 C 342.460938 285.054688 342.953125 285.5 343.421875 285.96875 C 343.890625 286.441406 344.335938 286.929688 344.753906 287.441406 C 345.175781 287.957031 345.570312 288.488281 345.941406 289.039062 C 346.308594 289.589844 346.648438 290.160156 346.960938 290.746094 C 347.273438 291.328125 347.558594 291.929688 347.8125 292.539062 C 348.066406 293.152344 348.289062 293.777344 348.480469 294.414062 C 348.671875 295.046875 348.835938 295.691406 348.964844 296.339844 C 349.09375 296.992188 349.191406 297.644531 349.253906 298.304688 C 349.320312 298.964844 349.351562 299.628906 349.351562 300.292969 Z M 349.351562 300.292969 " fill-opacity="1" fill-rule="nonzero"/></g><g fill="#000000" fill-opacity="1"><g transform="translate(84.768048, 398.22996)"><g><path d="M 24.5 -14.890625 L 53.96875 -14.890625 L 53.96875 0 L 8.453125 0 L 8.453125 -73.921875 L 52.8125 -73.921875 L 52.8125 -59.140625 L 24.5 -59.140625 L 24.5 -44.5625 L 50.0625 -44.5625 L 50.0625 -30.09375 L 24.5 -30.09375 Z M 24.5 -14.890625 "/></g></g></g><g fill="#000000" fill-opacity="1"><g transform="translate(143.80364, 398.22996)"><g><path d="M 36.328125 -44.25 C 41.535156 -43.125 45.707031 -40.609375 48.84375 -36.703125 C 51.976562 -32.796875 53.546875 -28.0625 53.546875 -22.5 C 53.546875 -17.914062 52.453125 -13.828125 50.265625 -10.234375 C 48.085938 -6.648438 45.128906 -3.835938 41.390625 -1.796875 C 37.660156 0.242188 33.40625 1.265625 28.625 1.265625 C 23.976562 1.265625 19.859375 0.28125 16.265625 -1.6875 C 12.671875 -3.65625 9.832031 -6.398438 7.75 -9.921875 C 5.675781 -13.441406 4.535156 -17.523438 4.328125 -22.171875 L 19.4375 -22.171875 C 19.570312 -19.359375 20.46875 -17.085938 22.125 -15.359375 C 23.78125 -13.640625 25.945312 -12.78125 28.625 -12.78125 C 31.4375 -12.78125 33.757812 -13.726562 35.59375 -15.625 C 37.425781 -17.53125 38.34375 -19.992188 38.34375 -23.015625 C 38.34375 -26.046875 37.351562 -28.421875 35.375 -30.140625 C 33.40625 -31.867188 30.800781 -32.734375 27.5625 -32.734375 L 17.421875 -32.734375 L 17.421875 -35.59375 L 30.203125 -56.71875 L 6.015625 -56.71875 L 6.015625 -70.234375 L 50.90625 -70.234375 L 50.90625 -67.375 Z M 36.328125 -44.25 "/></g></g></g><path stroke-linecap="butt" transform="matrix(0.75, 0.00000000000000075, -0.00000000000000075, 0.75, 209.807691, 356.604962)" fill="none" stroke-linejoin="miter" d="M 0.00120384 17.000676 L 227.522049 17.000676 " stroke="#000000" stroke-width="34" stroke-opacity="1" stroke-miterlimit="4"/><g clip-path="url(#3a5b35e16c)"><path fill="#000000" d="M 245.015625 369.429688 C 245.015625 370.09375 244.984375 370.753906 244.917969 371.414062 C 244.855469 372.074219 244.757812 372.730469 244.628906 373.378906 C 244.5 374.03125 244.335938 374.675781 244.144531 375.308594 C 243.953125 375.941406 243.730469 376.566406 243.476562 377.179688 C 243.222656 377.792969 242.9375 378.390625 242.625 378.976562 C 242.3125 379.5625 241.972656 380.128906 241.605469 380.679688 C 241.234375 381.234375 240.839844 381.765625 240.421875 382.277344 C 240 382.789062 239.554688 383.28125 239.085938 383.75 C 238.617188 384.21875 238.125 384.664062 237.613281 385.085938 C 237.101562 385.503906 236.566406 385.902344 236.015625 386.269531 C 235.464844 386.636719 234.894531 386.976562 234.3125 387.289062 C 233.726562 387.601562 233.128906 387.886719 232.515625 388.140625 C 231.902344 388.394531 231.277344 388.617188 230.644531 388.808594 C 230.007812 389.003906 229.367188 389.164062 228.714844 389.292969 C 228.066406 389.421875 227.410156 389.519531 226.75 389.585938 C 226.089844 389.648438 225.429688 389.683594 224.765625 389.683594 C 224.101562 389.683594 223.441406 389.648438 222.78125 389.585938 C 222.121094 389.519531 221.464844 389.421875 220.8125 389.292969 C 220.164062 389.164062 219.519531 389.003906 218.886719 388.808594 C 218.25 388.617188 217.628906 388.394531 217.015625 388.140625 C 216.402344 387.886719 215.800781 387.601562 215.21875 387.289062 C 214.632812 386.976562 214.0625 386.636719 213.511719 386.269531 C 212.960938 385.902344 212.429688 385.503906 211.917969 385.085938 C 211.402344 384.664062 210.914062 384.21875 210.445312 383.75 C 209.976562 383.28125 209.53125 382.789062 209.109375 382.277344 C 208.6875 381.765625 208.292969 381.234375 207.925781 380.679688 C 207.554688 380.128906 207.214844 379.5625 206.902344 378.976562 C 206.589844 378.390625 206.308594 377.792969 206.054688 377.179688 C 205.800781 376.566406 205.578125 375.941406 205.382812 375.308594 C 205.191406 374.675781 205.03125 374.03125 204.902344 373.378906 C 204.773438 372.730469 204.675781 372.074219 204.609375 371.414062 C 204.542969 370.753906 204.511719 370.09375 204.511719 369.429688 C 204.511719 368.765625 204.542969 368.105469 204.609375 367.445312 C 204.675781 366.785156 204.773438 366.128906 204.902344 365.476562 C 205.03125 364.828125 205.191406 364.183594 205.382812 363.550781 C 205.578125 362.914062 205.800781 362.292969 206.054688 361.679688 C 206.308594 361.066406 206.589844 360.46875 206.902344 359.882812 C 207.214844 359.296875 207.554688 358.730469 207.925781 358.179688 C 208.292969 357.625 208.6875 357.09375 209.109375 356.582031 C 209.53125 356.070312 209.976562 355.578125 210.445312 355.109375 C 210.914062 354.640625 211.402344 354.195312 211.917969 353.773438 C 212.429688 353.351562 212.960938 352.957031 213.511719 352.589844 C 214.0625 352.222656 214.632812 351.882812 215.21875 351.570312 C 215.800781 351.253906 216.402344 350.972656 217.015625 350.71875 C 217.628906 350.464844 218.25 350.242188 218.886719 350.050781 C 219.519531 349.855469 220.164062 349.695312 220.8125 349.566406 C 221.464844 349.4375 222.121094 349.339844 222.78125 349.273438 C 223.441406 349.210938 224.101562 349.175781 224.765625 349.175781 C 225.429688 349.175781 226.089844 349.210938 226.75 349.273438 C 227.410156 349.339844 228.066406 349.4375 228.714844 349.566406 C 229.367188 349.695312 230.007812 349.855469 230.644531 350.050781 C 231.277344 350.242188 231.902344 350.464844 232.515625 350.71875 C 233.128906 350.972656 233.726562 351.253906 234.3125 351.570312 C 234.894531 351.882812 235.464844 352.222656 236.015625 352.589844 C 236.566406 352.957031 237.101562 353.351562 237.613281 353.773438 C 238.125 354.195312 238.617188 354.640625 239.085938 355.109375 C 239.554688 355.578125 240 356.070312 240.421875 356.582031 C 240.839844 357.09375 241.234375 357.625 241.605469 358.179688 C 241.972656 358.730469 242.3125 359.296875 242.625 359.882812 C 242.9375 360.46875 243.222656 361.066406 243.476562 361.679688 C 243.730469 362.292969 243.953125 362.914062 244.144531 363.550781 C 244.335938 364.183594 244.5 364.828125 244.628906 365.476562 C 244.757812 366.128906 244.855469 366.785156 244.917969 367.445312 C 244.984375 368.105469 245.015625 368.765625 245.015625 369.429688 Z M 245.015625 369.429688 " fill-opacity="1" fill-rule="nonzero"/></g><g fill="#000000" fill-opacity="1"><g transform="translate(85.084454, 537.205769)"><g><path d="M 24.5 -14.890625 L 53.96875 -14.890625 L 53.96875 0 L 8.453125 0 L 8.453125 -73.921875 L 52.8125 -73.921875 L 52.8125 -59.140625 L 24.5 -59.140625 L 24.5 -44.5625 L 50.0625 -44.5625 L 50.0625 -30.09375 L 24.5 -30.09375 Z M 24.5 -14.890625 "/></g></g></g><g fill="#000000" fill-opacity="1"><g transform="translate(144.120046, 537.205769)"><g><path d="M 28.296875 -45.734375 C 33.234375 -45.734375 37.582031 -44.726562 41.34375 -42.71875 C 45.113281 -40.707031 48.070312 -37.957031 50.21875 -34.46875 C 52.363281 -30.988281 53.4375 -27.03125 53.4375 -22.59375 C 53.4375 -18.09375 52.34375 -14.03125 50.15625 -10.40625 C 47.976562 -6.78125 45.039062 -3.925781 41.34375 -1.84375 C 37.644531 0.226562 33.472656 1.265625 28.828125 1.265625 C 24.109375 1.265625 19.882812 0.265625 16.15625 -1.734375 C 12.425781 -3.742188 9.503906 -6.507812 7.390625 -10.03125 C 5.273438 -13.550781 4.1875 -17.566406 4.125 -22.078125 L 19.4375 -22.078125 C 19.4375 -19.398438 20.316406 -17.179688 22.078125 -15.421875 C 23.835938 -13.660156 26.085938 -12.78125 28.828125 -12.78125 C 31.503906 -12.78125 33.738281 -13.710938 35.53125 -15.578125 C 37.332031 -17.441406 38.234375 -19.78125 38.234375 -22.59375 C 38.234375 -25.625 37.265625 -28.085938 35.328125 -29.984375 C 33.390625 -31.890625 30.875 -32.84375 27.78125 -32.84375 L 8.03125 -32.84375 L 6.65625 -34.75 L 10.5625 -70.234375 L 48.578125 -70.234375 L 48.578125 -56.71875 L 22.5 -56.71875 L 21.234375 -45.734375 Z M 28.296875 -45.734375 "/></g></g></g><path stroke-linecap="butt" transform="matrix(0.75, 0.00000000000000075, -0.00000000000000075, 0.75, 209.807691, 495.580771)" fill="none" stroke-linejoin="miter" d="M 0.00120384 17.001681 L 227.522049 17.001681 " stroke="#000000" stroke-width="34" stroke-opacity="1" stroke-miterlimit="4"/><g clip-path="url(#940ebc64b6)"><path fill="#000000" d="M 245.015625 508.40625 C 245.015625 509.070312 244.984375 509.730469 244.917969 510.390625 C 244.855469 511.050781 244.757812 511.707031 244.628906 512.355469 C 244.5 513.007812 244.335938 513.648438 244.144531 514.285156 C 243.953125 514.917969 243.730469 515.542969 243.476562 516.15625 C 243.222656 516.769531 242.9375 517.367188 242.625 517.953125 C 242.3125 518.539062 241.972656 519.105469 241.605469 519.65625 C 241.234375 520.207031 240.839844 520.742188 240.421875 521.253906 C 240 521.765625 239.554688 522.257812 239.085938 522.726562 C 238.617188 523.195312 238.125 523.640625 237.613281 524.0625 C 237.101562 524.480469 236.566406 524.875 236.015625 525.246094 C 235.464844 525.613281 234.894531 525.953125 234.3125 526.265625 C 233.726562 526.578125 233.128906 526.863281 232.515625 527.117188 C 231.902344 527.371094 231.277344 527.59375 230.644531 527.785156 C 230.007812 527.976562 229.367188 528.140625 228.714844 528.269531 C 228.066406 528.398438 227.410156 528.496094 226.75 528.558594 C 226.089844 528.625 225.429688 528.65625 224.765625 528.65625 C 224.101562 528.65625 223.441406 528.625 222.78125 528.558594 C 222.121094 528.496094 221.464844 528.398438 220.8125 528.269531 C 220.164062 528.140625 219.519531 527.976562 218.886719 527.785156 C 218.25 527.59375 217.628906 527.371094 217.015625 527.117188 C 216.402344 526.863281 215.800781 526.578125 215.21875 526.265625 C 214.632812 525.953125 214.0625 525.613281 213.511719 525.246094 C 212.960938 524.875 212.429688 524.480469 211.917969 524.0625 C 211.402344 523.640625 210.914062 523.195312 210.445312 522.726562 C 209.976562 522.257812 209.53125 521.765625 209.109375 521.253906 C 208.6875 520.742188 208.292969 520.207031 207.925781 519.65625 C 207.554688 519.105469 207.214844 518.539062 206.902344 517.953125 C 206.589844 517.367188 206.308594 516.769531 206.054688 516.15625 C 205.800781 515.542969 205.578125 514.917969 205.382812 514.285156 C 205.191406 513.648438 205.03125 513.007812 204.902344 512.355469 C 204.773438 511.707031 204.675781 511.050781 204.609375 510.390625 C 204.542969 509.730469 204.511719 509.070312 204.511719 508.40625 C 204.511719 507.742188 204.542969 507.082031 204.609375 506.421875 C 204.675781 505.761719 204.773438 505.105469 204.902344 504.453125 C 205.03125 503.804688 205.191406 503.160156 205.382812 502.527344 C 205.578125 501.890625 205.800781 501.269531 206.054688 500.65625 C 206.308594 500.042969 206.589844 499.445312 206.902344 498.859375 C 207.214844 498.273438 207.554688 497.707031 207.925781 497.152344 C 208.292969 496.601562 208.6875 496.070312 209.109375 495.558594 C 209.53125 495.042969 209.976562 494.554688 210.445312 494.085938 C 210.914062 493.617188 211.402344 493.171875 211.917969 492.75 C 212.429688 492.328125 212.960938 491.933594 213.511719 491.566406 C 214.0625 491.199219 214.632812 490.855469 215.21875 490.542969 C 215.800781 490.230469 216.402344 489.949219 217.015625 489.695312 C 217.628906 489.441406 218.25 489.21875 218.886719 489.023438 C 219.519531 488.832031 220.164062 488.671875 220.8125 488.542969 C 221.464844 488.414062 222.121094 488.316406 222.78125 488.25 C 223.441406 488.183594 224.101562 488.152344 224.765625 488.152344 C 225.429688 488.152344 226.089844 488.183594 226.75 488.25 C 227.410156 488.316406 228.066406 488.414062 228.714844 488.542969 C 229.367188 488.671875 230.007812 488.832031 230.644531 489.023438 C 231.277344 489.21875 231.902344 489.441406 232.515625 489.695312 C 233.128906 489.949219 233.726562 490.230469 234.3125 490.542969 C 234.894531 490.855469 235.464844 491.199219 236.015625 491.566406 C 236.566406 491.933594 237.101562 492.328125 237.613281 492.75 C 238.125 493.171875 238.617188 493.617188 239.085938 494.085938 C 239.554688 494.554688 240 495.042969 240.421875 495.558594 C 240.839844 496.070312 241.234375 496.601562 241.605469 497.152344 C 241.972656 497.707031 242.3125 498.273438 242.625 498.859375 C 242.9375 499.445312 243.222656 500.042969 243.476562 500.65625 C 243.730469 501.269531 243.953125 501.890625 244.144531 502.527344 C 244.335938 503.160156 244.5 503.804688 244.628906 504.453125 C 244.757812 505.105469 244.855469 505.761719 244.917969 506.421875 C 244.984375 507.082031 245.015625 507.742188 245.015625 508.40625 Z M 245.015625 508.40625 " fill-opacity="1" fill-rule="nonzero"/></g><g fill="#000000" fill-opacity="1"><g transform="translate(195.247029, 467.892652)"><g><path d="M 24.5 -14.890625 L 53.96875 -14.890625 L 53.96875 0 L 8.453125 0 L 8.453125 -73.921875 L 52.8125 -73.921875 L 52.8125 -59.140625 L 24.5 -59.140625 L 24.5 -44.5625 L 50.0625 -44.5625 L 50.0625 -30.09375 L 24.5 -30.09375 Z M 24.5 -14.890625 "/></g></g></g><g fill="#000000" fill-opacity="1"><g transform="translate(254.282621, 467.892652)"><g><path d="M 55.765625 -26.609375 L 55.765625 -13.515625 L 49.640625 -13.515625 L 49.640625 0 L 35.484375 0 L 35.484375 -13.515625 L 1.796875 -13.515625 L 1.796875 -16.15625 L 24.921875 -70.234375 L 39.8125 -70.234375 L 21.125 -26.609375 L 35.90625 -26.609375 L 38.34375 -43.40625 L 49.640625 -43.40625 L 49.640625 -26.609375 Z M 55.765625 -26.609375 "/></g></g></g><path stroke-linecap="butt" transform="matrix(0.75, 0.000000000000000861, -0.000000000000000861, 0.75, 343.296111, 426.267647)" fill="none" stroke-linejoin="miter" d="M 0.0010182 17.002514 L 49.537479 17.002514 " stroke="#000000" stroke-width="34" stroke-opacity="1" stroke-miterlimit="4"/><g clip-path="url(#1b69e0c9fb)"><path fill="#000000" d="M 349.351562 439.09375 C 349.351562 439.753906 349.320312 440.417969 349.253906 441.078125 C 349.191406 441.738281 349.09375 442.394531 348.964844 443.042969 C 348.835938 443.695312 348.671875 444.335938 348.480469 444.972656 C 348.289062 445.605469 348.066406 446.230469 347.8125 446.84375 C 347.558594 447.457031 347.273438 448.054688 346.960938 448.640625 C 346.648438 449.222656 346.308594 449.792969 345.941406 450.34375 C 345.570312 450.894531 345.175781 451.425781 344.753906 451.941406 C 344.335938 452.453125 343.890625 452.945312 343.421875 453.414062 C 342.953125 453.882812 342.460938 454.328125 341.949219 454.746094 C 341.4375 455.167969 340.902344 455.5625 340.351562 455.933594 C 339.800781 456.300781 339.230469 456.640625 338.648438 456.953125 C 338.0625 457.265625 337.464844 457.550781 336.851562 457.804688 C 336.238281 458.058594 335.613281 458.28125 334.980469 458.472656 C 334.34375 458.664062 333.703125 458.828125 333.050781 458.957031 C 332.402344 459.085938 331.746094 459.183594 331.085938 459.246094 C 330.425781 459.3125 329.761719 459.34375 329.101562 459.34375 C 328.4375 459.34375 327.773438 459.3125 327.113281 459.246094 C 326.457031 459.183594 325.800781 459.085938 325.148438 458.957031 C 324.5 458.828125 323.855469 458.664062 323.222656 458.472656 C 322.585938 458.28125 321.960938 458.058594 321.351562 457.804688 C 320.738281 457.550781 320.136719 457.265625 319.554688 456.953125 C 318.96875 456.640625 318.398438 456.300781 317.847656 455.933594 C 317.296875 455.5625 316.765625 455.167969 316.253906 454.746094 C 315.738281 454.328125 315.25 453.882812 314.78125 453.414062 C 314.3125 452.945312 313.867188 452.453125 313.445312 451.941406 C 313.023438 451.425781 312.628906 450.894531 312.261719 450.34375 C 311.890625 449.792969 311.550781 449.222656 311.238281 448.640625 C 310.925781 448.054688 310.644531 447.457031 310.390625 446.84375 C 310.136719 446.230469 309.914062 445.605469 309.71875 444.972656 C 309.527344 444.335938 309.367188 443.695312 309.238281 443.042969 C 309.109375 442.394531 309.011719 441.738281 308.945312 441.078125 C 308.878906 440.417969 308.847656 439.753906 308.847656 439.09375 C 308.847656 438.429688 308.878906 437.765625 308.945312 437.105469 C 309.011719 436.445312 309.109375 435.792969 309.238281 435.140625 C 309.367188 434.492188 309.527344 433.847656 309.71875 433.214844 C 309.914062 432.578125 310.136719 431.953125 310.390625 431.34375 C 310.644531 430.730469 310.925781 430.128906 311.238281 429.546875 C 311.550781 428.960938 311.890625 428.390625 312.261719 427.839844 C 312.628906 427.289062 313.023438 426.757812 313.445312 426.246094 C 313.867188 425.730469 314.3125 425.242188 314.78125 424.773438 C 315.25 424.300781 315.738281 423.859375 316.253906 423.4375 C 316.765625 423.015625 317.296875 422.621094 317.847656 422.253906 C 318.398438 421.882812 318.96875 421.542969 319.554688 421.230469 C 320.136719 420.917969 320.738281 420.636719 321.351562 420.382812 C 321.960938 420.128906 322.585938 419.90625 323.222656 419.710938 C 323.855469 419.519531 324.5 419.359375 325.148438 419.230469 C 325.800781 419.097656 326.457031 419.003906 327.113281 418.9375 C 327.773438 418.871094 328.4375 418.839844 329.101562 418.839844 C 329.761719 418.839844 330.425781 418.871094 331.085938 418.9375 C 331.746094 419.003906 332.402344 419.097656 333.050781 419.230469 C 333.703125 419.359375 334.34375 419.519531 334.980469 419.710938 C 335.613281 419.90625 336.238281 420.128906 336.851562 420.382812 C 337.464844 420.636719 338.0625 420.917969 338.648438 421.230469 C 339.230469 421.542969 339.800781 421.882812 340.351562 422.253906 C 340.902344 422.621094 341.4375 423.015625 341.949219 423.4375 C 342.460938 423.859375 342.953125 424.300781 343.421875 424.773438 C 343.890625 425.242188 344.335938 425.730469 344.753906 426.246094 C 345.175781 426.757812 345.570312 427.289062 345.941406 427.839844 C 346.308594 428.390625 346.648438 428.960938 346.960938 429.546875 C 347.273438 430.128906 347.558594 430.730469 347.8125 431.34375 C 348.066406 431.953125 348.289062 432.578125 348.480469 433.214844 C 348.671875 433.847656 348.835938 434.492188 348.964844 435.140625 C 349.09375 435.792969 349.191406 436.445312 349.253906 437.105469 C 349.320312 437.765625 349.351562 438.429688 349.351562 439.09375 Z M 349.351562 439.09375 " fill-opacity="1" fill-rule="nonzero"/></g><g fill="#000000" fill-opacity="1"><g transform="translate(194.508747, 606.518893)"><g><path d="M 24.5 -14.890625 L 53.96875 -14.890625 L 53.96875 0 L 8.453125 0 L 8.453125 -73.921875 L 52.8125 -73.921875 L 52.8125 -59.140625 L 24.5 -59.140625 L 24.5 -44.5625 L 50.0625 -44.5625 L 50.0625 -30.09375 L 24.5 -30.09375 Z M 24.5 -14.890625 "/></g></g></g><g fill="#000000" fill-opacity="1"><g transform="translate(253.54434, 606.518893)"><g><path d="M 34.421875 -46.671875 C 38.859375 -46.671875 42.816406 -45.71875 46.296875 -43.8125 C 49.785156 -41.914062 52.535156 -39.257812 54.546875 -35.84375 C 56.554688 -32.4375 57.5625 -28.476562 57.5625 -23.96875 C 57.5625 -19.039062 56.429688 -14.675781 54.171875 -10.875 C 51.921875 -7.070312 48.804688 -4.097656 44.828125 -1.953125 C 40.847656 0.191406 36.289062 1.265625 31.15625 1.265625 C 25.875 1.265625 21.222656 0.191406 17.203125 -1.953125 C 13.191406 -4.097656 10.0625 -7.070312 7.8125 -10.875 C 5.5625 -14.675781 4.4375 -19.039062 4.4375 -23.96875 C 4.4375 -27.132812 4.945312 -30.460938 5.96875 -33.953125 C 6.988281 -37.441406 8.90625 -41.539062 11.71875 -46.25 L 25.65625 -70.328125 L 42.25 -70.328125 C 39.289062 -65.265625 36.703125 -60.8125 34.484375 -56.96875 C 32.265625 -53.132812 30.0625 -49.351562 27.875 -45.625 C 30.0625 -46.320312 32.242188 -46.671875 34.421875 -46.671875 Z M 31.046875 -12.671875 C 34.285156 -12.671875 36.976562 -13.726562 39.125 -15.84375 C 41.269531 -17.957031 42.34375 -20.664062 42.34375 -23.96875 C 42.34375 -27.414062 41.269531 -30.175781 39.125 -32.25 C 36.976562 -34.332031 34.285156 -35.375 31.046875 -35.375 C 27.734375 -35.375 25.003906 -34.332031 22.859375 -32.25 C 20.710938 -30.175781 19.640625 -27.414062 19.640625 -23.96875 C 19.640625 -20.664062 20.710938 -17.957031 22.859375 -15.84375 C 25.003906 -13.726562 27.734375 -12.671875 31.046875 -12.671875 Z M 31.046875 -12.671875 "/></g></g></g><path stroke-linecap="butt" transform="matrix(0.75, 0.000000000000000861, -0.000000000000000861, 0.75, 343.296111, 564.893896)" fill="none" stroke-linejoin="miter" d="M 0.0010182 17.000848 L 49.537479 17.000848 " stroke="#000000" stroke-width="34" stroke-opacity="1" stroke-miterlimit="4"/><g clip-path="url(#8211f3b042)"><path fill="#000000" d="M 349.351562 577.71875 C 349.351562 578.382812 349.320312 579.042969 349.253906 579.703125 C 349.191406 580.363281 349.09375 581.019531 348.964844 581.667969 C 348.835938 582.320312 348.671875 582.964844 348.480469 583.597656 C 348.289062 584.230469 348.066406 584.855469 347.8125 585.46875 C 347.558594 586.082031 347.273438 586.679688 346.960938 587.265625 C 346.648438 587.851562 346.308594 588.417969 345.941406 588.96875 C 345.570312 589.523438 345.175781 590.054688 344.753906 590.566406 C 344.335938 591.078125 343.890625 591.570312 343.421875 592.039062 C 342.953125 592.507812 342.460938 592.953125 341.949219 593.375 C 341.4375 593.792969 340.902344 594.191406 340.351562 594.558594 C 339.800781 594.925781 339.230469 595.265625 338.648438 595.578125 C 338.0625 595.890625 337.464844 596.175781 336.851562 596.429688 C 336.238281 596.683594 335.613281 596.90625 334.980469 597.097656 C 334.34375 597.292969 333.703125 597.453125 333.050781 597.582031 C 332.402344 597.710938 331.746094 597.808594 331.085938 597.875 C 330.425781 597.9375 329.761719 597.972656 329.101562 597.972656 C 328.4375 597.972656 327.773438 597.9375 327.113281 597.875 C 326.457031 597.808594 325.800781 597.710938 325.148438 597.582031 C 324.5 597.453125 323.855469 597.292969 323.222656 597.097656 C 322.585938 596.90625 321.960938 596.683594 321.351562 596.429688 C 320.738281 596.175781 320.136719 595.890625 319.554688 595.578125 C 318.96875 595.265625 318.398438 594.925781 317.847656 594.558594 C 317.296875 594.191406 316.765625 593.792969 316.253906 593.375 C 315.738281 592.953125 315.25 592.507812 314.78125 592.039062 C 314.3125 591.570312 313.867188 591.078125 313.445312 590.566406 C 313.023438 590.054688 312.628906 589.523438 312.261719 588.96875 C 311.890625 588.417969 311.550781 587.851562 311.238281 587.265625 C 310.925781 586.679688 310.644531 586.082031 310.390625 585.46875 C 310.136719 584.855469 309.914062 584.230469 309.71875 583.597656 C 309.527344 582.964844 309.367188 582.320312 309.238281 581.667969 C 309.109375 581.019531 309.011719 580.363281 308.945312 579.703125 C 308.878906 579.042969 308.847656 578.382812 308.847656 577.71875 C 308.847656 577.054688 308.878906 576.394531 308.945312 575.734375 C 309.011719 575.074219 309.109375 574.417969 309.238281 573.769531 C 309.367188 573.117188 309.527344 572.472656 309.71875 571.839844 C 309.914062 571.203125 310.136719 570.582031 310.390625 569.96875 C 310.644531 569.355469 310.925781 568.757812 311.238281 568.171875 C 311.550781 567.585938 311.890625 567.019531 312.261719 566.46875 C 312.628906 565.914062 313.023438 565.382812 313.445312 564.871094 C 313.867188 564.359375 314.3125 563.867188 314.78125 563.398438 C 315.25 562.929688 315.738281 562.484375 316.253906 562.0625 C 316.765625 561.640625 317.296875 561.246094 317.847656 560.878906 C 318.398438 560.511719 318.96875 560.171875 319.554688 559.859375 C 320.136719 559.542969 320.738281 559.261719 321.351562 559.007812 C 321.960938 558.753906 322.585938 558.53125 323.222656 558.339844 C 323.855469 558.144531 324.5 557.984375 325.148438 557.855469 C 325.800781 557.726562 326.457031 557.628906 327.113281 557.5625 C 327.773438 557.5 328.4375 557.464844 329.101562 557.464844 C 329.761719 557.464844 330.425781 557.5 331.085938 557.5625 C 331.746094 557.628906 332.402344 557.726562 333.050781 557.855469 C 333.703125 557.984375 334.34375 558.144531 334.980469 558.339844 C 335.613281 558.53125 336.238281 558.753906 336.851562 559.007812 C 337.464844 559.261719 338.0625 559.542969 338.648438 559.859375 C 339.230469 560.171875 339.800781 560.511719 340.351562 560.878906 C 340.902344 561.246094 341.4375 561.640625 341.949219 562.0625 C 342.460938 562.484375 342.953125 562.929688 343.421875 563.398438 C 343.890625 563.867188 344.335938 564.359375 344.753906 564.871094 C 345.175781 565.382812 345.570312 565.914062 345.941406 566.46875 C 346.308594 567.019531 346.648438 567.585938 346.960938 568.171875 C 347.273438 568.757812 347.558594 569.355469 347.8125 569.96875 C 348.066406 570.582031 348.289062 571.203125 348.480469 571.839844 C 348.671875 572.472656 348.835938 573.117188 348.964844 573.769531 C 349.09375 574.417969 349.191406 575.074219 349.253906 575.734375 C 349.320312 576.394531 349.351562 577.054688 349.351562 577.71875 Z M 349.351562 577.71875 " fill-opacity="1" fill-rule="nonzero"/></g></svg>