<svg xmlns="http://www.w3.org/2000/svg" xmlns:xlink="http://www.w3.org/1999/xlink" width="1920" zoomAndPan="magnify" viewBox="0 0 1440 809.999993" height="1080" preserveAspectRatio="xMidYMid meet" version="1.0"><defs><g/><clipPath id="3f4f911fce"><path d="M 373 211.742188 L 819 211.742188 L 819 597.988281 L 373 597.988281 Z M 373 211.742188 " clip-rule="nonzero"/></clipPath><clipPath id="1b10a1c941"><path d="M 397.152344 211.742188 L 668.4375 211.742188 C 695.003906 211.742188 719.667969 225.523438 733.589844 248.148438 L 807.710938 368.589844 C 821.449219 390.917969 821.449219 419.078125 807.710938 441.40625 L 733.589844 561.847656 C 719.667969 584.472656 695.003906 598.253906 668.4375 598.253906 L 397.152344 598.253906 C 388.5 598.253906 380.519531 593.574219 376.300781 586.019531 C 372.078125 578.464844 372.273438 569.21875 376.808594 561.847656 L 450.925781 441.40625 C 464.667969 419.078125 464.667969 390.917969 450.925781 368.589844 L 376.808594 248.148438 C 372.273438 240.777344 372.078125 231.53125 376.300781 223.976562 C 380.519531 216.421875 388.5 211.742188 397.152344 211.742188 Z M 397.152344 211.742188 " clip-rule="nonzero"/></clipPath><clipPath id="7731b4d714"><path d="M 960.25 384.148438 L 1002.25 384.148438 L 1002.25 426.148438 L 960.25 426.148438 Z M 960.25 384.148438 " clip-rule="nonzero"/></clipPath><clipPath id="375738a8e6"><path d="M 817.074219 364.144531 L 898.777344 364.144531 L 898.777344 445.847656 L 817.074219 445.847656 Z M 817.074219 364.144531 " clip-rule="nonzero"/></clipPath><clipPath id="9f4695aa29"><path d="M 857.925781 364.144531 C 835.363281 364.144531 817.074219 382.433594 817.074219 404.996094 C 817.074219 427.558594 835.363281 445.847656 857.925781 445.847656 C 880.488281 445.847656 898.777344 427.558594 898.777344 404.996094 C 898.777344 382.433594 880.488281 364.144531 857.925781 364.144531 Z M 857.925781 364.144531 " clip-rule="nonzero"/></clipPath><clipPath id="0f4d376ac9"><path d="M 207.320312 279.183594 L 249.320312 279.183594 L 249.320312 321.183594 L 207.320312 321.183594 Z M 207.320312 279.183594 " clip-rule="nonzero"/></clipPath><clipPath id="1e921353f2"><path d="M 207.320312 489.113281 L 249.320312 489.113281 L 249.320312 531.113281 L 207.320312 531.113281 Z M 207.320312 489.113281 " clip-rule="nonzero"/></clipPath></defs><g clip-path="url(#3f4f911fce)"><g clip-path="url(#1b10a1c941)"><path stroke-linecap="butt" transform="matrix(0.75, 0, 0, 0.75, 354.403582, 211.740331)" fill="none" stroke-linejoin="miter" d="M 56.998352 0.0024754 L 418.711912 0.0024754 C 454.133789 0.0024754 487.019207 18.377476 505.581708 48.544145 L 604.409838 209.132694 C 622.727547 238.903529 622.727547 276.450406 604.409838 306.221241 L 505.581708 466.809791 C 487.019207 496.976459 454.133789 515.35146 418.711912 515.35146 L 56.998352 515.35146 C 45.461893 515.35146 34.821267 509.111876 29.196267 499.038959 C 23.566059 488.966042 23.826475 476.637916 29.873351 466.809791 L 128.696272 306.221241 C 147.01919 276.450406 147.01919 238.903529 128.696272 209.132694 L 29.873351 48.544145 C 23.826475 38.716019 23.566059 26.387893 29.196267 16.314976 C 34.821267 6.242059 45.461893 0.0024754 56.998352 0.0024754 Z M 56.998352 0.0024754 " stroke="#000000" stroke-width="60" stroke-opacity="1" stroke-miterlimit="4"/></g></g><path stroke-linecap="butt" transform="matrix(0.75, 0.000000000000000568, -0.000000000000000568, 0.75, 880.837234, 391.875)" fill="none" stroke-linejoin="miter" d="M -0.00172854 17.500001 L 150.097237 17.500001 " stroke="#000000" stroke-width="35" stroke-opacity="1" stroke-miterlimit="4"/><g clip-path="url(#7731b4d714)"><path fill="#000000" d="M 1002.253906 405.152344 C 1002.253906 405.839844 1002.21875 406.527344 1002.152344 407.210938 C 1002.082031 407.894531 1001.984375 408.574219 1001.847656 409.25 C 1001.714844 409.921875 1001.546875 410.589844 1001.347656 411.25 C 1001.148438 411.90625 1000.917969 412.554688 1000.652344 413.1875 C 1000.390625 413.824219 1000.097656 414.445312 999.773438 415.050781 C 999.449219 415.660156 999.09375 416.25 998.710938 416.820312 C 998.332031 417.390625 997.921875 417.945312 997.484375 418.476562 C 997.046875 419.007812 996.585938 419.515625 996.101562 420.003906 C 995.613281 420.488281 995.105469 420.949219 994.574219 421.386719 C 994.042969 421.824219 993.488281 422.234375 992.917969 422.613281 C 992.347656 422.996094 991.757812 423.351562 991.148438 423.675781 C 990.542969 424 989.921875 424.292969 989.285156 424.554688 C 988.652344 424.820312 988.003906 425.050781 987.347656 425.25 C 986.6875 425.449219 986.023438 425.617188 985.347656 425.75 C 984.671875 425.886719 983.992188 425.984375 983.308594 426.054688 C 982.625 426.121094 981.9375 426.15625 981.25 426.15625 C 980.5625 426.15625 979.875 426.121094 979.191406 426.054688 C 978.507812 425.984375 977.828125 425.886719 977.152344 425.75 C 976.476562 425.617188 975.8125 425.449219 975.152344 425.25 C 974.496094 425.050781 973.847656 424.820312 973.210938 424.554688 C 972.578125 424.292969 971.957031 424 971.347656 423.675781 C 970.742188 423.351562 970.152344 422.996094 969.582031 422.613281 C 969.007812 422.234375 968.457031 421.824219 967.925781 421.386719 C 967.394531 420.949219 966.886719 420.488281 966.398438 420.003906 C 965.914062 419.515625 965.449219 419.007812 965.015625 418.476562 C 964.578125 417.945312 964.167969 417.390625 963.785156 416.820312 C 963.40625 416.25 963.050781 415.660156 962.726562 415.050781 C 962.402344 414.445312 962.109375 413.824219 961.847656 413.1875 C 961.582031 412.554688 961.351562 411.90625 961.152344 411.25 C 960.953125 410.589844 960.785156 409.921875 960.652344 409.25 C 960.515625 408.574219 960.414062 407.894531 960.347656 407.210938 C 960.28125 406.527344 960.246094 405.839844 960.246094 405.152344 C 960.246094 404.464844 960.28125 403.777344 960.347656 403.09375 C 960.414062 402.410156 960.515625 401.730469 960.652344 401.054688 C 960.785156 400.378906 960.953125 399.714844 961.152344 399.054688 C 961.351562 398.398438 961.582031 397.75 961.847656 397.113281 C 962.109375 396.480469 962.402344 395.859375 962.726562 395.25 C 963.050781 394.644531 963.40625 394.054688 963.785156 393.484375 C 964.167969 392.910156 964.578125 392.359375 965.015625 391.828125 C 965.449219 391.296875 965.914062 390.785156 966.398438 390.300781 C 966.886719 389.8125 967.394531 389.351562 967.925781 388.917969 C 968.457031 388.480469 969.007812 388.070312 969.582031 387.6875 C 970.152344 387.304688 970.742188 386.953125 971.347656 386.628906 C 971.957031 386.304688 972.578125 386.011719 973.210938 385.746094 C 973.847656 385.484375 974.496094 385.253906 975.152344 385.054688 C 975.8125 384.855469 976.476562 384.6875 977.152344 384.550781 C 977.828125 384.417969 978.507812 384.316406 979.191406 384.25 C 979.875 384.183594 980.5625 384.148438 981.25 384.148438 C 981.9375 384.148438 982.625 384.183594 983.308594 384.25 C 983.992188 384.316406 984.671875 384.417969 985.347656 384.550781 C 986.023438 384.6875 986.6875 384.855469 987.347656 385.054688 C 988.003906 385.253906 988.652344 385.484375 989.285156 385.746094 C 989.921875 386.011719 990.542969 386.304688 991.148438 386.628906 C 991.757812 386.953125 992.347656 387.304688 992.917969 387.6875 C 993.488281 388.070312 994.042969 388.480469 994.574219 388.917969 C 995.105469 389.351562 995.613281 389.8125 996.101562 390.300781 C 996.585938 390.785156 997.046875 391.296875 997.484375 391.828125 C 997.921875 392.359375 998.332031 392.910156 998.710938 393.484375 C 999.09375 394.054688 999.449219 394.644531 999.773438 395.25 C 1000.097656 395.859375 1000.390625 396.480469 1000.652344 397.113281 C 1000.917969 397.75 1001.148438 398.398438 1001.347656 399.054688 C 1001.546875 399.714844 1001.714844 400.378906 1001.847656 401.054688 C 1001.984375 401.730469 1002.082031 402.410156 1002.152344 403.09375 C 1002.21875 403.777344 1002.253906 404.464844 1002.253906 405.152344 Z M 1002.253906 405.152344 " fill-opacity="1" fill-rule="nonzero"/></g><g clip-path="url(#375738a8e6)"><g clip-path="url(#9f4695aa29)"><path stroke-linecap="butt" transform="matrix(0.75, 0, 0, 0.75, 817.073869, 364.144689)" fill="none" stroke-linejoin="miter" d="M 54.469219 -0.000210174 C 24.385884 -0.000210174 0.000466178 24.385208 0.000466178 54.468543 C 0.000466178 84.551877 24.385884 108.937295 54.469219 108.937295 C 84.552554 108.937295 108.937972 84.551877 108.937972 54.468543 C 108.937972 24.385208 84.552554 -0.000210174 54.469219 -0.000210174 Z M 54.469219 -0.000210174 " stroke="#000000" stroke-width="60" stroke-opacity="1" stroke-miterlimit="4"/></g></g><g fill="#000000" fill-opacity="1"><g transform="translate(1002.86512, 434.234295)"><g><path d="M 34.046875 1.53125 C 28.234375 1.53125 23.101562 0.476562 18.65625 -1.625 C 14.21875 -3.738281 10.742188 -6.757812 8.234375 -10.6875 C 5.722656 -14.625 4.46875 -19.320312 4.46875 -24.78125 L 21.171875 -24.78125 C 21.171875 -21.0625 22.460938 -18.3125 25.046875 -16.53125 C 27.628906 -14.75 30.59375 -13.859375 33.9375 -13.859375 C 36.050781 -13.859375 38.035156 -14.203125 39.890625 -14.890625 C 41.742188 -15.585938 43.269531 -16.609375 44.46875 -17.953125 C 45.675781 -19.296875 46.28125 -20.914062 46.28125 -22.8125 C 46.28125 -24.769531 45.585938 -26.3125 44.203125 -27.4375 C 42.816406 -28.570312 40.957031 -29.503906 38.625 -30.234375 C 36.300781 -30.960938 33.757812 -31.65625 31 -32.3125 C 28.15625 -32.957031 25.242188 -33.753906 22.265625 -34.703125 C 19.285156 -35.648438 16.519531 -36.90625 13.96875 -38.46875 C 11.425781 -40.03125 9.390625 -42.140625 7.859375 -44.796875 C 6.328125 -47.453125 5.5625 -50.816406 5.5625 -54.890625 C 5.5625 -62.242188 8.050781 -67.898438 13.03125 -71.859375 C 18.019531 -75.828125 24.769531 -77.8125 33.28125 -77.8125 C 42.019531 -77.8125 48.789062 -75.609375 53.59375 -71.203125 C 58.394531 -66.804688 60.796875 -60.828125 60.796875 -53.265625 L 44.421875 -53.265625 C 44.421875 -56.535156 43.253906 -58.953125 40.921875 -60.515625 C 38.597656 -62.078125 35.90625 -62.859375 32.84375 -62.859375 C 30.15625 -62.859375 27.679688 -62.273438 25.421875 -61.109375 C 23.171875 -59.953125 22.046875 -58.132812 22.046875 -55.65625 C 22.046875 -53.84375 22.71875 -52.40625 24.0625 -51.34375 C 25.40625 -50.289062 27.1875 -49.414062 29.40625 -48.71875 C 31.632812 -48.03125 34.09375 -47.363281 36.78125 -46.71875 C 39.6875 -45.988281 42.664062 -45.128906 45.71875 -44.140625 C 48.78125 -43.160156 51.617188 -41.832031 54.234375 -40.15625 C 56.859375 -38.488281 58.988281 -36.269531 60.625 -33.5 C 62.257812 -30.738281 63.078125 -27.25 63.078125 -23.03125 C 63.078125 -17.5 61.75 -12.910156 59.09375 -9.265625 C 56.4375 -5.628906 52.925781 -2.921875 48.5625 -1.140625 C 44.195312 0.640625 39.359375 1.53125 34.046875 1.53125 Z M 34.046875 1.53125 "/></g></g><g transform="translate(1070.423658, 434.234295)"><g><path d="M 55.765625 -59.046875 L 67.671875 -59.046875 L 67.671875 -0.109375 L 55.109375 -0.109375 L 53.8125 -5.34375 C 51.257812 -3.164062 48.363281 -1.457031 45.125 -0.21875 C 41.882812 1.019531 38.410156 1.640625 34.703125 1.640625 C 28.804688 1.640625 23.53125 0.273438 18.875 -2.453125 C 14.21875 -5.179688 10.539062 -8.890625 7.84375 -13.578125 C 5.15625 -18.273438 3.8125 -23.609375 3.8125 -29.578125 C 3.8125 -35.472656 5.15625 -40.765625 7.84375 -45.453125 C 10.539062 -50.148438 14.21875 -53.84375 18.875 -56.53125 C 23.53125 -59.226562 28.804688 -60.578125 34.703125 -60.578125 C 38.484375 -60.578125 42.007812 -59.9375 45.28125 -58.65625 C 48.5625 -57.382812 51.476562 -55.625 54.03125 -53.375 Z M 36.015625 -13.421875 C 39.066406 -13.421875 41.8125 -14.113281 44.25 -15.5 C 46.6875 -16.882812 48.597656 -18.796875 49.984375 -21.234375 C 51.367188 -23.671875 52.0625 -26.453125 52.0625 -29.578125 C 52.0625 -32.628906 51.367188 -35.375 49.984375 -37.8125 C 48.597656 -40.25 46.6875 -42.175781 44.25 -43.59375 C 41.8125 -45.019531 39.066406 -45.734375 36.015625 -45.734375 C 32.890625 -45.734375 30.125 -45.019531 27.71875 -43.59375 C 25.320312 -42.175781 23.429688 -40.25 22.046875 -37.8125 C 20.660156 -35.375 19.96875 -32.628906 19.96875 -29.578125 C 19.96875 -26.453125 20.660156 -23.6875 22.046875 -21.28125 C 23.429688 -18.882812 25.320312 -16.972656 27.71875 -15.546875 C 30.125 -14.128906 32.890625 -13.421875 36.015625 -13.421875 Z M 36.015625 -13.421875 "/></g></g><g transform="translate(1145.731237, 434.234295)"><g><path d="M 7.640625 0 L 7.640625 -80.21875 L 23.578125 -80.21875 L 23.578125 0 Z M 7.640625 0 "/></g></g></g><g fill="#000000" fill-opacity="1"><g transform="translate(1176.945668, 434.234295)"><g><path d="M 7.640625 -66.796875 L 7.640625 -81.640625 L 23.578125 -81.640625 L 23.578125 -66.796875 Z M 7.640625 0 L 7.640625 -58.9375 L 23.578125 -58.9375 L 23.578125 0 Z M 7.640625 0 "/></g></g></g><g fill="#000000" fill-opacity="1"><g transform="translate(1208.160096, 434.234295)"><g><path d="M 50.96875 -80.21875 L 66.90625 -80.21875 L 66.90625 0 L 55.109375 0 L 53.265625 -4.90625 C 50.785156 -2.800781 47.976562 -1.164062 44.84375 0 C 41.71875 1.164062 38.375 1.75 34.8125 1.75 C 28.84375 1.75 23.507812 0.382812 18.8125 -2.34375 C 14.125 -5.070312 10.453125 -8.78125 7.796875 -13.46875 C 5.140625 -18.164062 3.8125 -23.5 3.8125 -29.46875 C 3.8125 -35.4375 5.140625 -40.765625 7.796875 -45.453125 C 10.453125 -50.148438 14.125 -53.84375 18.8125 -56.53125 C 23.507812 -59.226562 28.84375 -60.578125 34.8125 -60.578125 C 37.800781 -60.578125 40.65625 -60.15625 43.375 -59.3125 C 46.101562 -58.476562 48.632812 -57.296875 50.96875 -55.765625 Z M 36.015625 -13.3125 C 39.140625 -13.3125 41.898438 -14.019531 44.296875 -15.4375 C 46.703125 -16.863281 48.613281 -18.796875 50.03125 -21.234375 C 51.457031 -23.671875 52.171875 -26.414062 52.171875 -29.46875 C 52.171875 -32.519531 51.457031 -35.265625 50.03125 -37.703125 C 48.613281 -40.140625 46.703125 -42.066406 44.296875 -43.484375 C 41.898438 -44.910156 39.140625 -45.625 36.015625 -45.625 C 32.960938 -45.625 30.234375 -44.910156 27.828125 -43.484375 C 25.429688 -42.066406 23.519531 -40.140625 22.09375 -37.703125 C 20.675781 -35.265625 19.96875 -32.519531 19.96875 -29.46875 C 19.96875 -26.414062 20.675781 -23.671875 22.09375 -21.234375 C 23.519531 -18.796875 25.429688 -16.863281 27.828125 -15.4375 C 30.234375 -14.019531 32.960938 -13.3125 36.015625 -13.3125 Z M 36.015625 -13.3125 "/></g></g><g transform="translate(1282.703685, 434.234295)"><g><path d="M 55.765625 -59.046875 L 67.671875 -59.046875 L 67.671875 -0.109375 L 55.109375 -0.109375 L 53.8125 -5.34375 C 51.257812 -3.164062 48.363281 -1.457031 45.125 -0.21875 C 41.882812 1.019531 38.410156 1.640625 34.703125 1.640625 C 28.804688 1.640625 23.53125 0.273438 18.875 -2.453125 C 14.21875 -5.179688 10.539062 -8.890625 7.84375 -13.578125 C 5.15625 -18.273438 3.8125 -23.609375 3.8125 -29.578125 C 3.8125 -35.472656 5.15625 -40.765625 7.84375 -45.453125 C 10.539062 -50.148438 14.21875 -53.84375 18.875 -56.53125 C 23.53125 -59.226562 28.804688 -60.578125 34.703125 -60.578125 C 38.484375 -60.578125 42.007812 -59.9375 45.28125 -58.65625 C 48.5625 -57.382812 51.476562 -55.625 54.03125 -53.375 Z M 36.015625 -13.421875 C 39.066406 -13.421875 41.8125 -14.113281 44.25 -15.5 C 46.6875 -16.882812 48.597656 -18.796875 49.984375 -21.234375 C 51.367188 -23.671875 52.0625 -26.453125 52.0625 -29.578125 C 52.0625 -32.628906 51.367188 -35.375 49.984375 -37.8125 C 48.597656 -40.25 46.6875 -42.175781 44.25 -43.59375 C 41.8125 -45.019531 39.066406 -45.734375 36.015625 -45.734375 C 32.890625 -45.734375 30.125 -45.019531 27.71875 -43.59375 C 25.320312 -42.175781 23.429688 -40.25 22.046875 -37.8125 C 20.660156 -35.375 19.96875 -32.628906 19.96875 -29.578125 C 19.96875 -26.453125 20.660156 -23.6875 22.046875 -21.28125 C 23.429688 -18.882812 25.320312 -16.972656 27.71875 -15.546875 C 30.125 -14.128906 32.890625 -13.421875 36.015625 -13.421875 Z M 36.015625 -13.421875 "/></g></g></g><g fill="#000000" fill-opacity="1"><g transform="translate(94.005725, 329.873021)"><g><path d="M 25.328125 -15.390625 L 55.765625 -15.390625 L 55.765625 0 L 8.734375 0 L 8.734375 -76.40625 L 54.578125 -76.40625 L 54.578125 -61.125 L 25.328125 -61.125 L 25.328125 -46.0625 L 51.734375 -46.0625 L 51.734375 -31.109375 L 25.328125 -31.109375 Z M 25.328125 -15.390625 "/></g></g></g><g fill="#000000" fill-opacity="1"><g transform="translate(155.010365, 329.873021)"><g><path d="M 3.703125 -72.578125 L 30.34375 -72.578125 L 30.34375 0 L 15.0625 0 L 15.0625 -58.9375 L 3.703125 -58.9375 Z M 3.703125 -72.578125 "/></g></g></g><path stroke-linecap="butt" transform="matrix(0.75, 0, 0, 0.75, 212.789513, 286.909693)" fill="none" stroke-linejoin="miter" d="M -0.000600823 17.500619 L 276.025455 17.500619 " stroke="#000000" stroke-width="35" stroke-opacity="1" stroke-miterlimit="4"/><g clip-path="url(#0f4d376ac9)"><path fill="#000000" d="M 249.324219 300.1875 C 249.324219 300.875 249.289062 301.5625 249.222656 302.246094 C 249.152344 302.929688 249.054688 303.609375 248.917969 304.285156 C 248.785156 304.957031 248.617188 305.625 248.417969 306.285156 C 248.21875 306.941406 247.988281 307.589844 247.722656 308.222656 C 247.460938 308.859375 247.167969 309.480469 246.84375 310.085938 C 246.519531 310.695312 246.164062 311.28125 245.78125 311.855469 C 245.402344 312.425781 244.992188 312.980469 244.554688 313.511719 C 244.117188 314.042969 243.65625 314.550781 243.171875 315.039062 C 242.683594 315.523438 242.175781 315.984375 241.644531 316.421875 C 241.113281 316.859375 240.558594 317.265625 239.988281 317.648438 C 239.417969 318.03125 238.828125 318.386719 238.21875 318.710938 C 237.613281 319.035156 236.992188 319.328125 236.355469 319.589844 C 235.722656 319.855469 235.074219 320.085938 234.417969 320.285156 C 233.757812 320.484375 233.09375 320.652344 232.417969 320.785156 C 231.742188 320.921875 231.0625 321.019531 230.378906 321.089844 C 229.695312 321.15625 229.007812 321.1875 228.320312 321.1875 C 227.632812 321.1875 226.945312 321.15625 226.261719 321.089844 C 225.578125 321.019531 224.898438 320.921875 224.222656 320.785156 C 223.546875 320.652344 222.882812 320.484375 222.222656 320.285156 C 221.566406 320.085938 220.917969 319.855469 220.28125 319.589844 C 219.648438 319.328125 219.027344 319.035156 218.417969 318.710938 C 217.8125 318.386719 217.222656 318.03125 216.652344 317.648438 C 216.078125 317.265625 215.527344 316.859375 214.996094 316.421875 C 214.464844 315.984375 213.953125 315.523438 213.46875 315.039062 C 212.980469 314.550781 212.519531 314.042969 212.085938 313.511719 C 211.648438 312.980469 211.238281 312.425781 210.855469 311.855469 C 210.472656 311.28125 210.121094 310.695312 209.796875 310.085938 C 209.472656 309.480469 209.179688 308.859375 208.914062 308.222656 C 208.652344 307.589844 208.421875 306.941406 208.222656 306.285156 C 208.023438 305.625 207.855469 304.957031 207.71875 304.285156 C 207.585938 303.609375 207.484375 302.929688 207.417969 302.246094 C 207.351562 301.5625 207.316406 300.875 207.316406 300.1875 C 207.316406 299.5 207.351562 298.8125 207.417969 298.128906 C 207.484375 297.445312 207.585938 296.765625 207.71875 296.089844 C 207.855469 295.414062 208.023438 294.75 208.222656 294.089844 C 208.421875 293.433594 208.652344 292.785156 208.914062 292.148438 C 209.179688 291.515625 209.472656 290.894531 209.796875 290.285156 C 210.121094 289.679688 210.472656 289.089844 210.855469 288.519531 C 211.238281 287.945312 211.648438 287.394531 212.085938 286.863281 C 212.519531 286.332031 212.980469 285.820312 213.46875 285.335938 C 213.953125 284.847656 214.464844 284.386719 214.996094 283.953125 C 215.527344 283.515625 216.078125 283.105469 216.652344 282.722656 C 217.222656 282.339844 217.8125 281.988281 218.417969 281.664062 C 219.027344 281.339844 219.648438 281.046875 220.28125 280.78125 C 220.917969 280.519531 221.566406 280.289062 222.222656 280.089844 C 222.882812 279.890625 223.546875 279.722656 224.222656 279.585938 C 224.898438 279.453125 225.578125 279.351562 226.261719 279.285156 C 226.945312 279.21875 227.632812 279.183594 228.320312 279.183594 C 229.007812 279.183594 229.695312 279.21875 230.378906 279.285156 C 231.0625 279.351562 231.742188 279.453125 232.417969 279.585938 C 233.09375 279.722656 233.757812 279.890625 234.417969 280.089844 C 235.074219 280.289062 235.722656 280.519531 236.355469 280.78125 C 236.992188 281.046875 237.613281 281.339844 238.21875 281.664062 C 238.828125 281.988281 239.417969 282.339844 239.988281 282.722656 C 240.558594 283.105469 241.113281 283.515625 241.644531 283.953125 C 242.175781 284.386719 242.683594 284.847656 243.171875 285.335938 C 243.65625 285.820312 244.117188 286.332031 244.554688 286.863281 C 244.992188 287.394531 245.402344 287.945312 245.78125 288.519531 C 246.164062 289.089844 246.519531 289.679688 246.84375 290.285156 C 247.167969 290.894531 247.460938 291.515625 247.722656 292.148438 C 247.988281 292.785156 248.21875 293.433594 248.417969 294.089844 C 248.617188 294.75 248.785156 295.414062 248.917969 296.089844 C 249.054688 296.765625 249.152344 297.445312 249.222656 298.128906 C 249.289062 298.8125 249.324219 299.5 249.324219 300.1875 Z M 249.324219 300.1875 " fill-opacity="1" fill-rule="nonzero"/></g><g fill="#000000" fill-opacity="1"><g transform="translate(83.748884, 539.803168)"><g><path d="M 25.328125 -15.390625 L 55.765625 -15.390625 L 55.765625 0 L 8.734375 0 L 8.734375 -76.40625 L 54.578125 -76.40625 L 54.578125 -61.125 L 25.328125 -61.125 L 25.328125 -46.0625 L 51.734375 -46.0625 L 51.734375 -31.109375 L 25.328125 -31.109375 Z M 25.328125 -15.390625 "/></g></g></g><g fill="#000000" fill-opacity="1"><g transform="translate(144.753524, 539.803168)"><g><path d="M 32.3125 -14.625 L 54.46875 -14.625 L 54.46875 0 L 3.609375 0 L 3.609375 -3.390625 C 9.566406 -10.296875 14.566406 -16.148438 18.609375 -20.953125 C 22.648438 -25.753906 25.90625 -29.753906 28.375 -32.953125 C 30.851562 -36.160156 32.742188 -38.835938 34.046875 -40.984375 C 35.359375 -43.128906 36.234375 -44.984375 36.671875 -46.546875 C 37.109375 -48.109375 37.328125 -49.617188 37.328125 -51.078125 C 37.328125 -53.617188 36.5625 -55.65625 35.03125 -57.1875 C 33.507812 -58.71875 31.507812 -59.484375 29.03125 -59.484375 C 26.488281 -59.484375 24.429688 -58.695312 22.859375 -57.125 C 21.296875 -55.5625 20.515625 -53.472656 20.515625 -50.859375 L 20.515625 -49.546875 L 4.90625 -49.546875 L 4.90625 -51.078125 C 4.90625 -55.515625 5.890625 -59.460938 7.859375 -62.921875 C 9.828125 -66.378906 12.59375 -69.109375 16.15625 -71.109375 C 19.71875 -73.109375 23.9375 -74.109375 28.8125 -74.109375 C 33.539062 -74.109375 37.722656 -73.125 41.359375 -71.15625 C 45.003906 -69.195312 47.863281 -66.503906 49.9375 -63.078125 C 52.007812 -59.660156 53.046875 -55.734375 53.046875 -51.296875 C 53.046875 -49.035156 52.753906 -46.773438 52.171875 -44.515625 C 51.585938 -42.265625 50.550781 -39.753906 49.0625 -36.984375 C 47.570312 -34.222656 45.460938 -31.039062 42.734375 -27.4375 C 40.003906 -23.84375 36.53125 -19.570312 32.3125 -14.625 Z M 32.3125 -14.625 "/></g></g></g><path stroke-linecap="butt" transform="matrix(0.75, 0, 0, 0.75, 212.789513, 496.840315)" fill="none" stroke-linejoin="miter" d="M -0.000600823 17.499373 L 276.025455 17.499373 " stroke="#000000" stroke-width="35" stroke-opacity="1" stroke-miterlimit="4"/><g clip-path="url(#1e921353f2)"><path fill="#000000" d="M 249.324219 510.117188 C 249.324219 510.804688 249.289062 511.492188 249.222656 512.175781 C 249.152344 512.859375 249.054688 513.539062 248.917969 514.214844 C 248.785156 514.890625 248.617188 515.554688 248.417969 516.214844 C 248.21875 516.871094 247.988281 517.519531 247.722656 518.15625 C 247.460938 518.789062 247.167969 519.410156 246.84375 520.019531 C 246.519531 520.625 246.164062 521.214844 245.78125 521.785156 C 245.402344 522.355469 244.992188 522.910156 244.554688 523.441406 C 244.117188 523.972656 243.65625 524.480469 243.171875 524.96875 C 242.683594 525.453125 242.175781 525.914062 241.644531 526.351562 C 241.113281 526.789062 240.558594 527.199219 239.988281 527.582031 C 239.417969 527.960938 238.828125 528.316406 238.21875 528.640625 C 237.613281 528.964844 236.992188 529.257812 236.355469 529.519531 C 235.722656 529.785156 235.074219 530.015625 234.417969 530.214844 C 233.757812 530.414062 233.09375 530.582031 232.417969 530.714844 C 231.742188 530.851562 231.0625 530.949219 230.378906 531.019531 C 229.695312 531.085938 229.007812 531.121094 228.320312 531.121094 C 227.632812 531.121094 226.945312 531.085938 226.261719 531.019531 C 225.578125 530.949219 224.898438 530.851562 224.222656 530.714844 C 223.546875 530.582031 222.882812 530.414062 222.222656 530.214844 C 221.566406 530.015625 220.917969 529.785156 220.28125 529.519531 C 219.648438 529.257812 219.027344 528.964844 218.417969 528.640625 C 217.8125 528.316406 217.222656 527.960938 216.652344 527.582031 C 216.078125 527.199219 215.527344 526.789062 214.996094 526.351562 C 214.464844 525.914062 213.953125 525.453125 213.46875 524.96875 C 212.980469 524.480469 212.519531 523.972656 212.085938 523.441406 C 211.648438 522.910156 211.238281 522.355469 210.855469 521.785156 C 210.472656 521.214844 210.121094 520.625 209.796875 520.019531 C 209.472656 519.410156 209.179688 518.789062 208.914062 518.15625 C 208.652344 517.519531 208.421875 516.871094 208.222656 516.214844 C 208.023438 515.554688 207.855469 514.890625 207.71875 514.214844 C 207.585938 513.539062 207.484375 512.859375 207.417969 512.175781 C 207.351562 511.492188 207.316406 510.804688 207.316406 510.117188 C 207.316406 509.429688 207.351562 508.742188 207.417969 508.058594 C 207.484375 507.375 207.585938 506.695312 207.71875 506.019531 C 207.855469 505.34375 208.023438 504.679688 208.222656 504.019531 C 208.421875 503.363281 208.652344 502.714844 208.914062 502.078125 C 209.179688 501.445312 209.472656 500.824219 209.796875 500.214844 C 210.121094 499.609375 210.472656 499.019531 210.855469 498.449219 C 211.238281 497.875 211.648438 497.324219 212.085938 496.792969 C 212.519531 496.261719 212.980469 495.753906 213.46875 495.265625 C 213.953125 494.78125 214.464844 494.316406 214.996094 493.882812 C 215.527344 493.445312 216.078125 493.035156 216.652344 492.652344 C 217.222656 492.273438 217.8125 491.917969 218.417969 491.59375 C 219.027344 491.269531 219.648438 490.976562 220.28125 490.714844 C 220.917969 490.449219 221.566406 490.21875 222.222656 490.019531 C 222.882812 489.820312 223.546875 489.652344 224.222656 489.519531 C 224.898438 489.382812 225.578125 489.28125 226.261719 489.214844 C 226.945312 489.148438 227.632812 489.113281 228.320312 489.113281 C 229.007812 489.113281 229.695312 489.148438 230.378906 489.214844 C 231.0625 489.28125 231.742188 489.382812 232.417969 489.519531 C 233.09375 489.652344 233.757812 489.820312 234.417969 490.019531 C 235.074219 490.21875 235.722656 490.449219 236.355469 490.714844 C 236.992188 490.976562 237.613281 491.269531 238.21875 491.59375 C 238.828125 491.917969 239.417969 492.273438 239.988281 492.652344 C 240.558594 493.035156 241.113281 493.445312 241.644531 493.882812 C 242.175781 494.316406 242.683594 494.78125 243.171875 495.265625 C 243.65625 495.753906 244.117188 496.261719 244.554688 496.792969 C 244.992188 497.324219 245.402344 497.875 245.78125 498.449219 C 246.164062 499.019531 246.519531 499.609375 246.84375 500.214844 C 247.167969 500.824219 247.460938 501.445312 247.722656 502.078125 C 247.988281 502.714844 248.21875 503.363281 248.417969 504.019531 C 248.617188 504.679688 248.785156 505.34375 248.917969 506.019531 C 249.054688 506.695312 249.152344 507.375 249.222656 508.058594 C 249.289062 508.742188 249.324219 509.429688 249.324219 510.117188 Z M 249.324219 510.117188 " fill-opacity="1" fill-rule="nonzero"/></g></svg>