<svg xmlns="http://www.w3.org/2000/svg" xmlns:xlink="http://www.w3.org/1999/xlink" width="1920" zoomAndPan="magnify" viewBox="0 0 1440 809.999993" height="1080" preserveAspectRatio="xMidYMid meet" version="1.0"><defs><g/><clipPath id="f3b6bb518f"><path d="M 373 211.738281 L 819 211.738281 L 819 598.253906 L 373 598.253906 Z M 373 211.738281 " clip-rule="nonzero"/></clipPath><clipPath id="6b2550247c"><path d="M 397.15625 211.738281 L 668.4375 211.738281 C 695.003906 211.738281 719.667969 225.519531 733.59375 248.144531 L 807.710938 368.589844 C 821.449219 390.914062 821.449219 419.074219 807.710938 441.402344 L 733.59375 561.84375 C 719.667969 584.46875 695.003906 598.253906 668.4375 598.253906 L 397.15625 598.253906 C 388.5 598.253906 380.523438 593.570312 376.300781 586.015625 C 372.078125 578.460938 372.273438 569.214844 376.808594 561.84375 L 450.929688 441.402344 C 464.667969 419.074219 464.667969 390.914062 450.929688 368.589844 L 376.808594 248.144531 C 372.273438 240.773438 372.078125 231.527344 376.300781 223.972656 C 380.523438 216.417969 388.5 211.738281 397.15625 211.738281 Z M 397.15625 211.738281 " clip-rule="nonzero"/></clipPath><clipPath id="c911c857dd"><path d="M 960.25 384.148438 L 1002.101562 384.148438 L 1002.101562 426 L 960.25 426 Z M 960.25 384.148438 " clip-rule="nonzero"/></clipPath><clipPath id="c6a72347d3"><path d="M 817.074219 364.144531 L 898.449219 364.144531 L 898.449219 445.519531 L 817.074219 445.519531 Z M 817.074219 364.144531 " clip-rule="nonzero"/></clipPath><clipPath id="0a232bfb7f"><path d="M 857.925781 364.144531 C 835.363281 364.144531 817.074219 382.433594 817.074219 404.996094 C 817.074219 427.558594 835.363281 445.847656 857.925781 445.847656 C 880.488281 445.847656 898.777344 427.558594 898.777344 404.996094 C 898.777344 382.433594 880.488281 364.144531 857.925781 364.144531 Z M 857.925781 364.144531 " clip-rule="nonzero"/></clipPath><clipPath id="a2847d8d0c"><path d="M 207.320312 226.910156 L 249.171875 226.910156 L 249.171875 268.761719 L 207.320312 268.761719 Z M 207.320312 226.910156 " clip-rule="nonzero"/></clipPath><clipPath id="8221ad09bd"><path d="M 207.320312 331.964844 L 249.171875 331.964844 L 249.171875 373.816406 L 207.320312 373.816406 Z M 207.320312 331.964844 " clip-rule="nonzero"/></clipPath><clipPath id="bed3246464"><path d="M 207.320312 436.839844 L 249.171875 436.839844 L 249.171875 478.691406 L 207.320312 478.691406 Z M 207.320312 436.839844 " clip-rule="nonzero"/></clipPath><clipPath id="ac501588e7"><path d="M 207.320312 541.386719 L 249.171875 541.386719 L 249.171875 583.238281 L 207.320312 583.238281 Z M 207.320312 541.386719 " clip-rule="nonzero"/></clipPath></defs><g clip-path="url(#f3b6bb518f)"><g clip-path="url(#6b2550247c)"><path stroke-linecap="butt" transform="matrix(0.775015, 0, 0, 0.775015, 354.405488, 211.738193)" fill="none" stroke-linejoin="miter" d="M 55.161197 0.000114452 L 405.194683 0.000114452 C 439.473247 0.000114452 471.297222 17.782025 489.265621 46.975003 L 584.898834 202.385274 C 602.625302 231.190155 602.625302 267.525131 584.898834 296.335052 L 489.265621 451.740283 C 471.297222 480.933261 439.473247 498.720212 405.194683 498.720212 L 55.161197 498.720212 C 43.99206 498.720212 33.699922 492.676984 28.25144 482.92919 C 22.802958 473.181397 23.054969 461.251186 28.906669 451.740283 L 124.544922 296.335052 C 142.27139 267.525131 142.27139 231.190155 124.544922 202.385274 L 28.906669 46.975003 C 23.054969 37.4641 22.802958 25.53389 28.25144 15.786096 C 33.699922 6.038303 43.99206 0.000114452 55.161197 0.000114452 Z M 55.161197 0.000114452 " stroke="#000000" stroke-width="58.063381" stroke-opacity="1" stroke-miterlimit="4"/></g></g><path stroke-linecap="butt" transform="matrix(0.775015, 0.000000000000000607, -0.000000000000000607, 0.775015, 880.837234, 391.824727)" fill="none" stroke-linejoin="miter" d="M -0.00167275 17.00002 L 145.252547 17.00002 " stroke="#000000" stroke-width="34" stroke-opacity="1" stroke-miterlimit="4"/><g clip-path="url(#c911c857dd)"><path fill="#000000" d="M 1002.101562 405.078125 C 1002.101562 405.761719 1002.070312 406.445312 1002.003906 407.128906 C 1001.933594 407.808594 1001.835938 408.488281 1001.699219 409.160156 C 1001.566406 409.832031 1001.402344 410.496094 1001.203125 411.152344 C 1001.003906 411.808594 1000.773438 412.453125 1000.511719 413.085938 C 1000.246094 413.71875 999.957031 414.339844 999.632812 414.941406 C 999.308594 415.546875 998.957031 416.132812 998.574219 416.703125 C 998.195312 417.273438 997.789062 417.824219 997.351562 418.355469 C 996.917969 418.882812 996.457031 419.390625 995.972656 419.875 C 995.488281 420.359375 994.980469 420.820312 994.453125 421.253906 C 993.921875 421.691406 993.371094 422.097656 992.800781 422.476562 C 992.230469 422.859375 991.644531 423.210938 991.039062 423.535156 C 990.4375 423.855469 989.816406 424.148438 989.183594 424.410156 C 988.550781 424.675781 987.90625 424.90625 987.25 425.105469 C 986.59375 425.304688 985.929688 425.46875 985.257812 425.601562 C 984.585938 425.738281 983.910156 425.835938 983.226562 425.90625 C 982.542969 425.972656 981.859375 426.003906 981.175781 426.003906 C 980.488281 426.003906 979.804688 425.972656 979.125 425.90625 C 978.441406 425.835938 977.765625 425.738281 977.09375 425.601562 C 976.421875 425.46875 975.757812 425.304688 975.101562 425.105469 C 974.445312 424.90625 973.800781 424.675781 973.167969 424.410156 C 972.53125 424.148438 971.914062 423.855469 971.308594 423.535156 C 970.707031 423.210938 970.117188 422.859375 969.546875 422.476562 C 968.976562 422.097656 968.429688 421.691406 967.898438 421.253906 C 967.367188 420.820312 966.863281 420.359375 966.375 419.875 C 965.890625 419.390625 965.433594 418.882812 964.996094 418.355469 C 964.5625 417.824219 964.15625 417.273438 963.773438 416.703125 C 963.394531 416.132812 963.042969 415.546875 962.71875 414.941406 C 962.394531 414.339844 962.101562 413.71875 961.839844 413.085938 C 961.578125 412.453125 961.347656 411.808594 961.148438 411.152344 C 960.949219 410.496094 960.78125 409.832031 960.648438 409.160156 C 960.515625 408.488281 960.414062 407.808594 960.347656 407.128906 C 960.28125 406.445312 960.246094 405.761719 960.246094 405.078125 C 960.246094 404.390625 960.28125 403.707031 960.347656 403.027344 C 960.414062 402.34375 960.515625 401.667969 960.648438 400.996094 C 960.78125 400.320312 960.949219 399.65625 961.148438 399.003906 C 961.347656 398.347656 961.578125 397.703125 961.839844 397.066406 C 962.101562 396.433594 962.394531 395.816406 962.71875 395.210938 C 963.042969 394.605469 963.394531 394.019531 963.773438 393.449219 C 964.15625 392.878906 964.5625 392.332031 964.996094 391.800781 C 965.433594 391.269531 965.890625 390.761719 966.375 390.277344 C 966.863281 389.792969 967.367188 389.335938 967.898438 388.898438 C 968.429688 388.464844 968.976562 388.058594 969.546875 387.675781 C 970.117188 387.296875 970.707031 386.941406 971.308594 386.621094 C 971.914062 386.296875 972.53125 386.003906 973.167969 385.742188 C 973.800781 385.480469 974.445312 385.25 975.101562 385.050781 C 975.757812 384.851562 976.421875 384.683594 977.09375 384.550781 C 977.765625 384.417969 978.441406 384.316406 979.125 384.25 C 979.804688 384.183594 980.488281 384.148438 981.175781 384.148438 C 981.859375 384.148438 982.542969 384.183594 983.226562 384.25 C 983.910156 384.316406 984.585938 384.417969 985.257812 384.550781 C 985.929688 384.683594 986.59375 384.851562 987.25 385.050781 C 987.90625 385.25 988.550781 385.480469 989.183594 385.742188 C 989.816406 386.003906 990.4375 386.296875 991.039062 386.621094 C 991.644531 386.941406 992.230469 387.296875 992.800781 387.675781 C 993.371094 388.058594 993.921875 388.464844 994.453125 388.898438 C 994.980469 389.335938 995.488281 389.792969 995.972656 390.277344 C 996.457031 390.761719 996.917969 391.269531 997.351562 391.800781 C 997.789062 392.332031 998.195312 392.878906 998.574219 393.449219 C 998.957031 394.019531 999.308594 394.605469 999.632812 395.210938 C 999.957031 395.816406 1000.246094 396.433594 1000.511719 397.066406 C 1000.773438 397.703125 1001.003906 398.347656 1001.203125 399.003906 C 1001.402344 399.65625 1001.566406 400.320312 1001.699219 400.996094 C 1001.835938 401.667969 1001.933594 402.34375 1002.003906 403.027344 C 1002.070312 403.707031 1002.101562 404.390625 1002.101562 405.078125 Z M 1002.101562 405.078125 " fill-opacity="1" fill-rule="nonzero"/></g><g clip-path="url(#c6a72347d3)"><g clip-path="url(#0a232bfb7f)"><path stroke-linecap="butt" transform="matrix(0.775015, 0, 0, 0.775015, 817.073869, 364.144602)" fill="none" stroke-linejoin="miter" d="M 52.71111 -0.0000919084 C 23.598778 -0.0000919084 0.000451131 23.598235 0.000451131 52.710567 C 0.000451131 81.822899 23.598778 105.421226 52.71111 105.421226 C 81.823442 105.421226 105.421769 81.822899 105.421769 52.710567 C 105.421769 23.598235 81.823442 -0.0000919084 52.71111 -0.0000919084 Z M 52.71111 -0.0000919084 " stroke="#000000" stroke-width="58.063381" stroke-opacity="1" stroke-miterlimit="4"/></g></g><g fill="#000000" fill-opacity="1"><g transform="translate(1002.86512, 434.234324)"><g><path d="M 34.046875 1.53125 C 28.234375 1.53125 23.101562 0.476562 18.65625 -1.625 C 14.21875 -3.738281 10.742188 -6.757812 8.234375 -10.6875 C 5.722656 -14.625 4.46875 -19.320312 4.46875 -24.78125 L 21.171875 -24.78125 C 21.171875 -21.0625 22.460938 -18.3125 25.046875 -16.53125 C 27.628906 -14.75 30.59375 -13.859375 33.9375 -13.859375 C 36.050781 -13.859375 38.035156 -14.203125 39.890625 -14.890625 C 41.742188 -15.585938 43.269531 -16.609375 44.46875 -17.953125 C 45.675781 -19.296875 46.28125 -20.914062 46.28125 -22.8125 C 46.28125 -24.769531 45.585938 -26.3125 44.203125 -27.4375 C 42.816406 -28.570312 40.957031 -29.503906 38.625 -30.234375 C 36.300781 -30.960938 33.757812 -31.65625 31 -32.3125 C 28.15625 -32.957031 25.242188 -33.753906 22.265625 -34.703125 C 19.285156 -35.648438 16.519531 -36.90625 13.96875 -38.46875 C 11.425781 -40.03125 9.390625 -42.140625 7.859375 -44.796875 C 6.328125 -47.453125 5.5625 -50.816406 5.5625 -54.890625 C 5.5625 -62.242188 8.050781 -67.898438 13.03125 -71.859375 C 18.019531 -75.828125 24.769531 -77.8125 33.28125 -77.8125 C 42.019531 -77.8125 48.789062 -75.609375 53.59375 -71.203125 C 58.394531 -66.804688 60.796875 -60.828125 60.796875 -53.265625 L 44.421875 -53.265625 C 44.421875 -56.535156 43.253906 -58.953125 40.921875 -60.515625 C 38.597656 -62.078125 35.90625 -62.859375 32.84375 -62.859375 C 30.15625 -62.859375 27.679688 -62.273438 25.421875 -61.109375 C 23.171875 -59.953125 22.046875 -58.132812 22.046875 -55.65625 C 22.046875 -53.84375 22.71875 -52.40625 24.0625 -51.34375 C 25.40625 -50.289062 27.1875 -49.414062 29.40625 -48.71875 C 31.632812 -48.03125 34.09375 -47.363281 36.78125 -46.71875 C 39.6875 -45.988281 42.664062 -45.128906 45.71875 -44.140625 C 48.78125 -43.160156 51.617188 -41.832031 54.234375 -40.15625 C 56.859375 -38.488281 58.988281 -36.269531 60.625 -33.5 C 62.257812 -30.738281 63.078125 -27.25 63.078125 -23.03125 C 63.078125 -17.5 61.75 -12.910156 59.09375 -9.265625 C 56.4375 -5.628906 52.925781 -2.921875 48.5625 -1.140625 C 44.195312 0.640625 39.359375 1.53125 34.046875 1.53125 Z M 34.046875 1.53125 "/></g></g><g transform="translate(1070.423658, 434.234324)"><g><path d="M 55.765625 -59.046875 L 67.671875 -59.046875 L 67.671875 -0.109375 L 55.109375 -0.109375 L 53.8125 -5.34375 C 51.257812 -3.164062 48.363281 -1.457031 45.125 -0.21875 C 41.882812 1.019531 38.410156 1.640625 34.703125 1.640625 C 28.804688 1.640625 23.53125 0.273438 18.875 -2.453125 C 14.21875 -5.179688 10.539062 -8.890625 7.84375 -13.578125 C 5.15625 -18.273438 3.8125 -23.609375 3.8125 -29.578125 C 3.8125 -35.472656 5.15625 -40.765625 7.84375 -45.453125 C 10.539062 -50.148438 14.21875 -53.84375 18.875 -56.53125 C 23.53125 -59.226562 28.804688 -60.578125 34.703125 -60.578125 C 38.484375 -60.578125 42.007812 -59.9375 45.28125 -58.65625 C 48.5625 -57.382812 51.476562 -55.625 54.03125 -53.375 Z M 36.015625 -13.421875 C 39.066406 -13.421875 41.8125 -14.113281 44.25 -15.5 C 46.6875 -16.882812 48.597656 -18.796875 49.984375 -21.234375 C 51.367188 -23.671875 52.0625 -26.453125 52.0625 -29.578125 C 52.0625 -32.628906 51.367188 -35.375 49.984375 -37.8125 C 48.597656 -40.25 46.6875 -42.175781 44.25 -43.59375 C 41.8125 -45.019531 39.066406 -45.734375 36.015625 -45.734375 C 32.890625 -45.734375 30.125 -45.019531 27.71875 -43.59375 C 25.320312 -42.175781 23.429688 -40.25 22.046875 -37.8125 C 20.660156 -35.375 19.96875 -32.628906 19.96875 -29.578125 C 19.96875 -26.453125 20.660156 -23.6875 22.046875 -21.28125 C 23.429688 -18.882812 25.320312 -16.972656 27.71875 -15.546875 C 30.125 -14.128906 32.890625 -13.421875 36.015625 -13.421875 Z M 36.015625 -13.421875 "/></g></g><g transform="translate(1145.731237, 434.234324)"><g><path d="M 7.640625 0 L 7.640625 -80.21875 L 23.578125 -80.21875 L 23.578125 0 Z M 7.640625 0 "/></g></g></g><g fill="#000000" fill-opacity="1"><g transform="translate(1176.945668, 434.234324)"><g><path d="M 7.640625 -66.796875 L 7.640625 -81.640625 L 23.578125 -81.640625 L 23.578125 -66.796875 Z M 7.640625 0 L 7.640625 -58.9375 L 23.578125 -58.9375 L 23.578125 0 Z M 7.640625 0 "/></g></g></g><g fill="#000000" fill-opacity="1"><g transform="translate(1208.160096, 434.234324)"><g><path d="M 50.96875 -80.21875 L 66.90625 -80.21875 L 66.90625 0 L 55.109375 0 L 53.265625 -4.90625 C 50.785156 -2.800781 47.976562 -1.164062 44.84375 0 C 41.71875 1.164062 38.375 1.75 34.8125 1.75 C 28.84375 1.75 23.507812 0.382812 18.8125 -2.34375 C 14.125 -5.070312 10.453125 -8.78125 7.796875 -13.46875 C 5.140625 -18.164062 3.8125 -23.5 3.8125 -29.46875 C 3.8125 -35.4375 5.140625 -40.765625 7.796875 -45.453125 C 10.453125 -50.148438 14.125 -53.84375 18.8125 -56.53125 C 23.507812 -59.226562 28.84375 -60.578125 34.8125 -60.578125 C 37.800781 -60.578125 40.65625 -60.15625 43.375 -59.3125 C 46.101562 -58.476562 48.632812 -57.296875 50.96875 -55.765625 Z M 36.015625 -13.3125 C 39.140625 -13.3125 41.898438 -14.019531 44.296875 -15.4375 C 46.703125 -16.863281 48.613281 -18.796875 50.03125 -21.234375 C 51.457031 -23.671875 52.171875 -26.414062 52.171875 -29.46875 C 52.171875 -32.519531 51.457031 -35.265625 50.03125 -37.703125 C 48.613281 -40.140625 46.703125 -42.066406 44.296875 -43.484375 C 41.898438 -44.910156 39.140625 -45.625 36.015625 -45.625 C 32.960938 -45.625 30.234375 -44.910156 27.828125 -43.484375 C 25.429688 -42.066406 23.519531 -40.140625 22.09375 -37.703125 C 20.675781 -35.265625 19.96875 -32.519531 19.96875 -29.46875 C 19.96875 -26.414062 20.675781 -23.671875 22.09375 -21.234375 C 23.519531 -18.796875 25.429688 -16.863281 27.828125 -15.4375 C 30.234375 -14.019531 32.960938 -13.3125 36.015625 -13.3125 Z M 36.015625 -13.3125 "/></g></g><g transform="translate(1282.703685, 434.234324)"><g><path d="M 55.765625 -59.046875 L 67.671875 -59.046875 L 67.671875 -0.109375 L 55.109375 -0.109375 L 53.8125 -5.34375 C 51.257812 -3.164062 48.363281 -1.457031 45.125 -0.21875 C 41.882812 1.019531 38.410156 1.640625 34.703125 1.640625 C 28.804688 1.640625 23.53125 0.273438 18.875 -2.453125 C 14.21875 -5.179688 10.539062 -8.890625 7.84375 -13.578125 C 5.15625 -18.273438 3.8125 -23.609375 3.8125 -29.578125 C 3.8125 -35.472656 5.15625 -40.765625 7.84375 -45.453125 C 10.539062 -50.148438 14.21875 -53.84375 18.875 -56.53125 C 23.53125 -59.226562 28.804688 -60.578125 34.703125 -60.578125 C 38.484375 -60.578125 42.007812 -59.9375 45.28125 -58.65625 C 48.5625 -57.382812 51.476562 -55.625 54.03125 -53.375 Z M 36.015625 -13.421875 C 39.066406 -13.421875 41.8125 -14.113281 44.25 -15.5 C 46.6875 -16.882812 48.597656 -18.796875 49.984375 -21.234375 C 51.367188 -23.671875 52.0625 -26.453125 52.0625 -29.578125 C 52.0625 -32.628906 51.367188 -35.375 49.984375 -37.8125 C 48.597656 -40.25 46.6875 -42.175781 44.25 -43.59375 C 41.8125 -45.019531 39.066406 -45.734375 36.015625 -45.734375 C 32.890625 -45.734375 30.125 -45.019531 27.71875 -43.59375 C 25.320312 -42.175781 23.429688 -40.25 22.046875 -37.8125 C 20.660156 -35.375 19.96875 -32.628906 19.96875 -29.578125 C 19.96875 -26.453125 20.660156 -23.6875 22.046875 -21.28125 C 23.429688 -18.882812 25.320312 -16.972656 27.71875 -15.546875 C 30.125 -14.128906 32.890625 -13.421875 36.015625 -13.421875 Z M 36.015625 -13.421875 "/></g></g></g><g fill="#000000" fill-opacity="1"><g transform="translate(94.005725, 277.599795)"><g><path d="M 25.328125 -15.390625 L 55.765625 -15.390625 L 55.765625 0 L 8.734375 0 L 8.734375 -76.40625 L 54.578125 -76.40625 L 54.578125 -61.125 L 25.328125 -61.125 L 25.328125 -46.0625 L 51.734375 -46.0625 L 51.734375 -31.109375 L 25.328125 -31.109375 Z M 25.328125 -15.390625 "/></g></g></g><g fill="#000000" fill-opacity="1"><g transform="translate(155.010365, 277.599795)"><g><path d="M 3.703125 -72.578125 L 30.34375 -72.578125 L 30.34375 0 L 15.0625 0 L 15.0625 -58.9375 L 3.703125 -58.9375 Z M 3.703125 -72.578125 "/></g></g></g><g fill="#000000" fill-opacity="1"><g transform="translate(83.748884, 382.419629)"><g><path d="M 25.328125 -15.390625 L 55.765625 -15.390625 L 55.765625 0 L 8.734375 0 L 8.734375 -76.40625 L 54.578125 -76.40625 L 54.578125 -61.125 L 25.328125 -61.125 L 25.328125 -46.0625 L 51.734375 -46.0625 L 51.734375 -31.109375 L 25.328125 -31.109375 Z M 25.328125 -15.390625 "/></g></g></g><g fill="#000000" fill-opacity="1"><g transform="translate(144.753524, 382.419629)"><g><path d="M 32.3125 -14.625 L 54.46875 -14.625 L 54.46875 0 L 3.609375 0 L 3.609375 -3.390625 C 9.566406 -10.296875 14.566406 -16.148438 18.609375 -20.953125 C 22.648438 -25.753906 25.90625 -29.753906 28.375 -32.953125 C 30.851562 -36.160156 32.742188 -38.835938 34.046875 -40.984375 C 35.359375 -43.128906 36.234375 -44.984375 36.671875 -46.546875 C 37.109375 -48.109375 37.328125 -49.617188 37.328125 -51.078125 C 37.328125 -53.617188 36.5625 -55.65625 35.03125 -57.1875 C 33.507812 -58.71875 31.507812 -59.484375 29.03125 -59.484375 C 26.488281 -59.484375 24.429688 -58.695312 22.859375 -57.125 C 21.296875 -55.5625 20.515625 -53.472656 20.515625 -50.859375 L 20.515625 -49.546875 L 4.90625 -49.546875 L 4.90625 -51.078125 C 4.90625 -55.515625 5.890625 -59.460938 7.859375 -62.921875 C 9.828125 -66.378906 12.59375 -69.109375 16.15625 -71.109375 C 19.71875 -73.109375 23.9375 -74.109375 28.8125 -74.109375 C 33.539062 -74.109375 37.722656 -73.125 41.359375 -71.15625 C 45.003906 -69.195312 47.863281 -66.503906 49.9375 -63.078125 C 52.007812 -59.660156 53.046875 -55.734375 53.046875 -51.296875 C 53.046875 -49.035156 52.753906 -46.773438 52.171875 -44.515625 C 51.585938 -42.265625 50.550781 -39.753906 49.0625 -36.984375 C 47.570312 -34.222656 45.460938 -31.039062 42.734375 -27.4375 C 40.003906 -23.84375 36.53125 -19.570312 32.3125 -14.625 Z M 32.3125 -14.625 "/></g></g></g><path stroke-linecap="butt" transform="matrix(0.775015, 0.000000000000000775, -0.000000000000000775, 0.775015, 212.789513, 234.586443)" fill="none" stroke-linejoin="miter" d="M -0.00058143 17.000023 L 227.525217 17.000023 " stroke="#000000" stroke-width="34" stroke-opacity="1" stroke-miterlimit="4"/><g clip-path="url(#a2847d8d0c)"><path fill="#000000" d="M 249.171875 247.839844 C 249.171875 248.523438 249.140625 249.207031 249.074219 249.890625 C 249.003906 250.574219 248.90625 251.25 248.769531 251.921875 C 248.636719 252.59375 248.472656 253.257812 248.273438 253.914062 C 248.074219 254.570312 247.84375 255.214844 247.582031 255.847656 C 247.316406 256.480469 247.023438 257.101562 246.703125 257.703125 C 246.378906 258.308594 246.027344 258.894531 245.644531 259.464844 C 245.265625 260.035156 244.859375 260.585938 244.421875 261.117188 C 243.988281 261.644531 243.527344 262.152344 243.042969 262.636719 C 242.558594 263.121094 242.050781 263.582031 241.523438 264.015625 C 240.992188 264.453125 240.441406 264.859375 239.871094 265.238281 C 239.300781 265.621094 238.714844 265.972656 238.109375 266.296875 C 237.507812 266.617188 236.886719 266.910156 236.253906 267.175781 C 235.621094 267.4375 234.976562 267.667969 234.320312 267.867188 C 233.664062 268.066406 233 268.230469 232.328125 268.363281 C 231.65625 268.5 230.980469 268.597656 230.296875 268.667969 C 229.613281 268.734375 228.929688 268.765625 228.246094 268.765625 C 227.558594 268.765625 226.875 268.734375 226.195312 268.667969 C 225.511719 268.597656 224.835938 268.5 224.164062 268.363281 C 223.488281 268.230469 222.824219 268.066406 222.171875 267.867188 C 221.515625 267.667969 220.871094 267.4375 220.238281 267.175781 C 219.601562 266.910156 218.984375 266.617188 218.378906 266.296875 C 217.773438 265.972656 217.1875 265.621094 216.617188 265.238281 C 216.046875 264.859375 215.5 264.453125 214.96875 264.015625 C 214.4375 263.582031 213.929688 263.121094 213.445312 262.636719 C 212.960938 262.152344 212.503906 261.644531 212.066406 261.117188 C 211.632812 260.585938 211.226562 260.035156 210.84375 259.464844 C 210.464844 258.894531 210.113281 258.308594 209.789062 257.703125 C 209.464844 257.101562 209.171875 256.480469 208.910156 255.847656 C 208.648438 255.214844 208.417969 254.570312 208.21875 253.914062 C 208.019531 253.257812 207.851562 252.59375 207.71875 251.921875 C 207.585938 251.25 207.484375 250.574219 207.417969 249.890625 C 207.351562 249.207031 207.316406 248.523438 207.316406 247.839844 C 207.316406 247.152344 207.351562 246.46875 207.417969 245.789062 C 207.484375 245.105469 207.585938 244.429688 207.71875 243.757812 C 207.851562 243.082031 208.019531 242.417969 208.21875 241.765625 C 208.417969 241.109375 208.648438 240.464844 208.910156 239.828125 C 209.171875 239.195312 209.464844 238.578125 209.789062 237.972656 C 210.113281 237.367188 210.464844 236.78125 210.84375 236.210938 C 211.226562 235.640625 211.632812 235.09375 212.066406 234.5625 C 212.503906 234.03125 212.960938 233.523438 213.445312 233.039062 C 213.929688 232.554688 214.4375 232.097656 214.96875 231.660156 C 215.5 231.226562 216.046875 230.820312 216.617188 230.4375 C 217.1875 230.058594 217.773438 229.703125 218.378906 229.382812 C 218.984375 229.058594 219.601562 228.765625 220.238281 228.503906 C 220.871094 228.242188 221.515625 228.011719 222.171875 227.8125 C 222.824219 227.613281 223.488281 227.445312 224.164062 227.3125 C 224.835938 227.179688 225.511719 227.078125 226.195312 227.011719 C 226.875 226.945312 227.558594 226.910156 228.246094 226.910156 C 228.929688 226.910156 229.613281 226.945312 230.296875 227.011719 C 230.980469 227.078125 231.65625 227.179688 232.328125 227.3125 C 233 227.445312 233.664062 227.613281 234.320312 227.8125 C 234.976562 228.011719 235.621094 228.242188 236.253906 228.503906 C 236.886719 228.765625 237.507812 229.058594 238.109375 229.382812 C 238.714844 229.703125 239.300781 230.058594 239.871094 230.4375 C 240.441406 230.820312 240.992188 231.226562 241.523438 231.660156 C 242.050781 232.097656 242.558594 232.554688 243.042969 233.039062 C 243.527344 233.523438 243.988281 234.03125 244.421875 234.5625 C 244.859375 235.09375 245.265625 235.640625 245.644531 236.210938 C 246.027344 236.78125 246.378906 237.367188 246.703125 237.972656 C 247.023438 238.578125 247.316406 239.195312 247.582031 239.828125 C 247.84375 240.464844 248.074219 241.109375 248.273438 241.765625 C 248.472656 242.417969 248.636719 243.082031 248.769531 243.757812 C 248.90625 244.429688 249.003906 245.105469 249.074219 245.789062 C 249.140625 246.46875 249.171875 247.152344 249.171875 247.839844 Z M 249.171875 247.839844 " fill-opacity="1" fill-rule="nonzero"/></g><path stroke-linecap="butt" transform="matrix(0.775015, 0.000000000000000426, -0.000000000000000426, 0.775015, 212.789513, 339.64058)" fill="none" stroke-linejoin="miter" d="M -0.00058143 17.000734 L 310.285697 17.000734 " stroke="#000000" stroke-width="34" stroke-opacity="1" stroke-miterlimit="4"/><g clip-path="url(#8221ad09bd)"><path fill="#000000" d="M 249.171875 352.894531 C 249.171875 353.578125 249.140625 354.261719 249.074219 354.945312 C 249.003906 355.625 248.90625 356.304688 248.769531 356.976562 C 248.636719 357.648438 248.472656 358.3125 248.273438 358.96875 C 248.074219 359.625 247.84375 360.269531 247.582031 360.902344 C 247.316406 361.535156 247.023438 362.152344 246.703125 362.757812 C 246.378906 363.363281 246.027344 363.949219 245.644531 364.519531 C 245.265625 365.089844 244.859375 365.640625 244.421875 366.167969 C 243.988281 366.699219 243.527344 367.207031 243.042969 367.691406 C 242.558594 368.175781 242.050781 368.636719 241.523438 369.070312 C 240.992188 369.503906 240.441406 369.914062 239.871094 370.292969 C 239.300781 370.675781 238.714844 371.027344 238.109375 371.351562 C 237.507812 371.671875 236.886719 371.964844 236.253906 372.226562 C 235.621094 372.492188 234.976562 372.722656 234.320312 372.917969 C 233.664062 373.117188 233 373.285156 232.328125 373.417969 C 231.65625 373.550781 230.980469 373.652344 230.296875 373.71875 C 229.613281 373.789062 228.929688 373.820312 228.246094 373.820312 C 227.558594 373.820312 226.875 373.789062 226.195312 373.71875 C 225.511719 373.652344 224.835938 373.550781 224.164062 373.417969 C 223.488281 373.285156 222.824219 373.117188 222.171875 372.917969 C 221.515625 372.722656 220.871094 372.492188 220.238281 372.226562 C 219.601562 371.964844 218.984375 371.671875 218.378906 371.351562 C 217.773438 371.027344 217.1875 370.675781 216.617188 370.292969 C 216.046875 369.914062 215.5 369.503906 214.96875 369.070312 C 214.4375 368.636719 213.929688 368.175781 213.445312 367.691406 C 212.960938 367.207031 212.503906 366.699219 212.066406 366.167969 C 211.632812 365.640625 211.226562 365.089844 210.84375 364.519531 C 210.464844 363.949219 210.113281 363.363281 209.789062 362.757812 C 209.464844 362.152344 209.171875 361.535156 208.910156 360.902344 C 208.648438 360.269531 208.417969 359.625 208.21875 358.96875 C 208.019531 358.3125 207.851562 357.648438 207.71875 356.976562 C 207.585938 356.304688 207.484375 355.625 207.417969 354.945312 C 207.351562 354.261719 207.316406 353.578125 207.316406 352.894531 C 207.316406 352.207031 207.351562 351.523438 207.417969 350.839844 C 207.484375 350.160156 207.585938 349.480469 207.71875 348.808594 C 207.851562 348.136719 208.019531 347.472656 208.21875 346.816406 C 208.417969 346.160156 208.648438 345.515625 208.910156 344.882812 C 209.171875 344.25 209.464844 343.632812 209.789062 343.027344 C 210.113281 342.421875 210.464844 341.835938 210.84375 341.265625 C 211.226562 340.695312 211.632812 340.144531 212.066406 339.617188 C 212.503906 339.085938 212.960938 338.578125 213.445312 338.09375 C 213.929688 337.609375 214.4375 337.148438 214.96875 336.714844 C 215.5 336.28125 216.046875 335.871094 216.617188 335.492188 C 217.1875 335.109375 217.773438 334.757812 218.378906 334.4375 C 218.984375 334.113281 219.601562 333.820312 220.238281 333.558594 C 220.871094 333.296875 221.515625 333.066406 222.171875 332.867188 C 222.824219 332.667969 223.488281 332.5 224.164062 332.367188 C 224.835938 332.234375 225.511719 332.132812 226.195312 332.066406 C 226.875 332 227.558594 331.964844 228.246094 331.964844 C 228.929688 331.964844 229.613281 332 230.296875 332.066406 C 230.980469 332.132812 231.65625 332.234375 232.328125 332.367188 C 233 332.5 233.664062 332.667969 234.320312 332.867188 C 234.976562 333.066406 235.621094 333.296875 236.253906 333.558594 C 236.886719 333.820312 237.507812 334.113281 238.109375 334.4375 C 238.714844 334.757812 239.300781 335.109375 239.871094 335.492188 C 240.441406 335.871094 240.992188 336.28125 241.523438 336.714844 C 242.050781 337.148438 242.558594 337.609375 243.042969 338.09375 C 243.527344 338.578125 243.988281 339.085938 244.421875 339.617188 C 244.859375 340.144531 245.265625 340.695312 245.644531 341.265625 C 246.027344 341.835938 246.378906 342.421875 246.703125 343.027344 C 247.023438 343.632812 247.316406 344.25 247.582031 344.882812 C 247.84375 345.515625 248.074219 346.160156 248.273438 346.816406 C 248.472656 347.472656 248.636719 348.136719 248.769531 348.808594 C 248.90625 349.480469 249.003906 350.160156 249.074219 350.839844 C 249.140625 351.523438 249.171875 352.207031 249.171875 352.894531 Z M 249.171875 352.894531 " fill-opacity="1" fill-rule="nonzero"/></g><g fill="#000000" fill-opacity="1"><g transform="translate(83.579349, 487.530043)"><g><path d="M 25.328125 -15.390625 L 55.765625 -15.390625 L 55.765625 0 L 8.734375 0 L 8.734375 -76.40625 L 54.578125 -76.40625 L 54.578125 -61.125 L 25.328125 -61.125 L 25.328125 -46.0625 L 51.734375 -46.0625 L 51.734375 -31.109375 L 25.328125 -31.109375 Z M 25.328125 -15.390625 "/></g></g></g><g fill="#000000" fill-opacity="1"><g transform="translate(144.583989, 487.530043)"><g><path d="M 37.546875 -45.734375 C 42.929688 -44.566406 47.238281 -41.960938 50.46875 -37.921875 C 53.707031 -33.890625 55.328125 -29 55.328125 -23.25 C 55.328125 -18.519531 54.195312 -14.296875 51.9375 -10.578125 C 49.6875 -6.867188 46.632812 -3.957031 42.78125 -1.84375 C 38.925781 0.257812 34.523438 1.3125 29.578125 1.3125 C 24.773438 1.3125 20.515625 0.296875 16.796875 -1.734375 C 13.085938 -3.773438 10.160156 -6.613281 8.015625 -10.25 C 5.867188 -13.894531 4.6875 -18.117188 4.46875 -22.921875 L 20.078125 -22.921875 C 20.222656 -20.003906 21.148438 -17.65625 22.859375 -15.875 C 24.578125 -14.09375 26.816406 -13.203125 29.578125 -13.203125 C 32.484375 -13.203125 34.882812 -14.179688 36.78125 -16.140625 C 38.675781 -18.109375 39.625 -20.660156 39.625 -23.796875 C 39.625 -26.921875 38.601562 -29.375 36.5625 -31.15625 C 34.519531 -32.9375 31.828125 -33.828125 28.484375 -33.828125 L 18.015625 -33.828125 L 18.015625 -36.78125 L 31.21875 -58.609375 L 6.21875 -58.609375 L 6.21875 -72.578125 L 52.609375 -72.578125 L 52.609375 -69.625 Z M 37.546875 -45.734375 "/></g></g></g><path stroke-linecap="butt" transform="matrix(0.775015, 0.000000000000000284, -0.000000000000000284, 0.775015, 212.789513, 444.516742)" fill="none" stroke-linejoin="miter" d="M -0.00058143 16.999235 L 310.285697 16.999235 " stroke="#000000" stroke-width="34" stroke-opacity="1" stroke-miterlimit="4"/><g clip-path="url(#bed3246464)"><path fill="#000000" d="M 249.171875 457.769531 C 249.171875 458.453125 249.140625 459.136719 249.074219 459.820312 C 249.003906 460.503906 248.90625 461.179688 248.769531 461.851562 C 248.636719 462.523438 248.472656 463.1875 248.273438 463.84375 C 248.074219 464.5 247.84375 465.144531 247.582031 465.777344 C 247.316406 466.410156 247.023438 467.03125 246.703125 467.632812 C 246.378906 468.238281 246.027344 468.828125 245.644531 469.394531 C 245.265625 469.964844 244.859375 470.515625 244.421875 471.046875 C 243.988281 471.574219 243.527344 472.082031 243.042969 472.566406 C 242.558594 473.050781 242.050781 473.511719 241.523438 473.945312 C 240.992188 474.382812 240.441406 474.789062 239.871094 475.171875 C 239.300781 475.550781 238.714844 475.902344 238.109375 476.226562 C 237.507812 476.550781 236.886719 476.839844 236.253906 477.105469 C 235.621094 477.367188 234.976562 477.597656 234.320312 477.796875 C 233.664062 477.996094 233 478.160156 232.328125 478.296875 C 231.65625 478.429688 230.980469 478.527344 230.296875 478.597656 C 229.613281 478.664062 228.929688 478.695312 228.246094 478.695312 C 227.558594 478.695312 226.875 478.664062 226.195312 478.597656 C 225.511719 478.527344 224.835938 478.429688 224.164062 478.296875 C 223.488281 478.160156 222.824219 477.996094 222.171875 477.796875 C 221.515625 477.597656 220.871094 477.367188 220.238281 477.105469 C 219.601562 476.839844 218.984375 476.550781 218.378906 476.226562 C 217.773438 475.902344 217.1875 475.550781 216.617188 475.171875 C 216.046875 474.789062 215.5 474.382812 214.96875 473.945312 C 214.4375 473.511719 213.929688 473.050781 213.445312 472.566406 C 212.960938 472.082031 212.503906 471.574219 212.066406 471.046875 C 211.632812 470.515625 211.226562 469.964844 210.84375 469.394531 C 210.464844 468.828125 210.113281 468.238281 209.789062 467.632812 C 209.464844 467.03125 209.171875 466.410156 208.910156 465.777344 C 208.648438 465.144531 208.417969 464.5 208.21875 463.84375 C 208.019531 463.1875 207.851562 462.523438 207.71875 461.851562 C 207.585938 461.179688 207.484375 460.503906 207.417969 459.820312 C 207.351562 459.136719 207.316406 458.453125 207.316406 457.769531 C 207.316406 457.082031 207.351562 456.398438 207.417969 455.71875 C 207.484375 455.035156 207.585938 454.359375 207.71875 453.6875 C 207.851562 453.015625 208.019531 452.351562 208.21875 451.695312 C 208.417969 451.039062 208.648438 450.394531 208.910156 449.761719 C 209.171875 449.128906 209.464844 448.507812 209.789062 447.902344 C 210.113281 447.300781 210.464844 446.710938 210.84375 446.140625 C 211.226562 445.570312 211.632812 445.023438 212.066406 444.492188 C 212.503906 443.960938 212.960938 443.457031 213.445312 442.972656 C 213.929688 442.484375 214.4375 442.027344 214.96875 441.589844 C 215.5 441.15625 216.046875 440.75 216.617188 440.367188 C 217.1875 439.988281 217.773438 439.636719 218.378906 439.3125 C 218.984375 438.988281 219.601562 438.695312 220.238281 438.433594 C 220.871094 438.171875 221.515625 437.941406 222.171875 437.742188 C 222.824219 437.542969 223.488281 437.375 224.164062 437.242188 C 224.835938 437.109375 225.511719 437.007812 226.195312 436.941406 C 226.875 436.875 227.558594 436.839844 228.246094 436.839844 C 228.929688 436.839844 229.613281 436.875 230.296875 436.941406 C 230.980469 437.007812 231.65625 437.109375 232.328125 437.242188 C 233 437.375 233.664062 437.542969 234.320312 437.742188 C 234.976562 437.941406 235.621094 438.171875 236.253906 438.433594 C 236.886719 438.695312 237.507812 438.988281 238.109375 439.3125 C 238.714844 439.636719 239.300781 439.988281 239.871094 440.367188 C 240.441406 440.75 240.992188 441.15625 241.523438 441.589844 C 242.050781 442.027344 242.558594 442.484375 243.042969 442.972656 C 243.527344 443.457031 243.988281 443.960938 244.421875 444.492188 C 244.859375 445.023438 245.265625 445.570312 245.644531 446.140625 C 246.027344 446.710938 246.378906 447.300781 246.703125 447.902344 C 247.023438 448.507812 247.316406 449.128906 247.582031 449.761719 C 247.84375 450.394531 248.074219 451.039062 248.273438 451.695312 C 248.472656 452.351562 248.636719 453.015625 248.769531 453.6875 C 248.90625 454.359375 249.003906 455.035156 249.074219 455.71875 C 249.140625 456.398438 249.171875 457.082031 249.171875 457.769531 Z M 249.171875 457.769531 " fill-opacity="1" fill-rule="nonzero"/></g><g fill="#000000" fill-opacity="1"><g transform="translate(83.25239, 592.076413)"><g><path d="M 25.328125 -15.390625 L 55.765625 -15.390625 L 55.765625 0 L 8.734375 0 L 8.734375 -76.40625 L 54.578125 -76.40625 L 54.578125 -61.125 L 25.328125 -61.125 L 25.328125 -46.0625 L 51.734375 -46.0625 L 51.734375 -31.109375 L 25.328125 -31.109375 Z M 25.328125 -15.390625 "/></g></g></g><g fill="#000000" fill-opacity="1"><g transform="translate(144.25703, 592.076413)"><g><path d="M 57.625 -27.5 L 57.625 -13.96875 L 51.296875 -13.96875 L 51.296875 0 L 36.671875 0 L 36.671875 -13.96875 L 1.859375 -13.96875 L 1.859375 -16.703125 L 25.75 -72.578125 L 41.140625 -72.578125 L 21.828125 -27.5 L 37.109375 -27.5 L 39.625 -44.859375 L 51.296875 -44.859375 L 51.296875 -27.5 Z M 57.625 -27.5 "/></g></g></g><path stroke-linecap="butt" transform="matrix(0.775015, 0.000000000000000775, -0.000000000000000775, 0.775015, 212.789513, 549.06304)" fill="none" stroke-linejoin="miter" d="M -0.00058143 16.999979 L 227.525217 16.999979 " stroke="#000000" stroke-width="34" stroke-opacity="1" stroke-miterlimit="4"/><g clip-path="url(#ac501588e7)"><path fill="#000000" d="M 249.171875 562.316406 C 249.171875 563 249.140625 563.683594 249.074219 564.367188 C 249.003906 565.050781 248.90625 565.726562 248.769531 566.398438 C 248.636719 567.070312 248.472656 567.734375 248.273438 568.390625 C 248.074219 569.046875 247.84375 569.691406 247.582031 570.324219 C 247.316406 570.957031 247.023438 571.578125 246.703125 572.179688 C 246.378906 572.785156 246.027344 573.371094 245.644531 573.941406 C 245.265625 574.511719 244.859375 575.0625 244.421875 575.59375 C 243.988281 576.121094 243.527344 576.628906 243.042969 577.113281 C 242.558594 577.597656 242.050781 578.058594 241.523438 578.492188 C 240.992188 578.929688 240.441406 579.335938 239.871094 579.714844 C 239.300781 580.097656 238.714844 580.449219 238.109375 580.773438 C 237.507812 581.09375 236.886719 581.386719 236.253906 581.652344 C 235.621094 581.914062 234.976562 582.144531 234.320312 582.34375 C 233.664062 582.542969 233 582.707031 232.328125 582.839844 C 231.65625 582.976562 230.980469 583.074219 230.296875 583.144531 C 229.613281 583.210938 228.929688 583.242188 228.246094 583.242188 C 227.558594 583.242188 226.875 583.210938 226.195312 583.144531 C 225.511719 583.074219 224.835938 582.976562 224.164062 582.839844 C 223.488281 582.707031 222.824219 582.542969 222.171875 582.34375 C 221.515625 582.144531 220.871094 581.914062 220.238281 581.652344 C 219.601562 581.386719 218.984375 581.09375 218.378906 580.773438 C 217.773438 580.449219 217.1875 580.097656 216.617188 579.714844 C 216.046875 579.335938 215.5 578.929688 214.96875 578.492188 C 214.4375 578.058594 213.929688 577.597656 213.445312 577.113281 C 212.960938 576.628906 212.503906 576.121094 212.066406 575.59375 C 211.632812 575.0625 211.226562 574.511719 210.84375 573.941406 C 210.464844 573.371094 210.113281 572.785156 209.789062 572.179688 C 209.464844 571.578125 209.171875 570.957031 208.910156 570.324219 C 208.648438 569.691406 208.417969 569.046875 208.21875 568.390625 C 208.019531 567.734375 207.851562 567.070312 207.71875 566.398438 C 207.585938 565.726562 207.484375 565.050781 207.417969 564.367188 C 207.351562 563.683594 207.316406 563 207.316406 562.316406 C 207.316406 561.628906 207.351562 560.945312 207.417969 560.265625 C 207.484375 559.582031 207.585938 558.90625 207.71875 558.234375 C 207.851562 557.558594 208.019531 556.894531 208.21875 556.242188 C 208.417969 555.585938 208.648438 554.941406 208.910156 554.304688 C 209.171875 553.671875 209.464844 553.054688 209.789062 552.449219 C 210.113281 551.84375 210.464844 551.257812 210.84375 550.6875 C 211.226562 550.117188 211.632812 549.570312 212.066406 549.039062 C 212.503906 548.507812 212.960938 548 213.445312 547.515625 C 213.929688 547.03125 214.4375 546.574219 214.96875 546.136719 C 215.5 545.703125 216.046875 545.296875 216.617188 544.914062 C 217.1875 544.535156 217.773438 544.179688 218.378906 543.859375 C 218.984375 543.535156 219.601562 543.242188 220.238281 542.980469 C 220.871094 542.71875 221.515625 542.488281 222.171875 542.289062 C 222.824219 542.089844 223.488281 541.921875 224.164062 541.789062 C 224.835938 541.65625 225.511719 541.554688 226.195312 541.488281 C 226.875 541.421875 227.558594 541.386719 228.246094 541.386719 C 228.929688 541.386719 229.613281 541.421875 230.296875 541.488281 C 230.980469 541.554688 231.65625 541.65625 232.328125 541.789062 C 233 541.921875 233.664062 542.089844 234.320312 542.289062 C 234.976562 542.488281 235.621094 542.71875 236.253906 542.980469 C 236.886719 543.242188 237.507812 543.535156 238.109375 543.859375 C 238.714844 544.179688 239.300781 544.535156 239.871094 544.914062 C 240.441406 545.296875 240.992188 545.703125 241.523438 546.136719 C 242.050781 546.574219 242.558594 547.03125 243.042969 547.515625 C 243.527344 548 243.988281 548.507812 244.421875 549.039062 C 244.859375 549.570312 245.265625 550.117188 245.644531 550.6875 C 246.027344 551.257812 246.378906 551.84375 246.703125 552.449219 C 247.023438 553.054688 247.316406 553.671875 247.582031 554.304688 C 247.84375 554.941406 248.074219 555.585938 248.273438 556.242188 C 248.472656 556.894531 248.636719 557.558594 248.769531 558.234375 C 248.90625 558.90625 249.003906 559.582031 249.074219 560.265625 C 249.140625 560.945312 249.171875 561.628906 249.171875 562.316406 Z M 249.171875 562.316406 " fill-opacity="1" fill-rule="nonzero"/></g></svg>