<svg xmlns="http://www.w3.org/2000/svg" xmlns:xlink="http://www.w3.org/1999/xlink" width="1920" zoomAndPan="magnify" viewBox="0 0 1440 809.999993" height="1080" preserveAspectRatio="xMidYMid meet" version="1.0"><defs><g/><clipPath id="8a07d14ab4"><path d="M 373 211.742188 L 819 211.742188 L 819 597.988281 L 373 597.988281 Z M 373 211.742188 " clip-rule="nonzero"/></clipPath><clipPath id="d774861999"><path d="M 397.152344 211.742188 L 668.4375 211.742188 C 695.003906 211.742188 719.667969 225.523438 733.589844 248.148438 L 807.710938 368.589844 C 821.449219 390.917969 821.449219 419.078125 807.710938 441.40625 L 733.589844 561.847656 C 719.667969 584.472656 695.003906 598.253906 668.4375 598.253906 L 397.152344 598.253906 C 388.5 598.253906 380.519531 593.574219 376.300781 586.019531 C 372.078125 578.464844 372.273438 569.21875 376.808594 561.847656 L 450.925781 441.40625 C 464.667969 419.078125 464.667969 390.917969 450.925781 368.589844 L 376.808594 248.148438 C 372.273438 240.777344 372.078125 231.53125 376.300781 223.976562 C 380.519531 216.421875 388.5 211.742188 397.152344 211.742188 Z M 397.152344 211.742188 " clip-rule="nonzero"/></clipPath><clipPath id="fd29f316f3"><path d="M 960.25 384.148438 L 1002.25 384.148438 L 1002.25 426.148438 L 960.25 426.148438 Z M 960.25 384.148438 " clip-rule="nonzero"/></clipPath><clipPath id="cd0e4e8bfa"><path d="M 207.320312 384.238281 L 249.320312 384.238281 L 249.320312 426.238281 L 207.320312 426.238281 Z M 207.320312 384.238281 " clip-rule="nonzero"/></clipPath></defs><g clip-path="url(#8a07d14ab4)"><g clip-path="url(#d774861999)"><path stroke-linecap="butt" transform="matrix(0.75, 0, 0, 0.75, 354.403582, 211.740449)" fill="none" stroke-linejoin="miter" d="M 56.998352 0.0023186 L 418.711912 0.0023186 C 454.133789 0.0023186 487.019207 18.37732 505.581708 48.543988 L 604.409838 209.132537 C 622.727547 238.903372 622.727547 276.450249 604.409838 306.221084 L 505.581708 466.809634 C 487.019207 496.976302 454.133789 515.351303 418.711912 515.351303 L 56.998352 515.351303 C 45.461893 515.351303 34.821267 509.111719 29.196267 499.038802 C 23.566059 488.965885 23.826475 476.637759 29.873351 466.809634 L 128.696272 306.221084 C 147.01919 276.450249 147.01919 238.903372 128.696272 209.132537 L 29.873351 48.543988 C 23.826475 38.715862 23.566059 26.387737 29.196267 16.314819 C 34.821267 6.241902 45.461893 0.0023186 56.998352 0.0023186 Z M 56.998352 0.0023186 " stroke="#000000" stroke-width="60" stroke-opacity="1" stroke-miterlimit="4"/></g></g><path stroke-linecap="butt" transform="matrix(0.75, 0, 0, 0.75, 807.224846, 391.875)" fill="none" stroke-linejoin="miter" d="M 0.00228918 17.500001 L 248.247093 17.500001 " stroke="#000000" stroke-width="35" stroke-opacity="1" stroke-miterlimit="4"/><g clip-path="url(#fd29f316f3)"><path fill="#000000" d="M 1002.253906 405.152344 C 1002.253906 405.839844 1002.21875 406.527344 1002.152344 407.210938 C 1002.082031 407.894531 1001.984375 408.574219 1001.847656 409.25 C 1001.714844 409.921875 1001.546875 410.589844 1001.347656 411.25 C 1001.148438 411.90625 1000.917969 412.554688 1000.652344 413.1875 C 1000.390625 413.824219 1000.097656 414.445312 999.773438 415.050781 C 999.449219 415.660156 999.09375 416.25 998.710938 416.820312 C 998.332031 417.390625 997.921875 417.945312 997.484375 418.476562 C 997.046875 419.007812 996.585938 419.515625 996.101562 420.003906 C 995.613281 420.488281 995.105469 420.949219 994.574219 421.386719 C 994.042969 421.824219 993.488281 422.234375 992.917969 422.613281 C 992.347656 422.996094 991.757812 423.351562 991.148438 423.675781 C 990.542969 424 989.921875 424.292969 989.285156 424.554688 C 988.652344 424.820312 988.003906 425.050781 987.347656 425.25 C 986.6875 425.449219 986.023438 425.617188 985.347656 425.75 C 984.671875 425.886719 983.992188 425.984375 983.308594 426.054688 C 982.625 426.121094 981.9375 426.15625 981.25 426.15625 C 980.5625 426.15625 979.875 426.121094 979.191406 426.054688 C 978.507812 425.984375 977.828125 425.886719 977.152344 425.75 C 976.476562 425.617188 975.8125 425.449219 975.152344 425.25 C 974.496094 425.050781 973.847656 424.820312 973.210938 424.554688 C 972.578125 424.292969 971.957031 424 971.347656 423.675781 C 970.742188 423.351562 970.152344 422.996094 969.582031 422.613281 C 969.007812 422.234375 968.457031 421.824219 967.925781 421.386719 C 967.394531 420.949219 966.886719 420.488281 966.398438 420.003906 C 965.914062 419.515625 965.449219 419.007812 965.015625 418.476562 C 964.578125 417.945312 964.167969 417.390625 963.785156 416.820312 C 963.40625 416.25 963.050781 415.660156 962.726562 415.050781 C 962.402344 414.445312 962.109375 413.824219 961.847656 413.1875 C 961.582031 412.554688 961.351562 411.90625 961.152344 411.25 C 960.953125 410.589844 960.785156 409.921875 960.652344 409.25 C 960.515625 408.574219 960.414062 407.894531 960.347656 407.210938 C 960.28125 406.527344 960.246094 405.839844 960.246094 405.152344 C 960.246094 404.464844 960.28125 403.777344 960.347656 403.09375 C 960.414062 402.410156 960.515625 401.730469 960.652344 401.054688 C 960.785156 400.378906 960.953125 399.714844 961.152344 399.054688 C 961.351562 398.398438 961.582031 397.75 961.847656 397.113281 C 962.109375 396.480469 962.402344 395.859375 962.726562 395.25 C 963.050781 394.644531 963.40625 394.054688 963.785156 393.484375 C 964.167969 392.910156 964.578125 392.359375 965.015625 391.828125 C 965.449219 391.296875 965.914062 390.785156 966.398438 390.300781 C 966.886719 389.8125 967.394531 389.351562 967.925781 388.917969 C 968.457031 388.480469 969.007812 388.070312 969.582031 387.6875 C 970.152344 387.304688 970.742188 386.953125 971.347656 386.628906 C 971.957031 386.304688 972.578125 386.011719 973.210938 385.746094 C 973.847656 385.484375 974.496094 385.253906 975.152344 385.054688 C 975.8125 384.855469 976.476562 384.6875 977.152344 384.550781 C 977.828125 384.417969 978.507812 384.316406 979.191406 384.25 C 979.875 384.183594 980.5625 384.148438 981.25 384.148438 C 981.9375 384.148438 982.625 384.183594 983.308594 384.25 C 983.992188 384.316406 984.671875 384.417969 985.347656 384.550781 C 986.023438 384.6875 986.6875 384.855469 987.347656 385.054688 C 988.003906 385.253906 988.652344 385.484375 989.285156 385.746094 C 989.921875 386.011719 990.542969 386.304688 991.148438 386.628906 C 991.757812 386.953125 992.347656 387.304688 992.917969 387.6875 C 993.488281 388.070312 994.042969 388.480469 994.574219 388.917969 C 995.105469 389.351562 995.613281 389.8125 996.101562 390.300781 C 996.585938 390.785156 997.046875 391.296875 997.484375 391.828125 C 997.921875 392.359375 998.332031 392.910156 998.710938 393.484375 C 999.09375 394.054688 999.449219 394.644531 999.773438 395.25 C 1000.097656 395.859375 1000.390625 396.480469 1000.652344 397.113281 C 1000.917969 397.75 1001.148438 398.398438 1001.347656 399.054688 C 1001.546875 399.714844 1001.714844 400.378906 1001.847656 401.054688 C 1001.984375 401.730469 1002.082031 402.410156 1002.152344 403.09375 C 1002.21875 403.777344 1002.253906 404.464844 1002.253906 405.152344 Z M 1002.253906 405.152344 " fill-opacity="1" fill-rule="nonzero"/></g><g fill="#000000" fill-opacity="1"><g transform="translate(1002.86512, 434.234295)"><g><path d="M 34.046875 1.53125 C 28.234375 1.53125 23.101562 0.476562 18.65625 -1.625 C 14.21875 -3.738281 10.742188 -6.757812 8.234375 -10.6875 C 5.722656 -14.625 4.46875 -19.320312 4.46875 -24.78125 L 21.171875 -24.78125 C 21.171875 -21.0625 22.460938 -18.3125 25.046875 -16.53125 C 27.628906 -14.75 30.59375 -13.859375 33.9375 -13.859375 C 36.050781 -13.859375 38.035156 -14.203125 39.890625 -14.890625 C 41.742188 -15.585938 43.269531 -16.609375 44.46875 -17.953125 C 45.675781 -19.296875 46.28125 -20.914062 46.28125 -22.8125 C 46.28125 -24.769531 45.585938 -26.3125 44.203125 -27.4375 C 42.816406 -28.570312 40.957031 -29.503906 38.625 -30.234375 C 36.300781 -30.960938 33.757812 -31.65625 31 -32.3125 C 28.15625 -32.957031 25.242188 -33.753906 22.265625 -34.703125 C 19.285156 -35.648438 16.519531 -36.90625 13.96875 -38.46875 C 11.425781 -40.03125 9.390625 -42.140625 7.859375 -44.796875 C 6.328125 -47.453125 5.5625 -50.816406 5.5625 -54.890625 C 5.5625 -62.242188 8.050781 -67.898438 13.03125 -71.859375 C 18.019531 -75.828125 24.769531 -77.8125 33.28125 -77.8125 C 42.019531 -77.8125 48.789062 -75.609375 53.59375 -71.203125 C 58.394531 -66.804688 60.796875 -60.828125 60.796875 -53.265625 L 44.421875 -53.265625 C 44.421875 -56.535156 43.253906 -58.953125 40.921875 -60.515625 C 38.597656 -62.078125 35.90625 -62.859375 32.84375 -62.859375 C 30.15625 -62.859375 27.679688 -62.273438 25.421875 -61.109375 C 23.171875 -59.953125 22.046875 -58.132812 22.046875 -55.65625 C 22.046875 -53.84375 22.71875 -52.40625 24.0625 -51.34375 C 25.40625 -50.289062 27.1875 -49.414062 29.40625 -48.71875 C 31.632812 -48.03125 34.09375 -47.363281 36.78125 -46.71875 C 39.6875 -45.988281 42.664062 -45.128906 45.71875 -44.140625 C 48.78125 -43.160156 51.617188 -41.832031 54.234375 -40.15625 C 56.859375 -38.488281 58.988281 -36.269531 60.625 -33.5 C 62.257812 -30.738281 63.078125 -27.25 63.078125 -23.03125 C 63.078125 -17.5 61.75 -12.910156 59.09375 -9.265625 C 56.4375 -5.628906 52.925781 -2.921875 48.5625 -1.140625 C 44.195312 0.640625 39.359375 1.53125 34.046875 1.53125 Z M 34.046875 1.53125 "/></g></g><g transform="translate(1070.423658, 434.234295)"><g><path d="M 55.765625 -59.046875 L 67.671875 -59.046875 L 67.671875 -0.109375 L 55.109375 -0.109375 L 53.8125 -5.34375 C 51.257812 -3.164062 48.363281 -1.457031 45.125 -0.21875 C 41.882812 1.019531 38.410156 1.640625 34.703125 1.640625 C 28.804688 1.640625 23.53125 0.273438 18.875 -2.453125 C 14.21875 -5.179688 10.539062 -8.890625 7.84375 -13.578125 C 5.15625 -18.273438 3.8125 -23.609375 3.8125 -29.578125 C 3.8125 -35.472656 5.15625 -40.765625 7.84375 -45.453125 C 10.539062 -50.148438 14.21875 -53.84375 18.875 -56.53125 C 23.53125 -59.226562 28.804688 -60.578125 34.703125 -60.578125 C 38.484375 -60.578125 42.007812 -59.9375 45.28125 -58.65625 C 48.5625 -57.382812 51.476562 -55.625 54.03125 -53.375 Z M 36.015625 -13.421875 C 39.066406 -13.421875 41.8125 -14.113281 44.25 -15.5 C 46.6875 -16.882812 48.597656 -18.796875 49.984375 -21.234375 C 51.367188 -23.671875 52.0625 -26.453125 52.0625 -29.578125 C 52.0625 -32.628906 51.367188 -35.375 49.984375 -37.8125 C 48.597656 -40.25 46.6875 -42.175781 44.25 -43.59375 C 41.8125 -45.019531 39.066406 -45.734375 36.015625 -45.734375 C 32.890625 -45.734375 30.125 -45.019531 27.71875 -43.59375 C 25.320312 -42.175781 23.429688 -40.25 22.046875 -37.8125 C 20.660156 -35.375 19.96875 -32.628906 19.96875 -29.578125 C 19.96875 -26.453125 20.660156 -23.6875 22.046875 -21.28125 C 23.429688 -18.882812 25.320312 -16.972656 27.71875 -15.546875 C 30.125 -14.128906 32.890625 -13.421875 36.015625 -13.421875 Z M 36.015625 -13.421875 "/></g></g><g transform="translate(1145.731237, 434.234295)"><g><path d="M 7.640625 0 L 7.640625 -80.21875 L 23.578125 -80.21875 L 23.578125 0 Z M 7.640625 0 "/></g></g></g><g fill="#000000" fill-opacity="1"><g transform="translate(1176.945668, 434.234295)"><g><path d="M 7.640625 -66.796875 L 7.640625 -81.640625 L 23.578125 -81.640625 L 23.578125 -66.796875 Z M 7.640625 0 L 7.640625 -58.9375 L 23.578125 -58.9375 L 23.578125 0 Z M 7.640625 0 "/></g></g></g><g fill="#000000" fill-opacity="1"><g transform="translate(1208.160096, 434.234295)"><g><path d="M 50.96875 -80.21875 L 66.90625 -80.21875 L 66.90625 0 L 55.109375 0 L 53.265625 -4.90625 C 50.785156 -2.800781 47.976562 -1.164062 44.84375 0 C 41.71875 1.164062 38.375 1.75 34.8125 1.75 C 28.84375 1.75 23.507812 0.382812 18.8125 -2.34375 C 14.125 -5.070312 10.453125 -8.78125 7.796875 -13.46875 C 5.140625 -18.164062 3.8125 -23.5 3.8125 -29.46875 C 3.8125 -35.4375 5.140625 -40.765625 7.796875 -45.453125 C 10.453125 -50.148438 14.125 -53.84375 18.8125 -56.53125 C 23.507812 -59.226562 28.84375 -60.578125 34.8125 -60.578125 C 37.800781 -60.578125 40.65625 -60.15625 43.375 -59.3125 C 46.101562 -58.476562 48.632812 -57.296875 50.96875 -55.765625 Z M 36.015625 -13.3125 C 39.140625 -13.3125 41.898438 -14.019531 44.296875 -15.4375 C 46.703125 -16.863281 48.613281 -18.796875 50.03125 -21.234375 C 51.457031 -23.671875 52.171875 -26.414062 52.171875 -29.46875 C 52.171875 -32.519531 51.457031 -35.265625 50.03125 -37.703125 C 48.613281 -40.140625 46.703125 -42.066406 44.296875 -43.484375 C 41.898438 -44.910156 39.140625 -45.625 36.015625 -45.625 C 32.960938 -45.625 30.234375 -44.910156 27.828125 -43.484375 C 25.429688 -42.066406 23.519531 -40.140625 22.09375 -37.703125 C 20.675781 -35.265625 19.96875 -32.519531 19.96875 -29.46875 C 19.96875 -26.414062 20.675781 -23.671875 22.09375 -21.234375 C 23.519531 -18.796875 25.429688 -16.863281 27.828125 -15.4375 C 30.234375 -14.019531 32.960938 -13.3125 36.015625 -13.3125 Z M 36.015625 -13.3125 "/></g></g><g transform="translate(1282.703685, 434.234295)"><g><path d="M 55.765625 -59.046875 L 67.671875 -59.046875 L 67.671875 -0.109375 L 55.109375 -0.109375 L 53.8125 -5.34375 C 51.257812 -3.164062 48.363281 -1.457031 45.125 -0.21875 C 41.882812 1.019531 38.410156 1.640625 34.703125 1.640625 C 28.804688 1.640625 23.53125 0.273438 18.875 -2.453125 C 14.21875 -5.179688 10.539062 -8.890625 7.84375 -13.578125 C 5.15625 -18.273438 3.8125 -23.609375 3.8125 -29.578125 C 3.8125 -35.472656 5.15625 -40.765625 7.84375 -45.453125 C 10.539062 -50.148438 14.21875 -53.84375 18.875 -56.53125 C 23.53125 -59.226562 28.804688 -60.578125 34.703125 -60.578125 C 38.484375 -60.578125 42.007812 -59.9375 45.28125 -58.65625 C 48.5625 -57.382812 51.476562 -55.625 54.03125 -53.375 Z M 36.015625 -13.421875 C 39.066406 -13.421875 41.8125 -14.113281 44.25 -15.5 C 46.6875 -16.882812 48.597656 -18.796875 49.984375 -21.234375 C 51.367188 -23.671875 52.0625 -26.453125 52.0625 -29.578125 C 52.0625 -32.628906 51.367188 -35.375 49.984375 -37.8125 C 48.597656 -40.25 46.6875 -42.175781 44.25 -43.59375 C 41.8125 -45.019531 39.066406 -45.734375 36.015625 -45.734375 C 32.890625 -45.734375 30.125 -45.019531 27.71875 -43.59375 C 25.320312 -42.175781 23.429688 -40.25 22.046875 -37.8125 C 20.660156 -35.375 19.96875 -32.628906 19.96875 -29.578125 C 19.96875 -26.453125 20.660156 -23.6875 22.046875 -21.28125 C 23.429688 -18.882812 25.320312 -16.972656 27.71875 -15.546875 C 30.125 -14.128906 32.890625 -13.421875 36.015625 -13.421875 Z M 36.015625 -13.421875 "/></g></g></g><g fill="#000000" fill-opacity="1"><g transform="translate(94.005725, 434.69278)"><g><path d="M 25.328125 -15.390625 L 55.765625 -15.390625 L 55.765625 0 L 8.734375 0 L 8.734375 -76.40625 L 54.578125 -76.40625 L 54.578125 -61.125 L 25.328125 -61.125 L 25.328125 -46.0625 L 51.734375 -46.0625 L 51.734375 -31.109375 L 25.328125 -31.109375 Z M 25.328125 -15.390625 "/></g></g></g><g fill="#000000" fill-opacity="1"><g transform="translate(155.010365, 434.69278)"><g><path d="M 3.703125 -72.578125 L 30.34375 -72.578125 L 30.34375 0 L 15.0625 0 L 15.0625 -58.9375 L 3.703125 -58.9375 Z M 3.703125 -72.578125 "/></g></g></g><path stroke-linecap="butt" transform="matrix(0.75, -0.000268691, 0.000268691, 0.75, 212.784824, 391.964062)" fill="none" stroke-linejoin="miter" d="M -0.000617859 17.501044 L 331.259837 17.499928 " stroke="#000000" stroke-width="35" stroke-opacity="1" stroke-miterlimit="4"/><g clip-path="url(#cd0e4e8bfa)"><path fill="#000000" d="M 249.324219 405.242188 C 249.324219 405.929688 249.289062 406.613281 249.222656 407.300781 C 249.152344 407.984375 249.054688 408.664062 248.917969 409.339844 C 248.785156 410.011719 248.617188 410.679688 248.417969 411.335938 C 248.21875 411.996094 247.988281 412.644531 247.722656 413.277344 C 247.460938 413.914062 247.167969 414.535156 246.84375 415.140625 C 246.519531 415.746094 246.164062 416.335938 245.78125 416.910156 C 245.402344 417.480469 244.992188 418.03125 244.554688 418.566406 C 244.117188 419.097656 243.65625 419.605469 243.171875 420.09375 C 242.683594 420.578125 242.175781 421.039062 241.644531 421.476562 C 241.113281 421.914062 240.558594 422.320312 239.988281 422.703125 C 239.417969 423.085938 238.828125 423.4375 238.21875 423.761719 C 237.613281 424.085938 236.992188 424.382812 236.355469 424.644531 C 235.722656 424.90625 235.074219 425.140625 234.417969 425.339844 C 233.757812 425.539062 233.09375 425.707031 232.417969 425.839844 C 231.742188 425.972656 231.0625 426.074219 230.378906 426.140625 C 229.695312 426.210938 229.007812 426.242188 228.320312 426.242188 C 227.632812 426.242188 226.945312 426.210938 226.261719 426.140625 C 225.578125 426.074219 224.898438 425.972656 224.222656 425.839844 C 223.546875 425.707031 222.882812 425.539062 222.222656 425.339844 C 221.566406 425.140625 220.917969 424.90625 220.28125 424.644531 C 219.648438 424.382812 219.027344 424.085938 218.417969 423.761719 C 217.8125 423.4375 217.222656 423.085938 216.652344 422.703125 C 216.078125 422.320312 215.527344 421.914062 214.996094 421.476562 C 214.464844 421.039062 213.953125 420.578125 213.46875 420.09375 C 212.980469 419.605469 212.519531 419.097656 212.085938 418.566406 C 211.648438 418.03125 211.238281 417.480469 210.855469 416.910156 C 210.472656 416.335938 210.121094 415.746094 209.796875 415.140625 C 209.472656 414.535156 209.179688 413.914062 208.914062 413.277344 C 208.652344 412.644531 208.421875 411.996094 208.222656 411.335938 C 208.023438 410.679688 207.855469 410.011719 207.71875 409.339844 C 207.585938 408.664062 207.484375 407.984375 207.417969 407.300781 C 207.351562 406.613281 207.316406 405.929688 207.316406 405.242188 C 207.316406 404.554688 207.351562 403.867188 207.417969 403.183594 C 207.484375 402.496094 207.585938 401.816406 207.71875 401.144531 C 207.855469 400.46875 208.023438 399.800781 208.222656 399.144531 C 208.421875 398.484375 208.652344 397.839844 208.914062 397.203125 C 209.179688 396.566406 209.472656 395.945312 209.796875 395.339844 C 210.121094 394.734375 210.472656 394.144531 210.855469 393.574219 C 211.238281 393 211.648438 392.449219 212.085938 391.917969 C 212.519531 391.386719 212.980469 390.875 213.46875 390.390625 C 213.953125 389.902344 214.464844 389.441406 214.996094 389.003906 C 215.527344 388.570312 216.078125 388.160156 216.652344 387.777344 C 217.222656 387.394531 217.8125 387.042969 218.417969 386.71875 C 219.027344 386.394531 219.648438 386.101562 220.28125 385.835938 C 220.917969 385.574219 221.566406 385.34375 222.222656 385.140625 C 222.882812 384.941406 223.546875 384.777344 224.222656 384.640625 C 224.898438 384.507812 225.578125 384.40625 226.261719 384.339844 C 226.945312 384.273438 227.632812 384.238281 228.320312 384.238281 C 229.007812 384.238281 229.695312 384.273438 230.378906 384.339844 C 231.0625 384.40625 231.742188 384.507812 232.417969 384.640625 C 233.09375 384.777344 233.757812 384.941406 234.417969 385.140625 C 235.074219 385.34375 235.722656 385.574219 236.355469 385.835938 C 236.992188 386.101562 237.613281 386.394531 238.21875 386.71875 C 238.828125 387.042969 239.417969 387.394531 239.988281 387.777344 C 240.558594 388.160156 241.113281 388.570312 241.644531 389.003906 C 242.175781 389.441406 242.683594 389.902344 243.171875 390.390625 C 243.65625 390.875 244.117188 391.386719 244.554688 391.917969 C 244.992188 392.449219 245.402344 393 245.78125 393.574219 C 246.164062 394.144531 246.519531 394.734375 246.84375 395.339844 C 247.167969 395.945312 247.460938 396.566406 247.722656 397.203125 C 247.988281 397.839844 248.21875 398.484375 248.417969 399.144531 C 248.617188 399.800781 248.785156 400.46875 248.917969 401.144531 C 249.054688 401.816406 249.152344 402.496094 249.222656 403.183594 C 249.289062 403.867188 249.324219 404.554688 249.324219 405.242188 Z M 249.324219 405.242188 " fill-opacity="1" fill-rule="nonzero"/></g></svg>