<svg xmlns="http://www.w3.org/2000/svg" xmlns:xlink="http://www.w3.org/1999/xlink" width="1920" zoomAndPan="magnify" viewBox="0 0 1440 809.999993" height="1080" preserveAspectRatio="xMidYMid meet" version="1.0"><defs><g/><clipPath id="50fa975f76"><path d="M 373 211.742188 L 819 211.742188 L 819 597.988281 L 373 597.988281 Z M 373 211.742188 " clip-rule="nonzero"/></clipPath><clipPath id="b230ddbad9"><path d="M 397.152344 211.742188 L 668.4375 211.742188 C 695.003906 211.742188 719.667969 225.523438 733.589844 248.148438 L 807.710938 368.589844 C 821.449219 390.917969 821.449219 419.078125 807.710938 441.40625 L 733.589844 561.847656 C 719.667969 584.472656 695.003906 598.253906 668.4375 598.253906 L 397.152344 598.253906 C 388.5 598.253906 380.519531 593.574219 376.300781 586.019531 C 372.078125 578.464844 372.273438 569.21875 376.808594 561.847656 L 450.925781 441.40625 C 464.667969 419.078125 464.667969 390.917969 450.925781 368.589844 L 376.808594 248.148438 C 372.273438 240.777344 372.078125 231.53125 376.300781 223.976562 C 380.519531 216.421875 388.5 211.742188 397.152344 211.742188 Z M 397.152344 211.742188 " clip-rule="nonzero"/></clipPath><clipPath id="16aecce80a"><path d="M 207.320312 226.910156 L 249.320312 226.910156 L 249.320312 268.910156 L 207.320312 268.910156 Z M 207.320312 226.910156 " clip-rule="nonzero"/></clipPath><clipPath id="40da04b89a"><path d="M 207.320312 331.964844 L 249.320312 331.964844 L 249.320312 373.964844 L 207.320312 373.964844 Z M 207.320312 331.964844 " clip-rule="nonzero"/></clipPath><clipPath id="7126141215"><path d="M 207.320312 436.839844 L 249.320312 436.839844 L 249.320312 478.839844 L 207.320312 478.839844 Z M 207.320312 436.839844 " clip-rule="nonzero"/></clipPath><clipPath id="1a07e72e11"><path d="M 207.320312 541.386719 L 249.320312 541.386719 L 249.320312 583.386719 L 207.320312 583.386719 Z M 207.320312 541.386719 " clip-rule="nonzero"/></clipPath><clipPath id="f238e3b427"><path d="M 960.25 384.148438 L 1002.25 384.148438 L 1002.25 426.148438 L 960.25 426.148438 Z M 960.25 384.148438 " clip-rule="nonzero"/></clipPath></defs><g clip-path="url(#50fa975f76)"><g clip-path="url(#b230ddbad9)"><path stroke-linecap="butt" transform="matrix(0.75, 0, 0, 0.75, 354.403582, 211.740449)" fill="none" stroke-linejoin="miter" d="M 56.998352 0.0023186 L 418.711912 0.0023186 C 454.133789 0.0023186 487.019207 18.37732 505.581708 48.543988 L 604.409838 209.132537 C 622.727547 238.903372 622.727547 276.450249 604.409838 306.221084 L 505.581708 466.809634 C 487.019207 496.976302 454.133789 515.351303 418.711912 515.351303 L 56.998352 515.351303 C 45.461893 515.351303 34.821267 509.111719 29.196267 499.038802 C 23.566059 488.965885 23.826475 476.637759 29.873351 466.809634 L 128.696272 306.221084 C 147.01919 276.450249 147.01919 238.903372 128.696272 209.132537 L 29.873351 48.543988 C 23.826475 38.715862 23.566059 26.387737 29.196267 16.314819 C 34.821267 6.241902 45.461893 0.0023186 56.998352 0.0023186 Z M 56.998352 0.0023186 " stroke="#000000" stroke-width="60" stroke-opacity="1" stroke-miterlimit="4"/></g></g><g fill="#000000" fill-opacity="1"><g transform="translate(1002.86512, 434.234295)"><g><path d="M 34.046875 1.53125 C 28.234375 1.53125 23.101562 0.476562 18.65625 -1.625 C 14.21875 -3.738281 10.742188 -6.757812 8.234375 -10.6875 C 5.722656 -14.625 4.46875 -19.320312 4.46875 -24.78125 L 21.171875 -24.78125 C 21.171875 -21.0625 22.460938 -18.3125 25.046875 -16.53125 C 27.628906 -14.75 30.59375 -13.859375 33.9375 -13.859375 C 36.050781 -13.859375 38.035156 -14.203125 39.890625 -14.890625 C 41.742188 -15.585938 43.269531 -16.609375 44.46875 -17.953125 C 45.675781 -19.296875 46.28125 -20.914062 46.28125 -22.8125 C 46.28125 -24.769531 45.585938 -26.3125 44.203125 -27.4375 C 42.816406 -28.570312 40.957031 -29.503906 38.625 -30.234375 C 36.300781 -30.960938 33.757812 -31.65625 31 -32.3125 C 28.15625 -32.957031 25.242188 -33.753906 22.265625 -34.703125 C 19.285156 -35.648438 16.519531 -36.90625 13.96875 -38.46875 C 11.425781 -40.03125 9.390625 -42.140625 7.859375 -44.796875 C 6.328125 -47.453125 5.5625 -50.816406 5.5625 -54.890625 C 5.5625 -62.242188 8.050781 -67.898438 13.03125 -71.859375 C 18.019531 -75.828125 24.769531 -77.8125 33.28125 -77.8125 C 42.019531 -77.8125 48.789062 -75.609375 53.59375 -71.203125 C 58.394531 -66.804688 60.796875 -60.828125 60.796875 -53.265625 L 44.421875 -53.265625 C 44.421875 -56.535156 43.253906 -58.953125 40.921875 -60.515625 C 38.597656 -62.078125 35.90625 -62.859375 32.84375 -62.859375 C 30.15625 -62.859375 27.679688 -62.273438 25.421875 -61.109375 C 23.171875 -59.953125 22.046875 -58.132812 22.046875 -55.65625 C 22.046875 -53.84375 22.71875 -52.40625 24.0625 -51.34375 C 25.40625 -50.289062 27.1875 -49.414062 29.40625 -48.71875 C 31.632812 -48.03125 34.09375 -47.363281 36.78125 -46.71875 C 39.6875 -45.988281 42.664062 -45.128906 45.71875 -44.140625 C 48.78125 -43.160156 51.617188 -41.832031 54.234375 -40.15625 C 56.859375 -38.488281 58.988281 -36.269531 60.625 -33.5 C 62.257812 -30.738281 63.078125 -27.25 63.078125 -23.03125 C 63.078125 -17.5 61.75 -12.910156 59.09375 -9.265625 C 56.4375 -5.628906 52.925781 -2.921875 48.5625 -1.140625 C 44.195312 0.640625 39.359375 1.53125 34.046875 1.53125 Z M 34.046875 1.53125 "/></g></g><g transform="translate(1070.423658, 434.234295)"><g><path d="M 55.765625 -59.046875 L 67.671875 -59.046875 L 67.671875 -0.109375 L 55.109375 -0.109375 L 53.8125 -5.34375 C 51.257812 -3.164062 48.363281 -1.457031 45.125 -0.21875 C 41.882812 1.019531 38.410156 1.640625 34.703125 1.640625 C 28.804688 1.640625 23.53125 0.273438 18.875 -2.453125 C 14.21875 -5.179688 10.539062 -8.890625 7.84375 -13.578125 C 5.15625 -18.273438 3.8125 -23.609375 3.8125 -29.578125 C 3.8125 -35.472656 5.15625 -40.765625 7.84375 -45.453125 C 10.539062 -50.148438 14.21875 -53.84375 18.875 -56.53125 C 23.53125 -59.226562 28.804688 -60.578125 34.703125 -60.578125 C 38.484375 -60.578125 42.007812 -59.9375 45.28125 -58.65625 C 48.5625 -57.382812 51.476562 -55.625 54.03125 -53.375 Z M 36.015625 -13.421875 C 39.066406 -13.421875 41.8125 -14.113281 44.25 -15.5 C 46.6875 -16.882812 48.597656 -18.796875 49.984375 -21.234375 C 51.367188 -23.671875 52.0625 -26.453125 52.0625 -29.578125 C 52.0625 -32.628906 51.367188 -35.375 49.984375 -37.8125 C 48.597656 -40.25 46.6875 -42.175781 44.25 -43.59375 C 41.8125 -45.019531 39.066406 -45.734375 36.015625 -45.734375 C 32.890625 -45.734375 30.125 -45.019531 27.71875 -43.59375 C 25.320312 -42.175781 23.429688 -40.25 22.046875 -37.8125 C 20.660156 -35.375 19.96875 -32.628906 19.96875 -29.578125 C 19.96875 -26.453125 20.660156 -23.6875 22.046875 -21.28125 C 23.429688 -18.882812 25.320312 -16.972656 27.71875 -15.546875 C 30.125 -14.128906 32.890625 -13.421875 36.015625 -13.421875 Z M 36.015625 -13.421875 "/></g></g><g transform="translate(1145.731237, 434.234295)"><g><path d="M 7.640625 0 L 7.640625 -80.21875 L 23.578125 -80.21875 L 23.578125 0 Z M 7.640625 0 "/></g></g></g><g fill="#000000" fill-opacity="1"><g transform="translate(1176.945668, 434.234295)"><g><path d="M 7.640625 -66.796875 L 7.640625 -81.640625 L 23.578125 -81.640625 L 23.578125 -66.796875 Z M 7.640625 0 L 7.640625 -58.9375 L 23.578125 -58.9375 L 23.578125 0 Z M 7.640625 0 "/></g></g></g><g fill="#000000" fill-opacity="1"><g transform="translate(1208.160096, 434.234295)"><g><path d="M 50.96875 -80.21875 L 66.90625 -80.21875 L 66.90625 0 L 55.109375 0 L 53.265625 -4.90625 C 50.785156 -2.800781 47.976562 -1.164062 44.84375 0 C 41.71875 1.164062 38.375 1.75 34.8125 1.75 C 28.84375 1.75 23.507812 0.382812 18.8125 -2.34375 C 14.125 -5.070312 10.453125 -8.78125 7.796875 -13.46875 C 5.140625 -18.164062 3.8125 -23.5 3.8125 -29.46875 C 3.8125 -35.4375 5.140625 -40.765625 7.796875 -45.453125 C 10.453125 -50.148438 14.125 -53.84375 18.8125 -56.53125 C 23.507812 -59.226562 28.84375 -60.578125 34.8125 -60.578125 C 37.800781 -60.578125 40.65625 -60.15625 43.375 -59.3125 C 46.101562 -58.476562 48.632812 -57.296875 50.96875 -55.765625 Z M 36.015625 -13.3125 C 39.140625 -13.3125 41.898438 -14.019531 44.296875 -15.4375 C 46.703125 -16.863281 48.613281 -18.796875 50.03125 -21.234375 C 51.457031 -23.671875 52.171875 -26.414062 52.171875 -29.46875 C 52.171875 -32.519531 51.457031 -35.265625 50.03125 -37.703125 C 48.613281 -40.140625 46.703125 -42.066406 44.296875 -43.484375 C 41.898438 -44.910156 39.140625 -45.625 36.015625 -45.625 C 32.960938 -45.625 30.234375 -44.910156 27.828125 -43.484375 C 25.429688 -42.066406 23.519531 -40.140625 22.09375 -37.703125 C 20.675781 -35.265625 19.96875 -32.519531 19.96875 -29.46875 C 19.96875 -26.414062 20.675781 -23.671875 22.09375 -21.234375 C 23.519531 -18.796875 25.429688 -16.863281 27.828125 -15.4375 C 30.234375 -14.019531 32.960938 -13.3125 36.015625 -13.3125 Z M 36.015625 -13.3125 "/></g></g><g transform="translate(1282.703685, 434.234295)"><g><path d="M 55.765625 -59.046875 L 67.671875 -59.046875 L 67.671875 -0.109375 L 55.109375 -0.109375 L 53.8125 -5.34375 C 51.257812 -3.164062 48.363281 -1.457031 45.125 -0.21875 C 41.882812 1.019531 38.410156 1.640625 34.703125 1.640625 C 28.804688 1.640625 23.53125 0.273438 18.875 -2.453125 C 14.21875 -5.179688 10.539062 -8.890625 7.84375 -13.578125 C 5.15625 -18.273438 3.8125 -23.609375 3.8125 -29.578125 C 3.8125 -35.472656 5.15625 -40.765625 7.84375 -45.453125 C 10.539062 -50.148438 14.21875 -53.84375 18.875 -56.53125 C 23.53125 -59.226562 28.804688 -60.578125 34.703125 -60.578125 C 38.484375 -60.578125 42.007812 -59.9375 45.28125 -58.65625 C 48.5625 -57.382812 51.476562 -55.625 54.03125 -53.375 Z M 36.015625 -13.421875 C 39.066406 -13.421875 41.8125 -14.113281 44.25 -15.5 C 46.6875 -16.882812 48.597656 -18.796875 49.984375 -21.234375 C 51.367188 -23.671875 52.0625 -26.453125 52.0625 -29.578125 C 52.0625 -32.628906 51.367188 -35.375 49.984375 -37.8125 C 48.597656 -40.25 46.6875 -42.175781 44.25 -43.59375 C 41.8125 -45.019531 39.066406 -45.734375 36.015625 -45.734375 C 32.890625 -45.734375 30.125 -45.019531 27.71875 -43.59375 C 25.320312 -42.175781 23.429688 -40.25 22.046875 -37.8125 C 20.660156 -35.375 19.96875 -32.628906 19.96875 -29.578125 C 19.96875 -26.453125 20.660156 -23.6875 22.046875 -21.28125 C 23.429688 -18.882812 25.320312 -16.972656 27.71875 -15.546875 C 30.125 -14.128906 32.890625 -13.421875 36.015625 -13.421875 Z M 36.015625 -13.421875 "/></g></g></g><g fill="#000000" fill-opacity="1"><g transform="translate(94.005725, 277.59978)"><g><path d="M 25.328125 -15.390625 L 55.765625 -15.390625 L 55.765625 0 L 8.734375 0 L 8.734375 -76.40625 L 54.578125 -76.40625 L 54.578125 -61.125 L 25.328125 -61.125 L 25.328125 -46.0625 L 51.734375 -46.0625 L 51.734375 -31.109375 L 25.328125 -31.109375 Z M 25.328125 -15.390625 "/></g></g></g><g fill="#000000" fill-opacity="1"><g transform="translate(155.010365, 277.59978)"><g><path d="M 3.703125 -72.578125 L 30.34375 -72.578125 L 30.34375 0 L 15.0625 0 L 15.0625 -58.9375 L 3.703125 -58.9375 Z M 3.703125 -72.578125 "/></g></g></g><g fill="#000000" fill-opacity="1"><g transform="translate(83.748884, 382.419657)"><g><path d="M 25.328125 -15.390625 L 55.765625 -15.390625 L 55.765625 0 L 8.734375 0 L 8.734375 -76.40625 L 54.578125 -76.40625 L 54.578125 -61.125 L 25.328125 -61.125 L 25.328125 -46.0625 L 51.734375 -46.0625 L 51.734375 -31.109375 L 25.328125 -31.109375 Z M 25.328125 -15.390625 "/></g></g></g><g fill="#000000" fill-opacity="1"><g transform="translate(144.753524, 382.419657)"><g><path d="M 32.3125 -14.625 L 54.46875 -14.625 L 54.46875 0 L 3.609375 0 L 3.609375 -3.390625 C 9.566406 -10.296875 14.566406 -16.148438 18.609375 -20.953125 C 22.648438 -25.753906 25.90625 -29.753906 28.375 -32.953125 C 30.851562 -36.160156 32.742188 -38.835938 34.046875 -40.984375 C 35.359375 -43.128906 36.234375 -44.984375 36.671875 -46.546875 C 37.109375 -48.109375 37.328125 -49.617188 37.328125 -51.078125 C 37.328125 -53.617188 36.5625 -55.65625 35.03125 -57.1875 C 33.507812 -58.71875 31.507812 -59.484375 29.03125 -59.484375 C 26.488281 -59.484375 24.429688 -58.695312 22.859375 -57.125 C 21.296875 -55.5625 20.515625 -53.472656 20.515625 -50.859375 L 20.515625 -49.546875 L 4.90625 -49.546875 L 4.90625 -51.078125 C 4.90625 -55.515625 5.890625 -59.460938 7.859375 -62.921875 C 9.828125 -66.378906 12.59375 -69.109375 16.15625 -71.109375 C 19.71875 -73.109375 23.9375 -74.109375 28.8125 -74.109375 C 33.539062 -74.109375 37.722656 -73.125 41.359375 -71.15625 C 45.003906 -69.195312 47.863281 -66.503906 49.9375 -63.078125 C 52.007812 -59.660156 53.046875 -55.734375 53.046875 -51.296875 C 53.046875 -49.035156 52.753906 -46.773438 52.171875 -44.515625 C 51.585938 -42.265625 50.550781 -39.753906 49.0625 -36.984375 C 47.570312 -34.222656 45.460938 -31.039062 42.734375 -27.4375 C 40.003906 -23.84375 36.53125 -19.570312 32.3125 -14.625 Z M 32.3125 -14.625 "/></g></g></g><path stroke-linecap="butt" transform="matrix(0.75, 0.000000000000000725, -0.000000000000000725, 0.75, 212.789513, 234.636687)" fill="none" stroke-linejoin="miter" d="M -0.000600823 17.500043 L 235.113994 17.500043 " stroke="#000000" stroke-width="35" stroke-opacity="1" stroke-miterlimit="4"/><g clip-path="url(#16aecce80a)"><path fill="#000000" d="M 249.324219 247.914062 C 249.324219 248.601562 249.289062 249.289062 249.222656 249.972656 C 249.152344 250.65625 249.054688 251.335938 248.917969 252.011719 C 248.785156 252.683594 248.617188 253.351562 248.417969 254.011719 C 248.21875 254.667969 247.988281 255.316406 247.722656 255.949219 C 247.460938 256.585938 247.167969 257.207031 246.84375 257.8125 C 246.519531 258.421875 246.164062 259.011719 245.78125 259.582031 C 245.402344 260.152344 244.992188 260.707031 244.554688 261.238281 C 244.117188 261.769531 243.65625 262.277344 243.171875 262.765625 C 242.683594 263.25 242.175781 263.710938 241.644531 264.148438 C 241.113281 264.585938 240.558594 264.996094 239.988281 265.375 C 239.417969 265.757812 238.828125 266.113281 238.21875 266.4375 C 237.613281 266.761719 236.992188 267.054688 236.355469 267.316406 C 235.722656 267.582031 235.074219 267.8125 234.417969 268.011719 C 233.757812 268.210938 233.09375 268.378906 232.417969 268.511719 C 231.742188 268.648438 231.0625 268.746094 230.378906 268.816406 C 229.695312 268.882812 229.007812 268.917969 228.320312 268.917969 C 227.632812 268.917969 226.945312 268.882812 226.261719 268.816406 C 225.578125 268.746094 224.898438 268.648438 224.222656 268.511719 C 223.546875 268.378906 222.882812 268.210938 222.222656 268.011719 C 221.566406 267.8125 220.917969 267.582031 220.28125 267.316406 C 219.648438 267.054688 219.027344 266.761719 218.417969 266.4375 C 217.8125 266.113281 217.222656 265.757812 216.652344 265.375 C 216.078125 264.996094 215.527344 264.585938 214.996094 264.148438 C 214.464844 263.710938 213.953125 263.25 213.46875 262.765625 C 212.980469 262.277344 212.519531 261.769531 212.085938 261.238281 C 211.648438 260.707031 211.238281 260.152344 210.855469 259.582031 C 210.472656 259.011719 210.121094 258.421875 209.796875 257.8125 C 209.472656 257.207031 209.179688 256.585938 208.914062 255.949219 C 208.652344 255.316406 208.421875 254.667969 208.222656 254.011719 C 208.023438 253.351562 207.855469 252.683594 207.71875 252.011719 C 207.585938 251.335938 207.484375 250.65625 207.417969 249.972656 C 207.351562 249.289062 207.316406 248.601562 207.316406 247.914062 C 207.316406 247.226562 207.351562 246.539062 207.417969 245.855469 C 207.484375 245.171875 207.585938 244.492188 207.71875 243.816406 C 207.855469 243.140625 208.023438 242.476562 208.222656 241.816406 C 208.421875 241.160156 208.652344 240.511719 208.914062 239.875 C 209.179688 239.242188 209.472656 238.621094 209.796875 238.011719 C 210.121094 237.40625 210.472656 236.816406 210.855469 236.246094 C 211.238281 235.671875 211.648438 235.121094 212.085938 234.589844 C 212.519531 234.058594 212.980469 233.546875 213.46875 233.0625 C 213.953125 232.574219 214.464844 232.113281 214.996094 231.679688 C 215.527344 231.242188 216.078125 230.832031 216.652344 230.449219 C 217.222656 230.066406 217.8125 229.714844 218.417969 229.390625 C 219.027344 229.066406 219.648438 228.773438 220.28125 228.507812 C 220.917969 228.246094 221.566406 228.015625 222.222656 227.816406 C 222.882812 227.617188 223.546875 227.449219 224.222656 227.3125 C 224.898438 227.179688 225.578125 227.078125 226.261719 227.011719 C 226.945312 226.945312 227.632812 226.910156 228.320312 226.910156 C 229.007812 226.910156 229.695312 226.945312 230.378906 227.011719 C 231.0625 227.078125 231.742188 227.179688 232.417969 227.3125 C 233.09375 227.449219 233.757812 227.617188 234.417969 227.816406 C 235.074219 228.015625 235.722656 228.246094 236.355469 228.507812 C 236.992188 228.773438 237.613281 229.066406 238.21875 229.390625 C 238.828125 229.714844 239.417969 230.066406 239.988281 230.449219 C 240.558594 230.832031 241.113281 231.242188 241.644531 231.679688 C 242.175781 232.113281 242.683594 232.574219 243.171875 233.0625 C 243.65625 233.546875 244.117188 234.058594 244.554688 234.589844 C 244.992188 235.121094 245.402344 235.671875 245.78125 236.246094 C 246.164062 236.816406 246.519531 237.40625 246.84375 238.011719 C 247.167969 238.621094 247.460938 239.242188 247.722656 239.875 C 247.988281 240.511719 248.21875 241.160156 248.417969 241.816406 C 248.617188 242.476562 248.785156 243.140625 248.917969 243.816406 C 249.054688 244.492188 249.152344 245.171875 249.222656 245.855469 C 249.289062 246.539062 249.324219 247.226562 249.324219 247.914062 Z M 249.324219 247.914062 " fill-opacity="1" fill-rule="nonzero"/></g><path stroke-linecap="butt" transform="matrix(0.75, 0.000000000000000399, -0.000000000000000399, 0.75, 212.789513, 339.690824)" fill="none" stroke-linejoin="miter" d="M -0.000600823 17.500778 L 320.634832 17.500778 " stroke="#000000" stroke-width="35" stroke-opacity="1" stroke-miterlimit="4"/><g clip-path="url(#40da04b89a)"><path fill="#000000" d="M 249.324219 352.96875 C 249.324219 353.65625 249.289062 354.339844 249.222656 355.027344 C 249.152344 355.710938 249.054688 356.390625 248.917969 357.066406 C 248.785156 357.738281 248.617188 358.40625 248.417969 359.0625 C 248.21875 359.722656 247.988281 360.371094 247.722656 361.003906 C 247.460938 361.640625 247.167969 362.261719 246.84375 362.867188 C 246.519531 363.476562 246.164062 364.0625 245.78125 364.636719 C 245.402344 365.207031 244.992188 365.757812 244.554688 366.292969 C 244.117188 366.824219 243.65625 367.332031 243.171875 367.820312 C 242.683594 368.304688 242.175781 368.765625 241.644531 369.203125 C 241.113281 369.640625 240.558594 370.046875 239.988281 370.429688 C 239.417969 370.8125 238.828125 371.164062 238.21875 371.488281 C 237.613281 371.816406 236.992188 372.109375 236.355469 372.371094 C 235.722656 372.632812 235.074219 372.867188 234.417969 373.066406 C 233.757812 373.265625 233.09375 373.433594 232.417969 373.566406 C 231.742188 373.699219 231.0625 373.800781 230.378906 373.867188 C 229.695312 373.9375 229.007812 373.96875 228.320312 373.96875 C 227.632812 373.96875 226.945312 373.9375 226.261719 373.867188 C 225.578125 373.800781 224.898438 373.699219 224.222656 373.566406 C 223.546875 373.433594 222.882812 373.265625 222.222656 373.066406 C 221.566406 372.867188 220.917969 372.632812 220.28125 372.371094 C 219.648438 372.109375 219.027344 371.816406 218.417969 371.488281 C 217.8125 371.164062 217.222656 370.8125 216.652344 370.429688 C 216.078125 370.046875 215.527344 369.640625 214.996094 369.203125 C 214.464844 368.765625 213.953125 368.304688 213.46875 367.820312 C 212.980469 367.332031 212.519531 366.824219 212.085938 366.292969 C 211.648438 365.757812 211.238281 365.207031 210.855469 364.636719 C 210.472656 364.0625 210.121094 363.476562 209.796875 362.867188 C 209.472656 362.261719 209.179688 361.640625 208.914062 361.003906 C 208.652344 360.371094 208.421875 359.722656 208.222656 359.0625 C 208.023438 358.40625 207.855469 357.738281 207.71875 357.066406 C 207.585938 356.390625 207.484375 355.710938 207.417969 355.027344 C 207.351562 354.339844 207.316406 353.65625 207.316406 352.96875 C 207.316406 352.28125 207.351562 351.59375 207.417969 350.910156 C 207.484375 350.222656 207.585938 349.542969 207.71875 348.871094 C 207.855469 348.195312 208.023438 347.527344 208.222656 346.871094 C 208.421875 346.210938 208.652344 345.566406 208.914062 344.929688 C 209.179688 344.292969 209.472656 343.671875 209.796875 343.066406 C 210.121094 342.460938 210.472656 341.871094 210.855469 341.300781 C 211.238281 340.726562 211.648438 340.175781 212.085938 339.644531 C 212.519531 339.113281 212.980469 338.601562 213.46875 338.117188 C 213.953125 337.628906 214.464844 337.167969 214.996094 336.730469 C 215.527344 336.296875 216.078125 335.886719 216.652344 335.503906 C 217.222656 335.121094 217.8125 334.769531 218.417969 334.445312 C 219.027344 334.121094 219.648438 333.828125 220.28125 333.5625 C 220.917969 333.300781 221.566406 333.070312 222.222656 332.871094 C 222.882812 332.667969 223.546875 332.503906 224.222656 332.367188 C 224.898438 332.234375 225.578125 332.132812 226.261719 332.066406 C 226.945312 332 227.632812 331.964844 228.320312 331.964844 C 229.007812 331.964844 229.695312 332 230.378906 332.066406 C 231.0625 332.132812 231.742188 332.234375 232.417969 332.367188 C 233.09375 332.503906 233.757812 332.667969 234.417969 332.871094 C 235.074219 333.070312 235.722656 333.300781 236.355469 333.5625 C 236.992188 333.828125 237.613281 334.121094 238.21875 334.445312 C 238.828125 334.769531 239.417969 335.121094 239.988281 335.503906 C 240.558594 335.886719 241.113281 336.296875 241.644531 336.730469 C 242.175781 337.167969 242.683594 337.628906 243.171875 338.117188 C 243.65625 338.601562 244.117188 339.113281 244.554688 339.644531 C 244.992188 340.175781 245.402344 340.726562 245.78125 341.300781 C 246.164062 341.871094 246.519531 342.460938 246.84375 343.066406 C 247.167969 343.671875 247.460938 344.292969 247.722656 344.929688 C 247.988281 345.566406 248.21875 346.210938 248.417969 346.871094 C 248.617188 347.527344 248.785156 348.195312 248.917969 348.871094 C 249.054688 349.542969 249.152344 350.222656 249.222656 350.910156 C 249.289062 351.59375 249.324219 352.28125 249.324219 352.96875 Z M 249.324219 352.96875 " fill-opacity="1" fill-rule="nonzero"/></g><g fill="#000000" fill-opacity="1"><g transform="translate(83.579349, 487.530043)"><g><path d="M 25.328125 -15.390625 L 55.765625 -15.390625 L 55.765625 0 L 8.734375 0 L 8.734375 -76.40625 L 54.578125 -76.40625 L 54.578125 -61.125 L 25.328125 -61.125 L 25.328125 -46.0625 L 51.734375 -46.0625 L 51.734375 -31.109375 L 25.328125 -31.109375 Z M 25.328125 -15.390625 "/></g></g></g><g fill="#000000" fill-opacity="1"><g transform="translate(144.583989, 487.530043)"><g><path d="M 37.546875 -45.734375 C 42.929688 -44.566406 47.238281 -41.960938 50.46875 -37.921875 C 53.707031 -33.890625 55.328125 -29 55.328125 -23.25 C 55.328125 -18.519531 54.195312 -14.296875 51.9375 -10.578125 C 49.6875 -6.867188 46.632812 -3.957031 42.78125 -1.84375 C 38.925781 0.257812 34.523438 1.3125 29.578125 1.3125 C 24.773438 1.3125 20.515625 0.296875 16.796875 -1.734375 C 13.085938 -3.773438 10.160156 -6.613281 8.015625 -10.25 C 5.867188 -13.894531 4.6875 -18.117188 4.46875 -22.921875 L 20.078125 -22.921875 C 20.222656 -20.003906 21.148438 -17.65625 22.859375 -15.875 C 24.578125 -14.09375 26.816406 -13.203125 29.578125 -13.203125 C 32.484375 -13.203125 34.882812 -14.179688 36.78125 -16.140625 C 38.675781 -18.109375 39.625 -20.660156 39.625 -23.796875 C 39.625 -26.921875 38.601562 -29.375 36.5625 -31.15625 C 34.519531 -32.9375 31.828125 -33.828125 28.484375 -33.828125 L 18.015625 -33.828125 L 18.015625 -36.78125 L 31.21875 -58.609375 L 6.21875 -58.609375 L 6.21875 -72.578125 L 52.609375 -72.578125 L 52.609375 -69.625 Z M 37.546875 -45.734375 "/></g></g></g><path stroke-linecap="butt" transform="matrix(0.75, 0, 0, 0.75, 212.789513, 444.56695)" fill="none" stroke-linejoin="miter" d="M -0.000600823 17.499276 L 320.634832 17.499276 " stroke="#000000" stroke-width="35" stroke-opacity="1" stroke-miterlimit="4"/><g clip-path="url(#7126141215)"><path fill="#000000" d="M 249.324219 457.84375 C 249.324219 458.53125 249.289062 459.21875 249.222656 459.902344 C 249.152344 460.585938 249.054688 461.265625 248.917969 461.941406 C 248.785156 462.617188 248.617188 463.28125 248.417969 463.941406 C 248.21875 464.597656 247.988281 465.246094 247.722656 465.882812 C 247.460938 466.515625 247.167969 467.136719 246.84375 467.746094 C 246.519531 468.351562 246.164062 468.941406 245.78125 469.511719 C 245.402344 470.085938 244.992188 470.636719 244.554688 471.167969 C 244.117188 471.699219 243.65625 472.207031 243.171875 472.695312 C 242.683594 473.179688 242.175781 473.640625 241.644531 474.078125 C 241.113281 474.515625 240.558594 474.925781 239.988281 475.308594 C 239.417969 475.6875 238.828125 476.042969 238.21875 476.367188 C 237.613281 476.691406 236.992188 476.984375 236.355469 477.246094 C 235.722656 477.511719 235.074219 477.742188 234.417969 477.941406 C 233.757812 478.140625 233.09375 478.308594 232.417969 478.441406 C 231.742188 478.578125 231.0625 478.679688 230.378906 478.746094 C 229.695312 478.8125 229.007812 478.847656 228.320312 478.847656 C 227.632812 478.847656 226.945312 478.8125 226.261719 478.746094 C 225.578125 478.679688 224.898438 478.578125 224.222656 478.441406 C 223.546875 478.308594 222.882812 478.140625 222.222656 477.941406 C 221.566406 477.742188 220.917969 477.511719 220.28125 477.246094 C 219.648438 476.984375 219.027344 476.691406 218.417969 476.367188 C 217.8125 476.042969 217.222656 475.6875 216.652344 475.308594 C 216.078125 474.925781 215.527344 474.515625 214.996094 474.078125 C 214.464844 473.640625 213.953125 473.179688 213.46875 472.695312 C 212.980469 472.207031 212.519531 471.699219 212.085938 471.167969 C 211.648438 470.636719 211.238281 470.085938 210.855469 469.511719 C 210.472656 468.941406 210.121094 468.351562 209.796875 467.746094 C 209.472656 467.136719 209.179688 466.515625 208.914062 465.882812 C 208.652344 465.246094 208.421875 464.597656 208.222656 463.941406 C 208.023438 463.28125 207.855469 462.617188 207.71875 461.941406 C 207.585938 461.265625 207.484375 460.585938 207.417969 459.902344 C 207.351562 459.21875 207.316406 458.53125 207.316406 457.84375 C 207.316406 457.15625 207.351562 456.46875 207.417969 455.785156 C 207.484375 455.101562 207.585938 454.421875 207.71875 453.746094 C 207.855469 453.070312 208.023438 452.40625 208.222656 451.746094 C 208.421875 451.089844 208.652344 450.441406 208.914062 449.804688 C 209.179688 449.171875 209.472656 448.550781 209.796875 447.941406 C 210.121094 447.335938 210.472656 446.746094 210.855469 446.175781 C 211.238281 445.601562 211.648438 445.050781 212.085938 444.519531 C 212.519531 443.988281 212.980469 443.480469 213.46875 442.992188 C 213.953125 442.507812 214.464844 442.042969 214.996094 441.609375 C 215.527344 441.171875 216.078125 440.761719 216.652344 440.378906 C 217.222656 440 217.8125 439.644531 218.417969 439.320312 C 219.027344 438.996094 219.648438 438.703125 220.28125 438.441406 C 220.917969 438.175781 221.566406 437.945312 222.222656 437.746094 C 222.882812 437.546875 223.546875 437.378906 224.222656 437.246094 C 224.898438 437.109375 225.578125 437.007812 226.261719 436.941406 C 226.945312 436.875 227.632812 436.839844 228.320312 436.839844 C 229.007812 436.839844 229.695312 436.875 230.378906 436.941406 C 231.0625 437.007812 231.742188 437.109375 232.417969 437.246094 C 233.09375 437.378906 233.757812 437.546875 234.417969 437.746094 C 235.074219 437.945312 235.722656 438.175781 236.355469 438.441406 C 236.992188 438.703125 237.613281 438.996094 238.21875 439.320312 C 238.828125 439.644531 239.417969 440 239.988281 440.378906 C 240.558594 440.761719 241.113281 441.171875 241.644531 441.609375 C 242.175781 442.042969 242.683594 442.507812 243.171875 442.992188 C 243.65625 443.480469 244.117188 443.988281 244.554688 444.519531 C 244.992188 445.050781 245.402344 445.601562 245.78125 446.175781 C 246.164062 446.746094 246.519531 447.335938 246.84375 447.941406 C 247.167969 448.550781 247.460938 449.171875 247.722656 449.804688 C 247.988281 450.441406 248.21875 451.089844 248.417969 451.746094 C 248.617188 452.40625 248.785156 453.070312 248.917969 453.746094 C 249.054688 454.421875 249.152344 455.101562 249.222656 455.785156 C 249.289062 456.46875 249.324219 457.15625 249.324219 457.84375 Z M 249.324219 457.84375 " fill-opacity="1" fill-rule="nonzero"/></g><g fill="#000000" fill-opacity="1"><g transform="translate(83.25239, 592.076413)"><g><path d="M 25.328125 -15.390625 L 55.765625 -15.390625 L 55.765625 0 L 8.734375 0 L 8.734375 -76.40625 L 54.578125 -76.40625 L 54.578125 -61.125 L 25.328125 -61.125 L 25.328125 -46.0625 L 51.734375 -46.0625 L 51.734375 -31.109375 L 25.328125 -31.109375 Z M 25.328125 -15.390625 "/></g></g></g><g fill="#000000" fill-opacity="1"><g transform="translate(144.25703, 592.076413)"><g><path d="M 57.625 -27.5 L 57.625 -13.96875 L 51.296875 -13.96875 L 51.296875 0 L 36.671875 0 L 36.671875 -13.96875 L 1.859375 -13.96875 L 1.859375 -16.703125 L 25.75 -72.578125 L 41.140625 -72.578125 L 21.828125 -27.5 L 37.109375 -27.5 L 39.625 -44.859375 L 51.296875 -44.859375 L 51.296875 -27.5 Z M 57.625 -27.5 "/></g></g></g><path stroke-linecap="butt" transform="matrix(0.75, 0.000000000000001088, -0.000000000000001088, 0.75, 212.789513, 549.1132)" fill="none" stroke-linejoin="miter" d="M -0.000600823 17.500109 L 235.113994 17.500109 " stroke="#000000" stroke-width="35" stroke-opacity="1" stroke-miterlimit="4"/><g clip-path="url(#1a07e72e11)"><path fill="#000000" d="M 249.324219 562.390625 C 249.324219 563.078125 249.289062 563.765625 249.222656 564.449219 C 249.152344 565.132812 249.054688 565.8125 248.917969 566.488281 C 248.785156 567.160156 248.617188 567.828125 248.417969 568.488281 C 248.21875 569.144531 247.988281 569.792969 247.722656 570.425781 C 247.460938 571.0625 247.167969 571.683594 246.84375 572.289062 C 246.519531 572.898438 246.164062 573.488281 245.78125 574.058594 C 245.402344 574.628906 244.992188 575.183594 244.554688 575.714844 C 244.117188 576.246094 243.65625 576.753906 243.171875 577.242188 C 242.683594 577.726562 242.175781 578.1875 241.644531 578.625 C 241.113281 579.0625 240.558594 579.472656 239.988281 579.851562 C 239.417969 580.234375 238.828125 580.589844 238.21875 580.914062 C 237.613281 581.238281 236.992188 581.53125 236.355469 581.792969 C 235.722656 582.058594 235.074219 582.289062 234.417969 582.488281 C 233.757812 582.6875 233.09375 582.855469 232.417969 582.988281 C 231.742188 583.125 231.0625 583.222656 230.378906 583.292969 C 229.695312 583.359375 229.007812 583.394531 228.320312 583.394531 C 227.632812 583.394531 226.945312 583.359375 226.261719 583.292969 C 225.578125 583.222656 224.898438 583.125 224.222656 582.988281 C 223.546875 582.855469 222.882812 582.6875 222.222656 582.488281 C 221.566406 582.289062 220.917969 582.058594 220.28125 581.792969 C 219.648438 581.53125 219.027344 581.238281 218.417969 580.914062 C 217.8125 580.589844 217.222656 580.234375 216.652344 579.851562 C 216.078125 579.472656 215.527344 579.0625 214.996094 578.625 C 214.464844 578.1875 213.953125 577.726562 213.46875 577.242188 C 212.980469 576.753906 212.519531 576.246094 212.085938 575.714844 C 211.648438 575.183594 211.238281 574.628906 210.855469 574.058594 C 210.472656 573.488281 210.121094 572.898438 209.796875 572.289062 C 209.472656 571.683594 209.179688 571.0625 208.914062 570.425781 C 208.652344 569.792969 208.421875 569.144531 208.222656 568.488281 C 208.023438 567.828125 207.855469 567.160156 207.71875 566.488281 C 207.585938 565.8125 207.484375 565.132812 207.417969 564.449219 C 207.351562 563.765625 207.316406 563.078125 207.316406 562.390625 C 207.316406 561.703125 207.351562 561.015625 207.417969 560.332031 C 207.484375 559.648438 207.585938 558.96875 207.71875 558.292969 C 207.855469 557.617188 208.023438 556.953125 208.222656 556.292969 C 208.421875 555.636719 208.652344 554.988281 208.914062 554.351562 C 209.179688 553.71875 209.472656 553.097656 209.796875 552.488281 C 210.121094 551.882812 210.472656 551.292969 210.855469 550.722656 C 211.238281 550.148438 211.648438 549.597656 212.085938 549.066406 C 212.519531 548.535156 212.980469 548.023438 213.46875 547.539062 C 213.953125 547.050781 214.464844 546.589844 214.996094 546.15625 C 215.527344 545.71875 216.078125 545.308594 216.652344 544.925781 C 217.222656 544.542969 217.8125 544.191406 218.417969 543.867188 C 219.027344 543.542969 219.648438 543.25 220.28125 542.984375 C 220.917969 542.722656 221.566406 542.492188 222.222656 542.292969 C 222.882812 542.09375 223.546875 541.925781 224.222656 541.789062 C 224.898438 541.65625 225.578125 541.554688 226.261719 541.488281 C 226.945312 541.421875 227.632812 541.386719 228.320312 541.386719 C 229.007812 541.386719 229.695312 541.421875 230.378906 541.488281 C 231.0625 541.554688 231.742188 541.65625 232.417969 541.789062 C 233.09375 541.925781 233.757812 542.09375 234.417969 542.292969 C 235.074219 542.492188 235.722656 542.722656 236.355469 542.984375 C 236.992188 543.25 237.613281 543.542969 238.21875 543.867188 C 238.828125 544.191406 239.417969 544.542969 239.988281 544.925781 C 240.558594 545.308594 241.113281 545.71875 241.644531 546.15625 C 242.175781 546.589844 242.683594 547.050781 243.171875 547.539062 C 243.65625 548.023438 244.117188 548.535156 244.554688 549.066406 C 244.992188 549.597656 245.402344 550.148438 245.78125 550.722656 C 246.164062 551.292969 246.519531 551.882812 246.84375 552.488281 C 247.167969 553.097656 247.460938 553.71875 247.722656 554.351562 C 247.988281 554.988281 248.21875 555.636719 248.417969 556.292969 C 248.617188 556.953125 248.785156 557.617188 248.917969 558.292969 C 249.054688 558.96875 249.152344 559.648438 249.222656 560.332031 C 249.289062 561.015625 249.324219 561.703125 249.324219 562.390625 Z M 249.324219 562.390625 " fill-opacity="1" fill-rule="nonzero"/></g><path stroke-linecap="butt" transform="matrix(0.75, 0, 0, 0.75, 807.224846, 391.875)" fill="none" stroke-linejoin="miter" d="M 0.00228918 17.500001 L 248.247093 17.500001 " stroke="#000000" stroke-width="35" stroke-opacity="1" stroke-miterlimit="4"/><g clip-path="url(#f238e3b427)"><path fill="#000000" d="M 1002.253906 405.152344 C 1002.253906 405.839844 1002.21875 406.527344 1002.152344 407.210938 C 1002.082031 407.894531 1001.984375 408.574219 1001.847656 409.25 C 1001.714844 409.921875 1001.546875 410.589844 1001.347656 411.25 C 1001.148438 411.90625 1000.917969 412.554688 1000.652344 413.1875 C 1000.390625 413.824219 1000.097656 414.445312 999.773438 415.050781 C 999.449219 415.660156 999.09375 416.25 998.710938 416.820312 C 998.332031 417.390625 997.921875 417.945312 997.484375 418.476562 C 997.046875 419.007812 996.585938 419.515625 996.101562 420.003906 C 995.613281 420.488281 995.105469 420.949219 994.574219 421.386719 C 994.042969 421.824219 993.488281 422.234375 992.917969 422.613281 C 992.347656 422.996094 991.757812 423.351562 991.148438 423.675781 C 990.542969 424 989.921875 424.292969 989.285156 424.554688 C 988.652344 424.820312 988.003906 425.050781 987.347656 425.25 C 986.6875 425.449219 986.023438 425.617188 985.347656 425.75 C 984.671875 425.886719 983.992188 425.984375 983.308594 426.054688 C 982.625 426.121094 981.9375 426.15625 981.25 426.15625 C 980.5625 426.15625 979.875 426.121094 979.191406 426.054688 C 978.507812 425.984375 977.828125 425.886719 977.152344 425.75 C 976.476562 425.617188 975.8125 425.449219 975.152344 425.25 C 974.496094 425.050781 973.847656 424.820312 973.210938 424.554688 C 972.578125 424.292969 971.957031 424 971.347656 423.675781 C 970.742188 423.351562 970.152344 422.996094 969.582031 422.613281 C 969.007812 422.234375 968.457031 421.824219 967.925781 421.386719 C 967.394531 420.949219 966.886719 420.488281 966.398438 420.003906 C 965.914062 419.515625 965.449219 419.007812 965.015625 418.476562 C 964.578125 417.945312 964.167969 417.390625 963.785156 416.820312 C 963.40625 416.25 963.050781 415.660156 962.726562 415.050781 C 962.402344 414.445312 962.109375 413.824219 961.847656 413.1875 C 961.582031 412.554688 961.351562 411.90625 961.152344 411.25 C 960.953125 410.589844 960.785156 409.921875 960.652344 409.25 C 960.515625 408.574219 960.414062 407.894531 960.347656 407.210938 C 960.28125 406.527344 960.246094 405.839844 960.246094 405.152344 C 960.246094 404.464844 960.28125 403.777344 960.347656 403.09375 C 960.414062 402.410156 960.515625 401.730469 960.652344 401.054688 C 960.785156 400.378906 960.953125 399.714844 961.152344 399.054688 C 961.351562 398.398438 961.582031 397.75 961.847656 397.113281 C 962.109375 396.480469 962.402344 395.859375 962.726562 395.25 C 963.050781 394.644531 963.40625 394.054688 963.785156 393.484375 C 964.167969 392.910156 964.578125 392.359375 965.015625 391.828125 C 965.449219 391.296875 965.914062 390.785156 966.398438 390.300781 C 966.886719 389.8125 967.394531 389.351562 967.925781 388.917969 C 968.457031 388.480469 969.007812 388.070312 969.582031 387.6875 C 970.152344 387.304688 970.742188 386.953125 971.347656 386.628906 C 971.957031 386.304688 972.578125 386.011719 973.210938 385.746094 C 973.847656 385.484375 974.496094 385.253906 975.152344 385.054688 C 975.8125 384.855469 976.476562 384.6875 977.152344 384.550781 C 977.828125 384.417969 978.507812 384.316406 979.191406 384.25 C 979.875 384.183594 980.5625 384.148438 981.25 384.148438 C 981.9375 384.148438 982.625 384.183594 983.308594 384.25 C 983.992188 384.316406 984.671875 384.417969 985.347656 384.550781 C 986.023438 384.6875 986.6875 384.855469 987.347656 385.054688 C 988.003906 385.253906 988.652344 385.484375 989.285156 385.746094 C 989.921875 386.011719 990.542969 386.304688 991.148438 386.628906 C 991.757812 386.953125 992.347656 387.304688 992.917969 387.6875 C 993.488281 388.070312 994.042969 388.480469 994.574219 388.917969 C 995.105469 389.351562 995.613281 389.8125 996.101562 390.300781 C 996.585938 390.785156 997.046875 391.296875 997.484375 391.828125 C 997.921875 392.359375 998.332031 392.910156 998.710938 393.484375 C 999.09375 394.054688 999.449219 394.644531 999.773438 395.25 C 1000.097656 395.859375 1000.390625 396.480469 1000.652344 397.113281 C 1000.917969 397.75 1001.148438 398.398438 1001.347656 399.054688 C 1001.546875 399.714844 1001.714844 400.378906 1001.847656 401.054688 C 1001.984375 401.730469 1002.082031 402.410156 1002.152344 403.09375 C 1002.21875 403.777344 1002.253906 404.464844 1002.253906 405.152344 Z M 1002.253906 405.152344 " fill-opacity="1" fill-rule="nonzero"/></g></svg>