<svg xmlns="http://www.w3.org/2000/svg" xmlns:xlink="http://www.w3.org/1999/xlink" width="1920" zoomAndPan="magnify" viewBox="0 0 1440 809.999993" height="1080" preserveAspectRatio="xMidYMid meet" version="1.0"><defs><g/><clipPath id="c49b0ee6e0"><path d="M 373 211.742188 L 819 211.742188 L 819 597.988281 L 373 597.988281 Z M 373 211.742188 " clip-rule="nonzero"/></clipPath><clipPath id="32d5a0fa51"><path d="M 397.152344 211.742188 L 668.4375 211.742188 C 695.003906 211.742188 719.667969 225.523438 733.589844 248.148438 L 807.710938 368.589844 C 821.449219 390.917969 821.449219 419.078125 807.710938 441.40625 L 733.589844 561.847656 C 719.667969 584.472656 695.003906 598.253906 668.4375 598.253906 L 397.152344 598.253906 C 388.5 598.253906 380.519531 593.574219 376.300781 586.019531 C 372.078125 578.464844 372.273438 569.21875 376.808594 561.847656 L 450.925781 441.40625 C 464.667969 419.078125 464.667969 390.917969 450.925781 368.589844 L 376.808594 248.148438 C 372.273438 240.777344 372.078125 231.53125 376.300781 223.976562 C 380.519531 216.421875 388.5 211.742188 397.152344 211.742188 Z M 397.152344 211.742188 " clip-rule="nonzero"/></clipPath><clipPath id="633eba4f67"><path d="M 960.25 384.148438 L 1002.25 384.148438 L 1002.25 426.148438 L 960.25 426.148438 Z M 960.25 384.148438 " clip-rule="nonzero"/></clipPath><clipPath id="bd96906605"><path d="M 204.515625 210.199219 L 245.015625 210.199219 L 245.015625 250.699219 L 204.515625 250.699219 Z M 204.515625 210.199219 " clip-rule="nonzero"/></clipPath><clipPath id="55eae709bc"><path d="M 204.515625 297.101562 L 245.015625 297.101562 L 245.015625 337.601562 L 204.515625 337.601562 Z M 204.515625 297.101562 " clip-rule="nonzero"/></clipPath><clipPath id="a17b780958"><path d="M 204.515625 383.546875 L 245.015625 383.546875 L 245.015625 424.046875 L 204.515625 424.046875 Z M 204.515625 383.546875 " clip-rule="nonzero"/></clipPath><clipPath id="857af3ec6d"><path d="M 204.515625 470.21875 L 245.015625 470.21875 L 245.015625 510.71875 L 204.515625 510.71875 Z M 204.515625 470.21875 " clip-rule="nonzero"/></clipPath><clipPath id="e3e692dc3e"><path d="M 204.515625 556.890625 L 245.015625 556.890625 L 245.015625 597.390625 L 204.515625 597.390625 Z M 204.515625 556.890625 " clip-rule="nonzero"/></clipPath></defs><g clip-path="url(#c49b0ee6e0)"><g clip-path="url(#32d5a0fa51)"><path stroke-linecap="butt" transform="matrix(0.75, 0, 0, 0.75, 354.403582, 211.740449)" fill="none" stroke-linejoin="miter" d="M 56.998352 0.0023186 L 418.711912 0.0023186 C 454.133789 0.0023186 487.019207 18.37732 505.581708 48.543988 L 604.409838 209.132537 C 622.727547 238.903372 622.727547 276.450249 604.409838 306.221084 L 505.581708 466.809634 C 487.019207 496.976302 454.133789 515.351303 418.711912 515.351303 L 56.998352 515.351303 C 45.461893 515.351303 34.821267 509.111719 29.196267 499.038802 C 23.566059 488.965885 23.826475 476.637759 29.873351 466.809634 L 128.696272 306.221084 C 147.01919 276.450249 147.01919 238.903372 128.696272 209.132537 L 29.873351 48.543988 C 23.826475 38.715862 23.566059 26.387737 29.196267 16.314819 C 34.821267 6.241902 45.461893 0.0023186 56.998352 0.0023186 Z M 56.998352 0.0023186 " stroke="#000000" stroke-width="60" stroke-opacity="1" stroke-miterlimit="4"/></g></g><g fill="#000000" fill-opacity="1"><g transform="translate(1002.86512, 434.234295)"><g><path d="M 34.046875 1.53125 C 28.234375 1.53125 23.101562 0.476562 18.65625 -1.625 C 14.21875 -3.738281 10.742188 -6.757812 8.234375 -10.6875 C 5.722656 -14.625 4.46875 -19.320312 4.46875 -24.78125 L 21.171875 -24.78125 C 21.171875 -21.0625 22.460938 -18.3125 25.046875 -16.53125 C 27.628906 -14.75 30.59375 -13.859375 33.9375 -13.859375 C 36.050781 -13.859375 38.035156 -14.203125 39.890625 -14.890625 C 41.742188 -15.585938 43.269531 -16.609375 44.46875 -17.953125 C 45.675781 -19.296875 46.28125 -20.914062 46.28125 -22.8125 C 46.28125 -24.769531 45.585938 -26.3125 44.203125 -27.4375 C 42.816406 -28.570312 40.957031 -29.503906 38.625 -30.234375 C 36.300781 -30.960938 33.757812 -31.65625 31 -32.3125 C 28.15625 -32.957031 25.242188 -33.753906 22.265625 -34.703125 C 19.285156 -35.648438 16.519531 -36.90625 13.96875 -38.46875 C 11.425781 -40.03125 9.390625 -42.140625 7.859375 -44.796875 C 6.328125 -47.453125 5.5625 -50.816406 5.5625 -54.890625 C 5.5625 -62.242188 8.050781 -67.898438 13.03125 -71.859375 C 18.019531 -75.828125 24.769531 -77.8125 33.28125 -77.8125 C 42.019531 -77.8125 48.789062 -75.609375 53.59375 -71.203125 C 58.394531 -66.804688 60.796875 -60.828125 60.796875 -53.265625 L 44.421875 -53.265625 C 44.421875 -56.535156 43.253906 -58.953125 40.921875 -60.515625 C 38.597656 -62.078125 35.90625 -62.859375 32.84375 -62.859375 C 30.15625 -62.859375 27.679688 -62.273438 25.421875 -61.109375 C 23.171875 -59.953125 22.046875 -58.132812 22.046875 -55.65625 C 22.046875 -53.84375 22.71875 -52.40625 24.0625 -51.34375 C 25.40625 -50.289062 27.1875 -49.414062 29.40625 -48.71875 C 31.632812 -48.03125 34.09375 -47.363281 36.78125 -46.71875 C 39.6875 -45.988281 42.664062 -45.128906 45.71875 -44.140625 C 48.78125 -43.160156 51.617188 -41.832031 54.234375 -40.15625 C 56.859375 -38.488281 58.988281 -36.269531 60.625 -33.5 C 62.257812 -30.738281 63.078125 -27.25 63.078125 -23.03125 C 63.078125 -17.5 61.75 -12.910156 59.09375 -9.265625 C 56.4375 -5.628906 52.925781 -2.921875 48.5625 -1.140625 C 44.195312 0.640625 39.359375 1.53125 34.046875 1.53125 Z M 34.046875 1.53125 "/></g></g><g transform="translate(1070.423658, 434.234295)"><g><path d="M 55.765625 -59.046875 L 67.671875 -59.046875 L 67.671875 -0.109375 L 55.109375 -0.109375 L 53.8125 -5.34375 C 51.257812 -3.164062 48.363281 -1.457031 45.125 -0.21875 C 41.882812 1.019531 38.410156 1.640625 34.703125 1.640625 C 28.804688 1.640625 23.53125 0.273438 18.875 -2.453125 C 14.21875 -5.179688 10.539062 -8.890625 7.84375 -13.578125 C 5.15625 -18.273438 3.8125 -23.609375 3.8125 -29.578125 C 3.8125 -35.472656 5.15625 -40.765625 7.84375 -45.453125 C 10.539062 -50.148438 14.21875 -53.84375 18.875 -56.53125 C 23.53125 -59.226562 28.804688 -60.578125 34.703125 -60.578125 C 38.484375 -60.578125 42.007812 -59.9375 45.28125 -58.65625 C 48.5625 -57.382812 51.476562 -55.625 54.03125 -53.375 Z M 36.015625 -13.421875 C 39.066406 -13.421875 41.8125 -14.113281 44.25 -15.5 C 46.6875 -16.882812 48.597656 -18.796875 49.984375 -21.234375 C 51.367188 -23.671875 52.0625 -26.453125 52.0625 -29.578125 C 52.0625 -32.628906 51.367188 -35.375 49.984375 -37.8125 C 48.597656 -40.25 46.6875 -42.175781 44.25 -43.59375 C 41.8125 -45.019531 39.066406 -45.734375 36.015625 -45.734375 C 32.890625 -45.734375 30.125 -45.019531 27.71875 -43.59375 C 25.320312 -42.175781 23.429688 -40.25 22.046875 -37.8125 C 20.660156 -35.375 19.96875 -32.628906 19.96875 -29.578125 C 19.96875 -26.453125 20.660156 -23.6875 22.046875 -21.28125 C 23.429688 -18.882812 25.320312 -16.972656 27.71875 -15.546875 C 30.125 -14.128906 32.890625 -13.421875 36.015625 -13.421875 Z M 36.015625 -13.421875 "/></g></g><g transform="translate(1145.731237, 434.234295)"><g><path d="M 7.640625 0 L 7.640625 -80.21875 L 23.578125 -80.21875 L 23.578125 0 Z M 7.640625 0 "/></g></g></g><g fill="#000000" fill-opacity="1"><g transform="translate(1176.945668, 434.234295)"><g><path d="M 7.640625 -66.796875 L 7.640625 -81.640625 L 23.578125 -81.640625 L 23.578125 -66.796875 Z M 7.640625 0 L 7.640625 -58.9375 L 23.578125 -58.9375 L 23.578125 0 Z M 7.640625 0 "/></g></g></g><g fill="#000000" fill-opacity="1"><g transform="translate(1208.160096, 434.234295)"><g><path d="M 50.96875 -80.21875 L 66.90625 -80.21875 L 66.90625 0 L 55.109375 0 L 53.265625 -4.90625 C 50.785156 -2.800781 47.976562 -1.164062 44.84375 0 C 41.71875 1.164062 38.375 1.75 34.8125 1.75 C 28.84375 1.75 23.507812 0.382812 18.8125 -2.34375 C 14.125 -5.070312 10.453125 -8.78125 7.796875 -13.46875 C 5.140625 -18.164062 3.8125 -23.5 3.8125 -29.46875 C 3.8125 -35.4375 5.140625 -40.765625 7.796875 -45.453125 C 10.453125 -50.148438 14.125 -53.84375 18.8125 -56.53125 C 23.507812 -59.226562 28.84375 -60.578125 34.8125 -60.578125 C 37.800781 -60.578125 40.65625 -60.15625 43.375 -59.3125 C 46.101562 -58.476562 48.632812 -57.296875 50.96875 -55.765625 Z M 36.015625 -13.3125 C 39.140625 -13.3125 41.898438 -14.019531 44.296875 -15.4375 C 46.703125 -16.863281 48.613281 -18.796875 50.03125 -21.234375 C 51.457031 -23.671875 52.171875 -26.414062 52.171875 -29.46875 C 52.171875 -32.519531 51.457031 -35.265625 50.03125 -37.703125 C 48.613281 -40.140625 46.703125 -42.066406 44.296875 -43.484375 C 41.898438 -44.910156 39.140625 -45.625 36.015625 -45.625 C 32.960938 -45.625 30.234375 -44.910156 27.828125 -43.484375 C 25.429688 -42.066406 23.519531 -40.140625 22.09375 -37.703125 C 20.675781 -35.265625 19.96875 -32.519531 19.96875 -29.46875 C 19.96875 -26.414062 20.675781 -23.671875 22.09375 -21.234375 C 23.519531 -18.796875 25.429688 -16.863281 27.828125 -15.4375 C 30.234375 -14.019531 32.960938 -13.3125 36.015625 -13.3125 Z M 36.015625 -13.3125 "/></g></g><g transform="translate(1282.703685, 434.234295)"><g><path d="M 55.765625 -59.046875 L 67.671875 -59.046875 L 67.671875 -0.109375 L 55.109375 -0.109375 L 53.8125 -5.34375 C 51.257812 -3.164062 48.363281 -1.457031 45.125 -0.21875 C 41.882812 1.019531 38.410156 1.640625 34.703125 1.640625 C 28.804688 1.640625 23.53125 0.273438 18.875 -2.453125 C 14.21875 -5.179688 10.539062 -8.890625 7.84375 -13.578125 C 5.15625 -18.273438 3.8125 -23.609375 3.8125 -29.578125 C 3.8125 -35.472656 5.15625 -40.765625 7.84375 -45.453125 C 10.539062 -50.148438 14.21875 -53.84375 18.875 -56.53125 C 23.53125 -59.226562 28.804688 -60.578125 34.703125 -60.578125 C 38.484375 -60.578125 42.007812 -59.9375 45.28125 -58.65625 C 48.5625 -57.382812 51.476562 -55.625 54.03125 -53.375 Z M 36.015625 -13.421875 C 39.066406 -13.421875 41.8125 -14.113281 44.25 -15.5 C 46.6875 -16.882812 48.597656 -18.796875 49.984375 -21.234375 C 51.367188 -23.671875 52.0625 -26.453125 52.0625 -29.578125 C 52.0625 -32.628906 51.367188 -35.375 49.984375 -37.8125 C 48.597656 -40.25 46.6875 -42.175781 44.25 -43.59375 C 41.8125 -45.019531 39.066406 -45.734375 36.015625 -45.734375 C 32.890625 -45.734375 30.125 -45.019531 27.71875 -43.59375 C 25.320312 -42.175781 23.429688 -40.25 22.046875 -37.8125 C 20.660156 -35.375 19.96875 -32.628906 19.96875 -29.578125 C 19.96875 -26.453125 20.660156 -23.6875 22.046875 -21.28125 C 23.429688 -18.882812 25.320312 -16.972656 27.71875 -15.546875 C 30.125 -14.128906 32.890625 -13.421875 36.015625 -13.421875 Z M 36.015625 -13.421875 "/></g></g></g><path stroke-linecap="butt" transform="matrix(0.75, 0, 0, 0.75, 807.224846, 391.875)" fill="none" stroke-linejoin="miter" d="M 0.00228918 17.500001 L 248.247093 17.500001 " stroke="#000000" stroke-width="35" stroke-opacity="1" stroke-miterlimit="4"/><g clip-path="url(#633eba4f67)"><path fill="#000000" d="M 1002.253906 405.152344 C 1002.253906 405.839844 1002.21875 406.527344 1002.152344 407.210938 C 1002.082031 407.894531 1001.984375 408.574219 1001.847656 409.25 C 1001.714844 409.921875 1001.546875 410.589844 1001.347656 411.25 C 1001.148438 411.90625 1000.917969 412.554688 1000.652344 413.1875 C 1000.390625 413.824219 1000.097656 414.445312 999.773438 415.050781 C 999.449219 415.660156 999.09375 416.25 998.710938 416.820312 C 998.332031 417.390625 997.921875 417.945312 997.484375 418.476562 C 997.046875 419.007812 996.585938 419.515625 996.101562 420.003906 C 995.613281 420.488281 995.105469 420.949219 994.574219 421.386719 C 994.042969 421.824219 993.488281 422.234375 992.917969 422.613281 C 992.347656 422.996094 991.757812 423.351562 991.148438 423.675781 C 990.542969 424 989.921875 424.292969 989.285156 424.554688 C 988.652344 424.820312 988.003906 425.050781 987.347656 425.25 C 986.6875 425.449219 986.023438 425.617188 985.347656 425.75 C 984.671875 425.886719 983.992188 425.984375 983.308594 426.054688 C 982.625 426.121094 981.9375 426.15625 981.25 426.15625 C 980.5625 426.15625 979.875 426.121094 979.191406 426.054688 C 978.507812 425.984375 977.828125 425.886719 977.152344 425.75 C 976.476562 425.617188 975.8125 425.449219 975.152344 425.25 C 974.496094 425.050781 973.847656 424.820312 973.210938 424.554688 C 972.578125 424.292969 971.957031 424 971.347656 423.675781 C 970.742188 423.351562 970.152344 422.996094 969.582031 422.613281 C 969.007812 422.234375 968.457031 421.824219 967.925781 421.386719 C 967.394531 420.949219 966.886719 420.488281 966.398438 420.003906 C 965.914062 419.515625 965.449219 419.007812 965.015625 418.476562 C 964.578125 417.945312 964.167969 417.390625 963.785156 416.820312 C 963.40625 416.25 963.050781 415.660156 962.726562 415.050781 C 962.402344 414.445312 962.109375 413.824219 961.847656 413.1875 C 961.582031 412.554688 961.351562 411.90625 961.152344 411.25 C 960.953125 410.589844 960.785156 409.921875 960.652344 409.25 C 960.515625 408.574219 960.414062 407.894531 960.347656 407.210938 C 960.28125 406.527344 960.246094 405.839844 960.246094 405.152344 C 960.246094 404.464844 960.28125 403.777344 960.347656 403.09375 C 960.414062 402.410156 960.515625 401.730469 960.652344 401.054688 C 960.785156 400.378906 960.953125 399.714844 961.152344 399.054688 C 961.351562 398.398438 961.582031 397.75 961.847656 397.113281 C 962.109375 396.480469 962.402344 395.859375 962.726562 395.25 C 963.050781 394.644531 963.40625 394.054688 963.785156 393.484375 C 964.167969 392.910156 964.578125 392.359375 965.015625 391.828125 C 965.449219 391.296875 965.914062 390.785156 966.398438 390.300781 C 966.886719 389.8125 967.394531 389.351562 967.925781 388.917969 C 968.457031 388.480469 969.007812 388.070312 969.582031 387.6875 C 970.152344 387.304688 970.742188 386.953125 971.347656 386.628906 C 971.957031 386.304688 972.578125 386.011719 973.210938 385.746094 C 973.847656 385.484375 974.496094 385.253906 975.152344 385.054688 C 975.8125 384.855469 976.476562 384.6875 977.152344 384.550781 C 977.828125 384.417969 978.507812 384.316406 979.191406 384.25 C 979.875 384.183594 980.5625 384.148438 981.25 384.148438 C 981.9375 384.148438 982.625 384.183594 983.308594 384.25 C 983.992188 384.316406 984.671875 384.417969 985.347656 384.550781 C 986.023438 384.6875 986.6875 384.855469 987.347656 385.054688 C 988.003906 385.253906 988.652344 385.484375 989.285156 385.746094 C 989.921875 386.011719 990.542969 386.304688 991.148438 386.628906 C 991.757812 386.953125 992.347656 387.304688 992.917969 387.6875 C 993.488281 388.070312 994.042969 388.480469 994.574219 388.917969 C 995.105469 389.351562 995.613281 389.8125 996.101562 390.300781 C 996.585938 390.785156 997.046875 391.296875 997.484375 391.828125 C 997.921875 392.359375 998.332031 392.910156 998.710938 393.484375 C 999.09375 394.054688 999.449219 394.644531 999.773438 395.25 C 1000.097656 395.859375 1000.390625 396.480469 1000.652344 397.113281 C 1000.917969 397.75 1001.148438 398.398438 1001.347656 399.054688 C 1001.546875 399.714844 1001.714844 400.378906 1001.847656 401.054688 C 1001.984375 401.730469 1002.082031 402.410156 1002.152344 403.09375 C 1002.21875 403.777344 1002.253906 404.464844 1002.253906 405.152344 Z M 1002.253906 405.152344 " fill-opacity="1" fill-rule="nonzero"/></g><g fill="#000000" fill-opacity="1"><g transform="translate(94.857891, 259.254149)"><g><path d="M 24.5 -14.890625 L 53.96875 -14.890625 L 53.96875 0 L 8.453125 0 L 8.453125 -73.921875 L 52.8125 -73.921875 L 52.8125 -59.140625 L 24.5 -59.140625 L 24.5 -44.5625 L 50.0625 -44.5625 L 50.0625 -30.09375 L 24.5 -30.09375 Z M 24.5 -14.890625 "/></g></g></g><g fill="#000000" fill-opacity="1"><g transform="translate(153.893483, 259.254149)"><g><path d="M 3.59375 -70.234375 L 29.359375 -70.234375 L 29.359375 0 L 14.578125 0 L 14.578125 -57.03125 L 3.59375 -57.03125 Z M 3.59375 -70.234375 "/></g></g></g><path stroke-linecap="butt" transform="matrix(0.75, 0.00000000000000075, -0.00000000000000075, 0.75, 209.807691, 217.629151)" fill="none" stroke-linejoin="miter" d="M 0.00120384 16.999675 L 227.522049 16.999675 " stroke="#000000" stroke-width="34" stroke-opacity="1" stroke-miterlimit="4"/><g clip-path="url(#bd96906605)"><path fill="#000000" d="M 245.015625 230.453125 C 245.015625 231.117188 244.984375 231.777344 244.917969 232.4375 C 244.855469 233.097656 244.757812 233.753906 244.628906 234.40625 C 244.5 235.054688 244.335938 235.699219 244.144531 236.332031 C 243.953125 236.96875 243.730469 237.589844 243.476562 238.203125 C 243.222656 238.816406 242.9375 239.414062 242.625 240 C 242.3125 240.585938 241.972656 241.152344 241.605469 241.707031 C 241.234375 242.257812 240.839844 242.789062 240.421875 243.300781 C 240 243.816406 239.554688 244.304688 239.085938 244.773438 C 238.617188 245.242188 238.125 245.6875 237.613281 246.109375 C 237.101562 246.53125 236.566406 246.925781 236.015625 247.292969 C 235.464844 247.660156 234.894531 248.003906 234.3125 248.316406 C 233.726562 248.628906 233.128906 248.910156 232.515625 249.164062 C 231.902344 249.417969 231.277344 249.640625 230.644531 249.835938 C 230.007812 250.027344 229.367188 250.1875 228.714844 250.316406 C 228.066406 250.445312 227.410156 250.542969 226.75 250.609375 C 226.089844 250.671875 225.429688 250.707031 224.765625 250.707031 C 224.101562 250.707031 223.441406 250.671875 222.78125 250.609375 C 222.121094 250.542969 221.464844 250.445312 220.8125 250.316406 C 220.164062 250.1875 219.519531 250.027344 218.886719 249.835938 C 218.25 249.640625 217.628906 249.417969 217.015625 249.164062 C 216.402344 248.910156 215.800781 248.628906 215.21875 248.316406 C 214.632812 248.003906 214.0625 247.660156 213.511719 247.292969 C 212.960938 246.925781 212.429688 246.53125 211.917969 246.109375 C 211.402344 245.6875 210.914062 245.242188 210.445312 244.773438 C 209.976562 244.304688 209.53125 243.816406 209.109375 243.300781 C 208.6875 242.789062 208.292969 242.257812 207.925781 241.707031 C 207.554688 241.152344 207.214844 240.585938 206.902344 240 C 206.589844 239.414062 206.308594 238.816406 206.054688 238.203125 C 205.800781 237.589844 205.578125 236.96875 205.382812 236.332031 C 205.191406 235.699219 205.03125 235.054688 204.902344 234.40625 C 204.773438 233.753906 204.675781 233.097656 204.609375 232.4375 C 204.542969 231.777344 204.511719 231.117188 204.511719 230.453125 C 204.511719 229.789062 204.542969 229.128906 204.609375 228.46875 C 204.675781 227.808594 204.773438 227.152344 204.902344 226.503906 C 205.03125 225.851562 205.191406 225.210938 205.382812 224.574219 C 205.578125 223.941406 205.800781 223.316406 206.054688 222.703125 C 206.308594 222.089844 206.589844 221.492188 206.902344 220.90625 C 207.214844 220.320312 207.554688 219.753906 207.925781 219.203125 C 208.292969 218.652344 208.6875 218.117188 209.109375 217.605469 C 209.53125 217.09375 209.976562 216.601562 210.445312 216.132812 C 210.914062 215.664062 211.402344 215.21875 211.917969 214.796875 C 212.429688 214.378906 212.960938 213.984375 213.511719 213.613281 C 214.0625 213.246094 214.632812 212.90625 215.21875 212.59375 C 215.800781 212.28125 216.402344 211.996094 217.015625 211.742188 C 217.628906 211.488281 218.25 211.265625 218.886719 211.074219 C 219.519531 210.878906 220.164062 210.71875 220.8125 210.589844 C 221.464844 210.460938 222.121094 210.363281 222.78125 210.296875 C 223.441406 210.234375 224.101562 210.199219 224.765625 210.199219 C 225.429688 210.199219 226.089844 210.234375 226.75 210.296875 C 227.410156 210.363281 228.066406 210.460938 228.714844 210.589844 C 229.367188 210.71875 230.007812 210.878906 230.644531 211.074219 C 231.277344 211.265625 231.902344 211.488281 232.515625 211.742188 C 233.128906 211.996094 233.726562 212.28125 234.3125 212.59375 C 234.894531 212.90625 235.464844 213.246094 236.015625 213.613281 C 236.566406 213.984375 237.101562 214.378906 237.613281 214.796875 C 238.125 215.21875 238.617188 215.664062 239.085938 216.132812 C 239.554688 216.601562 240 217.09375 240.421875 217.605469 C 240.839844 218.117188 241.234375 218.652344 241.605469 219.203125 C 241.972656 219.753906 242.3125 220.320312 242.625 220.90625 C 242.9375 221.492188 243.222656 222.089844 243.476562 222.703125 C 243.730469 223.316406 243.953125 223.941406 244.144531 224.574219 C 244.335938 225.210938 244.5 225.851562 244.628906 226.503906 C 244.757812 227.152344 244.855469 227.808594 244.917969 228.46875 C 244.984375 229.128906 245.015625 229.789062 245.015625 230.453125 Z M 245.015625 230.453125 " fill-opacity="1" fill-rule="nonzero"/></g><g fill="#000000" fill-opacity="1"><g transform="translate(84.93211, 345.926839)"><g><path d="M 24.5 -14.890625 L 53.96875 -14.890625 L 53.96875 0 L 8.453125 0 L 8.453125 -73.921875 L 52.8125 -73.921875 L 52.8125 -59.140625 L 24.5 -59.140625 L 24.5 -44.5625 L 50.0625 -44.5625 L 50.0625 -30.09375 L 24.5 -30.09375 Z M 24.5 -14.890625 "/></g></g></g><g fill="#000000" fill-opacity="1"><g transform="translate(143.967702, 345.926839)"><g><path d="M 31.265625 -14.15625 L 52.703125 -14.15625 L 52.703125 0 L 3.484375 0 L 3.484375 -3.28125 C 9.253906 -9.96875 14.09375 -15.632812 18 -20.28125 C 21.914062 -24.925781 25.066406 -28.796875 27.453125 -31.890625 C 29.847656 -34.992188 31.675781 -37.582031 32.9375 -39.65625 C 34.207031 -41.726562 35.054688 -43.519531 35.484375 -45.03125 C 35.910156 -46.550781 36.125 -48.015625 36.125 -49.421875 C 36.125 -51.890625 35.382812 -53.863281 33.90625 -55.34375 C 32.425781 -56.820312 30.488281 -57.5625 28.09375 -57.5625 C 25.625 -57.5625 23.632812 -56.800781 22.125 -55.28125 C 20.613281 -53.769531 19.859375 -51.75 19.859375 -49.21875 L 19.859375 -47.953125 L 4.75 -47.953125 L 4.75 -49.421875 C 4.75 -53.722656 5.695312 -57.546875 7.59375 -60.890625 C 9.5 -64.234375 12.175781 -66.867188 15.625 -68.796875 C 19.082031 -70.734375 23.164062 -71.703125 27.875 -71.703125 C 32.457031 -71.703125 36.507812 -70.75 40.03125 -68.84375 C 43.550781 -66.945312 46.3125 -64.34375 48.3125 -61.03125 C 50.320312 -57.726562 51.328125 -53.929688 51.328125 -49.640625 C 51.328125 -47.453125 51.046875 -45.265625 50.484375 -43.078125 C 49.921875 -40.898438 48.914062 -38.472656 47.46875 -35.796875 C 46.03125 -33.117188 43.988281 -30.035156 41.34375 -26.546875 C 38.707031 -23.066406 35.347656 -18.9375 31.265625 -14.15625 Z M 31.265625 -14.15625 "/></g></g></g><path stroke-linecap="butt" transform="matrix(0.75, 0.000000000000000435, -0.000000000000000435, 0.75, 209.807691, 304.528598)" fill="none" stroke-linejoin="miter" d="M 0.00120384 16.998328 L 293.954344 16.998328 " stroke="#000000" stroke-width="34" stroke-opacity="1" stroke-miterlimit="4"/><g clip-path="url(#55eae709bc)"><path fill="#000000" d="M 245.015625 317.351562 C 245.015625 318.015625 244.984375 318.679688 244.917969 319.339844 C 244.855469 320 244.757812 320.652344 244.628906 321.304688 C 244.5 321.953125 244.335938 322.597656 244.144531 323.230469 C 243.953125 323.867188 243.730469 324.492188 243.476562 325.101562 C 243.222656 325.714844 242.9375 326.316406 242.625 326.898438 C 242.3125 327.484375 241.972656 328.054688 241.605469 328.605469 C 241.234375 329.15625 240.839844 329.6875 240.421875 330.199219 C 240 330.714844 239.554688 331.203125 239.085938 331.671875 C 238.617188 332.144531 238.125 332.585938 237.613281 333.007812 C 237.101562 333.429688 236.566406 333.824219 236.015625 334.191406 C 235.464844 334.5625 234.894531 334.902344 234.3125 335.214844 C 233.726562 335.527344 233.128906 335.808594 232.515625 336.0625 C 231.902344 336.316406 231.277344 336.542969 230.644531 336.734375 C 230.007812 336.925781 229.367188 337.085938 228.714844 337.214844 C 228.066406 337.347656 227.410156 337.441406 226.75 337.507812 C 226.089844 337.574219 225.429688 337.605469 224.765625 337.605469 C 224.101562 337.605469 223.441406 337.574219 222.78125 337.507812 C 222.121094 337.441406 221.464844 337.347656 220.8125 337.214844 C 220.164062 337.085938 219.519531 336.925781 218.886719 336.734375 C 218.25 336.542969 217.628906 336.316406 217.015625 336.0625 C 216.402344 335.808594 215.800781 335.527344 215.21875 335.214844 C 214.632812 334.902344 214.0625 334.5625 213.511719 334.191406 C 212.960938 333.824219 212.429688 333.429688 211.917969 333.007812 C 211.402344 332.585938 210.914062 332.144531 210.445312 331.671875 C 209.976562 331.203125 209.53125 330.714844 209.109375 330.199219 C 208.6875 329.6875 208.292969 329.15625 207.925781 328.605469 C 207.554688 328.054688 207.214844 327.484375 206.902344 326.898438 C 206.589844 326.316406 206.308594 325.714844 206.054688 325.101562 C 205.800781 324.492188 205.578125 323.867188 205.382812 323.230469 C 205.191406 322.597656 205.03125 321.953125 204.902344 321.304688 C 204.773438 320.652344 204.675781 320 204.609375 319.339844 C 204.542969 318.679688 204.511719 318.015625 204.511719 317.351562 C 204.511719 316.691406 204.542969 316.027344 204.609375 315.367188 C 204.675781 314.707031 204.773438 314.050781 204.902344 313.402344 C 205.03125 312.75 205.191406 312.109375 205.382812 311.472656 C 205.578125 310.839844 205.800781 310.214844 206.054688 309.601562 C 206.308594 308.988281 206.589844 308.390625 206.902344 307.804688 C 207.214844 307.222656 207.554688 306.652344 207.925781 306.101562 C 208.292969 305.550781 208.6875 305.019531 209.109375 304.503906 C 209.53125 303.992188 209.976562 303.5 210.445312 303.03125 C 210.914062 302.5625 211.402344 302.117188 211.917969 301.699219 C 212.429688 301.277344 212.960938 300.882812 213.511719 300.515625 C 214.0625 300.144531 214.632812 299.804688 215.21875 299.492188 C 215.800781 299.179688 216.402344 298.894531 217.015625 298.640625 C 217.628906 298.386719 218.25 298.164062 218.886719 297.972656 C 219.519531 297.78125 220.164062 297.617188 220.8125 297.488281 C 221.464844 297.359375 222.121094 297.261719 222.78125 297.199219 C 223.441406 297.132812 224.101562 297.101562 224.765625 297.101562 C 225.429688 297.101562 226.089844 297.132812 226.75 297.199219 C 227.410156 297.261719 228.066406 297.359375 228.714844 297.488281 C 229.367188 297.617188 230.007812 297.78125 230.644531 297.972656 C 231.277344 298.164062 231.902344 298.386719 232.515625 298.640625 C 233.128906 298.894531 233.726562 299.179688 234.3125 299.492188 C 234.894531 299.804688 235.464844 300.144531 236.015625 300.515625 C 236.566406 300.882812 237.101562 301.277344 237.613281 301.699219 C 238.125 302.117188 238.617188 302.5625 239.085938 303.03125 C 239.554688 303.5 240 303.992188 240.421875 304.503906 C 240.839844 305.019531 241.234375 305.550781 241.605469 306.101562 C 241.972656 306.652344 242.3125 307.222656 242.625 307.804688 C 242.9375 308.390625 243.222656 308.988281 243.476562 309.601562 C 243.730469 310.214844 243.953125 310.839844 244.144531 311.472656 C 244.335938 312.109375 244.5 312.75 244.628906 313.402344 C 244.757812 314.050781 244.855469 314.707031 244.917969 315.367188 C 244.984375 316.027344 245.015625 316.691406 245.015625 317.351562 Z M 245.015625 317.351562 " fill-opacity="1" fill-rule="nonzero"/></g><g fill="#000000" fill-opacity="1"><g transform="translate(84.768048, 432.59953)"><g><path d="M 24.5 -14.890625 L 53.96875 -14.890625 L 53.96875 0 L 8.453125 0 L 8.453125 -73.921875 L 52.8125 -73.921875 L 52.8125 -59.140625 L 24.5 -59.140625 L 24.5 -44.5625 L 50.0625 -44.5625 L 50.0625 -30.09375 L 24.5 -30.09375 Z M 24.5 -14.890625 "/></g></g></g><g fill="#000000" fill-opacity="1"><g transform="translate(143.80364, 432.59953)"><g><path d="M 36.328125 -44.25 C 41.535156 -43.125 45.707031 -40.609375 48.84375 -36.703125 C 51.976562 -32.796875 53.546875 -28.0625 53.546875 -22.5 C 53.546875 -17.914062 52.453125 -13.828125 50.265625 -10.234375 C 48.085938 -6.648438 45.128906 -3.835938 41.390625 -1.796875 C 37.660156 0.242188 33.40625 1.265625 28.625 1.265625 C 23.976562 1.265625 19.859375 0.28125 16.265625 -1.6875 C 12.671875 -3.65625 9.832031 -6.398438 7.75 -9.921875 C 5.675781 -13.441406 4.535156 -17.523438 4.328125 -22.171875 L 19.4375 -22.171875 C 19.570312 -19.359375 20.46875 -17.085938 22.125 -15.359375 C 23.78125 -13.640625 25.945312 -12.78125 28.625 -12.78125 C 31.4375 -12.78125 33.757812 -13.726562 35.59375 -15.625 C 37.425781 -17.53125 38.34375 -19.992188 38.34375 -23.015625 C 38.34375 -26.046875 37.351562 -28.421875 35.375 -30.140625 C 33.40625 -31.867188 30.800781 -32.734375 27.5625 -32.734375 L 17.421875 -32.734375 L 17.421875 -35.59375 L 30.203125 -56.71875 L 6.015625 -56.71875 L 6.015625 -70.234375 L 50.90625 -70.234375 L 50.90625 -67.375 Z M 36.328125 -44.25 "/></g></g></g><path stroke-linecap="butt" transform="matrix(0.74999, 0.00380467, -0.00380467, 0.74999, 209.872392, 390.974765)" fill="none" stroke-linejoin="miter" d="M 0.00116103 16.997402 L 335.239889 16.999898 " stroke="#000000" stroke-width="34" stroke-opacity="1" stroke-miterlimit="4"/><g clip-path="url(#a17b780958)"><path fill="#000000" d="M 245.015625 403.800781 C 245.015625 404.460938 244.984375 405.125 244.917969 405.785156 C 244.855469 406.445312 244.757812 407.101562 244.628906 407.75 C 244.5 408.402344 244.335938 409.042969 244.144531 409.679688 C 243.953125 410.3125 243.730469 410.9375 243.476562 411.550781 C 243.222656 412.164062 242.9375 412.761719 242.625 413.347656 C 242.3125 413.929688 241.972656 414.5 241.605469 415.050781 C 241.234375 415.601562 240.839844 416.132812 240.421875 416.648438 C 240 417.160156 239.554688 417.652344 239.085938 418.121094 C 238.617188 418.589844 238.125 419.035156 237.613281 419.453125 C 237.101562 419.875 236.566406 420.269531 236.015625 420.636719 C 235.464844 421.007812 234.894531 421.347656 234.3125 421.660156 C 233.726562 421.972656 233.128906 422.257812 232.515625 422.511719 C 231.902344 422.765625 231.277344 422.988281 230.644531 423.179688 C 230.007812 423.371094 229.367188 423.535156 228.714844 423.664062 C 228.066406 423.792969 227.410156 423.890625 226.75 423.953125 C 226.089844 424.019531 225.429688 424.050781 224.765625 424.050781 C 224.101562 424.050781 223.441406 424.019531 222.78125 423.953125 C 222.121094 423.890625 221.464844 423.792969 220.8125 423.664062 C 220.164062 423.535156 219.519531 423.371094 218.886719 423.179688 C 218.25 422.988281 217.628906 422.765625 217.015625 422.511719 C 216.402344 422.257812 215.800781 421.972656 215.21875 421.660156 C 214.632812 421.347656 214.0625 421.007812 213.511719 420.636719 C 212.960938 420.269531 212.429688 419.875 211.917969 419.453125 C 211.402344 419.035156 210.914062 418.589844 210.445312 418.121094 C 209.976562 417.652344 209.53125 417.160156 209.109375 416.648438 C 208.6875 416.132812 208.292969 415.601562 207.925781 415.050781 C 207.554688 414.5 207.214844 413.929688 206.902344 413.347656 C 206.589844 412.761719 206.308594 412.164062 206.054688 411.550781 C 205.800781 410.9375 205.578125 410.3125 205.382812 409.679688 C 205.191406 409.042969 205.03125 408.402344 204.902344 407.75 C 204.773438 407.101562 204.675781 406.445312 204.609375 405.785156 C 204.542969 405.125 204.511719 404.460938 204.511719 403.800781 C 204.511719 403.136719 204.542969 402.472656 204.609375 401.8125 C 204.675781 401.152344 204.773438 400.5 204.902344 399.847656 C 205.03125 399.199219 205.191406 398.554688 205.382812 397.921875 C 205.578125 397.285156 205.800781 396.660156 206.054688 396.050781 C 206.308594 395.4375 206.589844 394.835938 206.902344 394.253906 C 207.214844 393.667969 207.554688 393.097656 207.925781 392.546875 C 208.292969 391.996094 208.6875 391.464844 209.109375 390.953125 C 209.53125 390.4375 209.976562 389.949219 210.445312 389.480469 C 210.914062 389.007812 211.402344 388.566406 211.917969 388.144531 C 212.429688 387.722656 212.960938 387.328125 213.511719 386.960938 C 214.0625 386.589844 214.632812 386.25 215.21875 385.9375 C 215.800781 385.625 216.402344 385.34375 217.015625 385.089844 C 217.628906 384.835938 218.25 384.609375 218.886719 384.417969 C 219.519531 384.226562 220.164062 384.066406 220.8125 383.9375 C 221.464844 383.804688 222.121094 383.710938 222.78125 383.644531 C 223.441406 383.578125 224.101562 383.546875 224.765625 383.546875 C 225.429688 383.546875 226.089844 383.578125 226.75 383.644531 C 227.410156 383.710938 228.066406 383.804688 228.714844 383.9375 C 229.367188 384.066406 230.007812 384.226562 230.644531 384.417969 C 231.277344 384.609375 231.902344 384.835938 232.515625 385.089844 C 233.128906 385.34375 233.726562 385.625 234.3125 385.9375 C 234.894531 386.25 235.464844 386.589844 236.015625 386.960938 C 236.566406 387.328125 237.101562 387.722656 237.613281 388.144531 C 238.125 388.566406 238.617188 389.007812 239.085938 389.480469 C 239.554688 389.949219 240 390.4375 240.421875 390.953125 C 240.839844 391.464844 241.234375 391.996094 241.605469 392.546875 C 241.972656 393.097656 242.3125 393.667969 242.625 394.253906 C 242.9375 394.835938 243.222656 395.4375 243.476562 396.050781 C 243.730469 396.660156 243.953125 397.285156 244.144531 397.921875 C 244.335938 398.554688 244.5 399.199219 244.628906 399.847656 C 244.757812 400.5 244.855469 401.152344 244.917969 401.8125 C 244.984375 402.472656 245.015625 403.136719 245.015625 403.800781 Z M 245.015625 403.800781 " fill-opacity="1" fill-rule="nonzero"/></g><g fill="#000000" fill-opacity="1"><g transform="translate(84.451641, 519.272346)"><g><path d="M 24.5 -14.890625 L 53.96875 -14.890625 L 53.96875 0 L 8.453125 0 L 8.453125 -73.921875 L 52.8125 -73.921875 L 52.8125 -59.140625 L 24.5 -59.140625 L 24.5 -44.5625 L 50.0625 -44.5625 L 50.0625 -30.09375 L 24.5 -30.09375 Z M 24.5 -14.890625 "/></g></g></g><g fill="#000000" fill-opacity="1"><g transform="translate(143.487234, 519.272346)"><g><path d="M 55.765625 -26.609375 L 55.765625 -13.515625 L 49.640625 -13.515625 L 49.640625 0 L 35.484375 0 L 35.484375 -13.515625 L 1.796875 -13.515625 L 1.796875 -16.15625 L 24.921875 -70.234375 L 39.8125 -70.234375 L 21.125 -26.609375 L 35.90625 -26.609375 L 38.34375 -43.40625 L 49.640625 -43.40625 L 49.640625 -26.609375 Z M 55.765625 -26.609375 "/></g></g></g><path stroke-linecap="butt" transform="matrix(0.75, 0.00000000000000029, -0.00000000000000029, 0.75, 209.807691, 477.647348)" fill="none" stroke-linejoin="miter" d="M 0.00120384 17.001454 L 293.954344 17.001454 " stroke="#000000" stroke-width="34" stroke-opacity="1" stroke-miterlimit="4"/><g clip-path="url(#857af3ec6d)"><path fill="#000000" d="M 245.015625 490.472656 C 245.015625 491.136719 244.984375 491.796875 244.917969 492.457031 C 244.855469 493.117188 244.757812 493.773438 244.628906 494.421875 C 244.5 495.074219 244.335938 495.714844 244.144531 496.351562 C 243.953125 496.984375 243.730469 497.609375 243.476562 498.222656 C 243.222656 498.835938 242.9375 499.433594 242.625 500.019531 C 242.3125 500.605469 241.972656 501.171875 241.605469 501.722656 C 241.234375 502.273438 240.839844 502.808594 240.421875 503.320312 C 240 503.832031 239.554688 504.324219 239.085938 504.792969 C 238.617188 505.261719 238.125 505.707031 237.613281 506.128906 C 237.101562 506.546875 236.566406 506.941406 236.015625 507.3125 C 235.464844 507.679688 234.894531 508.019531 234.3125 508.332031 C 233.726562 508.644531 233.128906 508.929688 232.515625 509.183594 C 231.902344 509.4375 231.277344 509.660156 230.644531 509.851562 C 230.007812 510.046875 229.367188 510.207031 228.714844 510.335938 C 228.066406 510.464844 227.410156 510.5625 226.75 510.628906 C 226.089844 510.691406 225.429688 510.726562 224.765625 510.726562 C 224.101562 510.726562 223.441406 510.691406 222.78125 510.628906 C 222.121094 510.5625 221.464844 510.464844 220.8125 510.335938 C 220.164062 510.207031 219.519531 510.046875 218.886719 509.851562 C 218.25 509.660156 217.628906 509.4375 217.015625 509.183594 C 216.402344 508.929688 215.800781 508.644531 215.21875 508.332031 C 214.632812 508.019531 214.0625 507.679688 213.511719 507.3125 C 212.960938 506.941406 212.429688 506.546875 211.917969 506.128906 C 211.402344 505.707031 210.914062 505.261719 210.445312 504.792969 C 209.976562 504.324219 209.53125 503.832031 209.109375 503.320312 C 208.6875 502.808594 208.292969 502.273438 207.925781 501.722656 C 207.554688 501.171875 207.214844 500.605469 206.902344 500.019531 C 206.589844 499.433594 206.308594 498.835938 206.054688 498.222656 C 205.800781 497.609375 205.578125 496.984375 205.382812 496.351562 C 205.191406 495.714844 205.03125 495.074219 204.902344 494.421875 C 204.773438 493.773438 204.675781 493.117188 204.609375 492.457031 C 204.542969 491.796875 204.511719 491.136719 204.511719 490.472656 C 204.511719 489.808594 204.542969 489.148438 204.609375 488.488281 C 204.675781 487.828125 204.773438 487.171875 204.902344 486.519531 C 205.03125 485.871094 205.191406 485.226562 205.382812 484.59375 C 205.578125 483.957031 205.800781 483.335938 206.054688 482.722656 C 206.308594 482.109375 206.589844 481.511719 206.902344 480.925781 C 207.214844 480.339844 207.554688 479.773438 207.925781 479.21875 C 208.292969 478.667969 208.6875 478.136719 209.109375 477.625 C 209.53125 477.109375 209.976562 476.621094 210.445312 476.152344 C 210.914062 475.683594 211.402344 475.238281 211.917969 474.816406 C 212.429688 474.394531 212.960938 474 213.511719 473.632812 C 214.0625 473.265625 214.632812 472.921875 215.21875 472.609375 C 215.800781 472.296875 216.402344 472.015625 217.015625 471.761719 C 217.628906 471.507812 218.25 471.285156 218.886719 471.089844 C 219.519531 470.898438 220.164062 470.738281 220.8125 470.609375 C 221.464844 470.480469 222.121094 470.382812 222.78125 470.316406 C 223.441406 470.253906 224.101562 470.21875 224.765625 470.21875 C 225.429688 470.21875 226.089844 470.253906 226.75 470.316406 C 227.410156 470.382812 228.066406 470.480469 228.714844 470.609375 C 229.367188 470.738281 230.007812 470.898438 230.644531 471.089844 C 231.277344 471.285156 231.902344 471.507812 232.515625 471.761719 C 233.128906 472.015625 233.726562 472.296875 234.3125 472.609375 C 234.894531 472.921875 235.464844 473.265625 236.015625 473.632812 C 236.566406 474 237.101562 474.394531 237.613281 474.816406 C 238.125 475.238281 238.617188 475.683594 239.085938 476.152344 C 239.554688 476.621094 240 477.109375 240.421875 477.625 C 240.839844 478.136719 241.234375 478.667969 241.605469 479.21875 C 241.972656 479.773438 242.3125 480.339844 242.625 480.925781 C 242.9375 481.511719 243.222656 482.109375 243.476562 482.722656 C 243.730469 483.335938 243.953125 483.957031 244.144531 484.59375 C 244.335938 485.226562 244.5 485.871094 244.628906 486.519531 C 244.757812 487.171875 244.855469 487.828125 244.917969 488.488281 C 244.984375 489.148438 245.015625 489.808594 245.015625 490.472656 Z M 245.015625 490.472656 " fill-opacity="1" fill-rule="nonzero"/></g><g fill="#000000" fill-opacity="1"><g transform="translate(85.084454, 605.94515)"><g><path d="M 24.5 -14.890625 L 53.96875 -14.890625 L 53.96875 0 L 8.453125 0 L 8.453125 -73.921875 L 52.8125 -73.921875 L 52.8125 -59.140625 L 24.5 -59.140625 L 24.5 -44.5625 L 50.0625 -44.5625 L 50.0625 -30.09375 L 24.5 -30.09375 Z M 24.5 -14.890625 "/></g></g></g><g fill="#000000" fill-opacity="1"><g transform="translate(144.120046, 605.94515)"><g><path d="M 28.296875 -45.734375 C 33.234375 -45.734375 37.582031 -44.726562 41.34375 -42.71875 C 45.113281 -40.707031 48.070312 -37.957031 50.21875 -34.46875 C 52.363281 -30.988281 53.4375 -27.03125 53.4375 -22.59375 C 53.4375 -18.09375 52.34375 -14.03125 50.15625 -10.40625 C 47.976562 -6.78125 45.039062 -3.925781 41.34375 -1.84375 C 37.644531 0.226562 33.472656 1.265625 28.828125 1.265625 C 24.109375 1.265625 19.882812 0.265625 16.15625 -1.734375 C 12.425781 -3.742188 9.503906 -6.507812 7.390625 -10.03125 C 5.273438 -13.550781 4.1875 -17.566406 4.125 -22.078125 L 19.4375 -22.078125 C 19.4375 -19.398438 20.316406 -17.179688 22.078125 -15.421875 C 23.835938 -13.660156 26.085938 -12.78125 28.828125 -12.78125 C 31.503906 -12.78125 33.738281 -13.710938 35.53125 -15.578125 C 37.332031 -17.441406 38.234375 -19.78125 38.234375 -22.59375 C 38.234375 -25.625 37.265625 -28.085938 35.328125 -29.984375 C 33.390625 -31.890625 30.875 -32.84375 27.78125 -32.84375 L 8.03125 -32.84375 L 6.65625 -34.75 L 10.5625 -70.234375 L 48.578125 -70.234375 L 48.578125 -56.71875 L 22.5 -56.71875 L 21.234375 -45.734375 Z M 28.296875 -45.734375 "/></g></g></g><path stroke-linecap="butt" transform="matrix(0.75, 0.00000000000000075, -0.00000000000000075, 0.75, 209.807691, 564.320152)" fill="none" stroke-linejoin="miter" d="M 0.00120384 17.000215 L 227.522049 17.000215 " stroke="#000000" stroke-width="34" stroke-opacity="1" stroke-miterlimit="4"/><g clip-path="url(#e3e692dc3e)"><path fill="#000000" d="M 245.015625 577.144531 C 245.015625 577.808594 244.984375 578.46875 244.917969 579.128906 C 244.855469 579.789062 244.757812 580.445312 244.628906 581.097656 C 244.5 581.746094 244.335938 582.390625 244.144531 583.023438 C 243.953125 583.660156 243.730469 584.28125 243.476562 584.894531 C 243.222656 585.507812 242.9375 586.105469 242.625 586.691406 C 242.3125 587.277344 241.972656 587.84375 241.605469 588.394531 C 241.234375 588.949219 240.839844 589.480469 240.421875 589.992188 C 240 590.503906 239.554688 590.996094 239.085938 591.464844 C 238.617188 591.933594 238.125 592.378906 237.613281 592.800781 C 237.101562 593.222656 236.566406 593.617188 236.015625 593.984375 C 235.464844 594.351562 234.894531 594.691406 234.3125 595.003906 C 233.726562 595.320312 233.128906 595.601562 232.515625 595.855469 C 231.902344 596.109375 231.277344 596.332031 230.644531 596.523438 C 230.007812 596.71875 229.367188 596.878906 228.714844 597.007812 C 228.066406 597.136719 227.410156 597.234375 226.75 597.300781 C 226.089844 597.363281 225.429688 597.398438 224.765625 597.398438 C 224.101562 597.398438 223.441406 597.363281 222.78125 597.300781 C 222.121094 597.234375 221.464844 597.136719 220.8125 597.007812 C 220.164062 596.878906 219.519531 596.71875 218.886719 596.523438 C 218.25 596.332031 217.628906 596.109375 217.015625 595.855469 C 216.402344 595.601562 215.800781 595.320312 215.21875 595.003906 C 214.632812 594.691406 214.0625 594.351562 213.511719 593.984375 C 212.960938 593.617188 212.429688 593.222656 211.917969 592.800781 C 211.402344 592.378906 210.914062 591.933594 210.445312 591.464844 C 209.976562 590.996094 209.53125 590.503906 209.109375 589.992188 C 208.6875 589.480469 208.292969 588.949219 207.925781 588.394531 C 207.554688 587.84375 207.214844 587.277344 206.902344 586.691406 C 206.589844 586.105469 206.308594 585.507812 206.054688 584.894531 C 205.800781 584.28125 205.578125 583.660156 205.382812 583.023438 C 205.191406 582.390625 205.03125 581.746094 204.902344 581.097656 C 204.773438 580.445312 204.675781 579.789062 204.609375 579.128906 C 204.542969 578.46875 204.511719 577.808594 204.511719 577.144531 C 204.511719 576.480469 204.542969 575.820312 204.609375 575.160156 C 204.675781 574.5 204.773438 573.84375 204.902344 573.195312 C 205.03125 572.542969 205.191406 571.902344 205.382812 571.265625 C 205.578125 570.632812 205.800781 570.007812 206.054688 569.394531 C 206.308594 568.78125 206.589844 568.183594 206.902344 567.597656 C 207.214844 567.011719 207.554688 566.445312 207.925781 565.894531 C 208.292969 565.339844 208.6875 564.808594 209.109375 564.296875 C 209.53125 563.785156 209.976562 563.292969 210.445312 562.824219 C 210.914062 562.355469 211.402344 561.910156 211.917969 561.488281 C 212.429688 561.070312 212.960938 560.671875 213.511719 560.304688 C 214.0625 559.9375 214.632812 559.597656 215.21875 559.285156 C 215.800781 558.972656 216.402344 558.6875 217.015625 558.433594 C 217.628906 558.179688 218.25 557.957031 218.886719 557.765625 C 219.519531 557.570312 220.164062 557.410156 220.8125 557.28125 C 221.464844 557.152344 222.121094 557.054688 222.78125 556.988281 C 223.441406 556.925781 224.101562 556.890625 224.765625 556.890625 C 225.429688 556.890625 226.089844 556.925781 226.75 556.988281 C 227.410156 557.054688 228.066406 557.152344 228.714844 557.28125 C 229.367188 557.410156 230.007812 557.570312 230.644531 557.765625 C 231.277344 557.957031 231.902344 558.179688 232.515625 558.433594 C 233.128906 558.6875 233.726562 558.972656 234.3125 559.285156 C 234.894531 559.597656 235.464844 559.9375 236.015625 560.304688 C 236.566406 560.671875 237.101562 561.070312 237.613281 561.488281 C 238.125 561.910156 238.617188 562.355469 239.085938 562.824219 C 239.554688 563.292969 240 563.785156 240.421875 564.296875 C 240.839844 564.808594 241.234375 565.339844 241.605469 565.894531 C 241.972656 566.445312 242.3125 567.011719 242.625 567.597656 C 242.9375 568.183594 243.222656 568.78125 243.476562 569.394531 C 243.730469 570.007812 243.953125 570.632812 244.144531 571.265625 C 244.335938 571.902344 244.5 572.542969 244.628906 573.195312 C 244.757812 573.84375 244.855469 574.5 244.917969 575.160156 C 244.984375 575.820312 245.015625 576.480469 245.015625 577.144531 Z M 245.015625 577.144531 " fill-opacity="1" fill-rule="nonzero"/></g></svg>